<svg width="30" height="30" viewBox="0 0 30 30" fill="none" xmlns="http://www.w3.org/2000/svg">
<path d="M14.5834 10.2083C12.1663 10.2083 10.2083 12.167 10.2083 14.5833C10.2083 17.0002 12.1671 18.9583 14.5834 18.9583C17.0003 18.9583 18.9584 16.9996 18.9584 14.5833C18.9584 12.1664 16.9997 10.2083 14.5834 10.2083ZM14.5834 7.29167C18.6089 7.29167 21.875 10.5541 21.875 14.5833C21.875 18.6091 18.6126 21.875 14.5834 21.875C10.5576 21.875 7.29167 18.6126 7.29167 14.5833C7.29167 10.5576 10.5541 7.29167 14.5834 7.29167ZM24.0625 6.92584C24.0625 7.93225 23.2447 8.74879 22.2396 8.74879C21.2332 8.74879 20.4167 7.931 20.4167 6.92584C20.4167 5.92069 21.2344 5.10417 22.2396 5.10417C23.2434 5.1029 24.0625 5.92069 24.0625 6.92584ZM14.5834 2.91667C10.9747 2.91667 10.3865 2.92622 8.70813 3.00096C7.56462 3.05464 6.79809 3.20844 6.08589 3.48494C5.45297 3.7304 4.99641 4.02351 4.50995 4.50997C4.02163 4.99829 3.72905 5.45363 3.48457 6.08684C3.20743 6.80068 3.05368 7.56599 3.00096 8.70793C2.92549 10.318 2.91667 10.8807 2.91667 14.5833C2.91667 18.192 2.92622 18.7801 3.00094 20.4584C3.05465 21.6014 3.20865 22.3691 3.48448 23.0796C3.73059 23.7134 4.0243 24.171 4.50841 24.6552C4.99866 25.1447 5.45535 25.4383 6.08255 25.6804C6.80343 25.9591 7.56948 26.1131 8.70791 26.1657C10.318 26.2411 10.8807 26.25 14.5834 26.25C18.192 26.25 18.7802 26.2404 20.4584 26.1657C21.599 26.1122 22.3672 25.9578 23.0796 25.6821C23.7117 25.4367 24.1707 25.142 24.6552 24.6582C25.1455 24.1672 25.4385 23.7116 25.6808 23.0829C25.9588 22.3647 26.1131 21.5976 26.1657 20.4588C26.2411 18.8487 26.25 18.2859 26.25 14.5833C26.25 10.9747 26.2404 10.3866 26.1657 8.70825C26.1121 7.56738 25.9576 6.79801 25.6817 6.08589C25.4369 5.45472 25.1427 4.99676 24.6567 4.50997C24.1675 4.02084 23.7134 3.72886 23.0798 3.48457C22.3665 3.20766 21.6 3.05369 20.4587 3.00097C18.8487 2.92549 18.2859 2.91667 14.5834 2.91667ZM14.5834 0C18.5451 0 19.0397 0.0145832 20.5953 0.0874999C22.1472 0.159206 23.2058 0.404688 24.1354 0.765625C25.0966 1.13629 25.9085 1.63698 26.719 2.44756C27.5284 3.25816 28.0292 4.0724 28.4011 5.03125C28.7607 5.95973 29.0063 7.01944 29.0792 8.57135C29.1485 10.1269 29.1667 10.6215 29.1667 14.5833C29.1667 18.5452 29.1521 19.0397 29.0792 20.5953C29.0074 22.1473 28.7607 23.2057 28.4011 24.1354C28.0304 25.0968 27.5284 25.9085 26.719 26.7191C25.9085 27.5285 25.093 28.0292 24.1354 28.401C23.2058 28.7608 22.1472 29.0063 20.5953 29.0792C19.0397 29.1484 18.5451 29.1667 14.5834 29.1667C10.6215 29.1667 10.1269 29.1521 8.57135 29.0792C7.01944 29.0074 5.96215 28.7608 5.03125 28.401C4.07117 28.0303 3.25815 27.5285 2.44756 26.7191C1.63698 25.9085 1.1375 25.0931 0.765625 24.1354C0.404688 23.2057 0.160417 22.1473 0.0875003 20.5953C0.0182294 19.0397 0 18.5452 0 14.5833C0 10.6215 0.0145836 10.1269 0.0875003 8.57135C0.159192 7.01823 0.404688 5.96094 0.765625 5.03125C1.13628 4.07119 1.63698 3.25816 2.44756 2.44756C3.25815 1.63698 4.0724 1.1375 5.03125 0.765625C5.96094 0.404688 7.01823 0.160417 8.57135 0.0874999C10.1269 0.0182291 10.6215 0 14.5834 0Z" fill="black"/>
</svg>
