<svg width="35" height="35" viewBox="0 0 35 35" fill="none" xmlns="http://www.w3.org/2000/svg">
<path d="M10.5783 26.9713L11.6352 27.5876C13.4009 28.6172 15.4076 29.167 17.5016 29.167C23.9449 29.167 29.1682 23.9437 29.1682 17.5003C29.1682 11.057 23.9449 5.83366 17.5016 5.83366C11.0582 5.83366 5.83488 11.057 5.83488 17.5003C5.83488 19.5949 6.38501 21.6023 7.41525 23.3684L8.03122 24.4242L7.07821 27.9265L10.5783 26.9713ZM2.92431 32.0837L4.89592 24.8379C3.63857 22.6827 2.91821 20.1756 2.91821 17.5003C2.91821 9.44617 9.44739 2.91699 17.5016 2.91699C25.5557 2.91699 32.0849 9.44617 32.0849 17.5003C32.0849 25.5544 25.5557 32.0837 17.5016 32.0837C14.8271 32.0837 12.3209 31.3638 10.166 30.1072L2.92431 32.0837ZM12.2389 10.6583C12.4342 10.6446 12.6301 10.6425 12.8256 10.652C12.9045 10.6572 12.9831 10.6663 13.0618 10.6754C13.2941 10.7022 13.5495 10.8437 13.6353 11.0384C14.0704 12.0248 14.4925 13.0169 14.9017 14.0144C14.9919 14.2346 14.9375 14.52 14.7657 14.7961C14.6785 14.9377 14.5416 15.1364 14.3829 15.3395C14.218 15.5505 13.863 15.9386 13.863 15.9386C13.863 15.9386 13.7192 16.111 13.7734 16.3255C13.7945 16.4066 13.8619 16.5247 13.9229 16.624C13.9568 16.679 13.9882 16.7281 14.0085 16.7621C14.3817 17.3853 14.8834 18.017 15.4962 18.611C15.6718 18.7812 15.8421 18.9549 16.0253 19.1162C16.7082 19.7183 17.4809 20.2103 18.3153 20.5748L18.3228 20.5781C18.446 20.6312 18.5093 20.6602 18.6897 20.7368C18.7807 20.7753 18.8737 20.8086 18.9692 20.8338C19.0038 20.8428 19.0392 20.8479 19.0748 20.8504C19.3106 20.8646 19.447 20.7133 19.5052 20.6438C20.5603 19.3655 20.6568 19.2821 20.6641 19.2827V19.285C20.8028 19.1389 21.0208 19.0882 21.2154 19.1001C21.3042 19.1055 21.3926 19.1226 21.4733 19.1595C22.2489 19.5133 23.5169 20.0651 23.5169 20.0651L24.3649 20.4463C24.507 20.5148 24.6366 20.6763 24.6429 20.8332C24.6467 20.9308 24.6572 21.0883 24.6223 21.3764C24.5767 21.7537 24.4619 22.208 24.3479 22.446C24.2677 22.613 24.1638 22.7611 24.0431 22.8865C23.8793 23.0566 23.7577 23.1598 23.5608 23.3065C23.4409 23.3958 23.3788 23.4378 23.3788 23.4378C23.1762 23.5655 23.0621 23.6294 22.8207 23.7579C22.4453 23.9578 22.0306 24.0727 21.6058 24.0946C21.3349 24.1085 21.0649 24.128 20.7943 24.1134C20.7824 24.1127 19.9657 23.9873 19.9657 23.9873C17.8921 23.4419 15.9744 22.4202 14.3652 21.0032C14.0362 20.7136 13.7311 20.4002 13.4196 20.0902C12.1231 18.7994 11.1415 17.4076 10.5463 16.091C10.2528 15.4417 10.067 14.7464 10.064 14.0309C10.0587 13.1458 10.3484 12.2842 10.8876 11.5822C10.9939 11.4438 11.0947 11.3003 11.2688 11.136C11.4531 10.9619 11.5704 10.8685 11.6968 10.8038C11.8652 10.7176 12.0502 10.6716 12.2389 10.6583Z" fill="black"/>
</svg>
