<svg width="635" height="831" viewBox="0 0 635 831" fill="none" xmlns="http://www.w3.org/2000/svg">
<path d="M94.5044 66.6494V66.6622C94.5058 66.6569 94.5073 66.6516 94.5088 66.6463C94.5073 66.6473 94.5058 66.6484 94.5044 66.6494ZM94.5044 66.6494C94.3776 66.7402 94.2533 66.8293 94.132 66.9166C94.1477 66.8594 94.1635 66.8022 94.1793 66.745C94.2846 66.6714 94.3927 66.5977 94.5044 66.524V66.6494ZM265.788 55.2402H265.73C265.808 38.3711 265.892 21.5024 265.982 4.63415H266.27C266.181 21.4802 266.097 38.3268 266.019 55.1737L265.788 55.2402ZM258.888 57.493C258.792 57.5198 258.696 57.5436 258.599 57.5637C258.809 42.3323 259.034 27.1008 259.273 11.8693C259.371 11.8559 259.467 11.8454 259.561 11.8384C259.323 27.0566 259.098 42.2748 258.888 57.493ZM251.803 53.6819C251.727 53.6479 251.65 53.6139 251.574 53.5803C251.635 50.9563 251.697 48.3323 251.759 45.7083C251.863 45.6599 251.96 45.6098 252.051 45.5586C251.986 48.2747 251.922 50.9908 251.859 53.7069C251.84 53.6986 251.822 53.6903 251.803 53.6819ZM244.939 49.0854H244.65C244.662 48.7366 244.673 48.3878 244.685 48.0389C244.787 48.0052 244.884 47.9627 244.978 47.9135C244.965 48.3041 244.952 48.6948 244.939 49.0854ZM244.981 39.2417C244.911 41.3022 244.841 43.3626 244.772 45.423C244.874 45.3971 244.971 45.3653 245.064 45.3282C245.135 43.2151 245.206 41.102 245.278 38.9889C245.181 39.0749 245.082 39.1591 244.981 39.2417ZM245.369 28.0404C245.344 28.7442 245.319 29.4479 245.295 30.1516C245.347 30.1646 245.396 30.1724 245.445 30.1747C245.49 30.1769 245.535 30.1745 245.583 30.1675C245.609 29.3986 245.636 28.6297 245.663 27.8608C245.558 27.9133 245.459 27.9728 245.369 28.0404ZM245.496 24.4383C245.481 24.8465 245.467 25.2548 245.453 25.663H245.741C245.758 25.1943 245.774 24.7256 245.791 24.2569C245.692 24.3162 245.593 24.3765 245.496 24.4383ZM252.51 15.5227C252.504 15.7619 252.498 16.0011 252.492 16.2403C252.595 16.1661 252.693 16.0985 252.785 16.0369C252.795 15.6447 252.805 15.2525 252.816 14.8603L252.761 14.8921L252.613 15.405C252.578 15.4444 252.544 15.4836 252.51 15.5227ZM252.448 17.9291C252.544 17.8886 252.641 17.8517 252.739 17.8176C252.644 21.5156 252.55 25.2135 252.458 28.9114H252.169C252.261 25.2506 252.354 21.5898 252.448 17.9291ZM252.404 31.0755C252.414 30.6485 252.425 30.2215 252.436 29.7945C252.322 29.8457 252.226 29.8898 252.144 29.9281C252.137 30.2203 252.129 30.5124 252.122 30.8046L252.404 31.0755ZM252.108 31.3944C252.202 31.3386 252.3 31.2706 252.401 31.1875C252.307 34.9901 252.214 38.7927 252.122 42.5953C252.023 42.5752 251.927 42.5557 251.835 42.5367C251.925 38.8226 252.015 35.1085 252.108 31.3944ZM272.567 2.41115C272.679 23.2868 272.782 44.1631 272.875 65.0399C272.976 65.1684 273.073 65.3024 273.165 65.4436C273.071 44.4302 272.968 23.4174 272.855 2.40528C272.771 2.40901 272.679 2.41053 272.567 2.41115ZM273.413 561.814H273.701C273.676 572.562 273.649 583.31 273.619 594.058L273.332 593.6C273.361 583.005 273.388 572.41 273.413 561.814ZM279.131 2.06965C279.492 24.4756 279.821 46.8816 280.12 69.2874C280.216 69.3488 280.313 69.4091 280.41 69.4679C280.111 47.0019 279.781 24.5358 279.42 2.06965H279.131ZM281.688 560.342C281.786 560.305 281.882 560.268 281.976 560.232C281.879 574.283 281.77 588.333 281.648 602.383C281.554 602.245 281.459 602.105 281.363 601.962C281.483 588.089 281.591 574.216 281.688 560.342ZM285.506 0.530952C286.129 23.6685 286.698 46.806 287.211 69.9433H287.499C286.986 46.806 286.418 23.6685 285.794 0.530952H285.506ZM289.918 550.668C290.017 550.6 290.114 550.534 290.208 550.47C289.981 571.325 289.709 592.179 289.392 613.033C289.307 612.818 289.214 612.602 289.113 612.383C289.425 591.812 289.694 571.24 289.918 550.668ZM294.572 74.4849C294.665 77.5191 294.757 80.5533 294.847 83.5874C294.953 83.6767 295.051 83.7609 295.143 83.8413C294.317 56.071 293.378 28.3009 292.328 0.530952H292.04C292.965 24.9938 293.803 49.4568 294.555 73.9199L294.656 74.3885C294.628 74.4211 294.6 74.4532 294.572 74.4849ZM298.801 1.89868H298.918C300.489 34.2639 301.865 66.6292 303.046 98.9949C302.945 98.8127 302.842 98.6308 302.737 98.4491C302.628 95.4409 302.516 92.4328 302.403 89.4247C302.531 89.073 302.571 88.6847 302.362 88.3506C301.27 59.4629 300.023 30.5756 298.619 1.68831L298.801 1.89868ZM305.167 0.872884L305.068 0.856452C305.062 0.760558 305.056 0.664663 305.051 0.568769L305.341 0.602348C305.35 0.749516 305.359 0.896683 305.367 1.04385C305.368 1.05898 305.369 1.0741 305.37 1.08923C307.447 36.1752 309.244 71.2592 310.761 106.342C310.675 106.378 310.58 106.412 310.477 106.442C308.958 71.3138 307.159 36.1836 305.079 1.05155C305.079 1.04898 305.079 1.04642 305.079 1.04385C305.077 1.0224 305.076 1.00095 305.075 0.979505L305.167 0.872884ZM305.048 0.530952L305.049 0.535195L305.34 0.577241C305.339 0.561811 305.338 0.546381 305.337 0.530952H305.048ZM305.038 0.359985C305.039 0.370827 305.039 0.381669 305.04 0.392511L305.332 0.448735C305.33 0.419152 305.329 0.389569 305.327 0.359985L305.038 0.359985ZM311.549 0.799175C311.645 0.80695 311.742 0.814269 311.84 0.821255C311.869 1.23739 311.898 1.65352 311.928 2.06965H311.639C311.609 1.64616 311.579 1.22267 311.549 0.799175ZM318.058 1.23782C318.156 1.25188 318.253 1.26589 318.351 1.27975C318.355 1.33097 318.359 1.38219 318.364 1.43341C318.267 1.4211 318.17 1.40979 318.071 1.39876C318.067 1.34511 318.063 1.29147 318.058 1.23782ZM324.854 1.89868C324.879 2.173 324.905 2.44731 324.93 2.72162C324.833 2.70781 324.735 2.69399 324.637 2.68018C324.612 2.41968 324.588 2.15918 324.564 1.89868H324.854ZM330.927 2.81053L331.223 2.86753C331.233 2.97169 331.244 3.07585 331.255 3.18001L330.958 3.11772C330.948 3.01532 330.937 2.91293 330.927 2.81053ZM337.508 4.4778C337.543 4.78335 337.578 5.0889 337.613 5.39445C337.706 5.43854 337.808 5.48638 337.92 5.53855C337.882 5.20648 337.844 4.87442 337.806 4.54235L337.508 4.4778ZM337.377 3.34081C337.401 3.55068 337.425 3.76055 337.449 3.97042C337.55 3.99732 337.65 4.02432 337.749 4.05134C337.724 3.83176 337.699 3.61217 337.673 3.39259C337.574 3.37431 337.475 3.35698 337.377 3.34081ZM343.901 4.58777L344.201 4.65706C344.287 5.33162 344.372 6.00619 344.457 6.68075L344.153 6.58051C344.069 5.91627 343.986 5.25202 343.901 4.58777ZM350.563 5.87916C350.612 5.89185 350.661 5.90449 350.71 5.91703C350.719 5.98447 350.728 6.05191 350.738 6.11935L350.435 6.03988C350.426 5.97295 350.416 5.90602 350.407 5.8391C350.459 5.85248 350.511 5.86585 350.563 5.87916ZM350.817 6.69453C350.795 6.53578 350.773 6.37703 350.751 6.21828C350.65 6.19088 350.549 6.16261 350.448 6.13316C350.523 6.67485 350.597 7.21655 350.672 7.75825C350.763 7.78263 350.863 7.80973 350.975 7.83986C350.923 7.46074 350.871 7.08161 350.818 6.70249C350.8 6.69695 350.782 6.69137 350.764 6.68575L350.817 6.69453ZM357.13 8.22444L357.368 8.3162C357.43 8.73121 357.492 9.14621 357.554 9.56122L357.247 9.45975C357.184 9.04171 357.122 8.62367 357.059 8.20563L357.13 8.22444ZM357.946 12.2001C357.921 12.0325 357.897 11.8648 357.872 11.6971L357.559 11.5581C357.588 11.7531 357.617 11.948 357.645 12.143C357.758 12.1675 357.857 12.1863 357.946 12.2001ZM363.508 9.54017C363.556 9.83474 363.603 10.1293 363.651 10.4239L363.966 10.5641C363.918 10.2629 363.869 9.96165 363.821 9.66045L363.508 9.54017ZM363.337 8.47892C363.378 8.73078 363.419 8.98264 363.459 9.2345L363.495 9.25024L363.772 9.35666C363.728 9.08349 363.684 8.81032 363.64 8.53715L363.337 8.47892ZM369.861 10.276L370.033 10.3342C370.105 10.7519 370.177 11.1696 370.249 11.5874L369.936 11.473C369.867 11.074 369.798 10.675 369.729 10.276H369.861ZM370.518 13.1426C370.482 12.936 370.447 12.7295 370.411 12.523L370.1 12.4232C370.139 12.6525 370.179 12.8818 370.218 13.1112L370.518 13.1426ZM371.153 16.8512C371.068 16.351 370.982 15.8509 370.897 15.3507L370.583 15.2364C370.669 15.7391 370.755 16.2418 370.841 16.7445C370.943 16.7804 371.047 16.816 371.153 16.8512ZM377.097 16.6797C377.17 17.082 377.244 17.4843 377.318 17.8866L377.643 18.0557C377.565 17.6299 377.487 17.2042 377.409 16.7784C377.3 16.7416 377.196 16.7089 377.097 16.6797ZM376.763 14.8649C376.833 15.2427 376.902 15.6206 376.972 15.9985L377.115 16.0889L377.298 16.17C377.222 15.7564 377.146 15.3428 377.07 14.9292L376.763 14.8649ZM376.389 12.8354C376.406 12.9298 376.424 13.0242 376.441 13.1186L376.747 13.183C376.732 13.1006 376.717 13.0182 376.702 12.9358L376.389 12.8354ZM376.076 11.1505C376.092 11.2355 376.107 11.3205 376.123 11.4056C376.227 11.4479 376.335 11.5075 376.453 11.5914C376.431 11.4731 376.409 11.3549 376.387 11.2366L376.076 11.1505ZM382.838 14.3761C382.859 14.4838 382.88 14.5914 382.902 14.6991L383.224 14.8329C383.202 14.7235 383.18 14.6141 383.159 14.5047C383.051 14.4609 382.944 14.418 382.838 14.3761ZM382.512 12.729L382.827 12.8302C382.833 12.8617 382.84 12.8931 382.846 12.9245C382.848 12.9358 382.85 12.947 382.853 12.9583C382.881 13.1037 382.91 13.249 382.939 13.3944L382.623 13.2901C382.595 13.1493 382.567 13.0085 382.539 12.8678C382.538 12.86 382.536 12.8523 382.534 12.8446C382.527 12.806 382.519 12.7675 382.512 12.729ZM388.976 14.6538C388.98 14.6691 388.983 14.6844 388.986 14.6996L389.315 14.8514C389.308 14.8206 389.302 14.7898 389.295 14.7589L388.976 14.6538ZM395.448 16.5886C395.554 16.623 395.661 16.6581 395.77 16.6938C395.793 16.7964 395.816 16.8991 395.839 17.0017L395.515 16.8877C395.493 16.788 395.471 16.6883 395.448 16.5886ZM401.936 18.7786C402.049 18.8171 402.157 18.8541 402.261 18.8894C402.277 18.9577 402.293 19.0259 402.31 19.0941L401.984 18.9796C401.968 18.9126 401.952 18.8456 401.936 18.7786ZM408.366 20.9045L408.696 21.0258C408.711 21.0825 408.725 21.1392 408.739 21.1958L408.407 21.0681C408.393 21.0136 408.38 20.959 408.366 20.9045ZM408.779 21.3565C408.77 21.3214 408.761 21.2863 408.753 21.2512L408.415 21.1014C408.427 21.1474 408.438 21.1935 408.45 21.2395L408.779 21.3565ZM408.849 21.6372C408.839 21.5977 408.829 21.5582 408.819 21.5187L408.493 21.4109C408.501 21.4437 408.509 21.4766 408.517 21.5095L408.849 21.6372ZM414.977 24.4198L415.316 24.5619C415.337 24.644 415.359 24.7261 415.38 24.8082H415.31L415.411 24.925C415.427 24.9859 415.443 25.0468 415.459 25.1077L415.133 25.0136C415.081 24.8157 415.029 24.6177 414.977 24.4198ZM415.878 26.7093C415.794 26.3877 415.71 26.0661 415.626 25.7445L415.289 25.6053C415.375 25.9363 415.462 26.2672 415.548 26.5982L415.878 26.7093ZM422.958 32.3225C423.021 32.5555 423.085 32.7884 423.148 33.0214L423.488 33.1598C423.436 32.9708 423.385 32.7819 423.334 32.5929C423.181 32.4854 423.057 32.3967 422.958 32.3225ZM422.514 30.6983C422.553 30.8392 422.591 30.9801 422.63 31.1211L422.978 31.2905C422.937 31.1399 422.896 30.9893 422.855 30.8388L422.514 30.6983ZM423.748 35.0662L424.121 35.4963C424.497 36.8916 424.872 38.2869 425.244 39.6822C425.144 39.6272 425.04 39.5703 424.933 39.5113L424.896 39.5047C424.498 38.0148 424.097 36.5249 423.694 35.035L423.748 35.0662ZM429.343 34.5797C429.543 35.279 429.743 35.9783 429.942 36.6776L430.311 36.9089C430.107 36.1921 429.903 35.4752 429.698 34.7584C429.58 34.6989 429.462 34.6394 429.343 34.5797ZM427.629 28.6409C427.849 29.3955 428.068 30.1501 428.286 30.9047L428.644 31.0927C428.422 30.3251 428.2 29.5574 427.976 28.7898C427.861 28.7382 427.745 28.6883 427.629 28.6409ZM434.219 31.7776L434.579 31.9535C434.786 32.6343 434.993 33.3151 435.199 33.9959L434.844 33.8319C434.637 33.1471 434.428 32.4624 434.219 31.7776ZM440.897 35.1567L441.264 35.3429C441.415 35.8178 441.566 36.2926 441.717 36.7674C441.759 36.8997 441.801 37.032 441.843 37.1643C443.221 41.5071 444.573 45.8499 445.9 50.1928L445.587 50.1702C444.243 45.7741 442.874 41.3781 441.478 36.982C441.438 36.8551 441.398 36.7282 441.357 36.6013C441.204 36.1198 441.051 35.6382 440.897 35.1567ZM447.502 38.5671L447.875 38.7609C448.046 39.2733 448.216 39.7857 448.386 40.2981C448.412 40.3762 448.438 40.4542 448.464 40.5323C448.583 40.8914 448.702 41.2504 448.821 41.6095L448.619 41.5629L448.866 41.7439C450.261 45.9634 451.631 50.1828 452.976 54.4023L452.912 54.3854L452.598 54.1801C451.126 49.5664 449.624 44.9527 448.091 40.339C448.069 40.2706 448.046 40.2023 448.023 40.134C447.85 39.6117 447.676 39.0894 447.502 38.5671ZM454.245 42.4177L454.484 42.5728C454.633 43.0005 454.782 43.4282 454.93 43.8559L454.555 43.6704C454.396 43.2116 454.236 42.7528 454.077 42.2941L454.245 42.4177ZM455.832 46.4662C455.652 45.9452 455.473 45.4243 455.293 44.9033L454.905 44.6795C455.099 45.2419 455.294 45.8043 455.487 46.3668L455.832 46.4662ZM462.085 49.664L462.459 49.8369C463.247 52.0292 464.028 54.2216 464.801 56.414L464.419 56.2136C463.649 54.0304 462.871 51.8472 462.085 49.664ZM467.426 49.7821C467.464 49.8832 467.502 49.9843 467.541 50.0854L467.569 50.1112L467.964 50.3737C467.92 50.2569 467.876 50.14 467.831 50.0231L467.426 49.7821ZM474.094 53.5438C474.109 53.5818 474.124 53.6198 474.139 53.6578L474.559 53.9187C474.542 53.8765 474.525 53.8343 474.509 53.7921L474.094 53.5438ZM480.916 57.7547C480.93 57.7881 480.943 57.8216 480.957 57.8551L481.389 58.131C481.378 58.1031 481.367 58.0752 481.355 58.0473L480.916 57.7547ZM480.962 57.8672C481.11 57.9701 481.259 58.0734 481.408 58.1772C516.685 144.079 538.346 229.997 546.392 315.919L546.095 315.841C538.03 229.843 516.319 143.847 480.962 57.8672ZM488.047 62.9003C488.201 63.0124 488.356 63.1248 488.511 63.2375C525.799 150.849 548.189 238.461 555.682 326.073L555.388 326.022C547.878 238.316 525.431 150.608 488.047 62.9003ZM495.268 68.2105C495.429 68.3301 495.59 68.4497 495.75 68.5694C533.277 153.6 556.015 238.617 563.964 323.634L563.654 323.415C555.671 238.358 532.877 153.294 495.268 68.2105ZM502.375 73.5429C502.541 73.6688 502.708 73.7944 502.874 73.9199C541.035 157.21 564.219 240.487 572.422 323.764L572.086 323.295C563.825 240.055 540.589 156.809 502.375 73.5429ZM509.732 79.1199C509.904 79.2504 510.075 79.3803 510.245 79.5096C550.37 164.177 574.199 248.832 581.731 333.487L581.382 332.819C573.769 248.264 549.886 163.703 509.732 79.1199ZM517.451 85.3808C517.64 85.5395 517.828 85.6965 518.013 85.8519C568.003 187.952 593.002 290.059 593.002 392.171C593.002 402.082 592.766 411.993 592.295 421.903L591.993 422.178C592.473 412.176 592.713 402.173 592.713 392.171C592.713 289.913 567.628 187.651 517.451 85.3808ZM525.574 92.4438C525.782 92.634 525.989 92.8257 526.198 93.0191C576.506 192.746 601.663 292.456 601.663 392.172C601.663 399.457 601.529 406.743 601.26 414.028L600.962 414.278C601.237 406.909 601.375 399.54 601.375 392.172C601.375 292.277 576.11 192.376 525.574 92.4438ZM534.639 101.253C534.87 101.487 535.105 101.725 535.344 101.968C585.327 198.724 610.323 295.487 610.323 392.257C610.323 396.57 610.273 400.882 610.174 405.194L609.873 405.733C609.981 401.241 610.035 396.749 610.035 392.257C610.035 295.263 584.905 198.262 534.639 101.253ZM543.345 109.098C543.384 109.17 543.422 109.242 543.46 109.314C543.71 109.57 543.958 109.826 544.206 110.082C544.161 109.998 544.117 109.914 544.072 109.83C543.832 109.586 543.59 109.342 543.345 109.098ZM544.626 111.514C544.87 111.768 545.118 112.025 545.369 112.285C590.155 197.449 614.508 282.617 618.421 367.78L618.196 369.208C614.477 283.324 589.956 197.423 544.626 111.514ZM555.039 122.338C555.292 122.601 555.546 122.866 555.803 123.133C594.168 194.969 617.169 266.81 624.801 338.655L624.613 339.622C617.053 267.199 593.863 194.771 555.039 122.338ZM567.941 137.646L569.175 139.547C603.08 203.503 624.115 267.462 632.276 331.42L632.1 332.333C623.921 267.311 602.425 202.279 567.608 137.241L567.941 137.646ZM593.859 178.516L594.376 178.914C595.67 181.647 596.938 184.38 598.182 187.114L598.437 187.739L599.08 189.817C597.387 186.05 595.647 182.283 593.859 178.516ZM634 293.371C627.91 265.578 619.247 237.786 608.013 209.996L606.59 207.283C618.366 235.965 627.4 264.647 633.693 293.327C633.794 293.343 633.896 293.359 634 293.371ZM633.683 343.681C633.513 342.017 633.335 340.352 633.148 338.688L632.789 338.082C633.03 340.202 633.257 342.322 633.47 344.442L633.671 343.832L633.683 343.681ZM627.186 370.699L626.933 371.536C626.828 368.972 626.703 366.408 626.559 363.843L626.565 363.835L626.502 362.849C626.431 361.633 626.356 360.417 626.276 359.201L626.523 358.572C626.793 362.614 627.014 366.657 627.186 370.699ZM583.603 423.397L583.354 422.536C583.708 414.865 583.927 407.195 584.013 399.524L584.304 399.255C584.217 407.302 583.984 415.349 583.603 423.397ZM575.014 425.027L574.706 425.442C575.007 419.169 575.223 412.896 575.353 406.622L575.64 406.705C575.512 412.812 575.303 418.92 575.014 425.027ZM565.908 435.155C565.811 435.15 565.715 435.146 565.62 435.142C566.245 424.489 566.637 413.835 566.797 403.182L567.084 403.254C566.923 413.888 566.531 424.522 565.908 435.155ZM556.841 442.937L556.542 443.088C557.882 422.752 558.42 402.417 558.154 382.081L558.443 382.164C558.706 402.422 558.172 422.679 556.841 442.937ZM547.946 449.298C547.831 449.534 547.718 449.765 547.608 449.991C548.32 439.99 548.848 429.99 549.191 419.99L549.435 419.912L549.481 419.944C549.146 429.729 548.634 439.513 547.946 449.298ZM538.128 465.889L537.819 466.114C539.131 450.91 540.039 435.706 540.542 420.502L540.829 420.55C540.328 435.663 539.428 450.776 538.128 465.889ZM528.897 474.418C528.805 474.405 528.71 474.389 528.612 474.372C528.976 470.37 529.313 466.368 529.624 462.366L529.951 461.879C529.629 466.058 529.278 470.238 528.897 474.418ZM511.638 545.497C512.325 541.23 512.983 536.964 513.613 532.698C513.519 532.675 513.425 532.653 513.33 532.633C512.697 536.924 512.035 541.214 511.344 545.504C511.443 545.504 511.541 545.502 511.638 545.497ZM506.587 574.195C508.013 566.735 509.351 559.274 510.601 551.813C510.522 551.727 510.438 551.642 510.35 551.558C509.059 559.274 507.673 566.991 506.194 574.707C506.327 574.538 506.458 574.368 506.587 574.195ZM496.962 584.206C496.834 584.353 496.707 584.502 496.582 584.652C500.707 563.131 504.14 541.61 506.882 520.089C506.968 520.178 507.054 520.268 507.139 520.357C504.423 541.64 501.031 562.923 496.962 584.206ZM484.703 608.684C484.567 608.844 484.435 609.009 484.306 609.178C491.744 572.84 497.314 536.504 501.016 500.169C501.091 500.319 501.172 500.468 501.261 500.616C497.577 536.636 492.058 572.659 484.703 608.684ZM473.257 628.202C473.146 628.268 473.034 628.331 472.92 628.391C485.005 571.15 492.697 513.91 495.997 456.669C496.09 456.67 496.187 456.67 496.285 456.67C492.991 513.847 485.314 571.025 473.257 628.202ZM465.768 629.06C465.668 629.058 465.569 629.059 465.472 629.061C477.248 570.289 484.64 511.516 487.648 452.744C487.742 452.82 487.834 452.895 487.925 452.968C484.911 511.665 477.525 570.362 465.768 629.06ZM457.405 634.204C457.27 634.383 457.137 634.563 457.004 634.746C469.145 572.19 476.587 509.639 479.333 447.089C479.441 447.884 479.372 449 479.264 450.686C479.329 450.686 479.394 450.686 479.458 450.686C476.598 511.857 469.247 573.028 457.405 634.204ZM448.179 644.386C448.075 644.427 447.969 644.465 447.862 644.502C460.071 580.651 467.646 516.794 470.587 452.932C470.675 453.039 470.766 453.149 470.86 453.264C467.911 516.977 460.351 580.685 448.179 644.386ZM423.011 729.232C422.087 731.59 421.59 733.56 421.497 735.458C419.56 743.349 417.557 751.241 415.486 759.132C415.198 759.809 414.922 760.495 414.645 761.183C441.96 657.674 457.78 554.147 462.105 450.616C462.204 450.552 462.303 450.488 462.402 450.424C458.532 543.367 445.402 636.307 423.011 729.232ZM404.353 780.298C404.238 780.378 404.118 780.454 403.993 780.526C404.548 778.405 405.098 776.284 405.644 774.164L406.131 773.299H405.866C432.899 668.038 448.734 562.798 453.373 457.561C453.468 457.555 453.565 457.55 453.662 457.543C448.923 565.119 432.487 672.698 404.353 780.298ZM395.889 791.29C395.984 790.914 396.079 790.538 396.174 790.163C396.052 790.247 395.931 790.33 395.811 790.412C395.7 790.85 395.589 791.288 395.478 791.726C395.595 791.595 395.71 791.472 395.828 791.351C395.848 791.33 395.869 791.31 395.889 791.29ZM394.363 797.27C394.717 795.894 395.068 794.519 395.418 793.143C395.3 793.218 395.181 793.291 395.062 793.363C394.714 794.729 394.365 796.094 394.014 797.459C394.13 797.396 394.247 797.333 394.363 797.27ZM386.443 807.222C386.769 805.901 387.094 804.58 387.418 803.259C387.329 803.21 387.24 803.164 387.152 803.122C386.794 804.583 386.435 806.043 386.073 807.504C386.196 807.41 386.32 807.316 386.443 807.222ZM379.468 813.765C379.345 813.867 379.222 813.968 379.098 814.068C407.284 694.539 423.489 575.011 427.714 455.483C427.806 455.46 427.903 455.437 428.005 455.413C423.788 574.864 407.609 694.315 379.468 813.765ZM372.674 819.119L372.462 819.251C374.408 810.54 376.295 801.828 378.122 793.116C378.271 792.975 378.385 792.854 378.501 792.725C376.67 801.463 374.78 810.201 372.829 818.94L372.674 819.119ZM366.51 822.971L366.169 823.184C366.921 819.609 367.663 816.035 368.397 812.46C368.523 812.299 368.654 812.138 368.792 811.976C368.041 815.641 367.281 819.306 366.51 822.971ZM360.091 826.983C360.03 827.053 359.97 827.122 359.87 827.215C360.345 824.81 360.816 822.405 361.283 820C361.38 819.901 361.5 819.779 361.651 819.628C361.181 822.051 360.706 824.474 360.228 826.897L360.091 826.983ZM354.399 829.28C354.3 829.305 354.197 829.331 354.09 829.359C354.319 828.115 354.547 826.871 354.774 825.627C354.873 825.593 354.978 825.558 355.088 825.524C354.859 826.776 354.63 828.028 354.399 829.28ZM348.691 829.718C348.633 829.651 348.574 829.577 348.517 829.499C348.601 829.006 348.685 828.513 348.769 828.02C348.882 827.952 348.991 827.889 349.095 827.83C348.987 828.462 348.88 829.094 348.772 829.727C348.745 829.724 348.718 829.721 348.691 829.718ZM361.2 747.394C361.182 747.522 361.164 747.651 361.147 747.78L361.302 748.765C361.485 747.449 361.666 746.133 361.847 744.817C361.709 745.303 361.603 745.752 361.497 746.201C361.405 746.591 361.313 746.98 361.2 747.394ZM356.056 737.612C355.956 737.612 355.859 737.611 355.765 737.607C365.916 655.54 372.449 573.474 375.365 491.407C375.466 491.361 375.564 491.316 375.658 491.273C372.745 573.386 366.211 655.499 356.056 737.612ZM350.537 725.966C350.469 725.692 350.402 725.425 350.334 725.165C358.585 649.411 364.02 573.657 366.64 497.903C366.743 497.839 366.841 497.775 366.935 497.711C364.309 573.796 358.843 649.881 350.537 725.966ZM344.23 719.207C344.128 719.228 344.03 719.244 343.936 719.256C349.902 657.779 354.187 596.297 356.789 534.813C356.88 534.829 356.976 534.842 357.076 534.852C354.474 596.307 350.193 657.76 344.23 719.207ZM338.191 707.299C338.102 707.222 338.012 707.146 337.92 707.072C342.894 647.856 346.466 588.645 348.634 529.435C348.731 529.396 348.828 529.355 348.927 529.315C346.756 588.64 343.178 647.967 338.191 707.299ZM332.863 683.226C332.775 683.115 332.686 683.004 332.597 682.893C336.01 633.46 338.552 584.028 340.224 534.595C340.317 534.603 340.413 534.613 340.512 534.624C338.836 584.158 336.286 633.692 332.863 683.226ZM325.793 677.211C325.698 677.21 325.602 677.209 325.505 677.207C328.279 630.518 330.372 583.828 331.783 537.138C331.879 537.114 331.976 537.091 332.073 537.067C330.662 583.782 328.569 630.496 325.793 677.211ZM318.499 673.317C318.412 673.21 318.322 673.098 318.227 672.982C320.451 628.917 322.151 584.854 323.328 540.792C323.425 540.731 323.523 540.671 323.622 540.611C322.441 584.845 320.734 629.08 318.499 673.317ZM310.974 672.875C310.878 672.873 310.782 672.87 310.686 672.867C312.432 631.777 313.796 590.689 314.776 549.602C314.872 549.673 314.966 549.74 315.059 549.804C314.079 590.827 312.718 631.85 310.974 672.875ZM303.653 668.294C303.56 668.201 303.467 668.103 303.374 667.999C304.737 628.268 305.805 588.539 306.579 548.811C306.677 548.766 306.774 548.721 306.87 548.677C306.094 588.547 305.021 628.419 303.653 668.294ZM296.423 654.072C296.347 653.798 296.259 653.528 296.156 653.246C297.024 618.777 297.72 584.31 298.245 549.845C298.341 549.845 298.437 549.845 298.533 549.844C298.004 584.585 297.301 619.328 296.423 654.072ZM311.677 2.61475C313.959 35.223 315.955 67.8296 317.665 100.435C317.743 100.417 317.821 100.398 317.899 100.375H317.951C316.244 67.8359 314.253 35.2952 311.975 2.75273C311.971 2.68591 311.966 2.6191 311.961 2.55228C311.954 2.44839 311.947 2.3445 311.94 2.24062H311.681C311.67 2.23449 311.66 2.22843 311.649 2.22242C311.656 2.3212 311.663 2.41998 311.67 2.51877C311.672 2.55076 311.674 2.58275 311.677 2.61475ZM318.262 3.7517C320.841 35.6195 323.103 67.4874 325.047 99.3552C325.137 99.2693 325.228 99.1803 325.319 99.0881C323.38 67.3283 321.126 35.5684 318.556 3.80858C318.542 3.62786 318.527 3.44714 318.512 3.26642C318.469 2.73134 318.426 2.19626 318.382 1.66119C318.284 1.64368 318.186 1.62452 318.088 1.60424C318.129 2.1042 318.169 2.60416 318.21 3.10412C318.227 3.31998 318.245 3.53584 318.262 3.7517ZM330.975 78.6642C331.201 81.703 331.424 84.7418 331.644 87.7807C331.723 87.5514 331.803 87.3195 331.883 87.0864C331.685 84.3504 331.484 81.6144 331.28 78.8783C331.176 78.8139 331.074 78.7432 330.975 78.6642ZM330.997 75.092C330.901 75.068 330.803 75.0486 330.704 75.0346C330.172 67.9665 329.622 60.8984 329.054 53.8303C329.148 53.8508 329.245 53.8644 329.347 53.8699C329.915 60.9439 330.465 68.0179 330.997 75.092ZM328.885 48.1599C328.794 48.1617 328.698 48.1653 328.596 48.1701C328.534 47.4157 328.473 46.6614 328.411 45.907C328.507 45.897 328.603 45.8874 328.698 45.8786C328.76 46.639 328.823 47.3994 328.885 48.1599ZM328.582 44.4693H328.41C328.371 44.4989 328.335 44.5272 328.299 44.5543C328.237 43.8005 328.175 43.0468 328.112 42.293C328.205 42.1755 328.289 42.0295 328.365 41.8483C328.437 42.722 328.51 43.5956 328.582 44.4693ZM335.131 45.6555C335.198 46.3788 335.265 47.1021 335.331 47.8254C335.422 47.8122 335.517 47.7987 335.617 47.7848C335.559 47.146 335.5 46.5071 335.441 45.8683C335.342 45.7896 335.238 45.7194 335.131 45.6555ZM327.998 37.4665C327.913 37.4426 327.816 37.42 327.703 37.3975C326.854 27.3117 325.968 17.2258 325.046 7.1399L325.301 7.19864H325.342C326.263 17.2879 327.149 27.3772 327.998 37.4665ZM325.138 4.97608C325.072 4.25521 325.005 3.53433 324.939 2.81346C324.841 2.79588 324.743 2.77856 324.644 2.76143C324.712 3.49965 324.78 4.23786 324.848 4.97608H325.138ZM331.222 3.60835H331.009C330.995 3.47476 330.982 3.34117 330.968 3.20758L331.222 3.26642L331.265 3.27414C331.277 3.39038 331.289 3.50662 331.301 3.62286C331.275 3.61806 331.249 3.61322 331.222 3.60835ZM331.033 3.83739C331.131 3.85184 331.229 3.86528 331.327 3.87748C331.41 4.67088 331.491 5.46429 331.573 6.25769L331.262 6.05225C331.186 5.31396 331.11 4.57568 331.033 3.83739ZM331.775 8.22444C332.084 11.2449 332.39 14.2653 332.692 17.2857H332.402C332.1 14.2653 331.794 11.2449 331.485 8.22444H331.775ZM337.668 5.87479C337.716 6.28899 337.763 6.70319 337.81 7.11739C337.91 7.14476 338.01 7.17163 338.11 7.19806C338.062 6.77604 338.014 6.35402 337.965 5.93199L337.668 5.87479ZM338.18 9.25024C338.239 9.27102 338.296 9.29132 338.351 9.31118C338.452 10.2027 338.553 11.0942 338.654 11.9857H338.363C338.26 11.0739 338.157 10.1621 338.053 9.25024H338.18ZM339.19 16.7728C339.038 15.405 338.885 14.0373 338.731 12.6696H338.44C338.601 14.0946 338.76 15.5196 338.919 16.9447L338.921 16.9437V16.7728H339.19ZM357.313 529.126C357.496 524.635 357.669 520.144 357.834 515.653H357.545C357.382 520.12 357.209 524.587 357.028 529.054C357.125 529.081 357.219 529.105 357.313 529.126ZM344.187 6.84945C344.328 7.96779 344.468 9.08613 344.608 10.2045C344.711 10.2543 344.814 10.3029 344.917 10.3501C344.811 9.49386 344.703 8.63765 344.596 7.78144C344.529 7.7598 344.463 7.73659 344.398 7.71154L344.582 7.67609C344.555 7.456 344.527 7.23591 344.499 7.01582L344.187 6.84945ZM350.776 8.51652C350.954 9.81305 351.132 11.1096 351.308 12.4061L351.617 12.5378C351.437 11.2088 351.255 9.87978 351.073 8.55075L350.776 8.51652ZM374.016 146.365C374.521 151.642 375.011 156.919 375.484 162.197L375.776 162.23C375.303 156.942 374.812 151.654 374.306 146.365H374.016ZM373.479 140.823C373.527 141.311 373.574 141.799 373.622 142.287L373.937 142.547C373.881 141.968 373.824 141.389 373.768 140.81L373.479 140.823ZM364.71 63.2757C364.907 64.8143 365.103 66.353 365.298 67.8917H365.589C365.395 66.353 365.199 64.8143 365.001 63.2757H364.71ZM357.682 12.3876C357.859 13.5884 358.036 14.7891 358.212 15.9899C358.308 16.023 358.41 16.0576 358.52 16.0942C358.344 14.8924 358.167 13.6907 357.989 12.489L357.682 12.3876ZM364.736 17.2323C364.755 17.3576 364.775 17.4829 364.795 17.6082C364.901 17.6172 364.997 17.622 365.09 17.6246C365.079 17.5559 365.069 17.4871 365.058 17.4184L364.736 17.2323ZM377.115 54.2144C377.023 54.0554 376.932 53.9004 376.839 53.7483C376.176 49.4324 375.5 45.1164 374.811 40.8005L375.1 40.7766C376.666 50.5907 378.167 60.4046 379.601 70.2184L379.363 70.5857C378.567 65.1372 377.751 59.6887 376.915 54.2402L377.115 54.2144ZM374.441 38.4908C374.494 38.8198 374.547 39.1487 374.6 39.4776L374.916 39.6238C374.847 39.1945 374.778 38.7652 374.71 38.336L374.441 38.4908ZM371.294 19.4089C371.462 20.4036 371.63 21.3983 371.797 22.393C371.919 22.4552 372.026 22.5195 372.123 22.5867C371.95 21.5571 371.776 20.5276 371.602 19.498L371.294 19.4089ZM377.874 20.945C378.094 22.1579 378.313 23.3708 378.53 24.5837C378.628 24.594 378.728 24.6045 378.83 24.6152C378.807 24.4889 378.785 24.3625 378.762 24.2362L378.448 23.7824L378.701 23.8948C378.527 22.9295 378.353 21.9643 378.178 20.9991L377.874 20.945ZM379.15 28.0566H379.444C379.672 29.3362 379.898 30.6158 380.123 31.8954L379.804 31.7552C379.587 30.5224 379.369 29.2895 379.15 28.0566ZM379.997 32.8534C380.095 32.8556 380.194 32.8582 380.293 32.8615C382.356 44.6278 384.318 56.3938 386.178 68.1596L385.852 67.9505C384.001 56.2516 382.049 44.5526 379.997 32.8534ZM386.615 72.8046L386.801 72.1209C387.662 77.6321 388.501 83.1433 389.317 88.6545L389.058 88.8828C388.265 83.5234 387.45 78.164 386.615 72.8046ZM391.307 104.473L391.327 103.966L391.558 104.182C394.699 126.528 397.475 148.873 399.884 171.218L399.6 171.273C397.199 149.007 394.435 126.74 391.307 104.473ZM402.349 198.431C402.546 200.518 402.74 202.604 402.931 204.69L403.254 205.05C403.067 202.998 402.876 200.946 402.682 198.894L402.349 198.431ZM407.631 173.213C407.842 175.051 408.05 176.89 408.255 178.728C408.342 178.644 408.429 178.558 408.516 178.469C408.321 176.717 408.122 174.966 407.922 173.214C407.868 173.21 407.814 173.207 407.76 173.207C407.717 173.207 407.674 173.209 407.631 173.213ZM399.949 114.123C402.706 133.076 405.181 152.029 407.374 170.982L407.666 170.991C405.478 152.075 403.009 133.159 400.259 114.243L399.949 114.123ZM407.846 118.259C410.547 135.891 412.987 153.523 415.167 171.155H415.458C413.278 153.519 410.838 135.882 408.137 118.245L407.846 118.259ZM414.439 114.038C417.707 133.742 420.626 153.445 423.199 173.149L423.56 173.685C420.975 153.829 418.037 133.973 414.746 114.117L414.439 114.038ZM424.108 180.228L424.413 180.333C425.486 188.834 426.495 197.336 427.439 205.839C427.341 205.835 427.243 205.831 427.147 205.827C426.2 197.294 425.187 188.761 424.108 180.228ZM417.284 90.4495C422.909 119.835 427.712 149.221 431.693 178.606L432.019 178.866C428.019 149.293 423.186 119.72 417.522 90.1469L417.284 90.4495ZM432.496 184.621L432.812 184.81C434.054 194.249 435.21 203.688 436.282 213.126L435.969 212.931C434.896 203.494 433.738 194.058 432.496 184.621ZM440.649 187.157C440.698 187.509 440.746 187.862 440.795 188.215L441.128 188.514C441.062 188.032 440.995 187.55 440.929 187.069L440.649 187.157ZM424.345 91.4793C430.712 122.9 436.081 154.318 440.452 185.736C440.55 185.74 440.648 185.743 440.745 185.747C436.361 154.221 430.971 122.694 424.577 91.1662L424.345 91.4793ZM422.155 79.448C421.949 78.4712 421.742 77.4944 421.534 76.5175L421.232 76.0981L421.136 76.0415C421.382 77.1969 421.627 78.3523 421.871 79.5076L422.155 79.448ZM415.13 77.9112L415.014 77.8078L414.792 77.698C414.481 76.1389 414.168 74.5798 413.852 73.0207H414.148C414.478 74.6509 414.805 76.2811 415.13 77.9112ZM408.776 47.5024C408.674 47.4951 408.573 47.4866 408.473 47.4768C407.494 42.9978 406.495 38.5188 405.477 34.0397L405.817 34.2233C406.822 38.6496 407.808 43.076 408.776 47.5024ZM405.374 32.2785L405.095 32.1598L405.043 32.1341C404.79 31.0236 404.535 29.9131 404.279 28.8026C404.4 28.8642 404.512 28.9203 404.616 28.9718C404.87 30.074 405.123 31.1763 405.374 32.2785ZM411.23 32.5339C411.399 33.2296 411.567 33.9253 411.734 34.621L411.905 34.7242L412.077 34.8039C411.912 34.1155 411.745 33.4272 411.579 32.7388C411.463 32.6711 411.347 32.6028 411.23 32.5339ZM410.389 29.0824C410.564 29.796 410.738 30.5096 410.912 31.2232C411.018 31.2717 411.13 31.3204 411.247 31.3699C411.026 30.4637 410.805 29.5574 410.583 28.6512L410.277 28.5695L410.425 29.0824H410.389ZM403.291 23.2663C403.264 23.1495 403.237 23.0326 403.209 22.9158L402.874 22.7566L402.873 22.7563C402.902 22.8781 402.931 22.9999 402.959 23.1217C403.08 23.1747 403.19 23.2226 403.291 23.2663ZM403.085 22.3874L402.754 22.2463C402.627 21.7061 402.5 21.1659 402.373 20.6257C402.479 20.6666 402.588 20.7088 402.701 20.7522C402.829 21.2973 402.958 21.8424 403.085 22.3874ZM396.685 20.8072C396.627 20.5447 396.569 20.2821 396.511 20.0195C396.399 19.9623 396.287 19.9047 396.175 19.8467C396.239 20.1333 396.302 20.4199 396.366 20.7065L396.685 20.8072ZM397.077 22.5786C396.996 22.2143 396.916 21.8501 396.835 21.4858L396.49 21.2682C396.58 21.6744 396.669 22.0807 396.759 22.4869L397.077 22.5786ZM398.459 28.9068C398.348 28.3955 398.237 27.8841 398.126 27.3727H397.829C397.928 27.8284 398.027 28.2842 398.126 28.7399C398.229 28.7924 398.34 28.848 398.459 28.9068ZM398.479 30.3734L398.805 30.5114C399.051 31.6514 399.296 32.7914 399.539 33.9314L399.47 33.8694L399.18 33.641C398.948 32.5518 398.714 31.4626 398.479 30.3734ZM399.681 35.9919L400.017 36.1755C400.827 39.9907 401.623 43.806 402.407 47.6212L402.107 47.602C401.312 43.7319 400.503 39.8619 399.681 35.9919ZM395.762 46.7657C394.728 41.4131 393.671 36.0605 392.589 30.7079L392.268 30.5844C393.36 35.9861 394.428 41.3879 395.471 46.7897L395.762 46.7657ZM404.023 57.0584C404.351 58.6993 404.676 60.3402 404.999 61.981L405.307 62.0457C404.994 60.452 404.678 58.8582 404.36 57.2644C404.235 57.1858 404.122 57.1173 404.023 57.0584ZM407.126 72.9649L407.43 73.0152C407.784 74.8774 408.136 76.7396 408.484 78.6018L408.352 78.6626L408.263 78.9976C407.887 76.9867 407.508 74.9758 407.126 72.9649ZM414.62 113.36C413.825 108.578 413.01 103.796 412.175 99.0142L411.933 99.3145C412.714 103.784 413.476 108.253 414.221 112.723L414.62 113.36ZM403.383 88.7889C402.037 80.8508 400.638 72.9128 399.186 64.9747L398.851 64.7554C400.349 72.9394 401.791 81.1233 403.178 89.3072L403.383 88.7889ZM397.026 92.8281L396.735 92.837C396.408 90.753 396.078 88.6689 395.745 86.5849L395.977 86.199C396.33 88.4087 396.68 90.6184 397.026 92.8281ZM395.539 83.4793L395.281 83.6948C392.628 67.2549 389.763 50.815 386.686 34.3751L386.963 34.2835C390.033 50.6821 392.892 67.0807 395.539 83.4793ZM386.683 32.789L386.354 32.6081C386.09 31.2029 385.824 29.7976 385.557 28.3924L385.879 28.5382C386.149 29.9551 386.417 31.3721 386.683 32.789ZM385.265 25.3227C385.263 25.3221 385.26 25.3216 385.258 25.3211C385.163 25.3211 385.067 25.3211 384.97 25.3209C384.641 23.6112 384.311 21.9016 383.978 20.192C384.088 20.259 384.2 20.3272 384.314 20.3968C384.633 22.0387 384.95 23.6807 385.265 25.3227ZM390.354 21.2388C390.449 21.6959 390.544 22.1531 390.638 22.6102L390.967 22.7685C390.869 22.2936 390.771 21.8187 390.672 21.3437L390.354 21.2388ZM389.846 18.7968C389.894 19.0265 389.942 19.2562 389.99 19.4859C390.04 19.4933 390.091 19.5008 390.143 19.5082C390.197 19.5316 390.251 19.5549 390.305 19.5782C390.263 19.3726 390.22 19.167 390.177 18.9613C390.075 18.9112 389.965 18.8565 389.846 18.7968ZM389.596 17.602C389.638 17.8032 389.681 18.0044 389.723 18.2057L390.058 18.3907C390.012 18.174 389.967 17.9572 389.922 17.7404L389.596 17.602ZM389.403 16.6784C389.439 16.852 389.475 17.0257 389.512 17.1993L389.84 17.3509C389.802 17.1697 389.764 16.9885 389.726 16.8072L389.403 16.6784ZM389.255 15.0631L389.053 15.0165C389.042 14.9654 389.031 14.9143 389.021 14.8633L389.107 14.8921L389.255 15.0631ZM391.045 24.5815L391.451 25.1177C391.453 25.1276 391.455 25.1376 391.457 25.1476L391.152 25.1062C391.116 24.9313 391.08 24.7564 391.045 24.5815ZM392.342 29.4876C392.242 28.9928 392.141 28.4981 392.041 28.0033L391.734 27.9527C391.828 28.4141 391.922 28.8754 392.016 29.3367L392.216 29.4243L392.342 29.4876ZM396.179 18.5264L395.853 18.4011C395.808 18.1973 395.762 17.9934 395.717 17.7895L396.045 17.9247C396.089 18.1253 396.134 18.3258 396.179 18.5264ZM395.57 17.1304C395.595 17.2423 395.62 17.3541 395.645 17.466L395.97 17.5913C395.946 17.4827 395.922 17.3742 395.898 17.2656L395.57 17.1304ZM402.076 19.3707C402.132 19.6041 402.187 19.8374 402.242 20.0708L402.577 20.2256C402.519 19.9811 402.462 19.7367 402.404 19.4922L402.076 19.3707ZM402.004 19.0639C402.004 19.0661 402.005 19.0682 402.005 19.0703L402.282 19.1663L402.004 19.0639ZM408.596 21.8247C408.827 22.7504 409.057 23.6761 409.287 24.6018C409.389 24.6183 409.489 24.6271 409.594 24.6318C409.372 23.7387 409.15 22.8456 408.928 21.9524L408.596 21.8247ZM417.096 32.5654C417.216 32.6303 417.332 32.6932 417.445 32.7543C417.757 33.9702 418.068 35.186 418.377 36.4019L418.004 36.1144C417.703 34.9314 417.4 33.7484 417.096 32.5654ZM418.606 38.4855H418.906C419.002 38.8647 419.097 39.244 419.193 39.6232L418.716 38.922C418.679 38.7765 418.642 38.631 418.606 38.4855ZM422.656 54.879C423.503 58.3906 424.336 61.9022 425.157 65.4138L425.498 65.5978C424.682 62.1036 423.854 58.6094 423.012 55.1152L422.656 54.879ZM417.294 57.1695C416.617 54.1716 415.931 51.1737 415.237 48.1758L414.861 47.8445C415.522 50.6918 416.175 53.539 416.819 56.3862L417.294 57.1695ZM414.375 44.4791L414.05 44.3634C413.846 43.4952 413.642 42.6269 413.437 41.7587L413.533 41.7339L413.745 41.7981C413.956 42.6918 414.166 43.5854 414.375 44.4791ZM413.217 39.5696L412.941 39.6653C412.896 39.4764 412.851 39.2876 412.806 39.0987L413.166 39.355C413.183 39.4266 413.2 39.4981 413.217 39.5696ZM428.326 52.5934C428.641 53.8169 428.954 55.0404 429.265 56.2638L429.624 56.4962C429.31 55.2589 428.993 54.0215 428.676 52.7841L428.326 52.5934ZM425.286 40.9699C425.848 43.0831 426.405 45.1963 426.957 47.3095L427.331 47.5916C426.773 45.4501 426.209 43.3087 425.64 41.1672L425.286 40.9699ZM430.309 60.3929L430.666 60.6205C431.483 63.878 432.289 67.1355 433.082 70.3931L432.927 70.2853L432.664 69.9065C431.891 66.7353 431.105 63.5641 430.309 60.3929ZM436.549 84.9526C435.946 82.3596 435.335 79.7667 434.717 77.1737L434.426 77.2073C435.04 79.782 435.647 82.3568 436.246 84.9315C436.347 84.9397 436.448 84.9466 436.549 84.9526ZM437.878 92.0282L438.21 92.182C438.592 93.8631 438.971 95.5442 439.346 97.2253C439.244 97.2162 439.142 97.206 439.042 97.1946C438.657 95.4725 438.269 93.7504 437.878 92.0282ZM441.54 108.601L442.072 109.698C442.717 112.711 443.351 115.724 443.974 118.737L443.758 119.123C443.033 115.616 442.294 112.108 441.54 108.601ZM444.626 123.353L445.214 125.166C445.256 125.249 445.298 125.333 445.34 125.417C452.922 162.961 458.903 200.504 463.283 238.046L462.967 237.83C458.507 199.671 452.394 161.512 444.626 123.353ZM471.985 393.76C472.042 393.756 472.099 393.754 472.158 393.754L472.273 393.749C472.269 397.41 472.249 401.071 472.214 404.732C472.117 404.7 472.021 404.672 471.927 404.645C471.961 401.017 471.98 397.388 471.985 393.76ZM463.561 404.334C463.577 402.567 463.589 400.801 463.597 399.035L463.309 399.022C463.301 400.794 463.289 402.566 463.273 404.338C463.369 404.331 463.465 404.329 463.561 404.334ZM455.061 403.192C454.951 403.156 454.855 403.122 454.774 403.091C454.788 401.142 454.798 399.193 454.805 397.244C454.901 397.19 454.997 397.138 455.094 397.087C455.087 399.122 455.076 401.157 455.061 403.192ZM444.781 217.146H444.622L444.455 216.848C443.476 208.564 442.428 200.28 441.31 191.997L441.643 192.304C442.758 200.585 443.804 208.865 444.781 217.146ZM450.248 199.023L449.931 198.59C444.987 162.87 438.675 127.15 430.994 91.4323L431.346 91.6914C441.168 137.416 448.747 183.143 454.085 228.872L453.161 223.54C452.168 215.298 451.101 207.055 449.961 198.813L450.248 199.023ZM454.732 234.52C454.603 233.375 454.473 232.231 454.341 231.087L454.194 232.336C454.276 233.05 454.357 233.765 454.437 234.479L454.732 234.52ZM446.396 404.012C446.412 401.774 446.425 399.536 446.432 397.297C446.339 397.271 446.243 397.244 446.144 397.216C446.137 399.481 446.125 401.746 446.107 404.012H446.396ZM444.755 458.444C444.849 458.404 444.947 458.366 445.049 458.329C440.423 568.396 424.269 678.463 396.585 788.53C396.415 788.828 396.236 789.141 396.049 789.47C423.873 679.128 440.109 568.786 444.755 458.444ZM480.535 393.422C480.531 398.262 480.498 403.102 480.438 407.941C480.527 407.857 480.624 407.76 480.729 407.651C480.788 402.916 480.819 398.181 480.824 393.446C480.771 393.44 480.72 393.435 480.669 393.431C480.625 393.428 480.58 393.425 480.535 393.422ZM471.811 242.159L471.408 241.228C467.231 206.678 461.621 172.126 454.578 137.572L454.925 137.819C462.005 172.601 467.634 207.38 471.811 242.159ZM444.939 92.7565C444.758 91.9994 444.576 91.2423 444.393 90.4851C444.371 90.4764 444.348 90.4679 444.326 90.4593C444.234 90.4415 444.151 90.4255 444.076 90.4111C444.246 91.1134 444.415 91.8158 444.583 92.5181C444.699 92.599 444.818 92.6786 444.939 92.7565ZM442.675 83.4497H442.375C441.445 79.6862 440.498 75.9227 439.534 72.1592L439.925 72.5117C440.857 76.1577 441.774 79.8037 442.675 83.4497ZM432.572 46.0445C434.778 54.0067 436.907 61.9688 438.961 69.9307L439.328 70.188C437.298 62.3086 435.193 54.4291 433.014 46.5495L432.779 46.179L432.572 46.0445ZM441.704 57.2133C443.137 62.2672 444.537 67.3211 445.905 72.375L446.155 72.1826C444.818 67.2447 443.45 62.3067 442.051 57.3687L441.704 57.2133ZM447.435 76.9449C447.213 76.1147 446.991 75.2846 446.768 74.4544L446.48 74.5056C446.662 75.1821 446.843 75.8586 447.024 76.5351L447.435 76.9449ZM448.215 81.0277C448.729 82.977 449.237 84.9262 449.741 86.8754C449.835 86.8018 449.916 86.7283 449.985 86.6549C449.511 84.8243 449.034 82.9937 448.552 81.163L448.215 81.0277ZM462.413 140.652L462.721 140.705C462.754 140.859 462.787 141.014 462.82 141.168L462.787 142.414C462.663 141.827 462.538 141.24 462.413 140.652ZM465.989 156.565C465.689 155.06 465.387 153.556 465.081 152.052C464.889 151.598 464.698 151.141 464.506 150.683C471.893 186.821 477.622 222.96 481.694 259.098L482.068 259.842C478.281 226.028 473.043 192.214 466.354 158.4L466.088 157.991L465.989 156.565ZM449.038 61.6538C451.047 68.4529 452.993 75.2519 454.878 82.051L454.985 82.082L455.149 81.9396C453.314 75.3165 451.419 68.6933 449.466 62.0701L449.038 61.6538ZM475.064 166.335L475.37 166.386C483.276 205.575 489.123 244.765 492.912 283.954L492.607 283.8C488.815 244.645 482.967 205.49 475.064 166.335ZM454.747 60.9856C457.172 68.7403 459.511 76.495 461.765 84.2497L461.943 84.3045L462.068 84.2453C459.824 76.5248 457.496 68.8044 455.084 61.084L454.837 61.0531L454.747 60.9856ZM476.174 138.623L476.461 138.575C488.614 189.359 497.116 240.145 501.968 290.933L501.647 290.601C496.789 239.94 488.298 189.281 476.174 138.623ZM467.381 82.8262C468.246 85.6331 469.098 88.44 469.94 91.2469L470.293 91.4103C469.415 88.4767 468.524 85.543 467.62 82.6094L467.381 82.8262ZM460.387 60.9003C462.755 68.0782 465.046 75.2561 467.26 82.434L467.545 82.3655C465.262 74.9638 462.897 67.5621 460.451 60.1604L460.387 60.9003ZM458.955 55.6643L458.542 55.3544C458.535 55.3324 458.527 55.3103 458.52 55.2883L458.873 55.4186C458.9 55.5005 458.928 55.5824 458.955 55.6643ZM465.072 58.0683C465.209 58.4584 465.345 58.8486 465.482 59.2387L465.857 59.4246C465.721 59.0338 465.584 58.643 465.447 58.2522L465.072 58.0683ZM465.798 60.1442L466.173 60.3277C470.395 72.4469 474.387 84.5664 478.147 96.6862L477.733 96.3385C473.984 84.2735 470.006 72.2087 465.798 60.1442ZM470.825 58.1467C470.735 58.1467 470.645 58.1427 470.555 58.136C470.472 57.9103 470.388 57.6845 470.304 57.4588L470.825 58.1467ZM473.279 65.5822C477.912 78.3897 482.273 91.1972 486.361 104.005L486.793 104.398C482.707 91.5741 478.348 78.7503 473.716 65.9266L473.279 65.5822ZM473.066 64.133L472.898 63.9595L472.306 62.0789L472.32 62.0846C472.57 62.7674 472.818 63.4502 473.066 64.133ZM474.178 53.7567C475.24 56.4456 476.289 59.1345 477.326 61.8234L477.788 62.2046C476.734 59.4676 475.668 56.7306 474.588 53.9935L474.178 53.7567ZM477.81 63.0829L478.106 63.0318C510.514 147.444 530.457 231.843 537.935 316.238L537.701 316.868C530.265 232.281 510.302 147.69 477.81 63.0829ZM532.558 380.124C532.51 376.564 532.442 373.003 532.352 369.442C532.255 369.438 532.159 369.432 532.064 369.427C532.153 372.964 532.221 376.501 532.269 380.038C532.365 380.071 532.462 380.099 532.558 380.124ZM519.949 479.778C520.346 475.46 520.714 471.142 521.052 466.824L520.762 466.84C520.419 471.214 520.046 475.588 519.642 479.962L519.949 479.778ZM523.824 375.973C523.824 375.973 523.724 376.016 523.554 376.101C523.509 373.48 523.454 370.86 523.388 368.239C523.485 368.244 523.581 368.25 523.677 368.254C523.742 370.826 523.796 373.397 523.84 375.969C523.834 375.97 523.829 375.972 523.824 375.973ZM512.106 472.491C512.25 470.692 512.389 468.894 512.523 467.095C512.427 467.094 512.331 467.094 512.234 467.093C512.1 468.899 511.96 470.706 511.815 472.512L512.106 472.491ZM515.286 384.217C515.185 384.238 515.09 384.252 514.998 384.26C514.969 380.624 514.921 376.987 514.853 373.35C514.948 373.285 515.043 373.219 515.137 373.152C515.207 376.84 515.257 380.528 515.286 384.217ZM506.727 405.022C506.742 403.79 506.755 402.558 506.766 401.327C506.67 401.323 506.574 401.319 506.478 401.316C506.467 402.579 506.454 403.842 506.438 405.106C506.536 405.069 506.633 405.04 506.727 405.022ZM502.291 490.027C502.751 485.041 503.176 480.056 503.566 475.07C503.505 474.972 503.444 474.873 503.383 474.775C503.358 474.735 503.333 474.695 503.309 474.655C502.884 480.11 502.418 485.565 501.909 491.02C501.949 490.916 501.989 490.812 502.029 490.708C502.117 490.481 502.204 490.254 502.291 490.027ZM506.803 389.893C506.708 389.915 506.612 389.934 506.515 389.951C506.508 387.011 506.49 384.072 506.459 381.132C506.555 381.106 506.651 381.077 506.746 381.044C506.777 383.994 506.796 386.943 506.803 389.893ZM498.141 389.751C498.045 389.749 497.949 389.746 497.853 389.744C497.847 386.815 497.829 383.886 497.799 380.957C497.895 380.92 497.991 380.887 498.087 380.858C498.117 383.822 498.135 386.787 498.141 389.751ZM482.46 136.416C496.17 190.246 505.552 244.076 510.605 297.906L510.797 298.013L510.93 298.284C505.884 244.293 496.485 190.301 482.733 136.311L482.46 136.416ZM487.61 130.046C507.508 202.322 519.175 274.605 522.613 346.89L522.788 346.738L522.871 346.259C519.393 274.083 507.712 201.909 487.829 129.743L487.61 130.046ZM529.643 318.621L529.389 319.061C524.202 255.004 512.198 190.952 493.379 126.901L493.717 127.019C512.466 190.884 524.441 254.751 529.643 318.621ZM458.151 53.2722C457.596 51.6273 457.037 49.9824 456.474 48.3374C456.337 48.2636 456.211 48.1949 456.093 48.1305C456.659 49.7812 457.22 51.4319 457.778 53.0826L458.151 53.2722ZM448.833 59.9323C448.421 58.5437 448.006 57.1551 447.589 55.7665L446.583 53.4427C447.064 55.0337 447.543 56.6248 448.017 58.2158L448.323 58.4886H448.099C448.211 58.8661 448.324 59.2437 448.436 59.6212L448.833 59.9323ZM440.758 52.8335C440.463 51.8069 440.167 50.7802 439.87 49.7536L439.495 49.5082C439.782 50.5 440.069 51.4917 440.354 52.4834L440.758 52.8335ZM436.429 39.0952C436.703 40.0132 436.976 40.9312 437.249 41.8492L437.621 42.0799C437.344 41.144 437.066 40.2081 436.786 39.2723L436.429 39.0952ZM436.498 38.3076L436.125 38.081C435.994 37.6445 435.863 37.208 435.732 36.7715L436.101 36.9846C436.234 37.4256 436.366 37.8666 436.498 38.3076ZM435.951 36.4837L435.589 36.2957C435.467 35.8905 435.345 35.4852 435.222 35.08L435.588 35.28C435.709 35.6812 435.83 36.0824 435.951 36.4837ZM435.505 35.007L435.296 34.8952L435.14 34.8095C435.055 34.5282 434.97 34.2468 434.885 33.9655L435.237 34.1205C435.326 34.416 435.416 34.7115 435.505 35.007ZM429.407 33.745C429.387 33.6725 429.366 33.6 429.345 33.5275H429.078L429.407 33.745ZM440.762 53.9058L441.193 54.3509C441.31 54.7631 441.428 55.1753 441.545 55.5874L441.227 55.5349C441.072 54.9919 440.917 54.4488 440.762 53.9058ZM428.768 218.22C428.548 216.097 428.324 213.975 428.096 211.853C427.995 211.764 427.889 211.672 427.776 211.578C428.021 213.848 428.26 216.117 428.495 218.387L428.768 218.22ZM387.906 801.26C415.827 686.708 432.025 572.183 436.5 457.673C436.414 457.513 436.325 457.355 436.23 457.201C431.775 571.992 415.537 686.8 387.516 801.633C387.644 801.505 387.774 801.381 387.906 801.26ZM420.217 213.778L419.917 213.677C419.765 212.156 419.612 210.635 419.456 209.114C419.553 209.115 419.649 209.116 419.746 209.117C419.905 210.671 420.062 212.224 420.217 213.778ZM419.415 205.911C419.318 205.932 419.224 205.956 419.132 205.981C418.843 203.201 418.547 200.42 418.244 197.639L418.493 197.256C418.807 200.141 419.115 203.026 419.415 205.911ZM417.349 187.031C417.04 184.339 416.726 181.647 416.405 178.955L416.117 178.98C416.427 181.584 416.732 184.189 417.031 186.793L417.349 187.031ZM410.886 203.759L411.178 203.776C411.384 205.865 411.586 207.954 411.785 210.043L411.48 209.882C411.285 207.841 411.087 205.8 410.886 203.759ZM379.038 790.153C401.656 681.494 415.012 572.834 419.104 464.174C419.01 464.136 418.915 464.099 418.82 464.062C415.005 565.488 403.118 666.915 383.158 768.342H383.333C383.228 768.544 383.131 768.746 383.039 768.948C381.667 775.906 380.258 782.864 378.81 789.823C378.889 789.933 378.966 790.043 379.038 790.153ZM409.887 473.747C409.991 473.681 410.09 473.619 410.183 473.559C406.255 572.439 395.167 671.322 376.921 770.222H376.626C394.864 671.385 405.951 572.564 409.887 473.747ZM375.75 776.513C375.823 776.126 375.895 775.739 375.968 775.351C375.778 775.573 375.707 775.698 375.635 775.864C375.688 776.047 375.722 776.274 375.75 776.513ZM369.118 810.382C369.979 806.165 370.826 801.947 371.661 797.73C371.553 797.757 371.448 797.786 371.348 797.816C370.779 800.693 370.203 803.571 369.621 806.448C369.704 806.515 369.785 806.579 369.861 806.638C369.779 806.78 369.694 806.929 369.607 807.082C369.549 807.184 369.49 807.287 369.43 807.391C369.23 808.378 369.029 809.365 368.828 810.353C368.923 810.366 369.02 810.375 369.118 810.382ZM372.613 758.825C387.801 667.6 397.321 576.388 401.174 485.179C401.077 485.264 400.977 485.348 400.875 485.433C397.015 576.547 387.498 667.664 372.324 758.795C372.425 758.806 372.521 758.816 372.613 758.825ZM366.463 757.913H366.456C366.367 757.947 366.266 757.974 366.157 757.998C367.213 751.145 368.239 744.293 369.235 737.441C369.35 737.337 369.463 737.23 369.574 737.121C368.567 744.051 367.53 750.982 366.463 757.913ZM369.856 735.174H369.564C381.395 653.269 388.989 571.363 392.345 489.458C392.443 489.431 392.54 489.404 392.637 489.376C389.283 571.309 381.69 653.241 369.856 735.174ZM386.09 190.817H385.801C385.58 188.218 385.356 185.62 385.127 183.022C385.238 183.142 385.345 183.259 385.447 183.37C385.665 185.852 385.88 188.334 386.09 190.817ZM383.727 164.65L383.407 164.335C382.901 159.06 382.377 153.786 381.836 148.511L382.144 148.684C382.69 154.006 383.217 159.328 383.727 164.65ZM381.782 145.182L381.481 145.075C381.237 142.728 380.989 140.38 380.738 138.032L381.018 137.935C381.276 140.351 381.531 142.766 381.782 145.182ZM386.421 123.212C386.616 124.809 386.809 126.406 387.001 128.003L387.3 128.077C387.083 126.264 386.863 124.451 386.641 122.638L386.421 123.212ZM387.46 131.855L387.715 131.559C389.287 144.839 390.739 158.118 392.07 171.397L391.758 171.181C390.442 158.072 389.01 144.964 387.46 131.855ZM372.989 71.5947C372.376 67.055 371.75 62.5154 371.111 57.9757H370.898L370.826 58.0228C371.441 62.3904 372.043 66.7581 372.634 71.1258L372.674 71.1401L372.989 71.5947ZM376.507 173.912C376.604 174.011 376.71 174.12 376.824 174.237C377.293 179.763 377.745 185.29 378.179 190.817H377.889C377.447 185.182 376.986 179.547 376.507 173.912ZM362.997 736.353C374.037 654.044 381.117 571.725 384.236 489.403C384.14 489.38 384.045 489.358 383.95 489.336C380.831 571.705 373.746 654.072 362.695 736.429C362.794 736.404 362.895 736.379 362.997 736.353ZM370.277 192.47C370.193 192.58 370.106 192.699 370.014 192.826C369.634 187.507 369.239 182.187 368.829 176.868C368.925 176.858 369.021 176.85 369.116 176.843C369.518 182.052 369.905 187.261 370.277 192.47ZM368.462 168.516C368.421 167.998 368.379 167.48 368.337 166.961C368.196 167.453 368.282 168.004 368.462 168.516ZM362.391 194.873C362.223 194.051 362.124 192.896 362.156 191.267C362.235 192.469 362.314 193.671 362.391 194.873ZM361.914 187.614C361.791 185.772 361.666 183.93 361.54 182.088C361.451 182.09 361.355 182.092 361.251 182.093C361.363 183.72 361.473 185.346 361.582 186.973C361.718 187.202 361.828 187.411 361.914 187.614ZM364.918 16.5361C364.814 16.5094 364.711 16.4817 364.612 16.4539C364.435 15.3294 364.256 14.205 364.076 13.0805C364.186 13.129 364.291 13.1752 364.391 13.2192C364.568 14.3249 364.744 15.4305 364.918 16.5361ZM337.937 5.68739L337.656 5.76862C337.647 5.69004 337.638 5.61146 337.629 5.53288L337.931 5.62786C337.933 5.6477 337.935 5.66755 337.937 5.68739ZM334.31 36.8758C334.317 36.9524 334.324 37.029 334.331 37.1056V36.9468C334.324 36.9228 334.317 36.8991 334.31 36.8758ZM336.218 57.6183C336.327 57.6829 336.429 57.7434 336.524 57.8001C336.634 59.0384 336.744 60.2767 336.853 61.515C336.754 61.5526 336.661 61.59 336.574 61.6271C336.456 60.2908 336.337 58.9546 336.218 57.6183ZM337.435 68.1806C337.334 67.0055 337.232 65.8305 337.129 64.6555C337.03 64.5927 336.927 64.5338 336.824 64.4763C336.96 66.0382 337.096 67.6002 337.23 69.1621C337.302 68.8056 337.372 68.4743 337.435 68.1806ZM549.587 380.442C549.63 383.458 549.656 386.473 549.666 389.489L549.955 389.805C549.946 386.699 549.92 383.594 549.876 380.488L549.587 380.442ZM370.333 13.7758C370.343 13.8365 370.354 13.8971 370.364 13.9577L370.601 13.8663L370.333 13.7758ZM279.411 1.55771L279.411 1.55675H279.408L279.411 1.55771ZM279.122 1.51705C279.123 1.56925 279.124 1.62146 279.125 1.67366L279.26 1.55675L279.122 1.51705ZM272.854 2.13964C272.843 2.14481 272.831 2.14997 272.82 2.15513C272.734 2.1948 272.648 2.23446 272.566 2.27413C272.566 2.14665 272.565 2.01917 272.564 1.8917C272.654 1.8817 272.752 1.86204 272.852 1.8397C272.853 1.93968 272.853 2.03966 272.854 2.13964ZM229.536 80.6831C229.611 79.0803 229.687 77.4776 229.764 75.8748C229.664 75.896 229.567 75.9173 229.473 75.9383C229.382 77.8238 229.293 79.7093 229.204 81.5947L229.222 81.5691C229.335 81.2635 229.439 80.9692 229.536 80.6831ZM222.129 82.9368H221.84C222.057 79.0419 222.277 75.147 222.502 71.2521C222.579 71.3329 222.646 71.4108 222.708 71.482C222.731 71.5016 222.753 71.5205 222.774 71.5386C222.555 75.338 222.34 79.1374 222.129 82.9368ZM214.655 85.6983C214.562 85.7105 214.465 85.7221 214.364 85.7326C214.677 80.8358 214.997 75.939 215.324 71.0421C215.423 71.0224 215.52 71.001 215.618 70.9785C215.289 75.8851 214.968 80.7917 214.655 85.6983ZM207.716 80.7938C207.623 80.5777 207.542 80.3904 207.469 80.2277C207.761 76.2866 208.058 72.3455 208.361 68.4045C208.457 68.4043 208.554 68.404 208.65 68.4034C208.333 72.5335 208.022 76.6637 207.716 80.7938ZM200.637 78.986C200.542 78.9891 200.445 78.9922 200.346 78.9953C200.367 78.7443 200.388 78.4933 200.409 78.2423C200.481 78.0941 200.554 77.9451 200.627 77.7948C200.671 77.7053 200.715 77.6154 200.759 77.5249C200.718 78.0119 200.677 78.499 200.637 78.986ZM206.137 16.007C206.114 16.2391 206.09 16.4711 206.067 16.7032C206.173 16.6653 206.273 16.63 206.368 16.5972C206.392 16.3517 206.417 16.1062 206.442 15.8607C206.343 15.9078 206.242 15.9567 206.137 16.007ZM206.316 14.2204C206.295 14.4369 206.273 14.6535 206.251 14.87C206.354 14.8317 206.454 14.7943 206.552 14.7576C206.573 14.5507 206.594 14.3439 206.615 14.137C206.516 14.1648 206.416 14.1926 206.316 14.2204ZM213.045 12.2966C213.145 12.2651 213.244 12.2337 213.344 12.2026C213.339 12.2479 213.335 12.2932 213.331 12.3385C213.23 12.3736 213.13 12.408 213.032 12.4417C213.037 12.3934 213.041 12.345 213.045 12.2966ZM219.77 10.3286C219.868 10.3046 219.966 10.2807 220.065 10.257C220.033 10.6569 220.001 11.0569 219.97 11.4568C219.875 11.4909 219.776 11.5267 219.672 11.5642C219.683 11.4268 219.694 11.2895 219.704 11.1521L219.747 11.1309L219.706 11.1389C219.727 10.8688 219.748 10.5987 219.77 10.3286ZM226.524 7.78586C226.503 8.08601 226.482 8.38616 226.462 8.68632C226.561 8.66493 226.659 8.64354 226.755 8.62215C226.776 8.32007 226.797 8.01799 226.818 7.71591C226.793 7.7217 226.769 7.72744 226.745 7.73311C226.668 7.75146 226.594 7.76912 226.524 7.78586ZM233.165 6.42561C233.284 6.40405 233.381 6.38756 233.457 6.37522C233.456 6.38624 233.455 6.39727 233.455 6.40829C233.357 6.43664 233.259 6.46244 233.161 6.48643C233.163 6.46616 233.164 6.44588 233.165 6.42561ZM233.35 8.20226C233.361 8.01076 233.372 7.81926 233.384 7.62775C233.288 7.65673 233.19 7.68345 233.09 7.70708C233.079 7.90279 233.067 8.0985 233.056 8.29421C233.154 8.26377 233.252 8.23312 233.35 8.20226ZM229.859 73.9072C229.958 71.8497 230.058 69.7923 230.159 67.7348L229.874 67.6526C229.769 69.8005 229.664 71.9484 229.561 74.0963L229.859 73.9072ZM236.927 69.644C236.891 70.56 236.854 71.4761 236.818 72.3921C236.941 72.2125 237.043 72.0415 237.126 71.8787C237.152 71.2449 237.177 70.6111 237.202 69.9773C237.125 69.8537 237.031 69.743 236.927 69.644ZM226.637 10.3456C226.538 10.3794 226.439 10.4137 226.34 10.4482C226.345 10.3893 226.349 10.3305 226.353 10.2716C226.353 10.2628 226.354 10.2539 226.354 10.245C226.37 10.0201 226.385 9.79515 226.401 9.57021C226.488 9.54349 226.586 9.51306 226.696 9.47842C226.68 9.7064 226.665 9.93439 226.649 10.1624C226.649 10.1684 226.648 10.1745 226.648 10.1805C226.644 10.2355 226.64 10.2905 226.637 10.3456ZM226.708 9.31242C226.596 9.34622 226.499 9.37669 226.412 9.405C226.421 9.27574 226.43 9.14648 226.439 9.01722C226.536 9.00457 226.633 8.99062 226.731 8.97548C226.723 9.08779 226.715 9.2001 226.708 9.31242ZM233.415 7.08446C233.318 7.11125 233.22 7.13822 233.122 7.16526C233.13 7.01953 233.139 6.87381 233.147 6.72808C233.148 6.71105 233.149 6.69402 233.15 6.67699C233.151 6.66506 233.152 6.65314 233.152 6.64122L233.445 6.56871C233.445 6.581 233.444 6.59329 233.443 6.60558C233.442 6.62544 233.441 6.6453 233.44 6.66516C233.432 6.80493 233.423 6.94469 233.415 7.08446ZM233.109 7.38079C233.109 7.38981 233.108 7.39882 233.108 7.40783C233.106 7.4443 233.103 7.48076 233.101 7.51723C233.101 7.52506 233.1 7.53289 233.1 7.54073C233.2 7.50348 233.299 7.46446 233.395 7.42294C233.396 7.42012 233.396 7.41731 233.396 7.41449C233.397 7.39953 233.398 7.38457 233.399 7.36961H233.367L233.364 7.37002C233.279 7.37077 233.205 7.37289 233.131 7.37894C233.123 7.37952 233.116 7.38014 233.109 7.38079ZM219.91 12.2137C219.812 12.2371 219.714 12.2575 219.616 12.2744C219.626 12.1368 219.637 11.9992 219.648 11.8616C219.745 11.8202 219.845 11.7775 219.948 11.7341C219.935 11.8939 219.922 12.0538 219.91 12.2137ZM213.182 13.9956C213.021 14.021 212.945 14.0309 212.889 14.0348C212.892 13.9969 212.896 13.959 212.899 13.9212C212.957 13.8694 213.038 13.815 213.208 13.7133C213.199 13.8074 213.191 13.9015 213.182 13.9956ZM213.23 13.4626C213.128 13.4861 213.032 13.5125 212.933 13.5459C212.955 13.298 212.977 13.0502 213 12.8024C213.09 12.7678 213.19 12.7303 213.3 12.6894C213.276 12.9471 213.253 13.2049 213.23 13.4626ZM153.863 456.361C153.771 456.497 153.678 456.634 153.585 456.77C152.796 425.434 152.581 394.098 152.94 362.762C153.042 363.05 153.136 363.316 153.219 363.555C152.874 394.49 153.089 425.426 153.863 456.361ZM145.558 466.276C145.464 466.357 145.37 466.436 145.277 466.515C143.972 424.904 143.762 383.294 144.649 341.686C144.74 341.874 144.832 342.068 144.925 342.267C144.054 383.602 144.265 424.938 145.558 466.276ZM137.719 482.873C137.626 482.925 137.532 482.977 137.437 483.027C135.399 433.654 135.023 384.282 136.307 334.91C136.399 335.018 136.492 335.124 136.587 335.226C135.314 384.442 135.691 433.657 137.719 482.873ZM129.462 488.661C129.374 488.858 129.287 489.053 129.201 489.246C126.626 434.89 126.213 380.535 127.964 326.179C128.06 326.173 128.157 326.168 128.253 326.163C126.507 380.329 126.911 434.494 129.462 488.661ZM121.897 503.122C121.807 503.224 121.716 503.321 121.626 503.414C117.714 436.184 117.348 368.954 120.529 301.724C120.625 301.72 120.721 301.716 120.818 301.712C117.641 368.849 118.001 435.986 121.897 503.122ZM113.454 504.882C113.385 504.756 113.317 504.625 113.249 504.491C108.537 429.382 108.555 354.273 113.303 279.164C113.396 279.366 113.479 279.57 113.553 279.776C108.834 354.817 108.838 429.859 113.563 504.9C113.527 504.894 113.49 504.888 113.454 504.882ZM104.806 499.677C104.709 499.672 104.612 499.666 104.516 499.658C99.8927 427.535 99.9197 355.419 104.597 283.307C104.695 283.302 104.792 283.297 104.887 283.291C100.207 355.415 100.18 427.542 104.806 499.677ZM96.3603 499.552C96.2664 499.555 96.1704 499.559 96.0719 499.562C91.1666 427.62 91.1865 355.679 96.1316 283.737C96.2252 283.782 96.3183 283.83 96.4108 283.881C91.4746 355.771 91.4577 427.661 96.3603 499.552ZM88.1356 502.462C88.0408 502.464 87.9445 502.465 87.8467 502.467C82.3419 428.401 82.382 354.338 87.9668 280.272C88.0314 280.575 88.1061 280.876 88.1889 281.166C82.6697 354.932 82.6519 428.696 88.1356 502.462ZM79.3344 497.413C79.2308 497.304 79.1267 497.202 79.022 497.104C73.5044 423.533 73.7897 349.96 79.8778 276.389C79.9744 276.386 80.071 276.383 80.1679 276.381C74.0689 350.057 73.7911 423.736 79.3344 497.413ZM70.822 496.292C70.7283 496.316 70.6337 496.34 70.5384 496.364C64.6639 421.934 65.0829 347.496 71.7957 273.055C71.8893 273.067 71.9847 273.081 72.0818 273.095C65.3727 347.5 64.9528 421.9 70.822 496.292ZM62.3645 492.866C62.2672 492.846 62.1693 492.828 62.071 492.813C56.2857 420.913 56.7052 349.016 63.3295 277.116C63.3583 277.129 63.3871 277.142 63.4157 277.155C63.4906 277.076 63.5644 276.999 63.637 276.923C56.9921 348.905 56.5679 420.884 62.3645 492.866ZM55.1597 506.339C55.0725 506.399 54.9816 506.457 54.8868 506.515C47.3938 428.987 47.5273 351.458 55.2871 273.93C55.3812 273.937 55.4772 273.944 55.575 273.951C47.8207 351.414 47.6823 428.877 55.1597 506.339ZM96.4718 744.52C95.3795 741.051 94.3032 737.582 93.2432 734.114C93.125 734.042 93.0006 733.969 92.8698 733.892C93.9539 737.442 95.0549 740.993 96.1728 744.544C96.2736 744.536 96.3731 744.528 96.4718 744.52ZM90.7321 744.067C90.6159 744.02 90.4971 743.972 90.3763 743.924C82.2455 719.406 74.9647 694.889 68.5339 670.373C68.8379 671.075 69.1117 671.736 69.3584 672.361C70.1266 675.267 70.9067 678.174 71.6988 681.081L71.706 681.149C71.714 681.164 71.722 681.18 71.73 681.195C77.4428 702.151 83.7768 723.109 90.7321 744.067ZM84.9558 742.996C84.8527 742.995 84.7484 742.992 84.6424 742.988C69.2095 698.797 56.6925 654.607 47.0917 610.415L47.599 611.381C57.1761 655.252 69.6284 699.124 84.9558 742.996ZM78.6444 740.272C78.4768 740.097 78.3089 739.923 78.1406 739.749C26.7493 598.939 6.59245 458.087 17.67 317.244C17.7677 317.226 17.8655 317.208 17.9636 317.19C6.85847 458.225 27.0854 599.268 78.6444 740.272ZM70.5737 732.446C70.4151 732.302 70.2563 732.158 70.0973 732.015C18.3052 594.24 -1.99624 456.506 9.19305 318.791C9.29302 318.717 9.39528 318.645 9.49991 318.576C-1.74432 456.506 18.6136 594.453 70.5737 732.446ZM62.7324 725.643C62.5768 725.513 62.421 725.383 62.2651 725.253C10.351 591.636 -10.3294 458.053 0.224281 324.464C0.316696 324.486 0.411831 324.509 0.508291 324.532C-10.0478 458.227 10.6935 591.915 62.7324 725.643ZM55.0676 719.377C54.9109 719.251 54.7542 719.125 54.5975 718.998C-0.0698619 583.027 -20.6254 447.014 -7.06895 311.012C-6.96717 310.958 -6.86523 310.905 -6.76309 310.853C-20.3702 447.034 0.240012 583.224 55.0676 719.377ZM47.3488 713.153C47.1877 713.022 47.0267 712.891 46.8657 712.76C-7.99603 580.736 -28.9821 448.747 -16.0925 316.749C-15.9888 316.677 -15.885 316.604 -15.7813 316.532C-28.7343 448.732 -7.69091 580.922 47.3488 713.153ZM39.4023 706.538C39.2323 706.391 39.0624 706.245 38.8927 706.098C-5.91374 601.445 -28.3191 496.81 -28.3191 392.171C-28.3191 368.972 -27.2178 345.773 -25.0151 322.573C-24.9128 322.517 -24.8108 322.459 -24.7088 322.401C-26.9236 345.658 -28.0309 368.915 -28.0309 392.171C-28.0309 496.948 -5.55463 601.728 39.4023 706.538ZM30.9985 698.926C30.8101 698.745 30.6222 698.563 30.4346 698.381C-14.5072 596.359 -36.9805 494.306 -36.9805 392.235C-36.9805 370.764 -35.9861 349.293 -33.9974 327.822C-33.8805 327.597 -33.763 327.373 -33.645 327.15C-35.6765 348.846 -36.6923 370.541 -36.6923 392.235C-36.6923 494.479 -14.1303 596.713 30.9985 698.926ZM20.3292 686.463L19.4532 685.223C-23.9414 587.53 -45.6411 489.853 -45.6411 392.171C-45.6411 379.637 -45.2838 367.104 -44.5693 354.57C-44.4519 354.185 -44.3333 353.801 -44.2136 353.416C-44.9731 366.335 -45.3529 379.253 -45.3529 392.171C-45.3529 490.257 -23.4605 588.346 20.3292 686.463ZM6.45862 666.831L5.60852 665.628C-33.4053 576.37 -53.3189 487.107 -54.1277 397.84C-54.0413 397.262 -53.9499 396.661 -53.8532 396.039C-53.2949 486.298 -33.1924 576.562 6.45862 666.831ZM-8.0056 646.359L-8.82018 645.206C-37.8095 577.27 -55.1262 509.341 -60.768 441.411C-60.6936 441.145 -60.619 440.88 -60.5441 440.615C-54.9373 509.189 -37.4252 577.767 -8.0056 646.359ZM14.791 703.011C10.153 694.629 5.70262 686.247 1.43997 677.865C1.03338 677.277 0.625904 676.691 0.216456 676.11C4.7112 685.008 9.41731 693.906 14.3347 702.804C14.4964 702.893 14.6486 702.962 14.791 703.011ZM4.25603 691.277C3.73531 690.558 3.20756 689.82 2.67496 689.068C-4.83799 675.606 -11.8397 662.144 -18.3304 648.681C-18.2266 648.656 -18.127 648.635 -18.0303 648.619C-11.1722 662.839 -3.74349 677.058 4.25603 691.277ZM-72.6472 481.506C-71.3679 489.132 -69.9248 496.757 -68.3178 504.382C-68.0516 505.234 -67.765 506.114 -67.4554 507.033C-69.6496 496.87 -71.5524 486.706 -73.1638 476.543C-73.1484 476.98 -73.1133 477.425 -73.0783 477.869C-72.927 479.151 -72.7843 480.36 -72.6472 481.506ZM-78.5759 432.97C-78.4998 433.964 -78.4208 434.959 -78.3391 435.953L-78.07 435.705C-78.4368 431.217 -78.7468 426.73 -79 422.242V426.988C-78.9737 427.391 -78.947 427.794 -78.9197 428.196L-78.704 427.947C-78.704 427.974 -78.7004 428.065 -78.6945 428.22C-78.6707 428.837 -78.6082 430.46 -78.5759 432.97ZM-65.9666 315.694L-66.5589 317.932C-66.6013 318.253 -66.6435 318.574 -66.6854 318.895C-66.7343 319.27 -66.7829 319.645 -66.8312 320.02C-66.8399 320.088 -66.8486 320.156 -66.8572 320.223C-66.8578 320.227 -66.8583 320.232 -66.8588 320.236C-66.8485 320.221 -66.8379 320.207 -66.827 320.193C-66.8508 320.309 -66.8745 320.426 -66.8982 320.544C-66.9361 320.84 -66.9736 321.136 -67.0109 321.432L-67.0086 321.435L-67.0136 321.454C-68.161 330.561 -69.087 339.667 -69.7917 348.774C-69.7037 348.392 -69.6149 347.998 -69.5254 347.593C-69.4614 347.28 -69.3984 346.975 -69.3361 346.677C-68.6104 337.736 -67.671 328.794 -66.5182 319.852C-66.5118 319.803 -66.5054 319.753 -66.4989 319.703C-66.3966 318.911 -66.2926 318.119 -66.1869 317.327C-66.1577 317.108 -66.1285 316.89 -66.0991 316.672C-66.0909 316.611 -66.0827 316.55 -66.0745 316.489C-66.0387 316.224 -66.0028 315.959 -65.9666 315.694ZM-45.8808 251.733C-46.1337 252.373 -46.3839 253.014 -46.6336 253.664C-46.7321 254.085 -46.8302 254.507 -46.9278 254.929C-51.6476 275.318 -55.3157 295.708 -57.9319 316.097C-57.8324 316.071 -57.7319 316.044 -57.6305 316.018C-54.9314 295.019 -51.1159 274.019 -46.184 253.018C-46.0834 252.59 -45.9823 252.162 -45.8808 251.733ZM-28.8325 214.172C-28.6012 213.713 -28.3692 213.255 -28.1365 212.798C-28.2601 213.229 -28.3832 213.659 -28.506 214.09C-37.9956 247.41 -44.8218 280.73 -48.9848 314.048C-49.0849 314.069 -49.1845 314.091 -49.2838 314.112C-45.1845 281.256 -38.4971 248.4 -29.2218 215.545C-29.0925 215.088 -28.9628 214.63 -28.8325 214.172ZM-12.8815 185.259C-13.094 185.604 -13.3022 185.943 -13.5065 186.277C-13.5146 186.303 -13.5227 186.329 -13.5308 186.355C-26.6325 228.346 -35.7252 270.336 -40.8082 312.326C-40.7089 312.305 -40.6093 312.283 -40.5095 312.262C-35.3791 269.94 -26.1729 227.616 -12.8905 185.288C-12.8875 185.278 -12.8845 185.268 -12.8815 185.259ZM0.148718 164.976C-13.1393 205.644 -22.8609 246.313 -29.0156 286.981C-28.9169 286.97 -28.8176 286.958 -28.7176 286.945C-22.5206 246.034 -12.7119 205.121 0.708914 164.205C0.520743 164.464 0.334031 164.721 0.148718 164.976ZM-33.3393 321.07C-33.2351 321.02 -33.132 320.967 -33.0328 320.911C-33.0932 321.5 -33.1528 322.088 -33.2117 322.677C-33.3189 322.76 -33.4174 322.823 -33.522 322.88C-33.4619 322.277 -33.401 321.673 -33.3393 321.07ZM-43.7094 345.622C-42.9489 334.853 -41.9246 324.084 -40.6363 313.315C-40.7353 313.33 -40.8341 313.345 -40.9325 313.359C-42.1075 323.193 -43.0626 333.027 -43.7978 342.861L-43.7662 342.806C-43.7029 343.245 -43.7208 343.715 -43.7389 344.189C-43.7573 344.671 -43.7758 345.159 -43.7094 345.622ZM-53.6737 376.695C-53.7749 376.993 -53.8783 377.29 -53.9834 377.587C-53.495 356.638 -51.9546 335.69 -49.3621 314.742C-49.2633 314.724 -49.164 314.706 -49.0644 314.688C-51.6257 335.357 -53.1621 356.026 -53.6737 376.695ZM-62.5246 392.172C-62.5246 366.938 -60.9125 341.704 -57.6883 316.47C-57.7893 316.494 -57.8895 316.519 -57.989 316.543C-61.2048 341.753 -62.8127 366.962 -62.8127 392.172C-62.8127 399.635 -62.6718 407.098 -62.39 414.562L-62.1634 412.861C-62.4042 405.964 -62.5246 399.068 -62.5246 392.172ZM-48.0494 553.459C-55.6486 526.985 -61.3758 500.511 -65.231 474.038C-65.2314 474.062 -65.2318 474.085 -65.2322 474.108C-65.3111 474.199 -65.39 474.301 -65.469 474.41C-61.6748 500.363 -56.0828 526.316 -48.6931 552.269C-48.4793 552.666 -48.2646 553.062 -48.0494 553.459ZM-66.9719 461.053C-67.0682 461.067 -67.1644 461.073 -67.2606 461.072C-70.0695 438.134 -71.474 415.196 -71.474 392.257C-71.474 381.063 -71.1395 369.869 -70.4706 358.675C-70.3486 358.193 -70.2226 357.711 -70.0934 357.23C-70.8217 368.906 -71.1858 380.581 -71.1858 392.257C-71.1858 415.189 -69.7812 438.12 -66.9719 461.053ZM12.085 148.779C-3.14137 194.645 -14.0644 240.507 -20.6837 286.369C-20.5849 286.317 -20.4801 286.272 -20.3716 286.231C-13.7115 240.17 -2.70784 194.107 12.6398 148.039C12.4548 148.286 12.2698 148.533 12.085 148.779ZM23.3808 134.04C7.48128 181.584 -4.02454 229.124 -11.1366 276.663L-10.901 276.3C-10.8467 276.195 -10.7946 276.095 -10.7446 275.999C-3.58759 228.457 7.96599 180.912 23.9162 133.364C23.7385 133.588 23.5601 133.813 23.3808 134.04ZM31.6591 128.331C18.315 169.473 8.09353 210.618 0.994594 251.765C1.02111 251.743 1.0476 251.721 1.07411 251.699C1.16174 251.627 1.2494 251.554 1.33724 251.482C8.44224 210.402 18.6612 169.323 31.9941 128.246C31.881 128.274 31.7694 128.303 31.6591 128.331ZM38.6037 126.886C25.5997 168.905 15.6849 210.922 8.85954 252.937L9.19463 252.679C16.0247 210.731 25.9355 168.782 38.9271 126.829C38.8187 126.848 38.7109 126.867 38.6037 126.886ZM8.20018 257.057C8.33211 256.831 8.46614 256.6 8.60239 256.365C7.57149 262.868 6.61464 269.371 5.73182 275.874C5.58652 276.315 5.43509 276.751 5.26504 277.172C6.16474 270.467 7.14312 263.762 8.20018 257.057ZM1.41514 313.884C1.59909 311.871 1.79015 309.858 1.9883 307.845C1.88977 307.861 1.79152 307.877 1.69348 307.894C1.40889 310.788 1.13895 313.683 0.883645 316.577C1.05573 315.677 1.23523 314.78 1.41514 313.884ZM45.491 125.8C32.4147 170.138 22.6032 214.478 16.0566 258.819C16.2084 258.489 16.3548 258.157 16.4966 257.822C23.0476 213.799 32.8183 169.777 45.8087 125.755C45.7024 125.77 45.5965 125.785 45.491 125.8ZM52.2155 124.912C41.7333 162.269 33.4492 199.628 27.363 236.989C27.4597 236.922 27.5566 236.856 27.6533 236.791C27.6665 236.782 27.6797 236.773 27.6928 236.764C33.7801 199.465 42.0589 162.168 52.5292 124.873C52.4244 124.886 52.3198 124.899 52.2155 124.912ZM59.1495 124.112C49.8284 159.042 42.3292 193.972 36.652 228.903C36.7417 228.798 36.8633 228.657 37.0135 228.483C42.6865 193.681 50.1687 158.88 59.46 124.078C59.3563 124.089 59.2528 124.1 59.1495 124.112ZM34.8473 240.413C34.9571 240.342 35.0657 240.268 35.1731 240.192C34.52 244.507 33.8947 248.823 33.2972 253.138C33.1791 253.281 33.0621 253.424 32.9461 253.567C33.5511 249.182 34.1848 244.797 34.8473 240.413ZM60.0655 148.469C54.6866 171.859 50.082 195.25 46.2518 218.641C46.3678 218.53 46.4835 218.421 46.5991 218.312C50.425 194.999 55.0203 171.687 60.3852 148.375C60.2832 148.405 60.1768 148.436 60.0655 148.469ZM44.4254 230.179C44.5477 230.032 44.6681 229.885 44.7859 229.735C44.0784 234.349 43.401 238.964 42.7538 243.578C42.6428 243.676 42.5316 243.775 42.4204 243.875C43.0592 239.31 43.7275 234.744 44.4254 230.179ZM66.9486 149.792C60.803 178.171 55.7367 206.551 51.7498 234.93C51.849 234.833 51.9584 234.736 52.0834 234.634C56.0445 206.5 61.0669 178.367 67.1502 150.233C67.0765 150.069 67.0096 149.923 66.9486 149.792ZM47.1312 272.368C47.222 272.394 47.311 272.42 47.3984 272.445C39.0038 350.895 38.86 429.344 46.9669 507.794C46.8706 507.799 46.7744 507.804 46.6782 507.809C38.5702 429.331 38.716 350.853 47.1156 272.375C47.1208 272.372 47.126 272.37 47.1312 272.368ZM38.6874 508.26C31.1712 439.628 30.3213 371.004 36.1375 302.383C36.0353 302.458 35.9326 302.532 35.8293 302.605C30.0351 371.158 30.8918 439.716 38.3991 508.28C38.4951 508.273 38.5912 508.267 38.6874 508.26ZM45.258 557.722C43.2252 544.705 41.4321 531.689 39.8788 518.672C39.7409 518.265 39.5937 517.834 39.433 517.363C39.4325 517.36 39.432 517.357 39.4315 517.354C41.0453 531.025 42.9237 544.697 45.0664 558.368C45.1378 558.155 45.2013 557.94 45.258 557.722ZM68.1435 667.725C65.3465 656.964 62.7133 646.202 60.2439 635.441L59.7159 634.436C62.3188 645.831 65.1054 657.225 68.0756 668.62C68.0966 668.388 68.1201 668.087 68.1435 667.725ZM45.6844 602.428C45.3886 601.015 45.0958 599.602 44.806 598.19C44.6086 597.529 44.4635 597.11 44.3185 596.692C44.248 596.542 44.1793 596.392 44.1124 596.242C44.6022 598.653 45.1006 601.064 45.6078 603.475C45.649 603.123 45.675 602.77 45.6844 602.428ZM41.9015 583.509C41.8879 583.994 41.8817 584.478 41.8841 584.962C24.0946 492.268 19.1347 399.575 27.0047 306.882C27.1048 306.836 27.2052 306.791 27.3058 306.746C19.4576 399 24.3229 491.255 41.9015 583.509ZM24.0117 261.248C23.9183 261.203 23.826 261.164 23.7361 261.131C23.9421 259.633 24.1515 258.136 24.3646 256.639H24.6565C24.4378 258.175 24.2229 259.712 24.0117 261.248ZM25.1512 253.207C25.3997 251.503 25.6529 249.8 25.9107 248.096C25.8037 248.166 25.696 248.234 25.5874 248.301C25.3333 249.983 25.0837 251.665 24.8385 253.348C24.9144 253.305 24.9926 253.263 25.073 253.219C25.0992 253.215 25.1252 253.211 25.1512 253.207ZM30.47 275.328C30.3721 275.337 30.2742 275.345 30.1764 275.353C30.4865 272.686 30.8074 270.019 31.1388 267.351C31.2336 267.373 31.3283 267.392 31.4226 267.409C31.0947 270.049 30.7771 272.689 30.47 275.328ZM73.2869 154.433C68.685 177.309 64.7471 200.184 61.4732 223.06C61.583 222.957 61.6946 222.857 61.8082 222.759C65.0832 199.924 69.0201 177.089 73.6187 154.254C73.5095 154.323 73.3988 154.383 73.2869 154.433ZM81.4093 150.492C76.6105 175.301 72.5504 200.108 69.2289 224.915C69.3162 224.926 69.4114 224.938 69.5154 224.952C72.7214 201.01 76.6157 177.067 81.1981 153.123C81.1919 153.094 81.1861 153.064 81.1807 153.033L81.243 152.889C81.3922 152.11 81.5421 151.331 81.6928 150.553C81.5964 150.53 81.5002 150.508 81.4093 150.492ZM88.9872 148.027C84.0426 174.78 79.9107 201.533 76.5915 228.285C76.6924 228.225 76.7972 228.162 76.9061 228.097C80.5161 199.041 85.0851 169.986 90.6132 140.93C90.4928 141.056 90.372 141.163 90.2567 141.253C89.8753 143.261 89.4985 145.269 89.1263 147.276C89.1949 147.359 89.2606 147.454 89.323 147.562L88.9872 148.027ZM95.0189 156.009C90.2548 184.231 86.3448 212.454 83.2888 240.678C83.3833 240.687 83.4791 240.697 83.5761 240.706C86.6342 212.465 90.5476 184.225 95.3164 155.986C95.2114 155.993 95.1126 156.001 95.0189 156.009ZM100.678 168.007C96.8008 193.676 93.5896 219.345 91.0443 245.013H91.2475C91.2475 245.218 91.2561 245.434 91.2711 245.652C93.8229 219.812 97.0498 193.972 100.952 168.131C100.863 168.081 100.772 168.04 100.678 168.007ZM89.623 263.418C89.795 261.435 89.9711 259.452 90.1512 257.468C90.0413 257.667 89.926 257.875 89.805 258.092C89.6483 259.826 89.4947 261.56 89.3441 263.293C89.4302 263.331 89.5232 263.373 89.623 263.418ZM106.797 179.105C102.826 208.494 99.6765 237.884 97.3493 267.273C97.4412 267.323 97.5337 267.373 97.6267 267.424C99.9549 237.993 103.108 208.562 107.085 179.131C106.99 179.119 106.895 179.111 106.797 179.105ZM109.106 227.899C107.668 242.585 106.423 257.271 105.371 271.957C105.463 272.015 105.556 272.073 105.648 272.131C106.706 257.345 107.959 242.559 109.408 227.773C109.307 227.814 109.206 227.856 109.106 227.899ZM117.632 224.082C116.07 240.702 114.74 257.321 113.641 273.941C113.745 273.762 113.852 273.586 113.964 273.415C115.058 256.962 116.378 240.508 117.925 224.055C117.828 224.064 117.731 224.073 117.632 224.082ZM125.817 223.642C124.463 239.006 123.294 254.369 122.31 269.732C122.408 269.702 122.506 269.672 122.605 269.641C123.588 254.294 124.757 238.948 126.11 223.601C126.038 223.615 125.964 223.628 125.889 223.642C125.865 223.642 125.841 223.642 125.817 223.642ZM131.895 249.134C131.683 252.167 131.478 255.2 131.28 258.233C131.391 258.023 131.502 257.812 131.61 257.6C131.787 254.913 131.969 252.226 132.156 249.539C132.075 249.405 131.988 249.27 131.895 249.134ZM132.928 238.857C132.825 239.008 132.718 239.156 132.605 239.302C132.979 234.292 133.371 229.281 133.782 224.271C133.877 224.296 133.972 224.318 134.066 224.338C133.669 229.178 133.29 234.017 132.928 238.857ZM139.902 163.968C139.87 163.97 139.837 163.973 139.805 163.975L139.962 163.432C139.942 163.611 139.922 163.789 139.902 163.968ZM142.789 139.376C142.673 139.529 142.555 139.688 142.44 139.85C143 135.298 143.576 130.746 144.167 126.195C144.265 126.186 144.363 126.177 144.462 126.167C143.89 130.57 143.333 134.973 142.789 139.376ZM151.609 126.341C151.712 126.295 151.815 126.247 151.917 126.199C151.773 127.389 151.631 128.58 151.489 129.77C151.387 129.796 151.286 129.825 151.187 129.859C151.327 128.686 151.468 127.513 151.609 126.341ZM149.803 141.75C149.897 141.789 149.99 141.832 150.079 141.876C149.233 149.321 148.424 156.766 147.653 164.212C147.609 164.094 147.503 164.018 147.39 163.945C148.157 156.546 148.961 149.148 149.803 141.75ZM156.89 147.707C156.928 147.735 156.968 147.765 157.009 147.793C156.76 150.202 156.515 152.611 156.274 155.019C156.169 155.031 156.073 155.04 155.981 155.048C156.23 152.565 156.482 150.081 156.739 147.598C156.786 147.629 156.837 147.667 156.89 147.707ZM155.278 165.179C155.331 164.632 155.383 164.084 155.436 163.536C155.364 163.457 155.274 163.383 155.169 163.306C155.091 164.106 155.014 164.907 154.938 165.708C155.038 165.592 155.128 165.47 155.201 165.343C155.228 165.286 155.254 165.232 155.278 165.179ZM155.554 159.353C155.513 159.775 155.471 160.197 155.43 160.619C155.542 160.202 155.612 159.782 155.554 159.353ZM150.497 135.717C150.433 136.268 150.369 136.819 150.305 137.371C150.63 136.653 150.772 136.242 150.666 135.953C150.633 135.865 150.578 135.788 150.497 135.717ZM134.284 147.909C134.656 144.999 135.034 142.089 135.419 139.18C135.321 139.199 135.221 139.217 135.121 139.233C134.711 142.332 134.308 145.431 133.913 148.53C133.953 148.464 133.992 148.398 134.031 148.331C134.115 148.191 134.199 148.05 134.284 147.909ZM123.3 174.259C124.423 165.043 125.618 155.826 126.883 146.61C126.791 146.746 126.705 146.891 126.629 147.049L126.526 147.089C125.283 156.164 124.108 165.24 123.003 174.315C123.1 174.297 123.199 174.278 123.3 174.259ZM130.163 81.2755C130.309 80.4895 130.455 79.7034 130.602 78.9174C130.559 78.8844 130.517 78.856 130.478 78.8336C130.518 78.696 130.547 78.5953 130.563 78.4919C130.588 78.3227 130.577 78.1462 130.518 77.7888C130.295 78.981 130.072 80.1732 129.852 81.3654L130.163 81.2755ZM128.49 90.4382C128.626 89.6768 128.764 88.9154 128.902 88.154C128.793 88.2006 128.685 88.2556 128.578 88.3148C127.352 95.0885 126.166 101.862 125.021 108.636C125.118 108.621 125.218 108.611 125.32 108.603C126.305 102.778 127.32 96.9529 128.366 91.1279L128.258 90.6303C128.335 90.5708 128.412 90.5062 128.49 90.4382ZM115.566 173.793C116.391 167.455 117.252 161.117 118.149 154.779C118.008 155.062 117.872 155.332 117.743 155.589C116.877 161.732 116.045 167.874 115.246 174.016C115.354 173.945 115.46 173.87 115.566 173.793ZM109.163 164.271C109.28 163.459 109.398 162.646 109.517 161.833C109.411 161.917 109.302 161.998 109.19 162.074C109.081 162.817 108.974 163.559 108.866 164.301C108.965 164.294 109.063 164.285 109.163 164.271ZM101.602 163.861C101.754 162.873 101.907 161.886 102.061 160.898H101.769C101.604 161.953 101.441 163.008 101.279 164.063L101.602 163.861ZM108.693 120.065C108.402 121.651 108.114 123.238 107.828 124.824C107.929 124.84 108.025 124.849 108.118 124.85C108.406 123.249 108.697 121.648 108.991 120.046C108.892 120.053 108.792 120.059 108.693 120.065ZM97.8004 141.708C98.423 138.231 99.0586 134.754 99.7072 131.277C99.6471 131.233 99.5904 131.19 99.5378 131.149C99.6333 130.414 99.7083 129.837 99.7671 129.382C98.964 133.658 98.1804 137.934 97.4164 142.21C97.5501 142.035 97.678 141.868 97.8004 141.708ZM102.267 117.9C102.116 118.108 101.978 118.308 101.855 118.496C104.544 104.746 107.437 90.9962 110.532 77.2469C110.572 77.2024 110.609 77.1614 110.641 77.1239C110.618 77.1109 110.594 77.0988 110.568 77.0877C111.961 70.9047 113.395 64.7217 114.869 58.5389C114.986 58.4725 115.101 58.4054 115.216 58.3374C110.477 78.191 106.16 98.0451 102.267 117.9ZM92.8587 129.392C93.4234 126.554 93.9972 123.716 94.5802 120.879C94.4799 120.886 94.3797 120.893 94.2795 120.901C93.6781 123.829 93.0864 126.758 92.5045 129.686C92.6023 129.592 92.7165 129.497 92.8587 129.392ZM82.2046 147.921C82.2669 147.602 82.3294 147.283 82.392 146.964C82.2757 147.234 82.1672 147.492 82.069 147.733L82.2046 147.921ZM83.3029 142.368C84.7011 135.376 86.158 128.385 87.6736 121.393C87.5727 121.401 87.4719 121.409 87.3713 121.417C85.8193 128.58 84.3289 135.742 82.9001 142.904C83.0154 142.747 83.1344 142.59 83.2533 142.433C83.2698 142.411 83.2863 142.389 83.3029 142.368ZM76.8183 138.864C76.8018 138.8 76.7764 138.736 76.7395 138.672C76.6943 138.62 76.6491 138.583 76.5871 138.558C76.7685 137.713 76.9508 136.868 77.134 136.022L77.4797 135.424C77.4074 135.424 77.3352 135.425 77.263 135.428C77.4364 134.63 77.6106 133.831 77.7857 133.033C77.8859 133.065 77.9805 133.083 78.0706 133.089C77.6485 135.014 77.231 136.939 76.8183 138.864ZM83.5441 109.228C83.4225 109.326 83.299 109.426 83.1736 109.527C85.6225 99.2871 88.2044 89.0474 90.9194 78.8077C91.0441 78.7146 91.1691 78.6221 91.2944 78.5301C88.5781 88.7626 85.9947 98.995 83.5441 109.228ZM92.1058 75.4881C91.9965 75.5093 91.8904 75.5322 91.7851 75.5596C92.21 73.9733 92.6382 72.387 93.0695 70.8007C93.197 70.7002 93.3249 70.6003 93.453 70.501C93.0004 72.1634 92.5514 73.8258 92.1058 75.4881ZM100.713 65.595C100.137 67.7993 99.5669 70.0037 99.0026 72.208C99.1192 72.1442 99.2358 72.0805 99.3518 72.0173C99.9185 69.8061 100.491 67.5949 101.069 65.3837C100.952 65.4532 100.833 65.5237 100.713 65.595ZM93.7644 69.3593C93.6362 69.4591 93.5081 69.5595 93.3801 69.6606C93.4776 69.3031 93.5753 68.9457 93.6731 68.5883C93.6788 68.5841 93.6845 68.5798 93.6902 68.5756C93.811 68.4859 93.9319 68.3962 94.0527 68.306C93.9565 68.6571 93.8603 69.0082 93.7644 69.3593ZM101.296 63.3712C101.23 63.6225 101.164 63.8737 101.098 64.125C101.231 64.0253 101.358 63.9257 101.478 63.826C101.526 63.6426 101.574 63.4591 101.623 63.2757H101.61C101.485 63.3119 101.386 63.3405 101.296 63.3712ZM101.719 61.767C101.692 61.8714 101.664 61.9759 101.637 62.0803C101.759 61.9966 101.882 61.9128 102.004 61.8288C102.033 61.7189 102.062 61.609 102.092 61.4991C101.979 61.5784 101.868 61.6577 101.758 61.737C101.745 61.7473 101.732 61.7573 101.719 61.767ZM94.414 66.9903L94.3564 67.0369L94.2083 67.2079C94.137 67.2816 94.0648 67.3543 93.992 67.4259C94.0357 67.2665 94.0796 67.107 94.1235 66.9476C94.1517 66.925 94.18 66.8986 94.2083 66.8659L94.4936 66.7012C94.4671 66.7976 94.4405 66.894 94.414 66.9903ZM86.5901 72.7401C86.5921 72.7329 86.5942 72.7258 86.5963 72.7186L86.2031 73.0332C86.2025 73.0353 86.202 73.0374 86.2013 73.0395C86.3309 72.9396 86.4605 72.8398 86.5901 72.7401ZM78.5927 79.1008C78.4583 79.2117 78.324 79.3228 78.1898 79.4341C78.1883 79.4389 78.1869 79.4437 78.1855 79.4485L78.5841 79.1295C78.587 79.1199 78.5899 79.1104 78.5927 79.1008ZM86.1682 73.1556C86.298 73.0554 86.4277 72.9555 86.5571 72.8557C86.4737 73.1479 86.3905 73.4401 86.3073 73.7324C86.1329 73.9544 85.9654 74.1862 85.8059 74.4293C85.9265 74.0047 86.0473 73.5802 86.1682 73.1556ZM85.6197 75.0857C85.7475 74.9911 85.8754 74.8968 86.0031 74.8029C85.9436 75.0127 85.8842 75.2225 85.8248 75.4323C85.6824 75.5324 85.5593 75.5834 85.4784 75.5852C85.5255 75.4187 85.5726 75.2522 85.6197 75.0857ZM76.6749 85.6587C77.3036 83.4858 77.939 81.3129 78.5811 79.14C78.4471 79.2489 78.3134 79.3579 78.1801 79.4668C77.5382 81.642 76.9031 83.8171 76.2747 85.9923C76.4078 85.8806 76.5412 85.7695 76.6749 85.6587ZM75.6651 89.1688C75.8518 88.5162 76.0391 87.8636 76.2269 87.211H75.9993C75.9683 87.2289 75.9379 87.2461 75.9083 87.2628C75.714 87.9382 75.5203 88.6136 75.3273 89.289C75.4418 89.2416 75.5543 89.2016 75.6651 89.1688ZM82.8409 85.0514C82.9904 84.9058 83.1282 84.7702 83.2533 84.6465L83.2545 84.6459C80.4814 94.7353 77.8448 104.825 75.3447 114.914C75.2296 114.967 75.1176 115.016 75.0089 115.06C77.4855 105.057 80.0961 95.0543 82.8409 85.0514ZM69.2606 112.455C71.1022 105.481 73.0127 98.506 74.992 91.5314C74.8694 91.6051 74.7482 91.6757 74.6288 91.7428C72.6668 98.6636 70.7726 105.584 68.9462 112.505C69.0496 112.488 69.1544 112.471 69.2606 112.455ZM67.2648 119.353C67.3369 119.353 67.4021 119.353 67.4619 119.352C67.1314 120.636 66.8032 121.919 66.4774 123.202C66.3746 123.212 66.272 123.222 66.1695 123.232C66.5074 121.901 66.8477 120.57 67.1906 119.238L67.2648 119.353ZM65.6576 126.451C65.9158 125.422 66.1755 124.392 66.4367 123.363C66.3339 123.373 66.2313 123.383 66.1288 123.393C65.851 124.489 65.5747 125.584 65.3003 126.68C65.4193 126.6 65.5385 126.524 65.6576 126.451ZM61.512 143.527C62.3601 139.914 63.2266 136.301 64.1115 132.688H64.0079C63.9217 132.768 63.8371 132.846 63.7549 132.922C62.8209 136.739 61.9077 140.557 61.015 144.375C61.1848 144.097 61.3501 143.816 61.512 143.527ZM59.5027 123.918C59.3989 123.93 59.2955 123.941 59.1921 123.952C62.5674 111.311 66.1813 98.6698 70.0338 86.0287C70.1698 85.9134 70.3072 85.7971 70.4457 85.6797C66.5553 98.4259 62.9077 111.172 59.5027 123.918ZM52.5736 124.715C55.5536 114.107 58.7109 103.498 62.0456 92.8903C61.9031 93.0163 61.7615 93.1419 61.6208 93.267C58.327 103.762 55.2067 114.258 52.26 124.753C52.3643 124.741 52.4688 124.728 52.5736 124.715ZM45.8549 125.598C48.2725 117.41 50.8016 109.222 53.442 101.034C53.2912 101.186 53.1391 101.341 52.9856 101.497C50.3952 109.546 47.9124 117.595 45.5371 125.644C45.6427 125.629 45.7486 125.614 45.8549 125.598ZM38.9747 126.676C40.5977 121.438 42.2688 116.2 43.9879 110.961C43.8309 111.13 43.6724 111.3 43.5124 111.472C41.8467 116.559 40.2263 121.646 38.6511 126.733C38.7584 126.714 38.8662 126.695 38.9747 126.676ZM32.0414 128.101C32.7496 125.92 33.4666 123.74 34.1922 121.559C34.0324 121.733 33.8713 121.908 33.7092 122.084C33.0339 124.118 32.3663 126.151 31.7063 128.185C31.8165 128.157 31.9283 128.129 32.0414 128.101ZM78.2373 79.273C78.3705 79.1652 78.5039 79.0576 78.6372 78.9502C78.6398 78.9413 78.6424 78.9324 78.6451 78.9234C78.511 79.0332 78.3771 79.1429 78.2433 79.2527C78.2413 79.2595 78.2393 79.2663 78.2373 79.273ZM86.258 72.8409C86.2461 72.8824 86.2343 72.9239 86.2225 72.9654C86.3527 72.8635 86.4829 72.7616 86.6131 72.6597C86.6246 72.6194 86.6361 72.579 86.6476 72.5387C86.5176 72.6394 86.3877 72.7401 86.258 72.8409ZM107.742 61.7868L108.093 61.5843C106.564 67.6912 105.077 73.7981 103.633 79.905C103.518 79.9962 103.396 80.094 103.265 80.1991C104.715 74.0617 106.207 67.9242 107.742 61.7868ZM94.6982 120.305C96.0195 113.887 97.3875 107.469 98.8024 101.051C98.6622 101.239 98.5215 101.428 98.3803 101.617C97.0084 107.855 95.6805 114.092 94.3969 120.33C94.4972 120.321 94.5976 120.313 94.6982 120.305ZM87.7899 120.857C88.467 117.74 89.1557 114.622 89.8561 111.505C89.7281 111.621 89.6021 111.739 89.4788 111.86C88.8042 114.867 88.1405 117.874 87.4876 120.881C87.5883 120.873 87.689 120.865 87.7899 120.857ZM98.6818 73.4635C96.4254 82.3108 94.2629 91.158 92.1944 100.005C92.3469 99.793 92.4961 99.5785 92.6442 99.3583C94.6874 90.6416 96.8218 81.9248 99.0473 73.2078C98.9256 73.2934 98.8038 73.3786 98.6818 73.4635ZM116.504 51.7545L116.856 51.5377C116.855 51.5411 116.854 51.5446 116.853 51.548C116.827 51.6566 116.8 51.7653 116.774 51.8739C116.658 51.9421 116.542 52.0113 116.424 52.0819C116.45 51.977 116.475 51.8722 116.501 51.7673C116.502 51.7631 116.503 51.7588 116.504 51.7545ZM122.106 54.7428C117.208 76.287 112.78 97.8305 108.82 119.373C108.919 119.367 109.019 119.36 109.118 119.354C113.094 97.7322 117.542 76.1098 122.462 54.4866C122.335 54.578 122.217 54.6632 122.106 54.7428ZM123.906 46.9145C123.891 46.9811 123.875 47.0477 123.86 47.1143L124.204 46.9174C124.22 46.848 124.236 46.7786 124.252 46.7092C124.137 46.7772 124.022 46.8456 123.906 46.9145ZM131.097 42.8462C131.211 42.7834 131.324 42.7209 131.436 42.6589C131.426 42.7049 131.416 42.751 131.406 42.797L131.065 42.9919C131.076 42.9433 131.086 42.8948 131.097 42.8462ZM131.296 43.2912C131.298 43.2833 131.3 43.2755 131.301 43.2677C131.249 43.2977 131.197 43.3279 131.145 43.3581C131.083 43.3935 131.022 43.4289 130.96 43.4642C130.959 43.4691 130.958 43.4741 130.957 43.4791L131.296 43.2912ZM138.182 39.2515C138.177 39.2795 138.171 39.3076 138.165 39.3357C138.218 39.3087 138.271 39.2818 138.325 39.2549C138.382 39.2259 138.439 39.1969 138.497 39.168C138.504 39.1308 138.512 39.0937 138.52 39.0565L138.182 39.2515ZM145.593 35.5006C145.482 35.5554 145.372 35.6098 145.264 35.6634C145.262 35.6767 145.259 35.69 145.256 35.7033C145.366 35.6514 145.475 35.5996 145.583 35.5479C145.586 35.5321 145.589 35.5164 145.593 35.5006ZM142.893 49.3039C143.011 48.688 143.129 48.0722 143.248 47.4563C143.124 47.5724 143.006 47.6769 142.892 47.7712C142.783 48.3369 142.675 48.9025 142.566 49.4681C142.678 49.4144 142.787 49.3596 142.893 49.3039ZM142.593 50.8712C142.599 50.838 142.606 50.8048 142.612 50.7715C142.52 50.7879 142.418 50.7929 142.313 50.7944C142.291 50.9088 142.269 51.0232 142.247 51.1376C142.358 51.0526 142.473 50.9639 142.593 50.8712ZM142.01 53.9399C142.121 53.3512 142.233 52.7626 142.345 52.1739C142.235 52.2387 142.124 52.3031 142.013 52.3671C141.888 53.0249 141.764 53.6828 141.639 54.3406C141.752 54.2091 141.876 54.0751 142.01 53.9399ZM141.519 56.5477C141.608 56.0741 141.697 55.6003 141.786 55.1266C141.688 55.1412 141.594 55.1398 141.491 55.1285C141.391 55.6556 141.292 56.1826 141.193 56.7097C141.301 56.6527 141.41 56.5992 141.519 56.5477ZM140.816 60.3109C141.001 59.3139 141.187 58.3168 141.374 57.3198C141.263 57.386 141.152 57.451 141.043 57.5144C140.891 58.326 140.74 59.1375 140.589 59.949C140.65 60.0696 140.728 60.1903 140.816 60.3109ZM143.141 46.4811C143.133 46.5228 143.125 46.5644 143.117 46.6061C143.148 46.578 143.179 46.5496 143.21 46.5209L143.141 46.4811ZM136.059 50.9457C136.179 50.354 136.3 49.7623 136.421 49.1707C136.311 49.2541 136.195 49.3436 136.07 49.44C134.304 58.0829 132.605 66.7257 130.973 75.3686C131.114 75.1287 131.261 74.8758 131.411 74.6132C132.899 66.756 134.441 58.8989 136.04 51.0418C136.046 51.0098 136.053 50.9777 136.059 50.9457ZM136.346 48.0919C136.262 48.5033 136.177 48.9146 136.093 49.3259C136.196 49.2453 136.31 49.1599 136.441 49.0728C136.531 48.6352 136.62 48.1977 136.71 47.7602C136.633 47.827 136.554 47.9006 136.474 47.9742C136.431 48.0138 136.388 48.0534 136.346 48.0919ZM129.59 50.7951C129.614 50.7807 129.638 50.7663 129.662 50.752C124.743 73.4627 120.315 96.1734 116.378 118.884C116.279 118.889 116.18 118.894 116.081 118.9C119.998 96.3015 124.4 73.7033 129.289 51.1051C129.398 51.0027 129.5 50.8989 129.59 50.7951ZM115.796 122.261C115.949 121.366 116.104 120.47 116.258 119.574C116.159 119.579 116.061 119.585 115.962 119.59C115.806 120.489 115.652 121.387 115.498 122.286L115.796 122.261ZM108.018 172.332C108.076 171.918 108.134 171.505 108.192 171.091C108.027 171.419 107.898 171.776 107.828 172.181C107.892 172.24 107.955 172.29 108.018 172.332ZM114.222 182.041C114.352 181.944 114.458 181.854 114.547 181.77C114.264 184.029 113.985 186.287 113.711 188.546C113.625 188.825 113.539 189.08 113.454 189.278C113.51 189.283 113.565 189.288 113.62 189.292C113.193 192.827 112.777 196.361 112.371 199.895C112.219 200.318 112.076 200.73 111.939 201.133C112.664 194.769 113.425 188.405 114.222 182.041ZM121.514 186.9C121.248 189.218 120.986 191.536 120.729 193.854C120.823 193.842 120.922 193.826 121.025 193.806C121.286 191.453 121.552 189.1 121.822 186.748C121.796 186.736 121.77 186.725 121.744 186.713C121.724 186.713 121.662 186.769 121.556 186.863C121.542 186.875 121.528 186.887 121.514 186.9ZM130.567 176.383C130.502 176.957 130.438 177.531 130.373 178.105C130.476 178.124 130.571 178.137 130.66 178.142C130.715 177.649 130.77 177.156 130.826 176.663C130.746 176.58 130.661 176.488 130.567 176.383ZM131.924 167.13C131.884 167.103 131.846 167.077 131.811 167.052C131.788 167.039 131.731 167.034 131.645 167.036C132.048 163.606 132.462 160.177 132.884 156.748C132.986 156.695 133.089 156.643 133.194 156.593C133.015 158.044 132.838 159.496 132.662 160.947C132.432 161.262 132.284 161.685 132.255 162.265H132.503C132.308 163.887 132.115 165.509 131.924 167.13ZM130.989 172.677C131.016 172.683 131.043 172.688 131.071 172.694C131.025 172.83 130.983 172.958 130.943 173.079C130.958 172.945 130.973 172.811 130.989 172.677ZM142.028 143.214C141.978 143.631 141.927 144.049 141.877 144.466C142.215 143.93 142.36 143.485 142.028 143.214ZM-1.33134 267.866C-1.17834 266.865 -1.02344 265.863 -0.866748 264.862C-0.984047 265.034 -1.11108 265.231 -1.25248 265.458C-1.38015 266.278 -1.50657 267.098 -1.63179 267.918C-1.53915 267.909 -1.43663 267.889 -1.33134 267.866ZM-66.7808 319.966C-66.7308 319.721 -66.6808 319.478 -66.6307 319.235C-66.6888 319.487 -66.7465 319.739 -66.8042 319.991C-66.7965 319.983 -66.7887 319.974 -66.7808 319.966ZM161.721 392.407C161.721 388.9 161.727 385.393 161.74 381.885C161.641 381.791 161.545 381.693 161.453 381.59C161.439 385.217 161.433 388.844 161.433 392.471C161.527 392.45 161.623 392.429 161.721 392.407ZM162.01 432.326C161.995 431.306 161.981 430.285 161.968 429.264C161.868 429.149 161.77 429.036 161.675 428.926C161.696 430.528 161.718 432.13 161.742 433.732C161.84 433.264 161.931 432.795 162.01 432.326Z" stroke="url(#paint0_linear_190_8433)" stroke-width="0.72" stroke-miterlimit="10"/>
<defs>
<linearGradient id="paint0_linear_190_8433" x1="156.065" y1="115.781" x2="401.808" y2="536.316" gradientUnits="userSpaceOnUse">
<stop stop-color="#9C9C9C"/>
<stop offset="1" stop-color="#BBBBBB" stop-opacity="0"/>
</linearGradient>
</defs>
</svg>
