<svg width="278" height="301" viewBox="0 0 278 301" fill="none" xmlns="http://www.w3.org/2000/svg">
<path d="M217.671 11.0664C192.675 11.0664 172.338 31.4029 172.338 56.3993C172.338 81.3957 192.675 101.732 217.671 101.732C242.668 101.732 263.004 81.3957 263.004 56.3993C263.004 31.4029 242.668 11.0664 217.671 11.0664ZM217.671 17.8663C219.332 17.8663 221.018 18.5575 222.869 20.2614C224.719 21.9653 226.597 24.672 228.203 28.1681C229.495 30.9801 230.448 34.5857 231.32 38.2662H204.023C204.894 34.5857 205.847 30.9801 207.139 28.1681C208.746 24.672 210.623 21.9653 212.474 20.2614C214.325 18.5575 216.011 17.8663 217.671 17.8663ZM203.567 20.558C202.629 22.031 201.751 23.6075 200.959 25.3303C199.234 29.0846 197.94 33.5285 196.935 38.2662H183.663C187.95 30.2239 195.006 23.9193 203.567 20.558ZM231.776 20.558C240.337 23.9193 247.393 30.2239 251.68 38.2662H238.407C237.402 33.5285 236.108 29.0846 234.383 25.3303C233.592 23.6075 232.713 22.031 231.776 20.558ZM180.834 45.0661H196.049C195.584 48.7658 195.005 52.3915 195.005 56.3993C195.005 60.4071 195.584 64.0329 196.049 67.7325H180.834C179.737 64.1505 179.138 60.3461 179.138 56.3993C179.138 52.4525 179.737 48.6481 180.834 45.0661ZM202.863 45.0661H232.48C232.985 48.7231 233.538 52.3661 233.538 56.3993C233.538 60.4325 232.985 64.0755 232.48 67.7325H202.863C202.357 64.0755 201.805 60.4325 201.805 56.3993C201.805 52.3661 202.357 48.7231 202.863 45.0661ZM239.293 45.0661H254.509C255.605 48.6481 256.204 52.4525 256.204 56.3993C256.204 60.3461 255.605 64.1505 254.509 67.7325H239.293C239.759 64.0329 240.338 60.4071 240.338 56.3993C240.338 52.3915 239.759 48.7658 239.293 45.0661ZM183.663 74.5325H196.935C197.94 79.2702 199.234 83.714 200.959 87.4683C201.751 89.1912 202.629 90.7677 203.567 92.2407C195.006 88.8793 187.95 82.5747 183.663 74.5325ZM204.023 74.5325H231.32C230.448 78.2129 229.495 81.8186 228.203 84.6306C226.597 88.1267 224.719 90.8334 222.869 92.5373C221.018 94.2412 219.332 94.9323 217.671 94.9323C216.011 94.9323 214.325 94.2412 212.474 92.5373C210.623 90.8334 208.746 88.1267 207.139 84.6306C205.847 81.8186 204.894 78.2129 204.023 74.5325ZM238.407 74.5325H251.68C247.393 82.5747 240.337 88.8793 231.776 92.2407C232.713 90.7677 233.592 89.1912 234.383 87.4683C236.108 83.714 237.402 79.2702 238.407 74.5325Z" fill="#FFE6D9"/>
<path fill-rule="evenodd" clip-rule="evenodd" d="M183.219 116.81H95.7434H90.9686H81.9297H23.959C10.8141 116.81 0.0693359 106.047 0.0693359 92.8967C0.0693359 79.754 10.8216 68.9914 23.959 68.9914H28.5724C28.5724 55.3173 39.6536 44.2328 53.3145 44.2328C59.6252 44.2328 65.3677 46.6203 69.7419 50.5197C75.1105 37.7961 87.6946 28.8672 102.365 28.8672C121.918 28.8672 137.769 44.7342 137.769 64.3061C137.769 65.9377 137.62 67.5244 137.41 69.0961C149.733 70.0093 159.536 80.3603 159.536 92.9192C159.536 93.7088 159.428 94.4759 159.32 95.2414C159.289 95.4627 159.257 95.6839 159.229 95.9055C159.223 95.9517 159.27 96.0395 159.366 96.1647C164.524 96.2796 168.749 100.178 169.375 105.195C175.921 110.783 183.219 116.81 183.219 116.81Z" fill="#FFF0E8"/>
<path fill-rule="evenodd" clip-rule="evenodd" d="M211.151 138.319H242.745H244.469H247.734H268.671C273.419 138.319 277.299 134.432 277.299 129.682C277.299 124.935 273.416 121.048 268.671 121.048H267.005C267.005 116.11 263.003 112.106 258.069 112.106C255.79 112.106 253.716 112.969 252.136 114.377C250.197 109.782 245.652 106.557 240.353 106.557C233.291 106.557 227.566 112.287 227.566 119.356C227.566 119.945 227.62 120.518 227.696 121.086C223.245 121.416 219.705 125.154 219.705 129.69C219.705 129.975 219.744 130.252 219.783 130.529C219.794 130.609 219.805 130.689 219.816 130.769C219.818 130.786 219.801 130.817 219.767 130.862C217.904 130.904 216.378 132.312 216.152 134.123C213.788 136.142 211.151 138.319 211.151 138.319Z" fill="#FFF0E8"/>
<g filter="url(#filter0_d_226_134)">
<path d="M145.633 25.4336C126.192 46.2574 95.1706 63.3243 61.9767 70.5956C61.9678 72.8125 61.9116 85.0969 61.6574 141.71C61.3205 217.234 133.194 254.138 144.353 259.804C155.165 254.826 227.946 217.979 228.283 142.455C228.538 85.8388 228.591 73.5574 228.603 71.3405C195.474 63.7736 164.884 46.4318 145.63 25.4336H145.633Z" fill="white"/>
</g>
<g filter="url(#filter1_d_226_134)">
<path fill-rule="evenodd" clip-rule="evenodd" d="M66.9548 87.863C66.9907 79.838 72.4606 72.9204 80.0858 70.4184C105.464 62.0914 128.288 49.2289 145.454 33.4818C145.455 33.4811 145.456 33.4816 145.456 33.4826C145.456 33.4824 145.456 33.4829 145.456 33.4826C145.493 33.5172 145.53 33.5514 145.569 33.5851C145.571 33.5874 145.574 33.59 145.577 33.5923C145.611 33.6225 145.63 33.666 145.63 33.7115V33.7824C145.63 33.7829 145.631 33.7834 145.631 33.7837C145.631 33.7841 145.631 33.7845 145.631 33.785C145.632 33.7851 145.632 33.7858 145.632 33.7857V33.7138C145.632 33.6855 145.665 33.6706 145.686 33.6899C162.685 49.4952 185.302 62.4879 210.49 71.0027C218.093 73.573 223.502 80.5396 223.466 88.5653L223.225 142.395C223.089 173.256 210.578 201.068 186.043 225.053C170.646 240.104 154.569 249.628 145.692 254.251C145.664 254.266 145.632 254.244 145.632 254.213V254.14C145.632 254.139 145.632 254.139 145.631 254.139V254.144C145.631 254.145 145.63 254.145 145.63 254.145V254.215C145.63 254.259 145.606 254.299 145.567 254.318C145.449 254.379 145.331 254.44 145.214 254.501C144.744 254.744 144.188 254.744 143.72 254.497C134.986 249.886 118.683 240.135 103.156 224.683C78.8366 200.476 66.5747 172.558 66.7138 141.694L66.9548 87.863Z" fill="#FFF0E8"/>
<path fill-rule="evenodd" clip-rule="evenodd" d="M72.3888 92.7209C72.4247 84.6958 77.8964 77.784 85.5093 75.2451C108.761 67.4903 129.661 55.6415 145.429 41.1765C145.429 41.1759 145.431 41.1764 145.431 41.1772C145.431 41.177 145.431 41.1775 145.431 41.1772C145.465 41.2094 145.5 41.2413 145.536 41.2727L145.537 41.2735C145.539 41.2752 145.54 41.2769 145.542 41.2786C145.575 41.3071 145.593 41.3482 145.593 41.3913V41.4588C145.593 41.4587 145.593 41.4589 145.593 41.4588C145.593 41.4593 145.594 41.4591 145.593 41.4588L145.594 41.3921C145.594 41.3656 145.626 41.3517 145.645 41.3697C161.259 55.8872 181.967 67.8542 205.042 75.78C212.633 78.3873 218.043 85.3481 218.007 93.3738L217.787 142.51C217.661 171.222 206.021 197.099 183.193 219.415C168.867 233.419 153.907 242.281 145.648 246.582C145.623 246.595 145.594 246.576 145.594 246.547V246.486C145.594 246.485 145.594 246.485 145.593 246.485V246.549C145.593 246.589 145.571 246.625 145.536 246.643C145.426 246.7 145.316 246.757 145.206 246.814L145.205 246.815C144.768 247.041 144.251 247.04 143.816 246.81C135.691 242.521 120.521 233.448 106.075 219.072C83.4479 196.549 72.0394 170.574 72.1688 141.858L72.3888 92.7209Z" fill="white"/>
</g>
<path d="M187.942 106.885C184.373 103.805 178.986 104.195 175.907 107.764L131.489 159.165L120.991 147.008C117.911 143.44 112.517 143.05 108.956 146.129C105.388 149.209 104.998 154.596 108.077 158.164L125.033 177.786C126.653 179.658 129.006 180.743 131.489 180.743C133.973 180.743 136.326 179.666 137.946 177.786L188.82 118.912C191.9 115.343 191.51 109.957 187.942 106.877V106.885Z" fill="url(#paint0_linear_226_134)"/>
<path d="M74.1601 254.547C91.5047 254.547 105.565 237.208 105.565 215.82C105.565 194.432 91.5047 177.094 74.1601 177.094C56.8155 177.094 42.7549 194.432 42.7549 215.82C42.7549 237.208 56.8155 254.547 74.1601 254.547Z" fill="white"/>
<path fill-rule="evenodd" clip-rule="evenodd" d="M51.4317 231.928C50.7331 231.928 50.0768 231.505 49.8122 230.817C48.0269 226.166 47.1201 221.167 47.1201 215.959C47.1201 206.93 49.8863 198.427 54.9105 192.009C57.3839 188.848 60.2771 186.36 63.5054 184.617C66.8855 182.793 70.4809 181.865 74.1926 181.865C77.9044 181.865 81.4997 182.79 84.8798 184.617C88.1082 186.36 91.0014 188.848 93.4747 192.009C98.4989 198.423 101.265 206.93 101.265 215.959C101.265 218.775 100.993 221.576 100.454 224.282C100.267 225.221 99.3528 225.831 98.4143 225.644C97.4757 225.457 96.8654 224.543 97.0524 223.605C97.5463 221.121 97.7968 218.545 97.7968 215.955C97.7968 199.073 87.2084 185.334 74.1926 185.334C61.1768 185.334 50.5884 199.069 50.5884 215.955C50.5884 220.736 51.4175 225.316 53.0511 229.568C53.3934 230.46 52.9488 231.466 52.0526 231.808C51.848 231.886 51.6363 231.924 51.4317 231.924V231.928ZM74.189 250.045C67.1395 250.045 60.4676 246.665 55.4045 240.522C54.7941 239.781 54.8999 238.691 55.6408 238.08C56.3818 237.47 57.472 237.576 58.0824 238.317C62.4751 243.644 68.1945 246.576 74.189 246.576C75.1487 246.576 75.925 247.353 75.925 248.312C75.925 249.272 75.1487 250.048 74.189 250.048V250.045ZM77.6018 248.096C77.8029 248.876 78.5086 249.395 79.2778 249.395H79.2812C79.4259 249.395 79.5706 249.377 79.7188 249.338C87.1741 247.398 93.6731 241.53 97.5436 233.239C97.9494 232.367 97.5754 231.337 96.7074 230.931C95.836 230.526 94.8057 230.9 94.4 231.768C90.967 239.121 85.297 244.3 78.8437 245.979C77.9158 246.223 77.3619 247.169 77.6018 248.096ZM63.4124 238.825C62.9855 238.825 62.5585 238.67 62.2234 238.352C56.7828 233.222 53.5332 224.849 53.5332 215.955C53.5332 214.995 54.3094 214.219 55.2691 214.219C56.2288 214.219 57.0051 214.995 57.0051 215.955C57.0051 223.911 59.8453 231.338 64.605 235.826C65.3036 236.482 65.3353 237.58 64.6755 238.278C64.3333 238.642 63.8746 238.821 63.4124 238.821V238.825ZM68.1832 242.228C70.1238 243.004 72.1455 243.399 74.1919 243.399L74.1883 243.396C79.8089 243.396 85.059 240.471 88.9683 235.16C92.7612 230.009 94.85 223.186 94.85 215.953C94.85 212.414 94.3525 208.97 93.3716 205.717C93.0929 204.8 92.1261 204.281 91.2088 204.556C90.2914 204.835 89.7727 205.802 90.0479 206.719C90.93 209.647 91.3781 212.752 91.3781 215.953C91.3781 222.452 89.5293 228.545 86.1739 233.104C82.9349 237.503 78.6763 239.927 74.1883 239.927C72.5865 239.927 70.9988 239.617 69.471 239.006C68.5819 238.653 67.5728 239.084 67.2165 239.973C66.8601 240.862 67.2941 241.871 68.1832 242.228ZM56.3778 208.993C56.2302 208.993 56.0827 208.976 55.9351 208.937C55.0071 208.693 54.4567 207.741 54.7002 206.816C56.0868 201.58 58.6025 197.075 61.9825 193.79C65.5355 190.339 69.7553 188.512 74.1904 188.512C80.9929 188.512 87.3509 192.936 91.2038 200.349C91.6448 201.199 91.3131 202.247 90.4628 202.688C89.6125 203.129 88.5646 202.798 88.1236 201.947C84.8811 195.706 79.6733 191.98 74.1904 191.98C67.0245 191.98 60.5395 198.299 58.052 207.702C57.8476 208.478 57.1463 208.993 56.3778 208.993ZM61.1005 222.917C61.2981 223.703 62.0072 224.229 62.7835 224.229L62.7764 224.233C62.9175 224.233 63.0587 224.215 63.1998 224.18C64.1313 223.947 64.6958 223.005 64.4629 222.077C63.976 220.129 63.729 218.072 63.729 215.962C63.729 211.368 64.8969 207.075 67.0139 203.871C68.9862 200.889 71.456 199.245 74.1904 199.245C76.9248 199.245 78.9924 200.956 80.2414 202.389C80.873 203.109 81.9667 203.186 82.69 202.555C83.4098 201.923 83.4839 200.829 82.8558 200.106C80.386 197.273 77.3905 195.773 74.1904 195.773C70.3304 195.773 66.7563 197.968 64.1207 201.955C61.6297 205.72 60.2607 210.695 60.2607 215.959C60.2607 218.351 60.543 220.694 61.1005 222.917ZM74.188 236.145C70.2222 236.145 66.447 233.724 63.829 229.508C63.3244 228.693 63.5749 227.624 64.3864 227.119C65.2015 226.615 66.2705 226.865 66.7751 227.677C68.7756 230.898 71.4112 232.673 74.188 232.673C77.6245 232.673 80.8565 229.914 82.8358 225.292C83.2133 224.41 84.233 224.004 85.1115 224.381C85.9936 224.759 86.3994 225.779 86.0219 226.657C83.478 232.595 79.0535 236.141 74.1845 236.141L74.188 236.145ZM84.6465 215.955C84.6465 216.915 85.4227 217.691 86.3824 217.691L86.3789 217.687C87.3386 217.687 88.1148 216.911 88.1148 215.952C88.1148 212.723 87.5855 209.516 86.58 206.676C86.2589 205.772 85.2674 205.303 84.3642 205.621C83.4645 205.942 82.9882 206.933 83.3092 207.836C84.1842 210.31 84.6465 213.118 84.6465 215.955ZM74.1901 228.667C70.1432 228.667 67.0947 223.202 67.0947 215.955C67.0947 214.995 67.8709 214.219 68.8306 214.219C69.7903 214.219 70.5665 214.995 70.5665 215.955C70.5665 218.591 71.0746 221.142 71.9602 222.955C72.6341 224.338 73.4915 225.196 74.1936 225.196C74.8958 225.196 75.7496 224.338 76.427 222.955C77.3126 221.142 77.8207 218.591 77.8207 215.955C77.8207 213.319 77.3126 210.768 76.427 208.955C75.7531 207.572 74.8958 206.714 74.1936 206.714C73.368 206.714 72.3765 207.858 71.6638 209.629C71.3075 210.518 70.2949 210.948 69.4057 210.592C68.5166 210.236 68.0862 209.223 68.4425 208.334C69.7444 205.098 71.8403 203.246 74.1936 203.246C78.2406 203.246 81.289 208.711 81.289 215.958C81.289 223.206 78.237 228.671 74.1936 228.671L74.1901 228.667ZM72.4551 218.585C72.4551 219.544 73.2313 220.321 74.191 220.321C75.1507 220.321 75.9269 219.544 75.9269 218.585V212.908C75.9269 211.948 75.1507 211.172 74.191 211.172C73.2313 211.172 72.4551 211.948 72.4551 212.908V218.585Z" fill="url(#paint1_linear_226_134)"/>
<defs>
<filter id="filter0_d_226_134" x="16.0492" y="0.675533" width="232.1" height="299.523" filterUnits="userSpaceOnUse" color-interpolation-filters="sRGB">
<feFlood flood-opacity="0" result="BackgroundImageFix"/>
<feColorMatrix in="SourceAlpha" type="matrix" values="0 0 0 0 0 0 0 0 0 0 0 0 0 0 0 0 0 0 127 0" result="hardAlpha"/>
<feOffset dx="-13.0306" dy="7.81834"/>
<feGaussianBlur stdDeviation="16.2882"/>
<feComposite in2="hardAlpha" operator="out"/>
<feColorMatrix type="matrix" values="0 0 0 0 0.1158 0 0 0 0 0.03 0 0 0 0 0.225 0 0 0 0.1 0"/>
<feBlend mode="normal" in2="BackgroundImageFix" result="effect1_dropShadow_226_134"/>
<feBlend mode="normal" in="SourceGraphic" in2="effect1_dropShadow_226_134" result="shape"/>
</filter>
<filter id="filter1_d_226_134" x="19.1644" y="7.66955" width="224.68" height="289.127" filterUnits="userSpaceOnUse" color-interpolation-filters="sRGB">
<feFlood flood-opacity="0" result="BackgroundImageFix"/>
<feColorMatrix in="SourceAlpha" type="matrix" values="0 0 0 0 0 0 0 0 0 0 0 0 0 0 0 0 0 0 127 0" result="hardAlpha"/>
<feOffset dx="-13.5852" dy="8.15111"/>
<feGaussianBlur stdDeviation="16.9815"/>
<feComposite in2="hardAlpha" operator="out"/>
<feColorMatrix type="matrix" values="0 0 0 0 0.1158 0 0 0 0 0.03 0 0 0 0 0.225 0 0 0 0.15 0"/>
<feBlend mode="normal" in2="BackgroundImageFix" result="effect1_dropShadow_226_134"/>
<feBlend mode="normal" in="SourceGraphic" in2="effect1_dropShadow_226_134" result="shape"/>
</filter>
<linearGradient id="paint0_linear_226_134" x1="106.001" y1="142.776" x2="190.897" y2="142.776" gradientUnits="userSpaceOnUse">
<stop stop-color="#FE457D"/>
<stop offset="1" stop-color="#FBD500"/>
</linearGradient>
<linearGradient id="paint1_linear_226_134" x1="40.1371" y1="189.995" x2="124.098" y2="197.36" gradientUnits="userSpaceOnUse">
<stop stop-color="white"/>
<stop offset="0.0001" stop-color="#C583E0"/>
<stop offset="0.729167" stop-color="#FFBC7D"/>
<stop offset="1" stop-color="white"/>
</linearGradient>
</defs>
</svg>
