<svg width="36" height="36" viewBox="0 0 36 36" fill="none" xmlns="http://www.w3.org/2000/svg">
<path d="M24.7754 20.0387L15.9554 11.2187C15.6379 10.9015 15.2434 10.6724 14.8106 10.5538C14.3778 10.4353 13.9216 10.4313 13.4868 10.5424L5.43051 12.651C4.87465 12.793 4.38282 13.1182 4.03434 13.574C3.68586 14.0297 3.50103 14.5896 3.50966 15.1633C3.55959 21.4971 2.4051 27.7826 0.107657 33.6853C-0.00667073 33.9915 -0.0305336 34.3242 0.0389117 34.6437C0.108357 34.9631 0.268182 35.2558 0.499341 35.487C0.730501 35.7182 1.02325 35.878 1.34269 35.9474C1.66214 36.0169 1.99482 35.993 2.30109 35.8787C8.20424 33.5839 14.4898 32.432 20.8231 32.4844C21.3968 32.493 21.9566 32.3082 22.4124 31.9597C22.8682 31.6112 23.1933 31.1194 23.3354 30.5635L25.4517 22.5073C25.5627 22.0725 25.5588 21.6163 25.4402 21.1835C25.3216 20.7507 25.0925 20.3562 24.7754 20.0387ZM16.7859 25.3101C16.1825 25.9136 15.4137 26.3246 14.5767 26.4911C13.7397 26.6576 12.8721 26.5721 12.0836 26.2455C11.2952 25.919 10.6213 25.3659 10.1472 24.6563C9.67302 23.9468 9.41996 23.1125 9.41996 22.2591C9.41996 21.4057 9.67302 20.5715 10.1472 19.8619C10.6213 19.1523 11.2952 18.5993 12.0836 18.2727C12.8721 17.9461 13.7397 17.8607 14.5767 18.0272C15.4137 18.1937 16.1825 18.6047 16.7859 19.2081C17.5938 20.018 18.0475 21.1152 18.0475 22.2591C18.0475 23.403 17.5938 24.5003 16.7859 25.3101Z" fill="url(#paint0_linear_687_233)"/>
<path d="M35.2388 11.0542L24.9362 0.751594C23.9321 -0.25246 22.3042 -0.25246 21.3002 0.751594L17.6351 4.41668C16.631 5.42074 16.631 7.04863 17.6351 8.05268L27.9377 18.3553C28.9417 19.3593 30.5696 19.3593 31.5737 18.3553L35.2388 14.6902C36.2428 13.6861 36.2428 12.0583 35.2388 11.0542Z" fill="url(#paint1_linear_687_233)"/>
<defs>
<linearGradient id="paint0_linear_687_233" x1="12.7661" y1="10.4619" x2="12.7661" y2="35.9863" gradientUnits="userSpaceOnUse">
<stop stop-color="#FF6107"/>
<stop offset="1" stop-color="#C34B06"/>
</linearGradient>
<linearGradient id="paint1_linear_687_233" x1="30.0875" y1="5.9029" x2="22.7864" y2="13.204" gradientUnits="userSpaceOnUse">
<stop stop-color="#FF6107"/>
<stop offset="1" stop-color="#C34B06"/>
</linearGradient>
</defs>
</svg>
