<svg width="46" height="46" viewBox="0 0 46 46" fill="none" xmlns="http://www.w3.org/2000/svg">
<path d="M38.7472 36.1465C37.8208 33.3893 34.1284 31.6634 31.4958 30.5065C30.4645 30.0548 27.6093 29.2884 27.2661 27.9898C27.1433 27.522 27.1598 27.0809 27.2606 26.6581C27.1019 26.6885 26.9409 26.7064 26.7744 26.7064H25.059C23.6896 26.7064 22.5769 25.5923 22.5769 24.2238C22.5769 22.8562 23.6901 21.7444 25.059 21.7444H26.7744C27.3411 21.7444 27.8784 21.9362 28.3117 22.2785C28.9469 22.1938 29.5597 22.0581 30.131 21.8801C30.8812 20.3083 31.4664 18.4287 31.5975 16.8109C32.1573 9.88882 27.9138 5.83898 21.8294 6.5391C17.4055 7.04832 14.7628 10.347 14.4772 14.5937C14.1883 18.9223 15.7932 22.1193 17.498 24.4644C18.2446 25.4897 19.0289 26.1489 18.9084 27.3845C18.7685 28.8454 17.2064 29.2525 16.089 29.7015C14.7651 30.2332 13.3391 31.0401 12.6657 31.4131C10.3459 32.6942 7.79982 34.2371 7.22758 36.3476C5.96028 41.0248 10.2401 42.4416 13.7734 43.0958C16.8057 43.6551 20.2249 43.6993 23.0373 43.6993C28.1245 43.6993 37.272 43.4955 38.7472 39.6715C39.1668 38.5864 38.9869 36.8572 38.7472 36.1465Z" fill="url(#paint0_linear_687_226)"/>
<path d="M27.8599 23.5256C27.6271 23.1709 27.2292 22.9354 26.7752 22.9354H25.0598C24.3441 22.9354 23.7668 23.5136 23.7668 24.2257C23.7668 24.9405 24.3441 25.5197 25.0598 25.5197H26.7752C27.2761 25.5197 27.7012 25.234 27.9155 24.8209C30.3071 24.6328 32.3872 23.9023 33.8472 22.8236C34.1826 23.0398 34.5791 23.1663 35.0069 23.1663H35.1145C36.3068 23.1663 37.271 22.2012 37.271 21.0075V16.6983C37.271 15.8399 36.7678 15.0993 36.0419 14.7552C35.7254 7.83544 29.997 2.2998 22.9995 2.2998C16.002 2.2998 10.2727 7.83544 9.95758 14.7552C9.23032 15.0998 8.72754 15.8399 8.72754 16.6983V21.0075C8.72754 22.2012 9.69262 23.1663 10.8822 23.1663H10.9912C12.1817 23.1663 13.1472 22.2012 13.1472 21.0075V16.6983C13.1472 15.8523 12.6582 15.1228 11.9475 14.7699C12.2553 8.93945 17.0936 4.29206 22.9995 4.29206C28.9031 4.29206 33.7437 8.93945 34.0501 14.7699C33.3403 15.1232 32.8518 15.8523 32.8518 16.6983V21.0075C32.8518 21.2937 32.9074 21.56 33.0054 21.8089C31.7487 22.7082 29.9193 23.3489 27.8599 23.5256Z" fill="url(#paint1_linear_687_226)"/>
<defs>
<linearGradient id="paint0_linear_687_226" x1="22.9994" y1="6.46094" x2="22.9994" y2="43.6993" gradientUnits="userSpaceOnUse">
<stop stop-color="#FF6107"/>
<stop offset="1" stop-color="#C34B06"/>
</linearGradient>
<linearGradient id="paint1_linear_687_226" x1="22.9993" y1="2.2998" x2="22.9993" y2="25.5197" gradientUnits="userSpaceOnUse">
<stop stop-color="#FF6107"/>
<stop offset="1" stop-color="#C34B06"/>
</linearGradient>
</defs>
</svg>
