<svg width="35" height="35" viewBox="0 0 35 35" fill="none" xmlns="http://www.w3.org/2000/svg">
<path fill-rule="evenodd" clip-rule="evenodd" d="M1.29418 21.2397L3.72777 21.6783C4.0008 22.5804 4.36259 23.4533 4.80785 24.2841L3.39603 26.3151C3.18537 26.6178 3.08789 26.9849 3.12066 27.3523C3.15343 27.7196 3.31436 28.0636 3.57526 28.3242L6.67577 31.4248C6.93637 31.6857 7.28045 31.8466 7.64775 31.8794C8.01506 31.9122 8.38218 31.8147 8.68485 31.604L10.7159 30.1922C11.5466 30.6376 12.4195 30.9993 13.3217 31.2723L13.7603 33.7059C13.8251 34.069 14.0157 34.3977 14.2987 34.6344C14.5816 34.871 14.9389 35.0005 15.3078 35H19.6922C20.061 35.0005 20.4183 34.871 20.7013 34.6344C20.9843 34.3978 21.1749 34.069 21.2397 33.7059L21.6783 31.2723C22.5804 30.9991 23.4533 30.6373 24.2841 30.1922L26.3151 31.604C26.6178 31.8147 26.9849 31.9122 27.3523 31.8794C27.7196 31.8466 28.0636 31.6857 28.3242 31.4248L31.4248 28.3242C31.6857 28.0636 31.8466 27.7196 31.8794 27.3523C31.9122 26.9849 31.8147 26.6178 31.604 26.3151L30.1922 24.2841C30.6372 23.4532 30.9989 22.5803 31.2723 21.6783L33.7059 21.2397C34.069 21.1749 34.3978 20.9843 34.6344 20.7013C34.871 20.4183 35.0005 20.061 35 19.6922V15.3078C35.0004 14.9389 34.871 14.5816 34.6344 14.2987C34.3977 14.0157 34.069 13.825 33.7059 13.7602L31.2723 13.3227C30.999 12.4203 30.6373 11.5471 30.1922 10.7159L31.604 8.68485C31.8147 8.38218 31.9122 8.01506 31.8794 7.64775C31.8466 7.28045 31.6857 6.93637 31.4248 6.67577L28.3242 3.5752C28.0636 3.31429 27.7196 3.15336 27.3523 3.12059C26.9849 3.08783 26.6178 3.1853 26.3151 3.39596L24.2841 4.80785C23.4531 4.36316 22.5802 4.00139 21.6783 3.72777L21.2397 1.29418C21.1749 0.931026 20.9843 0.602292 20.7013 0.365644C20.4183 0.128995 20.061 -0.000454712 19.6922 1.20155e-06H15.3078C14.9389 -0.000454963 14.5816 0.128988 14.2987 0.365624C14.0157 0.602259 13.8251 0.930976 13.7603 1.29411L13.3217 3.72771C12.4197 4.00133 11.5469 4.3631 10.7159 4.80778L8.68485 3.39603C8.38219 3.18536 8.01507 3.08787 7.64776 3.12063C7.28046 3.15339 6.93638 3.3143 6.67577 3.5752L3.5752 6.67577C3.31429 6.93637 3.15336 7.28045 3.12059 7.64775C3.08783 8.01506 3.1853 8.38218 3.39596 8.68485L4.80778 10.7159C4.36226 11.5469 4.00045 12.4201 3.72771 13.3227L1.29411 13.7602C0.930976 13.825 0.602266 14.0157 0.365634 14.2987C0.129001 14.5816 -0.000444084 14.9389 1.2153e-06 15.3078V19.6922C-0.000457552 20.061 0.128983 20.4183 0.365618 20.7013C0.602252 20.9843 0.931039 21.1749 1.29418 21.2397ZM17.5 26.8311C12.3543 26.8311 8.16895 22.6454 8.16895 17.5C8.16895 12.3546 12.3543 8.16895 17.5 8.16895C22.6457 8.16895 26.8311 12.3547 26.8311 17.5C26.8311 22.6453 22.6452 26.8311 17.5 26.8311ZM17.5 9.2627C19.1292 9.2627 20.7218 9.74581 22.0764 10.6509C23.431 11.5561 24.4868 12.8426 25.1103 14.3477C25.7337 15.8529 25.8969 17.5091 25.579 19.107C25.2612 20.7049 24.4767 22.1726 23.3247 23.3247C22.1726 24.4767 20.7049 25.2612 19.107 25.579C17.5091 25.8969 15.8529 25.7337 14.3477 25.1103C12.8426 24.4868 11.5561 23.431 10.6509 22.0764C9.74581 20.7218 9.2627 19.1292 9.2627 17.5C9.26537 15.3162 10.1341 13.2225 11.6783 11.6783C13.2225 10.1341 15.3162 9.26537 17.5 9.2627ZM13.038 17.2286C12.9355 17.126 12.8779 16.9868 12.878 16.8417C12.8781 16.6967 12.9358 16.5576 13.0385 16.4551C13.1411 16.3525 13.2803 16.295 13.4253 16.2951C13.5704 16.2952 13.7095 16.3529 13.812 16.4555L16.5806 19.2241L21.188 14.616C21.291 14.5151 21.4297 14.4589 21.5738 14.4597C21.718 14.4604 21.8561 14.518 21.958 14.62C22.06 14.7219 22.1176 14.86 22.1183 15.0042C22.1191 15.1484 22.0629 15.287 21.962 15.39L16.9677 20.3844C16.8648 20.4866 16.7257 20.544 16.5807 20.544C16.4356 20.544 16.2965 20.4866 16.1937 20.3844L13.038 17.2286Z" fill="#FF6107"/>
</svg>
