<svg width="52" height="39" viewBox="0 0 52 39" fill="none" xmlns="http://www.w3.org/2000/svg">
<path d="M12.3722 25.9851L0.09375 25.8954L6.72934 13.1523" fill="#004496"/>
<path d="M19.1071 12.4102L6.71875 13.1519L12.3737 25.9847" fill="#0050AA"/>
<path d="M13.4743 0.0976562L6.71875 13.1521L19.1071 12.4104" fill="#005BBF"/>
<path d="M19.1048 12.4124L13.3672 0.0976562L25.0208 0.183322" fill="#007EFC"/>
<path d="M30.6178 13.3288L19.1094 12.3089L25.0244 0.183594" fill="#005BBF"/>
<path d="M30.61 13.3285L19.1016 12.3086L23.783 24.7019" fill="#0050AA"/>
<path d="M25.0251 25.0469L17.9219 37.5188L30.3838 38.312" fill="#004496"/>
<path d="M44.2237 12.8516L31.6953 13.0965L36.6972 26.2326" fill="#0072E8"/>
<path d="M24.9688 25.1479L36.8834 25.9068L31.6991 13.1758L24.9688 25.1479Z" fill="#005BBF"/>
<path d="M31.7734 13.1817L44.0932 12.9237L39.2526 0.527344L31.7734 13.1817Z" fill="#005BBF"/>
<path d="M30.3267 38.3038L24.9609 25.1445L36.8776 25.9034" fill="#0050AA"/>
<path d="M39.1484 0.519531L44.0798 13.1306L50.7799 1.26029L39.1484 0.519531Z" fill="#007EFC"/>
</svg>
