<svg width="36" height="36" viewBox="0 0 36 36" fill="none" xmlns="http://www.w3.org/2000/svg">
<path d="M18 7.80469C12.3783 7.80469 7.80469 12.3783 7.80469 18C7.80469 23.6217 12.3783 28.1953 18 28.1953C23.6217 28.1953 28.1953 23.6217 28.1953 18C28.1953 12.3783 23.6217 7.80469 18 7.80469ZM25.1328 18.5H23.0234V16.5462L18 21.5697L15.75 19.3197L11.9957 23.074L10.5042 21.5824L15.75 16.3366L18 18.5866L21.5319 15.0547H19.5781V12.9454H25.1328V18.5Z" fill="url(#paint0_linear_687_238)"/>
<path d="M36 20.25V15.75H33.5893C33.4101 14.4972 33.0839 13.2921 32.628 12.1526L34.7135 10.9486L32.4635 7.05143L30.3754 8.25701C29.6047 7.27938 28.7206 6.39534 27.743 5.62465L28.9486 3.53651L25.0514 1.28651L23.8474 3.37198C22.7079 2.91607 21.5028 2.58989 20.25 2.41066V0H15.75V2.41066C14.4972 2.58989 13.2921 2.91607 12.1526 3.37198L10.9486 1.28651L7.05143 3.53651L8.25701 5.62465C7.27938 6.39534 6.39534 7.27938 5.62465 8.25701L3.53651 7.05143L1.28651 10.9486L3.37198 12.1526C2.91607 13.2921 2.58989 14.4972 2.41066 15.75H0V20.25H2.41066C2.58989 21.5028 2.91607 22.7079 3.37198 23.8474L1.28651 25.0514L3.53651 28.9486L5.62465 27.743C6.39534 28.7206 7.27938 29.6047 8.25701 30.3754L7.05143 32.4635L10.9486 34.7135L12.1526 32.628C13.2921 33.0839 14.4972 33.4101 15.75 33.5893V36H20.25V33.5893C21.5028 33.4101 22.7079 33.0839 23.8474 32.628L25.0514 34.7135L28.9486 32.4635L27.743 30.3754C28.7206 29.6047 29.6047 28.7206 30.3754 27.743L32.4635 28.9486L34.7135 25.0514L32.628 23.8474C33.0839 22.7079 33.4101 21.5028 33.5893 20.25H36ZM18 30.3047C11.2152 30.3047 5.69531 24.7848 5.69531 18C5.69531 11.2152 11.2152 5.69531 18 5.69531C24.7848 5.69531 30.3047 11.2152 30.3047 18C30.3047 24.7848 24.7848 30.3047 18 30.3047Z" fill="url(#paint1_linear_687_238)"/>
<defs>
<linearGradient id="paint0_linear_687_238" x1="18" y1="7.80469" x2="18" y2="28.1953" gradientUnits="userSpaceOnUse">
<stop stop-color="#FF6107"/>
<stop offset="1" stop-color="#C34B06"/>
</linearGradient>
<linearGradient id="paint1_linear_687_238" x1="18" y1="0" x2="18" y2="36" gradientUnits="userSpaceOnUse">
<stop stop-color="#FF6107"/>
<stop offset="1" stop-color="#C34B06"/>
</linearGradient>
</defs>
</svg>
