<svg width="35" height="35" viewBox="0 0 35 35" fill="none" xmlns="http://www.w3.org/2000/svg">
<g clip-path="url(#clip0_687_298)">
<path d="M3.14648 18.5254H1.02734C0.460576 18.5254 0.00195312 18.984 0.00195312 19.5508V33.9746C0.00195312 34.5414 0.460576 35 1.02734 35H3.14648C4.84275 35 6.22266 33.6201 6.22266 31.9238V21.6016C6.22266 19.9053 4.84275 18.5254 3.14648 18.5254Z" fill="#FF6107"/>
<path d="M17.502 0C11.2825 0 6.22266 5.12825 6.22266 11.3477C6.22266 13.4686 6.81383 15.5079 7.90108 17.2659C9.27859 16.4972 10.8089 16.072 12.3971 16.072C14.5777 16.072 16.7811 16.8351 18.6505 18.5254H23.7227C24.4648 18.5254 25.1484 18.7457 25.7495 19.0917C27.6654 17.0692 28.8496 14.3469 28.8496 11.3477C28.8496 5.12825 23.7214 0 17.502 0ZM17.502 8.27148C19.1983 8.27148 20.5782 9.65139 20.5782 11.3477C20.5782 12.5863 19.8412 13.6989 18.7006 14.1815C18.644 14.2056 18.5848 14.2149 18.5274 14.2353V15.4492C18.5274 16.016 18.0688 16.4746 17.502 16.4746C16.9353 16.4746 16.4766 16.016 16.4766 15.4492V14.2381C15.9445 14.059 15.4286 13.7586 14.9656 13.3103C14.5591 12.9168 14.549 12.2679 14.9436 11.8604C15.3371 11.4538 15.988 11.4448 16.3936 11.8383C16.8912 12.32 17.441 12.4872 17.9006 12.2929C18.2811 12.1317 18.5275 11.7612 18.5275 11.3477C18.5275 10.7819 18.0678 10.3223 17.5021 10.3223C15.8058 10.3223 14.4259 8.94236 14.4259 7.24609C14.4258 5.95731 15.2389 4.79575 16.4496 4.35518C16.4584 4.35189 16.4677 4.3534 16.4766 4.35032V3.07617C16.4766 2.5094 16.9353 2.05078 17.502 2.05078C18.0688 2.05078 18.5274 2.5094 18.5274 3.07617V4.33843C19.2036 4.56627 19.8492 5.01799 20.403 5.678C20.7675 6.1116 20.7114 6.75849 20.2768 7.12195C19.8442 7.48747 19.1954 7.43135 18.8328 6.99576C18.2901 6.35086 17.6783 6.0915 17.1515 6.28182C16.748 6.42899 16.4766 6.81652 16.4766 7.24609C16.4766 7.81184 16.9363 8.27148 17.502 8.27148Z" fill="#FF6107"/>
<path d="M34.1612 18.9152C33.3203 18.3 32.1514 18.4231 31.4542 19.1818L25.9171 26.0725C25.5274 26.4826 24.7891 26.7287 24.3995 26.7287H17.502C16.9277 26.7287 16.4766 26.2776 16.4766 25.7033C16.4766 25.129 16.9277 24.6779 17.502 24.6779C22.0957 24.6779 18.6162 24.6779 23.7227 24.6779C24.8506 24.6779 25.7734 23.7551 25.7734 22.6272C25.7734 21.4992 24.8506 20.5764 23.7227 20.5764C18.907 20.5764 23.4321 20.5764 18.2812 20.5764C17.7702 20.5764 17.5154 20.2523 17.1123 19.8996C16.4971 19.3459 15.7998 18.9358 15.082 18.6486C12.8597 17.7411 10.2919 18.0157 8.27344 19.4194C8.27344 23.1531 8.27344 28.7166 8.27344 32.9494H23.7227C25.6504 32.9494 27.4962 31.9581 28.6446 30.4201L34.5918 21.8068C35.2686 20.9044 35.084 19.592 34.1612 18.9152Z" fill="#FF6107"/>
</g>
<defs>
<clipPath id="clip0_687_298">
<rect width="35" height="35" fill="white"/>
</clipPath>
</defs>
</svg>
