<svg width="35" height="35" viewBox="0 0 35 35" fill="none" xmlns="http://www.w3.org/2000/svg">
<path d="M4.41622 22.1121H1.64062V14.9066C1.64062 13.7032 2.6196 12.7243 3.82293 12.7243H10.8456C10.9063 12.728 10.9671 12.7304 11.0283 12.7299V14.953H10.448C9.08865 14.953 7.9828 16.0589 7.9828 17.4182C7.9828 18.7774 9.08872 19.8833 10.448 19.8833H11.0283V22.1121H8.25275C7.95074 22.1121 7.70588 22.3569 7.70588 22.6589V23.7862C7.70588 24.5424 7.09064 25.1576 6.33445 25.1576C5.57826 25.1576 4.96303 24.5424 4.96303 23.7862V22.6589C4.96303 22.3569 4.71823 22.1121 4.41622 22.1121ZM18.1874 22.6589V21.5317C18.1874 20.7754 17.5722 20.1602 16.816 20.1602C16.0598 20.1602 15.4446 20.7754 15.4446 21.5317V22.6589C15.4446 22.961 15.1997 23.2058 14.8977 23.2058H12.1221V25.4345H12.7025C14.0618 25.4345 15.1676 26.5404 15.1676 27.8997C15.1676 29.259 14.0617 30.3649 12.7025 30.3649H12.1221V32.5936H19.3275C20.5308 32.5936 21.5098 31.6147 21.5098 30.4114V23.2059H18.7342C18.4322 23.2059 18.1874 22.961 18.1874 22.659L18.1874 22.6589ZM32.8206 14.158L25.8314 16.0308L26.2474 17.5831L33.2365 15.7103L32.8206 14.1581V14.158ZM23.7163 11.0068L20.4841 9.14067C19.5614 8.60787 19.2441 7.42375 19.7768 6.50104C20.2835 5.62324 21.3817 5.29299 22.2819 5.72284L20.7937 2.61153C20.2812 2.38956 19.7122 2.34534 19.1725 2.48992L11.3979 4.57317L12.1918 7.53634C12.27 7.8281 12.0968 8.12792 11.8051 8.20613L10.5978 8.5296C10.1925 8.63823 9.8525 8.90011 9.64065 9.26706C9.42874 9.63409 9.37186 10.0595 9.48056 10.4649C9.65747 11.1252 10.23 11.576 10.875 11.6305H11.1352C11.2284 11.6229 11.3222 11.6073 11.4157 11.5822L12.623 11.2587C12.9147 11.1806 13.2146 11.3537 13.2928 11.6454L14.1227 14.7425L16.6247 14.0721L16.4427 13.393C16.2585 12.7053 16.3541 11.9852 16.712 11.3653C17.0699 10.7453 17.6457 10.3024 18.3334 10.1182C19.0211 9.93398 19.7411 10.0296 20.3611 10.3875C20.9811 10.7454 21.424 11.3213 21.6082 12.0089L21.7902 12.688L24.2921 12.0176L24.0767 11.2137L23.7163 11.0068ZM26.987 14.5888L31.5569 13.3643L30.4709 9.31116C30.1837 8.23942 29.5509 7.41473 28.59 6.85993L22.3016 3.22929L23.9525 6.68062L26.5945 8.20599C26.856 8.357 26.9457 8.69148 26.7946 8.95302C26.6934 9.12843 26.5095 9.22653 26.3205 9.22653C26.2277 9.22653 26.1337 9.20288 26.0476 9.15318L23.2588 7.54304L21.8671 6.73948C21.4676 6.51006 20.9545 6.64822 20.724 7.04791C20.4927 7.44843 20.6304 7.96236 21.0308 8.19362L24.2619 10.059L24.8182 10.3783C24.8415 10.3917 24.8633 10.4072 24.8841 10.4237C24.8912 10.4293 24.8985 10.4346 24.9054 10.4405C24.9101 10.4447 24.9144 10.4492 24.919 10.4535C24.9275 10.4615 24.9361 10.4694 24.9442 10.4778C24.9471 10.4809 24.9497 10.4843 24.9525 10.4875C24.9616 10.4976 24.9707 10.5079 24.9791 10.5187C24.9811 10.5213 24.9828 10.5241 24.9847 10.5267C24.9934 10.5383 25.0019 10.5502 25.0098 10.5627C25.0116 10.5656 25.0131 10.5688 25.0149 10.5717C25.0223 10.584 25.0294 10.5964 25.0359 10.6094C25.0388 10.6153 25.0411 10.6215 25.0438 10.6274C25.0485 10.6378 25.0534 10.648 25.0575 10.6587C25.064 10.6758 25.0696 10.6932 25.0744 10.711C25.2342 11.3076 25.2731 11.434 25.3224 11.594C25.3658 11.735 25.4198 11.9107 25.5624 12.4212C25.6617 12.7768 26.1985 13.8445 26.9871 14.5888H26.987ZM14.074 27.8996C14.074 27.1435 13.4587 26.5282 12.7025 26.5282H11.5753C11.2733 26.5282 11.0284 26.2834 11.0284 25.9813V23.2057H8.7997V23.7861C8.7997 25.1454 7.69385 26.2513 6.33452 26.2513C4.9752 26.2513 3.86935 25.1454 3.86935 23.7861V23.2057H1.64062V30.4112C1.64062 31.6146 2.6196 32.5935 3.82293 32.5935H11.0283V29.8179C11.0283 29.5159 11.2732 29.271 11.5752 29.271H12.7025C13.4587 29.271 14.0739 28.6558 14.0739 27.8996L14.074 27.8996Z" fill="#FF6107"/>
</svg>
