<svg width="414" height="413" viewBox="0 0 414 413" fill="none" xmlns="http://www.w3.org/2000/svg">
<path d="M-276.313 71.256V71.2697C-276.312 71.264 -276.31 71.2583 -276.308 71.2527C-276.31 71.2538 -276.312 71.2549 -276.313 71.256ZM-276.313 71.256C-276.475 71.3531 -276.634 71.4484 -276.789 71.5417C-276.769 71.4806 -276.749 71.4194 -276.729 71.3583C-276.594 71.2795 -276.456 71.2007 -276.313 71.1219V71.256ZM-57.4641 59.054H-57.5381C-57.4383 41.0127 -57.331 22.9717 -57.2163 4.93128H-56.8481C-56.9627 22.948 -57.0699 40.9652 -57.1696 58.9828L-57.4641 59.054ZM-66.2805 61.4633C-66.4027 61.492 -66.5258 61.5175 -66.65 61.5389C-66.3814 45.2491 -66.0944 28.9592 -65.7891 12.6692C-65.6636 12.6549 -65.5403 12.6437 -65.4204 12.6361C-65.7254 28.9119 -66.0121 45.1876 -66.2805 61.4633ZM-75.333 57.3874C-75.4305 57.3511 -75.528 57.3147 -75.6259 57.2788C-75.5478 54.4724 -75.4688 51.666 -75.3889 48.8597C-75.256 48.8079 -75.132 48.7544 -75.016 48.6996C-75.0988 51.6045 -75.1805 54.5093 -75.2614 57.4142C-75.2852 57.4053 -75.3092 57.3964 -75.333 57.3874ZM-84.1036 52.4715H-84.4721C-84.4573 52.0984 -84.4425 51.7254 -84.4277 51.3523C-84.2979 51.3162 -84.1737 51.2708 -84.0539 51.2182C-84.0705 51.6359 -84.0871 52.0537 -84.1036 52.4715ZM-84.0495 41.9438C-84.1392 44.1474 -84.2281 46.351 -84.3162 48.5546C-84.1868 48.5269 -84.0628 48.4929 -83.9437 48.4531C-83.8534 46.1932 -83.7621 43.9333 -83.67 41.6733C-83.7944 41.7654 -83.9211 41.8554 -84.0495 41.9438ZM-83.5541 29.9641C-83.5858 30.7167 -83.6173 31.4694 -83.6487 32.222C-83.5825 32.2359 -83.5195 32.2442 -83.4562 32.2467C-83.3988 32.249 -83.3412 32.2465 -83.2809 32.2389C-83.2466 31.4166 -83.2121 30.5943 -83.1776 29.7719C-83.3122 29.8282 -83.4382 29.8918 -83.5541 29.9641ZM-83.3915 26.1116C-83.4101 26.5482 -83.4285 26.9849 -83.447 27.4215H-83.0785C-83.0573 26.9202 -83.0361 26.4189 -83.0148 25.9176C-83.1415 25.9811 -83.2672 26.0456 -83.3915 26.1116ZM-74.4294 16.5764C-74.4374 16.8323 -74.4452 17.0881 -74.4531 17.344C-74.321 17.2646 -74.1962 17.1923 -74.0781 17.1265C-74.0651 16.707 -74.0522 16.2875 -74.0392 15.8681L-74.1095 15.9021L-74.2986 16.4506C-74.3422 16.4928 -74.3859 16.5347 -74.4294 16.5764ZM-74.5088 19.1501C-74.3864 19.1068 -74.2623 19.0674 -74.1368 19.0309C-74.2586 22.9858 -74.3784 26.9407 -74.4965 30.8956H-74.8648C-74.7479 26.9804 -74.6292 23.0652 -74.5088 19.1501ZM-74.5654 33.2101C-74.5519 32.7534 -74.5383 32.2967 -74.5247 31.8401C-74.6694 31.8948 -74.7923 31.942 -74.8972 31.983C-74.9066 32.2954 -74.9159 32.6079 -74.9252 32.9203L-74.5654 33.2101ZM-74.9439 33.5511C-74.8229 33.4915 -74.6986 33.4187 -74.569 33.3298C-74.6896 37.3967 -74.8084 41.4635 -74.9253 45.5304C-75.0519 45.5089 -75.1741 45.488 -75.2918 45.4678C-75.1777 41.4955 -75.0617 37.5233 -74.9439 33.5511ZM-48.8029 2.55381C-48.66 24.8801 -48.5287 47.2071 -48.4087 69.5347C-48.2802 69.6721 -48.1561 69.8154 -48.0382 69.9664C-48.1588 47.4928 -48.2909 25.0198 -48.4347 2.54753C-48.5423 2.55151 -48.6598 2.55315 -48.8029 2.55381ZM-47.722 600.83H-47.3538C-47.3859 612.325 -47.4209 623.82 -47.459 635.315L-47.8255 634.825C-47.7881 623.493 -47.7535 612.162 -47.722 600.83ZM-40.4156 2.18858C-39.9549 26.1516 -39.534 50.1145 -39.1527 74.0773C-39.0297 74.143 -38.906 74.2075 -38.7814 74.2704C-39.1635 50.2432 -39.5855 26.2159 -40.0473 2.18858H-40.4156ZM-37.1495 599.256C-37.024 599.216 -36.901 599.177 -36.7804 599.138C-36.9048 614.165 -37.0448 629.192 -37.2005 644.219C-37.3199 644.071 -37.441 643.92 -37.564 643.768C-37.4106 628.931 -37.2725 614.093 -37.1495 599.256ZM-32.2707 0.542954C-31.4741 25.2884 -30.748 50.0337 -30.0926 74.7789H-29.7243C-30.3797 50.0337 -31.1057 25.2884 -31.9023 0.542954H-32.2707ZM-26.6335 588.91C-26.5067 588.836 -26.3831 588.766 -26.2626 588.698C-26.553 611.002 -26.9007 633.305 -27.3059 655.608C-27.4146 655.378 -27.5328 655.147 -27.6615 654.913C-27.263 632.912 -26.9203 610.911 -26.6335 588.91ZM-20.6868 79.6361C-20.568 82.8811 -20.4508 86.126 -20.3353 89.3711C-20.2002 89.4666 -20.0747 89.5566 -19.9572 89.6426C-21.0133 59.9425 -22.2122 30.2427 -23.5537 0.542954H-23.9223C-22.7404 26.7058 -21.6694 52.8687 -20.709 79.0318L-20.5794 79.5329C-20.6155 79.5678 -20.6513 79.6021 -20.6868 79.6361ZM-15.2831 2.00573H-15.1341C-13.1264 36.62 -11.3684 71.2344 -9.86018 105.849C-9.98859 105.654 -10.1205 105.46 -10.2541 105.265C-10.3946 102.048 -10.5372 98.8311 -10.6819 95.614C-10.5178 95.2378 -10.4669 94.8225 -10.7337 94.4652C-12.1288 63.5702 -13.7229 32.6754 -15.5159 1.78074L-15.2831 2.00573ZM-7.14959 0.908648L-7.27686 0.891074C-7.2841 0.788516 -7.29135 0.685958 -7.29862 0.5834L-6.92712 0.619312C-6.91597 0.776706 -6.90485 0.934101 -6.89373 1.09149C-6.89258 1.10767 -6.89145 1.12385 -6.8903 1.14003C-4.23713 38.6642 -1.94099 76.1862 -0.00195879 113.707C-0.112369 113.745 -0.233896 113.781 -0.365007 113.814C-2.306 76.2445 -4.60504 38.6732 -7.26211 1.09973C-7.26231 1.09698 -7.26248 1.09424 -7.26268 1.09149C-7.2643 1.06856 -7.26593 1.04562 -7.26756 1.02268L-7.14959 0.908648ZM-7.30148 0.542954L-7.30118 0.547492L-6.92903 0.59246C-6.93021 0.575958 -6.93136 0.559456 -6.93254 0.542954H-7.30148ZM-7.31443 0.360107C-7.31362 0.371703 -7.3128 0.383298 -7.31199 0.394894L-6.93875 0.455024C-6.94099 0.423385 -6.94324 0.391746 -6.94549 0.360107L-7.31443 0.360107ZM1.00482 0.829817C1.12723 0.838132 1.25111 0.84596 1.37613 0.853431C1.41351 1.29848 1.45085 1.74353 1.48812 2.18858H1.11878C1.08086 1.73566 1.04288 1.28274 1.00482 0.829817ZM9.32124 1.29894C9.44594 1.31398 9.57061 1.32896 9.69532 1.34378C9.70066 1.39856 9.70596 1.45335 9.7113 1.50813C9.58797 1.49496 9.46366 1.48286 9.33797 1.47107C9.33238 1.41369 9.32683 1.35632 9.32124 1.29894ZM18.0043 2.00573C18.0367 2.2991 18.0692 2.59248 18.1016 2.88585C17.9775 2.87108 17.8524 2.85631 17.7264 2.84154C17.6956 2.56293 17.6649 2.28433 17.634 2.00573H18.0043ZM25.7631 2.98094L26.1414 3.0419C26.1553 3.1533 26.169 3.2647 26.1829 3.37609L25.8038 3.30947C25.7903 3.19996 25.7767 3.09045 25.7631 2.98094ZM34.1719 4.76407C34.2168 5.09085 34.2617 5.41764 34.3065 5.74442C34.4256 5.79157 34.556 5.84274 34.699 5.89854C34.6503 5.54339 34.6016 5.18825 34.5528 4.8331L34.1719 4.76407ZM34.0045 3.54807C34.0354 3.77253 34.0663 3.99698 34.0972 4.22143C34.2261 4.2502 34.3539 4.27908 34.4805 4.30798C34.4482 4.07314 34.4159 3.83829 34.3835 3.60345C34.2571 3.5839 34.1307 3.56536 34.0045 3.54807ZM42.3409 4.88169L42.7242 4.95579C42.8334 5.67723 42.9424 6.39867 43.051 7.12011L42.6629 7.0129C42.5558 6.3025 42.4485 5.59209 42.3409 4.88169ZM50.8523 6.26282C50.9152 6.27639 50.9778 6.2899 51.0401 6.30331C51.052 6.37544 51.064 6.44756 51.0759 6.51969L50.689 6.4347C50.6772 6.36312 50.6654 6.29154 50.6536 6.21996C50.7201 6.23428 50.7863 6.24858 50.8523 6.26282ZM51.1774 7.13485C51.1494 6.96506 51.1214 6.79528 51.0933 6.6255C50.964 6.59619 50.8348 6.56596 50.7055 6.53446C50.8012 7.1138 50.8966 7.69314 50.9919 8.27249C51.108 8.29855 51.2365 8.32753 51.379 8.35976C51.3124 7.95429 51.2456 7.54882 51.1788 7.14335C51.1558 7.13744 51.1326 7.13147 51.1093 7.12545L51.1774 7.13485ZM59.2429 8.77107L59.5474 8.86921C59.6267 9.31305 59.706 9.75689 59.7851 10.2007L59.3921 10.0922C59.3124 9.64513 59.2326 9.19804 59.1527 8.75095L59.2429 8.77107ZM60.2861 13.023C60.2544 12.8437 60.2226 12.6644 60.1908 12.4851L59.791 12.3364C59.828 12.5449 59.8649 12.7534 59.9018 12.9619C60.045 12.9882 60.1716 13.0083 60.2861 13.023ZM67.393 10.1782C67.4536 10.4933 67.5142 10.8083 67.5747 11.1233L67.9779 11.2733C67.9161 10.9511 67.8542 10.629 67.7922 10.3069L67.393 10.1782ZM67.1742 9.04323C67.2262 9.31259 67.2781 9.58195 67.33 9.85132L67.3764 9.86815L67.7297 9.98196C67.6734 9.68981 67.6171 9.39766 67.5607 9.1055L67.1742 9.04323ZM75.51 10.9652L75.7288 11.0274C75.8213 11.4742 75.9137 11.9209 76.0059 12.3677L75.6052 12.2454C75.5171 11.8187 75.4288 11.3919 75.3404 10.9652H75.51ZM76.3486 14.031C76.3032 13.8101 76.2578 13.5892 76.2123 13.3683L75.8149 13.2616C75.8654 13.5069 75.9159 13.7521 75.9664 13.9974L76.3486 14.031ZM77.1601 17.9973C77.0512 17.4624 76.9421 16.9274 76.8327 16.3925L76.4325 16.2703C76.5424 16.8079 76.6522 17.3455 76.7617 17.8831C76.8917 17.9216 77.0248 17.9597 77.1601 17.9973ZM84.7547 17.8138C84.849 18.2441 84.943 18.6744 85.0369 19.1047L85.4526 19.2855C85.3533 18.8301 85.2538 18.3748 85.1542 17.9195C85.014 17.8801 84.8811 17.8451 84.7547 17.8138ZM84.3287 15.8729C84.4176 16.2771 84.5065 16.6812 84.5951 17.0854L84.7784 17.182L85.0116 17.2687C84.9147 16.8264 84.8175 16.3841 84.7202 15.9417L84.3287 15.8729ZM83.8499 13.7024C83.8722 13.8034 83.8946 13.9043 83.9169 14.0053L84.3085 14.0742C84.2891 13.9861 84.2696 13.898 84.2501 13.8099L83.8499 13.7024ZM83.4504 11.9005C83.4706 11.9914 83.4908 12.0823 83.511 12.1732C83.6437 12.2185 83.7813 12.2822 83.9316 12.372C83.9036 12.2455 83.8755 12.1191 83.8474 11.9926L83.4504 11.9005ZM92.0901 15.3502C92.1173 15.4654 92.1444 15.5805 92.1716 15.6956L92.583 15.8388C92.5554 15.7218 92.5277 15.6048 92.5001 15.4877C92.3622 15.4409 92.2256 15.3951 92.0901 15.3502ZM91.6732 13.5886L92.0766 13.6969C92.0846 13.7305 92.0925 13.7641 92.1005 13.7977C92.1033 13.8098 92.1062 13.8218 92.109 13.8339C92.1459 13.9894 92.1827 14.1448 92.2195 14.3003L91.8154 14.1887C91.7798 14.0382 91.7441 13.8876 91.7084 13.7371C91.7064 13.7288 91.7045 13.7205 91.7025 13.7122C91.6928 13.671 91.683 13.6298 91.6732 13.5886ZM99.9333 15.6472C99.9374 15.6635 99.9416 15.6799 99.9457 15.6962L100.366 15.8586C100.357 15.8256 100.349 15.7926 100.341 15.7596L99.9333 15.6472ZM108.203 17.7165C108.338 17.7533 108.474 17.7908 108.613 17.8289C108.642 17.9387 108.672 18.0485 108.701 18.1583L108.288 18.0363C108.26 17.9297 108.231 17.8231 108.203 17.7165ZM116.492 20.0586C116.636 20.0998 116.775 20.1393 116.907 20.1772C116.928 20.2501 116.949 20.3231 116.969 20.3961L116.553 20.2736C116.533 20.2019 116.512 20.1303 116.492 20.0586ZM124.708 22.3322L125.13 22.462C125.148 22.5226 125.166 22.5832 125.184 22.6439L124.76 22.5072C124.742 22.4489 124.725 22.3906 124.708 22.3322ZM125.235 22.8156C125.224 22.7781 125.213 22.7406 125.202 22.7031L124.771 22.5428C124.785 22.5921 124.8 22.6413 124.815 22.6906L125.235 22.8156ZM125.325 23.1159C125.312 23.0736 125.3 23.0314 125.287 22.9891L124.869 22.8738C124.88 22.909 124.89 22.9441 124.901 22.9793L125.325 23.1159ZM133.155 26.0918L133.587 26.2439C133.615 26.3317 133.642 26.4194 133.67 26.5072H133.58L133.709 26.6322C133.729 26.6973 133.75 26.7624 133.77 26.8275L133.354 26.727C133.288 26.5152 133.221 26.3035 133.155 26.0918ZM134.306 28.5405C134.199 28.1965 134.091 27.8526 133.984 27.5086L133.552 27.3598C133.663 27.7137 133.774 28.0677 133.884 28.4216L134.306 28.5405ZM143.352 34.5437C143.433 34.7929 143.514 35.042 143.595 35.2912L144.029 35.4392C143.963 35.2371 143.897 35.035 143.832 34.8329C143.636 34.7179 143.479 34.623 143.352 34.5437ZM142.785 32.8066C142.834 32.9574 142.883 33.1081 142.933 33.2588L143.378 33.44C143.325 33.2789 143.273 33.1179 143.22 32.9569L142.785 32.8066ZM144.361 37.4781L144.837 37.9381C145.319 39.4303 145.797 40.9226 146.273 42.4148C146.144 42.356 146.012 42.2951 145.875 42.2321L145.827 42.225C145.319 40.6316 144.807 39.0381 144.292 37.4447L144.361 37.4781ZM151.51 36.9577C151.766 37.7056 152.021 38.4535 152.275 39.2014L152.746 39.4489C152.486 38.6822 152.225 37.9155 151.963 37.1488C151.813 37.0853 151.662 37.0216 151.51 36.9577ZM149.32 30.6063C149.601 31.4134 149.88 32.2204 150.159 33.0274L150.617 33.2285C150.333 32.4075 150.049 31.5865 149.764 30.7655C149.616 30.7103 149.468 30.657 149.32 30.6063ZM157.74 33.9609L158.199 34.1491C158.464 34.8772 158.729 35.6053 158.992 36.3334L158.539 36.158C158.273 35.4257 158.007 34.6933 157.74 33.9609ZM166.273 37.5749L166.741 37.774C166.934 38.2819 167.128 38.7897 167.32 39.2975C167.374 39.439 167.427 39.5805 167.481 39.722C169.241 44.3666 170.969 49.0112 172.664 53.6558L172.265 53.6317C170.548 48.9301 168.798 44.2286 167.015 39.527C166.964 39.3913 166.912 39.2556 166.861 39.1198C166.665 38.6048 166.469 38.0899 166.273 37.5749ZM174.711 41.2223L175.188 41.4295C175.406 41.9775 175.624 42.5255 175.842 43.0736C175.875 43.157 175.908 43.2405 175.941 43.324C176.093 43.708 176.245 44.0921 176.397 44.4761L176.139 44.4262L176.454 44.6198C178.237 49.1325 179.987 53.6452 181.705 58.1578L181.624 58.1398L181.223 57.9202C179.342 52.9859 177.422 48.0516 175.465 43.1172C175.436 43.0442 175.407 42.9711 175.378 42.8981C175.156 42.3395 174.934 41.7809 174.711 41.2223ZM183.327 45.3405L183.633 45.5063C183.823 45.9637 184.013 46.4211 184.202 46.8785L183.723 46.6802C183.52 46.1895 183.316 45.6989 183.112 45.2082L183.327 45.3405ZM185.354 49.6702C185.125 49.1131 184.896 48.5559 184.665 47.9988L184.17 47.7594C184.419 48.3609 184.667 48.9624 184.914 49.5639L185.354 49.6702ZM193.344 53.0903L193.823 53.2752C194.829 55.6199 195.827 57.9646 196.814 60.3094L196.326 60.095C195.342 57.7601 194.348 55.4252 193.344 53.0903ZM200.168 53.2166C200.217 53.3247 200.266 53.4328 200.315 53.541L200.351 53.5686L200.856 53.8493C200.8 53.7244 200.743 53.5994 200.686 53.4744L200.168 53.2166ZM208.688 57.2397C208.707 57.2803 208.726 57.321 208.745 57.3616L209.282 57.6407C209.26 57.5956 209.239 57.5504 209.218 57.5053L208.688 57.2397ZM217.404 61.7432C217.422 61.779 217.44 61.8148 217.457 61.8506L218.01 62.1457C217.995 62.1158 217.98 62.086 217.966 62.0562L217.404 61.7432ZM217.464 61.8636C217.653 61.9735 217.843 62.084 218.034 62.1951C263.106 154.066 290.783 245.955 301.063 337.848L300.684 337.764C290.379 245.79 262.639 153.819 217.464 61.8636ZM226.516 67.2464C226.713 67.3663 226.911 67.4865 227.109 67.607C274.752 161.306 303.359 255.007 312.933 348.707L312.557 348.653C302.962 254.851 274.281 161.049 226.516 67.2464ZM235.743 72.9255C235.948 73.0535 236.153 73.1814 236.358 73.3094C284.306 164.249 313.359 255.174 323.515 346.099L323.119 345.865C312.92 254.896 283.795 163.921 235.743 72.9255ZM244.822 78.6286C245.035 78.7632 245.248 78.8976 245.46 79.0317C294.218 168.109 323.84 257.174 334.322 346.238L333.892 345.736C323.338 256.711 293.649 167.68 244.822 78.6286ZM254.223 84.5931C254.443 84.7327 254.661 84.8716 254.879 85.0099C306.145 175.561 336.592 266.099 346.216 356.637L345.769 355.922C336.042 265.491 305.528 175.053 254.223 84.5931ZM264.085 91.2891C264.327 91.4588 264.567 91.6267 264.803 91.7929C328.676 200.988 360.616 310.19 360.616 419.398C360.616 429.998 360.315 440.597 359.714 451.197L359.328 451.491C359.941 440.793 360.248 430.096 360.248 419.398C360.248 310.035 328.197 200.666 264.085 91.2891ZM274.464 98.8429C274.729 99.0463 274.995 99.2513 275.262 99.4582C339.539 206.115 371.683 312.754 371.683 419.399C371.683 427.191 371.511 434.983 371.168 442.774L370.788 443.042C371.139 435.161 371.315 427.28 371.315 419.399C371.315 312.562 339.034 205.719 274.464 98.8429ZM286.046 108.265C286.342 108.515 286.642 108.769 286.947 109.028C350.811 212.508 382.747 315.996 382.747 419.49C382.747 424.102 382.684 428.715 382.557 433.327L382.173 433.903C382.31 429.099 382.379 424.294 382.379 419.49C382.379 315.756 350.272 212.014 286.046 108.265ZM297.171 116.655C297.219 116.732 297.268 116.809 297.317 116.886C297.636 117.159 297.954 117.433 298.27 117.707C298.213 117.617 298.156 117.527 298.099 117.438C297.793 117.176 297.483 116.916 297.171 116.655ZM298.806 119.238C299.119 119.51 299.435 119.785 299.756 120.063C356.979 211.145 388.094 302.231 393.094 393.312L392.807 394.839C388.056 302.987 356.725 211.118 298.806 119.238ZM312.112 130.814C312.434 131.095 312.76 131.379 313.088 131.665C362.107 208.492 391.495 285.325 401.247 362.164L401.006 363.198C391.347 285.742 361.717 208.281 312.112 130.814ZM328.596 147.186L330.173 149.219C373.493 217.62 400.37 286.023 410.797 354.426L410.573 355.402C400.122 285.862 372.657 216.311 328.171 146.753L328.596 147.186ZM361.712 190.896L362.373 191.322C364.026 194.245 365.646 197.168 367.236 200.091L367.561 200.76L368.382 202.983C366.219 198.954 363.996 194.925 361.712 190.896ZM413 313.733C405.218 284.009 394.15 254.285 379.796 224.563L377.978 221.662C393.024 252.338 404.567 283.012 412.608 313.685C412.737 313.703 412.867 313.72 413 313.733ZM412.595 367.539C412.378 365.759 412.15 363.979 411.911 362.199L411.452 361.55C411.761 363.818 412.05 366.085 412.322 368.352L412.58 367.7L412.595 367.539ZM404.294 396.435L403.97 397.329C403.836 394.587 403.677 391.845 403.492 389.102L403.5 389.093L403.419 388.039C403.329 386.738 403.233 385.437 403.131 384.137L403.447 383.464C403.792 387.788 404.074 392.111 404.294 396.435ZM348.607 452.794L348.29 451.874C348.741 443.67 349.022 435.466 349.131 427.262L349.503 426.974C349.393 435.581 349.094 444.187 348.607 452.794ZM337.634 454.537L337.24 454.982C337.624 448.272 337.9 441.563 338.067 434.854L338.433 434.942C338.27 441.474 338.003 448.006 337.634 454.537ZM325.999 465.37C325.875 465.364 325.753 465.359 325.631 465.355C326.429 453.962 326.93 442.568 327.135 431.175L327.502 431.252C327.296 442.624 326.795 453.997 325.999 465.37ZM314.414 473.692L314.032 473.854C315.745 452.105 316.431 430.356 316.092 408.607L316.461 408.696C316.797 430.362 316.114 452.027 314.414 473.692ZM303.049 480.495C302.902 480.747 302.758 480.994 302.617 481.236C303.527 470.541 304.201 459.845 304.64 449.15L304.952 449.067L305.01 449.101C304.582 459.566 303.928 470.03 303.049 480.495ZM290.504 498.239L290.11 498.48C291.786 482.219 292.946 465.958 293.588 449.698L293.955 449.75C293.315 465.913 292.165 482.076 290.504 498.239ZM278.71 507.361C278.593 507.346 278.471 507.33 278.345 507.311C278.811 503.031 279.242 498.751 279.639 494.471L280.057 493.95C279.645 498.42 279.196 502.89 278.71 507.361ZM256.659 583.379C257.536 578.816 258.377 574.253 259.181 569.69C259.061 569.666 258.941 569.643 258.82 569.621C258.011 574.21 257.165 578.798 256.283 583.387C256.408 583.387 256.534 583.384 256.659 583.379ZM250.204 614.072C252.026 606.092 253.735 598.113 255.333 590.134C255.232 590.042 255.125 589.95 255.013 589.861C253.362 598.114 251.592 606.366 249.702 614.619C249.872 614.438 250.04 614.256 250.204 614.072ZM237.907 624.778C237.743 624.936 237.581 625.094 237.421 625.254C242.691 602.238 247.078 579.221 250.581 556.205C250.692 556.301 250.801 556.397 250.909 556.492C247.439 579.254 243.105 602.016 237.907 624.778ZM222.243 650.957C222.07 651.128 221.901 651.305 221.736 651.485C231.24 612.622 238.357 573.761 243.087 534.902C243.182 535.061 243.286 535.22 243.399 535.379C238.693 573.903 231.641 612.429 222.243 650.957ZM207.618 671.831C207.477 671.901 207.334 671.969 207.188 672.033C222.629 610.815 232.457 549.597 236.673 488.379C236.793 488.379 236.916 488.379 237.042 488.379C232.832 549.53 223.024 610.681 207.618 671.831ZM198.049 672.748C197.922 672.747 197.796 672.748 197.671 672.75C212.718 609.893 222.163 547.037 226.006 484.181C226.126 484.262 226.244 484.342 226.36 484.42C222.509 547.196 213.072 609.972 198.049 672.748ZM187.364 678.25C187.192 678.441 187.022 678.635 186.853 678.83C202.364 611.927 211.874 545.029 215.382 478.132C215.519 478.983 215.432 480.176 215.294 481.979C215.377 481.979 215.459 481.979 215.542 481.98C211.888 547.401 202.495 612.823 187.364 678.25ZM175.577 689.139C175.443 689.183 175.308 689.225 175.172 689.263C190.771 620.976 200.45 552.682 204.207 484.382C204.319 484.496 204.435 484.614 204.556 484.736C200.788 552.877 191.128 621.012 175.577 689.139ZM143.419 779.882C142.239 782.403 141.604 784.511 141.484 786.54C139.01 794.98 136.45 803.42 133.805 811.859C133.437 812.584 133.084 813.318 132.731 814.053C167.63 703.352 187.843 592.63 193.37 481.904C193.496 481.836 193.623 481.768 193.749 481.7C188.805 581.101 172.028 680.499 143.419 779.882ZM119.58 834.497C119.433 834.582 119.28 834.663 119.12 834.74C119.829 832.472 120.532 830.204 121.23 827.936L121.852 827.012H121.514C156.053 714.436 176.286 601.882 182.213 489.333C182.335 489.326 182.458 489.32 182.582 489.313C176.527 604.364 155.527 719.419 119.58 834.497ZM108.765 846.252C108.887 845.85 109.008 845.449 109.13 845.047C108.974 845.137 108.819 845.226 108.666 845.313C108.524 845.782 108.382 846.251 108.24 846.719C108.39 846.579 108.537 846.446 108.688 846.318C108.714 846.296 108.74 846.274 108.765 846.252ZM106.816 852.647C107.268 851.176 107.717 849.705 108.164 848.234C108.013 848.314 107.861 848.392 107.709 848.47C107.265 849.93 106.818 851.39 106.369 852.85C106.519 852.783 106.667 852.716 106.816 852.647ZM96.696 863.291C97.1133 861.878 97.5286 860.466 97.9419 859.053C97.828 859.001 97.7145 858.952 97.6021 858.907C97.1451 860.469 96.6856 862.031 96.2237 863.593C96.3815 863.493 96.5395 863.392 96.696 863.291ZM87.7845 870.289C87.6279 870.398 87.4703 870.506 87.3118 870.613C123.325 742.778 144.03 614.944 149.428 487.109C149.546 487.086 149.67 487.061 149.8 487.035C144.413 614.787 123.741 742.538 87.7845 870.289ZM79.1039 876.015L78.8328 876.156C81.3197 866.84 83.7304 857.523 86.0651 848.206C86.2545 848.054 86.4012 847.925 86.5487 847.787C84.2097 857.133 81.7941 866.478 79.3019 875.823L79.1039 876.015ZM71.2282 880.135L70.7921 880.363C71.7529 876.54 72.7018 872.717 73.6387 868.894C73.8002 868.721 73.9669 868.549 74.1437 868.376C73.1845 872.296 72.2126 876.215 71.2282 880.135ZM63.026 884.426C62.949 884.5 62.8719 884.574 62.7439 884.674C63.351 882.101 63.953 879.529 64.55 876.957C64.6736 876.851 64.8267 876.721 65.0195 876.56C64.4187 879.151 63.8128 881.742 63.2017 884.334L63.026 884.426ZM55.7543 886.882C55.6276 886.909 55.4961 886.937 55.3593 886.966C55.6519 885.636 55.9433 884.306 56.2335 882.975C56.3599 882.939 56.4931 882.902 56.6337 882.865C56.3418 884.204 56.0487 885.543 55.7543 886.882ZM48.4612 887.351C48.3865 887.279 48.3118 887.2 48.2386 887.116C48.3459 886.589 48.4531 886.061 48.5602 885.534C48.7054 885.462 48.8435 885.394 48.9765 885.331C48.8393 886.007 48.7018 886.684 48.564 887.36C48.53 887.357 48.4957 887.354 48.4612 887.351ZM64.4435 799.306C64.4208 799.443 64.398 799.581 64.3752 799.719L64.5733 800.772C64.807 799.365 65.0394 797.957 65.2704 796.55C65.0938 797.07 64.9584 797.55 64.8229 798.03C64.7054 798.447 64.5879 798.863 64.4435 799.306ZM57.8704 788.844C57.7435 788.844 57.6198 788.843 57.4992 788.839C70.4687 701.069 78.8165 613.3 82.5423 525.53C82.6711 525.481 82.7959 525.433 82.9169 525.387C79.1945 613.206 70.8456 701.025 57.8704 788.844ZM50.8199 776.389C50.733 776.096 50.6465 775.81 50.5604 775.532C61.1024 694.514 68.0471 613.496 71.3944 532.478C71.5253 532.409 71.6509 532.341 71.7713 532.273C68.4159 613.645 61.4321 695.017 50.8199 776.389ZM42.7613 769.161C42.6312 769.182 42.5053 769.2 42.3849 769.212C50.0087 703.463 55.4828 637.709 58.8074 571.952C58.9244 571.97 59.0465 571.984 59.1738 571.995C55.8503 637.72 50.3794 703.443 42.7613 769.161ZM35.0445 756.425C34.9313 756.342 34.8159 756.262 34.699 756.182C41.0544 692.851 45.6173 629.525 48.3878 566.201C48.5114 566.159 48.6362 566.116 48.7619 566.072C45.9888 629.52 41.4163 692.97 35.0445 756.425ZM28.2376 730.678C28.1249 730.56 28.0116 730.441 27.8976 730.322C32.2578 677.455 35.5063 624.587 37.6429 571.719C37.7618 571.728 37.8841 571.739 38.0101 571.75C35.8688 624.726 32.6113 677.702 28.2376 730.678ZM19.2044 724.246C19.0823 724.245 18.9594 724.243 18.8356 724.242C22.3801 674.308 25.0539 624.374 26.8571 574.44C26.9804 574.414 27.1041 574.388 27.2282 574.364C25.4251 624.324 22.7505 674.285 19.2044 724.246ZM9.88423 720.081C9.77346 719.967 9.65788 719.848 9.53708 719.723C12.3785 672.596 14.5512 625.471 16.0551 578.347C16.1787 578.282 16.3036 578.218 16.4296 578.154C14.9217 625.461 12.74 672.77 9.88423 720.081ZM0.269485 719.609C0.146772 719.606 0.0240947 719.603 -0.0986182 719.6C2.13313 675.655 3.87501 631.712 5.12703 587.77C5.25039 587.845 5.37073 587.917 5.48915 587.986C4.23756 631.859 2.49767 675.733 0.269485 719.609ZM-9.08469 714.709C-9.20338 714.61 -9.32199 714.505 -9.44024 714.394C-7.69939 671.902 -6.33464 629.412 -5.34606 586.924C-5.22017 586.875 -5.09634 586.827 -4.9745 586.779C-5.96575 629.42 -7.33581 672.063 -9.08469 714.709ZM-18.3216 699.499C-18.4194 699.205 -18.5318 698.917 -18.6633 698.615C-17.554 661.751 -16.6644 624.89 -15.9944 588.029C-15.8721 588.029 -15.7493 588.029 -15.6261 588.028C-16.3014 625.184 -17.1999 662.34 -18.3216 699.499ZM1.16759 2.77155C4.08416 37.6458 6.63456 72.5182 8.81882 107.389C8.9181 107.371 9.01782 107.35 9.11753 107.326H9.18363C7.00348 72.525 4.45869 37.7229 1.54925 2.91913C1.54327 2.84767 1.53729 2.77621 1.53131 2.70475C1.52201 2.59364 1.51272 2.48253 1.50342 2.37142H1.17312C1.15958 2.36488 1.14602 2.35839 1.13248 2.35196C1.14133 2.45761 1.15015 2.56326 1.15899 2.66891C1.16186 2.70312 1.16472 2.73734 1.16759 2.77155ZM9.58198 3.98752C12.877 38.0699 15.7664 72.1522 18.2503 106.235C18.3656 106.143 18.4817 106.047 18.5985 105.949C16.121 71.9821 13.2407 38.0152 9.95761 4.04835C9.93893 3.85507 9.92021 3.66179 9.9015 3.46851C9.84611 2.89625 9.79059 2.32399 9.73497 1.75173C9.60909 1.73301 9.48391 1.71252 9.35934 1.69082C9.41133 2.22553 9.46318 2.76023 9.51498 3.29493C9.53733 3.5258 9.55965 3.75666 9.58198 3.98752ZM25.8253 84.1057C26.1142 87.3557 26.3989 90.6057 26.6794 93.8557C26.7808 93.6105 26.8828 93.3625 26.9846 93.1132C26.7315 90.187 26.4751 87.2609 26.2152 84.3347C26.0822 84.2658 25.9519 84.1902 25.8253 84.1057ZM25.8533 80.2853C25.7304 80.2596 25.6055 80.2389 25.4783 80.2239C24.7986 72.6647 24.0962 65.1054 23.371 57.5462C23.4908 57.568 23.6151 57.5826 23.7448 57.5884C24.4704 65.154 25.1733 72.7197 25.8533 80.2853ZM23.1541 51.4816C23.0378 51.4836 22.9152 51.4874 22.7854 51.4926C22.7067 50.6858 22.6278 49.879 22.5486 49.0722C22.6714 49.0615 22.7939 49.0512 22.9154 49.0418C22.9952 49.8551 23.0748 50.6683 23.1541 51.4816ZM22.7671 47.5346H22.5473C22.4983 47.5663 22.4513 47.5965 22.4063 47.6255C22.3268 46.8194 22.2471 46.0132 22.1671 45.2071C22.2855 45.0814 22.3928 44.9253 22.4898 44.7314C22.5826 45.6658 22.675 46.6002 22.7671 47.5346ZM31.1356 48.8033C31.221 49.5768 31.3062 50.3504 31.3911 51.1239C31.507 51.1098 31.6287 51.0954 31.7565 51.0805C31.6816 50.3973 31.6064 49.714 31.531 49.0308C31.4042 48.9466 31.272 48.8716 31.1356 48.8033ZM22.0214 40.0451C21.9132 40.0197 21.7887 39.9954 21.6441 39.9714C20.5591 29.1847 19.4278 18.3979 18.2502 7.61116L18.5751 7.67399H18.6272C19.8049 18.4644 20.9363 29.2548 22.0214 40.0451ZM18.367 5.29698C18.2824 4.52601 18.1975 3.75504 18.1124 2.98408C17.9872 2.96527 17.8618 2.94675 17.736 2.92843C17.8232 3.71795 17.9101 4.50746 17.9968 5.29698H18.367ZM26.1412 3.8342H25.8688C25.8511 3.69133 25.8334 3.54846 25.8157 3.40558L26.1412 3.46851L26.1954 3.47677C26.2107 3.60109 26.2262 3.7254 26.2415 3.84972C26.2083 3.84458 26.1749 3.83941 26.1412 3.8342ZM25.8992 4.07916C26.0245 4.09461 26.1499 4.10899 26.2752 4.12204C26.3802 4.97057 26.4849 5.81911 26.5892 6.66764L26.1914 6.44793C26.0943 5.65834 25.9969 4.86875 25.8992 4.07916ZM26.8472 8.77107C27.2424 12.0014 27.6329 15.2317 28.0187 18.462H27.6481C27.2622 15.2317 26.8717 12.0014 26.4765 8.77107H26.8472ZM34.3769 6.25814C34.4375 6.70112 34.4981 7.14411 34.5586 7.58709C34.686 7.61636 34.8138 7.6451 34.9417 7.67337C34.8801 7.22202 34.8184 6.77067 34.7566 6.31932L34.3769 6.25814ZM35.0314 9.86815C35.1061 9.89037 35.1787 9.91209 35.2493 9.93333C35.3787 10.8868 35.5076 11.8402 35.6361 12.7937H35.2649C35.1334 11.8185 35.0015 10.8433 34.8691 9.86815H35.0314ZM36.3218 17.9134C36.1271 16.4506 35.9314 14.9879 35.7346 13.5251H35.3634C35.5684 15.0492 35.7723 16.5732 35.9751 18.0973L35.9772 18.0963V17.9134H36.3218ZM59.4774 565.87C59.7105 561.067 59.9321 556.264 60.1423 551.461H59.7739C59.5648 556.238 59.3443 561.016 59.1126 565.793C59.2364 565.822 59.3576 565.848 59.4774 565.87ZM42.7062 7.30053C42.8863 8.49658 43.0656 9.69264 43.2441 10.8887C43.3755 10.942 43.5072 10.994 43.6393 11.0444C43.5027 10.1287 43.3656 9.21299 43.2281 8.29729C43.1431 8.27414 43.0589 8.24932 42.9758 8.22253L43.2112 8.18461C43.1758 7.94923 43.1404 7.71384 43.105 7.47846L42.7062 7.30053ZM51.1251 9.08344C51.3527 10.4701 51.5791 11.8567 51.8044 13.2433L52.1999 13.3842C51.9691 11.9628 51.7371 10.5414 51.5039 9.12005L51.1251 9.08344ZM80.8184 156.511C81.4643 162.155 82.0894 167.799 82.6938 173.443L83.0678 173.479C82.4623 167.823 81.836 162.167 81.1888 156.511H80.8184ZM80.1324 150.584C80.1935 151.106 80.2543 151.628 80.3151 152.15L80.7179 152.428C80.6459 151.808 80.5736 151.189 80.5012 150.57L80.1324 150.584ZM68.9284 67.6478C69.1804 69.2934 69.4307 70.9391 69.6792 72.5847H70.0513C69.8028 70.9391 69.5526 69.2934 69.3006 67.6478H68.9284ZM59.9481 13.2236C60.1752 14.5077 60.4012 15.7919 60.6262 17.0761C60.7486 17.1116 60.8789 17.1486 61.0191 17.1877C60.7941 15.9024 60.5679 14.6172 60.3407 13.332L59.9481 13.2236ZM68.9608 18.4049C68.9861 18.5389 69.0114 18.6729 69.0366 18.8069C69.1724 18.8165 69.2947 18.8217 69.4142 18.8244C69.4003 18.7509 69.3864 18.6774 69.3726 18.604L68.9608 18.4049ZM84.7784 57.9569C84.6611 57.7868 84.5438 57.6211 84.4258 57.4584C83.5782 52.8426 82.7144 48.2267 81.8344 43.6108L82.2039 43.5853C84.2047 54.0813 86.1218 64.5773 87.955 75.073L87.6502 75.4658C86.6334 69.6388 85.5908 63.8116 84.5223 57.9844L84.7784 57.9569ZM81.3619 41.1407C81.4294 41.4925 81.4968 41.8442 81.5642 42.196L81.9685 42.3523C81.8807 41.8933 81.7927 41.4342 81.7046 40.9751L81.3619 41.1407ZM77.3401 20.7327C77.5552 21.7965 77.7695 22.8604 77.9829 23.9242C78.1391 23.9907 78.2759 24.0595 78.3995 24.1314C78.1787 23.0303 77.9571 21.9291 77.7344 20.828L77.3401 20.7327ZM85.7479 22.3756C86.0287 23.6728 86.3082 24.9699 86.5862 26.2671C86.7112 26.2781 86.8389 26.2894 86.9694 26.3008C86.9404 26.1657 86.9114 26.0306 86.8825 25.8955L86.4809 25.4102L86.8041 25.5303C86.5824 24.498 86.3599 23.4657 86.1365 22.4334L85.7479 22.3756ZM87.3786 29.9813H87.7544C88.045 31.3499 88.334 32.7184 88.6214 34.087L88.2143 33.937C87.9371 32.6185 87.6586 31.2999 87.3786 29.9813ZM88.4607 35.1115C88.5857 35.1138 88.7116 35.1167 88.8382 35.1202C91.4744 47.7041 93.9811 60.2877 96.3584 72.8712L95.9419 72.6475C93.5762 60.1357 91.0825 47.6237 88.4607 35.1115ZM96.9161 77.8389L97.1539 77.1077C98.2538 83.0019 99.3253 88.8961 100.368 94.7902L100.038 95.0344C99.0244 89.3026 97.9837 83.5708 96.9161 77.8389ZM102.912 111.708L102.937 111.165L103.232 111.397C107.245 135.296 110.792 159.194 113.871 183.091L113.507 183.15C110.439 159.337 106.907 135.523 102.912 111.708ZM117.019 212.196C117.271 214.427 117.52 216.658 117.764 218.889L118.176 219.275C117.936 217.08 117.693 214.885 117.446 212.69L117.019 212.196ZM123.768 185.224C124.038 187.191 124.303 189.157 124.566 191.123C124.677 191.033 124.788 190.941 124.9 190.846C124.65 188.972 124.396 187.099 124.14 185.226C124.071 185.221 124.002 185.218 123.933 185.218C123.878 185.218 123.823 185.22 123.768 185.224ZM113.953 122.029C117.476 142.299 120.638 162.569 123.44 182.838L123.813 182.848C121.017 162.618 117.862 142.387 114.349 122.156L113.953 122.029ZM124.044 126.452C127.494 145.309 130.612 164.167 133.397 183.024H133.769C130.984 164.162 127.866 145.299 124.415 126.437L124.044 126.452ZM132.467 121.938C136.642 143.01 140.373 164.083 143.66 185.156L144.121 185.73C140.818 164.494 137.064 143.258 132.859 122.022L132.467 121.938ZM144.822 192.727L145.211 192.839C146.582 201.932 147.871 211.025 149.077 220.117C148.951 220.113 148.827 220.109 148.704 220.106C147.493 210.979 146.199 201.853 144.822 192.727ZM136.103 96.71C143.289 128.138 149.426 159.565 154.512 190.993L154.93 191.27C149.818 159.642 143.644 128.014 136.406 96.3863L136.103 96.71ZM155.538 197.425L155.943 197.628C157.528 207.722 159.006 217.817 160.375 227.912L159.976 227.703C158.605 217.61 157.126 207.518 155.538 197.425ZM165.956 200.137C166.018 200.515 166.08 200.892 166.142 201.269L166.567 201.589C166.483 201.074 166.398 200.558 166.313 200.043L165.956 200.137ZM145.124 97.8114C153.259 131.415 160.119 165.017 165.704 198.618C165.829 198.622 165.954 198.626 166.079 198.63C160.476 164.913 153.59 131.196 145.421 97.4765L145.124 97.8114ZM142.325 84.944C142.062 83.8993 141.798 82.8546 141.533 81.8099L141.146 81.3614L141.024 81.3008C141.338 82.5364 141.651 83.7721 141.962 85.0078L142.325 84.944ZM133.35 83.3004L133.201 83.1898L132.918 83.0724C132.521 81.405 132.12 79.7376 131.717 78.0701H132.095C132.517 79.8135 132.935 81.557 133.35 83.3004ZM125.231 50.7784C125.101 50.7707 124.972 50.7616 124.844 50.7511C123.593 45.9608 122.317 41.1705 121.017 36.3803L121.451 36.5766C122.735 41.3105 123.995 46.0445 125.231 50.7784ZM120.885 34.4967L120.528 34.3697L120.462 34.3423C120.138 33.1546 119.812 31.9669 119.485 30.7793C119.64 30.8451 119.783 30.9051 119.916 30.9601C120.241 32.139 120.563 33.3178 120.885 34.4967ZM128.367 34.7698C128.582 35.5139 128.797 36.2579 129.011 37.0019L129.229 37.1124L129.449 37.1975C129.238 36.4613 129.025 35.7252 128.812 34.989C128.664 34.9165 128.516 34.8435 128.367 34.7698ZM127.293 31.0784C127.516 31.8416 127.738 32.6048 127.96 33.368C128.097 33.4199 128.239 33.472 128.388 33.5249C128.107 32.5557 127.824 31.5865 127.541 30.6173L127.149 30.5299L127.338 31.0784H127.293ZM118.224 24.8582C118.189 24.7332 118.154 24.6083 118.119 24.4833L117.691 24.3131L117.69 24.3127C117.726 24.443 117.763 24.5733 117.799 24.7036C117.953 24.7603 118.094 24.8115 118.224 24.8582ZM117.961 23.9183L117.537 23.7674C117.375 23.1896 117.212 22.6119 117.05 22.0341C117.185 22.0779 117.325 22.1229 117.469 22.1694C117.633 22.7523 117.797 23.3353 117.961 23.9183ZM109.783 22.2283C109.709 21.9474 109.634 21.6666 109.56 21.3858C109.417 21.3246 109.274 21.263 109.131 21.2009C109.212 21.5075 109.293 21.814 109.375 22.1206L109.783 22.2283ZM110.283 24.1227C110.18 23.7331 110.078 23.3436 109.975 22.954L109.533 22.7213C109.648 23.1557 109.763 23.5902 109.877 24.0247L110.283 24.1227ZM112.049 30.8907C111.908 30.3438 111.766 29.7969 111.624 29.2499H111.244C111.371 29.7373 111.497 30.2248 111.623 30.7122C111.756 30.7684 111.897 30.8278 112.049 30.8907ZM112.075 32.4592L112.492 32.6068C112.806 33.826 113.119 35.0452 113.43 36.2644L113.34 36.1981L112.971 35.9538C112.674 34.7889 112.375 33.6241 112.075 32.4592ZM113.611 38.4681L114.04 38.6645C115.074 42.7448 116.092 46.8252 117.093 50.9055L116.71 50.885C115.694 46.746 114.661 42.607 113.611 38.4681ZM108.603 49.9906C107.283 44.266 105.931 38.5415 104.549 32.8169L104.139 32.6848C105.535 38.4619 106.899 44.2391 108.232 50.0162L108.603 49.9906ZM119.158 60.9985C119.577 62.7534 119.993 64.5083 120.406 66.2632L120.799 66.3324C120.399 64.6279 119.995 62.9234 119.589 61.2188C119.429 61.1348 119.285 61.0615 119.158 60.9985ZM123.123 78.0104L123.512 78.0642C123.964 80.0558 124.413 82.0474 124.858 84.039L124.69 84.1041L124.576 84.4623C124.096 82.3117 123.611 80.161 123.123 78.0104ZM132.698 121.212C131.683 116.098 130.641 110.984 129.574 105.87L129.265 106.191C130.262 110.971 131.237 115.751 132.188 120.531L132.698 121.212ZM118.341 94.934C116.621 86.4443 114.833 77.9546 112.978 69.465L112.55 69.2304C114.464 77.9831 116.307 86.7357 118.078 95.4884L118.341 94.934ZM110.218 99.2539L109.846 99.2634C109.429 97.0345 109.008 94.8057 108.582 92.5768L108.877 92.1642C109.329 94.5274 109.776 96.8907 110.218 99.2539ZM108.319 89.2555L107.989 89.4859C104.599 71.9036 100.938 54.3213 97.0066 36.739L97.3614 36.641C101.283 54.1791 104.936 71.7173 108.319 89.2555ZM97.0032 35.0426L96.583 34.8492C96.2453 33.3463 95.9056 31.8434 95.5639 30.3405L95.9763 30.4965C96.3206 32.0119 96.6629 33.5272 97.0032 35.0426ZM95.1914 27.0574C95.1882 27.0569 95.185 27.0563 95.1818 27.0558C95.0612 27.0558 94.9384 27.0558 94.8139 27.0556C94.3946 25.2271 93.9725 23.3987 93.5474 21.5702C93.6881 21.6419 93.8308 21.7149 93.9756 21.7893C94.3836 23.5453 94.7888 25.3014 95.1914 27.0574ZM101.694 22.6898C101.815 23.1787 101.936 23.6676 102.057 24.1566L102.477 24.3258C102.352 23.8179 102.226 23.3099 102.1 22.802L101.694 22.6898ZM101.045 20.0781C101.106 20.3238 101.167 20.5694 101.228 20.8151C101.293 20.823 101.358 20.831 101.424 20.839C101.493 20.8639 101.562 20.8889 101.632 20.9138C101.577 20.6939 101.522 20.474 101.467 20.2541C101.337 20.2005 101.196 20.142 101.045 20.0781ZM100.725 18.8002C100.779 19.0155 100.833 19.2307 100.887 19.4459L101.315 19.6438C101.257 19.412 101.199 19.1802 101.141 18.9483L100.725 18.8002ZM100.478 17.8125C100.525 17.9982 100.571 18.1839 100.618 18.3696L101.037 18.5318C100.988 18.3379 100.94 18.1441 100.891 17.9503L100.478 17.8125ZM100.289 16.085L100.031 16.0351C100.017 15.9805 100.004 15.9259 99.9898 15.8712L100.1 15.9021L100.289 16.085ZM102.576 26.2648L103.095 26.8382C103.097 26.8489 103.1 26.8596 103.103 26.8702L102.713 26.826C102.668 26.6389 102.622 26.4519 102.576 26.2648ZM104.234 31.5119C104.106 30.9827 103.977 30.4535 103.848 29.9243L103.457 29.8703C103.577 30.3637 103.697 30.8571 103.817 31.3504L104.072 31.4441L104.234 31.5119ZM109.136 19.7889L108.72 19.6549C108.662 19.4369 108.604 19.2189 108.546 19.0008L108.965 19.1454C109.022 19.3599 109.079 19.5744 109.136 19.7889ZM108.358 18.2959C108.39 18.4155 108.422 18.5352 108.454 18.6548L108.869 18.7888C108.839 18.6727 108.808 18.5566 108.777 18.4405L108.358 18.2959ZM116.671 20.6919C116.742 20.9415 116.812 21.191 116.882 21.4406L117.311 21.6062C117.237 21.3447 117.163 21.0833 117.089 20.8219L116.671 20.6919ZM116.578 20.3638C116.579 20.3661 116.58 20.3683 116.58 20.3706L116.934 20.4733L116.578 20.3638ZM125.001 23.3165C125.297 24.3065 125.591 25.2965 125.884 26.2865C126.014 26.3041 126.143 26.3135 126.276 26.3186C125.993 25.3634 125.71 24.4082 125.425 23.453L125.001 23.3165ZM135.861 34.8035C136.015 34.8729 136.163 34.9402 136.307 35.0055C136.707 36.3059 137.104 37.6062 137.499 38.9066L137.022 38.5991C136.637 37.3339 136.25 36.0687 135.861 34.8035ZM137.79 41.135H138.174C138.296 41.5406 138.419 41.9462 138.541 42.3517L137.931 41.6019C137.884 41.4462 137.838 41.2906 137.79 41.135ZM142.965 58.6677C144.047 62.4233 145.113 66.179 146.161 69.9346L146.597 70.1314C145.555 66.3943 144.496 62.6573 143.42 58.9203L142.965 58.6677ZM136.114 61.1173C135.25 57.9111 134.374 54.7049 133.486 51.4986L133.007 51.1444C133.851 54.1895 134.684 57.2345 135.508 60.2796L136.114 61.1173ZM132.385 47.5451L131.969 47.4214C131.709 46.4928 131.448 45.5642 131.186 44.6356L131.31 44.6091L131.58 44.6778C131.849 45.6336 132.118 46.5893 132.385 47.5451ZM130.906 42.2945L130.553 42.3967C130.496 42.1947 130.438 41.9928 130.381 41.7908L130.841 42.0649C130.862 42.1414 130.884 42.218 130.906 42.2945ZM150.21 56.2233C150.612 57.5318 151.012 58.8403 151.41 60.1488L151.869 60.3973C151.467 59.0739 151.063 57.7505 150.657 56.4272L150.21 56.2233ZM146.326 43.792C147.044 46.0521 147.756 48.3121 148.461 50.5722L148.939 50.8739C148.226 48.5836 147.505 46.2933 146.778 44.003L146.326 43.792ZM152.744 64.5648L153.2 64.8081C154.244 68.292 155.274 71.7759 156.288 75.2598L156.089 75.1446L155.754 74.7395C154.765 71.3479 153.762 67.9563 152.744 64.5648ZM160.717 90.8311C159.946 88.058 159.166 85.2848 158.376 82.5116L158.004 82.5476C158.789 85.3012 159.564 88.0549 160.329 90.8085C160.459 90.8173 160.588 90.8247 160.717 90.8311ZM162.415 98.3984L162.84 98.5629C163.328 100.361 163.811 102.159 164.291 103.957C164.16 103.947 164.031 103.936 163.902 103.924C163.41 102.082 162.915 100.24 162.415 98.3984ZM167.094 116.123L167.774 117.296C168.597 120.518 169.407 123.741 170.204 126.963L169.928 127.376C169.001 123.625 168.057 119.874 167.094 116.123ZM171.036 131.9L171.789 133.838C171.842 133.928 171.896 134.017 171.949 134.107C181.636 174.26 189.278 214.412 194.875 254.563L194.471 254.332C188.773 213.522 180.962 172.711 171.036 131.9ZM205.993 421.098C206.066 421.093 206.139 421.091 206.214 421.091L206.361 421.086C206.356 425.001 206.331 428.916 206.286 432.832C206.162 432.798 206.04 432.768 205.919 432.739C205.963 428.859 205.988 424.978 205.993 421.098ZM195.231 432.406C195.25 430.517 195.266 428.628 195.277 426.74L194.909 426.726C194.898 428.621 194.882 430.516 194.862 432.411C194.985 432.403 195.108 432.402 195.231 432.406ZM184.37 431.185C184.229 431.147 184.106 431.11 184.002 431.077C184.021 428.993 184.034 426.908 184.043 424.824C184.165 424.766 184.288 424.71 184.412 424.656C184.403 426.833 184.389 429.009 184.37 431.185ZM171.234 232.21H171.032L170.818 231.892C169.567 223.033 168.228 214.173 166.8 205.314L167.226 205.643C168.65 214.499 169.987 223.354 171.234 232.21ZM178.22 212.828L177.815 212.366C171.498 174.163 163.433 135.961 153.619 97.7611L154.07 98.0382C166.618 146.94 176.303 195.845 183.122 244.752L181.942 239.049C180.673 230.234 179.31 221.419 177.854 212.603L178.22 212.828ZM183.95 250.792C183.785 249.568 183.619 248.344 183.45 247.121L183.262 248.456C183.366 249.22 183.47 249.985 183.573 250.749L183.95 250.792ZM173.298 432.062C173.319 429.668 173.335 427.275 173.344 424.881C173.226 424.853 173.103 424.824 172.977 424.794C172.967 427.216 172.952 429.639 172.93 432.062H173.298ZM171.202 490.276C171.322 490.234 171.447 490.193 171.577 490.154C165.667 607.869 145.026 725.585 109.655 843.3C109.438 843.619 109.21 843.954 108.969 844.306C144.521 726.296 165.265 608.286 171.202 490.276ZM216.918 420.737C216.913 425.913 216.871 431.088 216.793 436.264C216.908 436.175 217.032 436.071 217.166 435.954C217.241 430.89 217.281 425.826 217.286 420.762C217.22 420.756 217.154 420.75 217.089 420.746C217.032 420.742 216.976 420.739 216.918 420.737ZM205.771 258.962L205.256 257.967C199.919 221.015 192.752 184.062 183.753 147.107L184.195 147.371C193.242 184.57 200.434 221.767 205.771 258.962ZM171.437 99.1773C171.205 98.3676 170.973 97.5578 170.739 96.7481C170.71 96.7388 170.682 96.7297 170.654 96.7205C170.535 96.7014 170.429 96.6844 170.334 96.6689C170.551 97.42 170.767 98.1712 170.982 98.9223C171.131 99.0088 171.282 99.094 171.437 99.1773ZM168.544 89.2238H168.161C166.973 85.1988 165.763 81.1737 164.531 77.1487L165.03 77.5257C166.222 81.4251 167.393 85.3244 168.544 89.2238ZM155.635 49.2193C158.454 57.7348 161.175 66.2501 163.799 74.7653L164.268 75.0405C161.674 66.6136 158.985 58.1866 156.2 49.7594L155.9 49.3631L155.635 49.2193ZM167.303 61.1641C169.134 66.5692 170.923 71.9744 172.671 77.3795L172.99 77.1738C171.282 71.8927 169.534 66.6115 167.747 61.3304L167.303 61.1641ZM174.625 82.2669C174.343 81.3791 174.059 80.4912 173.773 79.6034L173.405 79.6581C173.638 80.3816 173.87 81.1051 174.1 81.8286L174.625 82.2669ZM175.623 86.6335C176.279 88.7182 176.929 90.8028 177.572 92.8875C177.692 92.8088 177.796 92.7302 177.884 92.6517C177.279 90.6939 176.669 88.736 176.053 86.7782L175.623 86.6335ZM193.764 150.402L194.157 150.457C194.199 150.623 194.241 150.788 194.283 150.953L194.241 152.285C194.082 151.657 193.923 151.03 193.764 150.402ZM198.333 167.419C197.95 165.811 197.563 164.202 197.172 162.593C196.927 162.108 196.683 161.619 196.438 161.129C205.876 199.779 213.196 238.428 218.399 277.078L218.877 277.874C214.038 241.71 207.345 205.546 198.799 169.383L198.459 168.945L198.333 167.419ZM176.675 65.9133C179.241 73.1848 181.728 80.4563 184.135 87.7279L184.273 87.761L184.483 87.6088C182.137 80.5254 179.716 73.4419 177.22 66.3585L176.675 65.9133ZM209.928 177.869L210.319 177.923C220.42 219.836 227.891 261.749 232.732 303.662L232.343 303.497C227.497 261.621 220.025 219.745 209.928 177.869ZM183.969 65.1986C187.067 73.4922 190.055 81.7858 192.935 90.0794L193.163 90.138L193.322 90.0747C190.456 81.8177 187.482 73.5608 184.4 65.3038L184.083 65.2708L183.969 65.1986ZM211.346 148.231L211.713 148.179C227.241 202.493 238.104 256.808 244.303 311.125L243.892 310.77C237.686 256.589 226.837 202.409 211.346 148.231ZM200.111 88.557C201.216 91.5589 202.305 94.5608 203.38 97.5628L203.832 97.7376C202.71 94.6001 201.571 91.4626 200.416 88.3251L200.111 88.557ZM191.175 65.1074C194.2 72.7841 197.127 80.4608 199.956 88.1375L200.32 88.0643C197.403 80.1482 194.382 72.2322 191.257 64.3161L191.175 65.1074ZM189.345 59.5076L188.817 59.1762C188.808 59.1526 188.799 59.129 188.789 59.1054L189.24 59.2448C189.275 59.3324 189.31 59.42 189.345 59.5076ZM197.16 62.0786C197.335 62.4959 197.51 62.9131 197.684 63.3303L198.164 63.5292C197.99 63.1112 197.815 62.6933 197.64 62.2753L197.16 62.0786ZM198.088 64.2987L198.567 64.495C203.962 77.4564 209.062 90.4181 213.866 103.38L213.337 103.008C208.547 90.1048 203.464 77.2016 198.088 64.2987ZM204.512 62.1624C204.397 62.1624 204.282 62.1582 204.166 62.151C204.06 61.9096 203.953 61.6682 203.846 61.4268L204.512 62.1624ZM207.647 70.1146C213.567 83.8121 219.138 97.5097 224.361 111.207L224.914 111.628C219.693 97.9127 214.124 84.1978 208.205 70.483L207.647 70.1146ZM207.375 68.5647L207.16 68.3792L206.403 66.3679L206.422 66.374C206.741 67.1043 207.058 67.8345 207.375 68.5647ZM208.795 57.4674C210.152 60.3432 211.493 63.2189 212.817 66.0946L213.408 66.5024C212.062 63.5752 210.699 60.6479 209.319 57.7207L208.795 57.4674ZM213.436 67.4417L213.814 67.387C255.222 157.665 280.704 247.929 290.257 338.189L289.958 338.863C280.458 248.397 254.951 157.928 213.436 67.4417ZM283.388 406.514C283.327 402.706 283.239 398.898 283.125 395.09C283.001 395.085 282.878 395.08 282.756 395.074C282.87 398.857 282.957 402.64 283.018 406.423C283.141 406.457 283.264 406.488 283.388 406.514ZM267.277 513.094C267.784 508.476 268.254 503.857 268.687 499.239L268.316 499.256C267.877 503.934 267.401 508.612 266.885 513.29L267.277 513.094ZM272.228 402.075C272.228 402.075 272.1 402.121 271.883 402.211C271.826 399.409 271.756 396.606 271.672 393.803C271.795 393.809 271.917 393.815 272.04 393.819C272.123 396.57 272.192 399.32 272.248 402.07C272.241 402.072 272.235 402.073 272.228 402.075ZM257.257 505.3C257.44 503.376 257.618 501.452 257.789 499.529C257.666 499.528 257.543 499.527 257.42 499.527C257.248 501.459 257.069 503.391 256.885 505.323L257.257 505.3ZM261.319 410.891C261.19 410.914 261.069 410.929 260.951 410.938C260.915 407.048 260.853 403.159 260.766 399.269C260.888 399.2 261.009 399.129 261.129 399.058C261.219 403.002 261.282 406.947 261.319 410.891ZM250.384 433.142C250.403 431.825 250.419 430.508 250.433 429.19C250.31 429.186 250.188 429.182 250.065 429.179C250.051 430.53 250.034 431.881 250.014 433.232C250.139 433.193 250.263 433.162 250.384 433.142ZM244.715 524.054C245.303 518.722 245.846 513.39 246.344 508.058C246.266 507.953 246.188 507.848 246.11 507.743C246.079 507.7 246.047 507.657 246.016 507.615C245.473 513.448 244.877 519.282 244.227 525.117C244.278 525.005 244.33 524.894 244.381 524.783C244.493 524.54 244.605 524.297 244.715 524.054ZM250.48 416.962C250.359 416.985 250.237 417.006 250.112 417.024C250.104 413.88 250.08 410.736 250.041 407.592C250.163 407.565 250.286 407.533 250.408 407.498C250.448 410.653 250.472 413.807 250.48 416.962ZM239.413 416.81C239.291 416.808 239.168 416.805 239.045 416.803C239.037 413.67 239.014 410.538 238.977 407.405C239.099 407.365 239.222 407.33 239.343 407.299C239.382 410.469 239.405 413.64 239.413 416.81ZM219.377 145.871C236.894 203.441 248.881 261.012 255.338 318.582L255.583 318.697L255.753 318.987C249.306 261.244 237.297 203.501 219.726 145.758L219.377 145.871ZM225.957 139.059C251.381 216.357 266.289 293.663 270.68 370.971L270.904 370.808L271.01 370.296C266.566 293.105 251.641 215.915 226.237 138.734L225.957 139.059ZM279.663 340.738L279.339 341.208C272.711 272.7 257.374 204.196 233.328 135.694L233.761 135.821C257.716 204.124 273.017 272.428 279.663 340.738ZM188.317 56.9493C187.608 55.19 186.894 53.4308 186.175 51.6715C186 51.5925 185.839 51.519 185.688 51.4502C186.411 53.2156 187.128 54.981 187.841 56.7464L188.317 56.9493ZM176.412 64.0721C175.886 62.587 175.356 61.1019 174.822 59.6168L173.537 57.1316C174.152 58.8332 174.763 60.5348 175.37 62.2363L175.761 62.5281H175.474C175.618 62.9319 175.762 63.3356 175.905 63.7394L176.412 64.0721ZM166.095 56.48C165.718 55.3821 165.34 54.2841 164.96 53.1861L164.48 52.9237C164.848 53.9843 165.214 55.045 165.578 56.1057L166.095 56.48ZM160.563 41.7871C160.914 42.7689 161.263 43.7506 161.611 44.7324L162.087 44.9791C161.733 43.9782 161.377 42.9773 161.02 41.9764L160.563 41.7871ZM160.652 40.9447L160.175 40.7024C160.008 40.2355 159.841 39.7687 159.673 39.3019L160.145 39.5298C160.314 40.0014 160.483 40.4731 160.652 40.9447ZM159.952 38.994L159.49 38.793C159.334 38.3596 159.178 37.9262 159.021 37.4928L159.489 37.7067C159.643 38.1358 159.798 38.5649 159.952 38.994ZM159.383 37.4147L159.115 37.2952L158.917 37.2035C158.808 36.9026 158.699 36.6018 158.59 36.3009L159.041 36.4666C159.155 36.7826 159.269 37.0987 159.383 37.4147ZM151.592 36.0651C151.566 35.9875 151.539 35.91 151.512 35.8324H151.171L151.592 36.0651ZM166.1 57.6268L166.65 58.1029C166.8 58.5437 166.951 58.9845 167.101 59.4254L166.694 59.3692C166.496 58.7884 166.298 58.2076 166.1 57.6268ZM150.776 233.359C150.494 231.089 150.208 228.819 149.917 226.55C149.788 226.454 149.652 226.357 149.508 226.256C149.82 228.683 150.126 231.11 150.427 233.537L150.776 233.359ZM98.5662 856.915C134.24 734.403 154.936 611.919 160.654 489.452C160.545 489.28 160.43 489.112 160.309 488.947C154.617 611.716 133.87 734.501 98.0673 857.314C98.2308 857.177 98.3972 857.044 98.5662 856.915ZM139.85 228.608L139.467 228.501C139.273 226.874 139.076 225.247 138.877 223.621C139.001 223.622 139.124 223.623 139.248 223.624C139.451 225.286 139.652 226.947 139.85 228.608ZM138.825 220.195C138.701 220.218 138.581 220.243 138.464 220.27C138.094 217.296 137.716 214.322 137.329 211.348L137.647 210.939C138.048 214.024 138.441 217.109 138.825 220.195ZM136.185 200.002C135.791 197.124 135.389 194.245 134.979 191.366L134.611 191.393C135.007 194.178 135.397 196.963 135.779 199.748L136.185 200.002ZM127.927 217.893L128.3 217.911C128.563 220.146 128.822 222.38 129.076 224.614L128.686 224.442C128.437 222.259 128.184 220.076 127.927 217.893ZM87.2349 845.037C116.135 728.826 133.199 612.616 138.427 496.405C138.307 496.365 138.186 496.324 138.064 496.285C133.19 604.759 118.002 713.234 92.4996 821.709H92.7229C92.5887 821.925 92.4651 822.142 92.347 822.358C90.5946 829.799 88.7937 837.241 86.9443 844.683C87.0447 844.801 87.1428 844.919 87.2349 845.037ZM126.651 506.644C126.784 506.573 126.91 506.506 127.029 506.442C122.01 612.193 107.843 717.948 84.5296 823.72H84.1532C107.456 718.015 121.622 612.327 126.651 506.644ZM83.0344 830.448C83.1271 830.034 83.2198 829.62 83.3123 829.206C83.0702 829.443 82.9786 829.577 82.8869 829.754C82.9545 829.95 82.9979 830.193 83.0344 830.448ZM74.5602 866.671C75.6599 862.16 76.743 857.65 77.8095 853.14C77.6719 853.168 77.5372 853.199 77.4101 853.232C76.6822 856.309 75.9465 859.386 75.2032 862.464C75.3091 862.536 75.4124 862.604 75.51 862.667C75.405 862.819 75.2964 862.978 75.1846 863.142C75.1108 863.25 75.0357 863.361 74.9593 863.472C74.7036 864.528 74.4471 865.584 74.1896 866.64C74.3113 866.654 74.4353 866.664 74.5602 866.671ZM79.0254 811.532C98.4312 713.967 110.595 616.417 115.518 518.87C115.394 518.96 115.267 519.051 115.136 519.141C110.204 616.586 98.0444 714.035 78.6571 811.499C78.7854 811.511 78.9081 811.522 79.0254 811.532ZM71.1677 810.555H71.1595C71.0453 810.592 70.9157 810.622 70.777 810.647C72.1258 803.318 73.4368 795.99 74.7099 788.661C74.8566 788.55 75.001 788.436 75.1427 788.319C73.8564 795.731 72.5314 803.143 71.1677 810.555ZM75.503 786.237H75.1298C90.2471 698.64 99.9497 611.043 104.237 523.446C104.363 523.417 104.487 523.388 104.61 523.358C100.325 610.984 90.6229 698.611 75.503 786.237ZM96.2455 204.052H95.8756C95.5941 201.273 95.3071 198.494 95.0147 195.715C95.1568 195.844 95.2934 195.968 95.4239 196.087C95.7027 198.742 95.9766 201.397 96.2455 204.052ZM93.2266 176.067L92.8176 175.729C92.171 170.088 91.5019 164.448 90.8103 158.807L91.2036 158.991C91.9008 164.683 92.5751 170.375 93.2266 176.067ZM90.7416 155.246L90.3566 155.132C90.0445 152.621 89.7279 150.11 89.4068 147.599L89.7645 147.496C90.0949 150.079 90.4206 152.662 90.7416 155.246ZM96.6679 131.749C96.9172 133.457 97.1642 135.165 97.409 136.873L97.7921 136.952C97.5143 135.013 97.2336 133.074 96.9501 131.135L96.6679 131.749ZM97.9953 140.993L98.3222 140.677C100.33 154.879 102.185 169.08 103.886 183.282L103.488 183.051C101.807 169.032 99.9757 155.012 97.9953 140.993ZM79.5063 76.545C78.7233 71.6898 77.9236 66.8347 77.1074 61.9796H76.834L76.7429 62.0299C77.5282 66.7011 78.2982 71.3723 79.0527 76.0434L79.1039 76.0588L79.5063 76.545ZM84.0012 185.972C84.1258 186.078 84.2612 186.195 84.4064 186.32C85.0061 192.23 85.583 198.141 86.137 204.052H85.7673C85.2024 198.025 84.6136 191.999 84.0012 185.972ZM66.7389 787.498C80.8455 699.469 89.8912 611.43 93.8761 523.387C93.7545 523.363 93.6327 523.338 93.5109 523.315C89.5258 611.409 80.4733 699.499 66.3533 787.579C66.4807 787.552 66.6092 787.525 66.7389 787.498ZM76.0418 205.82C75.9344 205.938 75.8224 206.065 75.7048 206.201C75.2197 200.512 74.7151 194.823 74.1912 189.134C74.3136 189.123 74.436 189.114 74.5584 189.107C75.0714 194.678 75.5659 200.249 76.0418 205.82ZM73.7223 180.202C73.6693 179.647 73.6161 179.093 73.5627 178.539C73.382 179.064 73.492 179.654 73.7223 180.202ZM65.9656 208.39C65.7508 207.511 65.6246 206.276 65.6656 204.533C65.7665 205.819 65.8665 207.104 65.9656 208.39ZM65.3561 200.626C65.1986 198.656 65.0391 196.686 64.8774 194.716C64.7637 194.719 64.6412 194.721 64.5086 194.722C64.6514 196.462 64.7925 198.201 64.932 199.941C65.1058 200.186 65.2453 200.409 65.3561 200.626ZM69.1945 17.6603C69.0607 17.6318 68.9299 17.6022 68.8036 17.5724C68.5763 16.3698 68.3479 15.1672 68.1185 13.9646C68.2583 14.0164 68.3924 14.0658 68.5212 14.113C68.7466 15.2954 68.9711 16.4779 69.1945 17.6603ZM34.7208 6.05772L34.3613 6.14459C34.3498 6.06055 34.3382 5.97651 34.3267 5.89247L34.7121 5.99405C34.715 6.01527 34.7179 6.03649 34.7208 6.05772ZM30.0856 39.4134C30.0949 39.4953 30.1042 39.5773 30.1135 39.6592V39.4894C30.1046 39.4637 30.0953 39.4383 30.0856 39.4134ZM32.524 61.5973C32.6639 61.6664 32.7939 61.7311 32.9148 61.7918C33.0559 63.1161 33.1962 64.4404 33.3358 65.7648C33.209 65.805 33.09 65.8451 32.9784 65.8847C32.8278 64.4556 32.6764 63.0265 32.524 61.5973ZM34.0793 72.8936C33.9496 71.6369 33.8191 70.3802 33.688 69.1236C33.5614 69.0564 33.4303 68.9934 33.2979 68.9319C33.4724 70.6024 33.6456 72.2729 33.8175 73.9433C33.9088 73.562 33.9979 73.2077 34.0793 72.8936ZM305.145 406.855C305.2 410.08 305.234 413.305 305.246 416.53L305.616 416.868C305.605 413.547 305.571 410.225 305.514 406.903L305.145 406.855ZM76.1124 14.7082C76.1257 14.7731 76.139 14.8379 76.1523 14.9028L76.4558 14.805L76.1124 14.7082ZM-40.0579 1.64106L-40.0579 1.64004H-40.0621L-40.0579 1.64106ZM-40.4269 1.59758C-40.4259 1.65341 -40.4248 1.70924 -40.4237 1.76507L-40.2512 1.64004L-40.4269 1.59758ZM-48.4365 2.26343C-48.4508 2.26896 -48.4651 2.27448 -48.4794 2.28C-48.5891 2.32242 -48.6988 2.36484 -48.8038 2.40727C-48.8047 2.27093 -48.8055 2.13459 -48.8064 1.99826C-48.6919 1.98757 -48.5668 1.96654 -48.4386 1.94265C-48.4379 2.04958 -48.4372 2.15651 -48.4365 2.26343ZM-103.784 86.2649C-103.687 84.5508 -103.59 82.8366 -103.492 81.1225C-103.62 81.1452 -103.744 81.1679 -103.865 81.1904C-103.98 83.2069 -104.094 85.2234 -104.207 87.2399L-104.185 87.2125C-104.04 86.8857 -103.907 86.5709 -103.784 86.2649ZM-113.248 88.6752H-113.616C-113.34 84.5097 -113.058 80.3441 -112.771 76.1785C-112.673 76.265 -112.586 76.3482 -112.508 76.4245C-112.479 76.4454 -112.451 76.4656 -112.423 76.4849C-112.703 80.5484 -112.978 84.6118 -113.248 88.6752ZM-122.797 91.6287C-122.916 91.6417 -123.04 91.6541 -123.169 91.6654C-122.769 86.4282 -122.36 81.1911 -121.942 75.954C-121.816 75.9329 -121.691 75.91 -121.567 75.8859C-121.987 81.1335 -122.396 86.3811 -122.797 91.6287ZM-131.662 86.3833C-131.782 86.1522 -131.886 85.9519 -131.978 85.7778C-131.606 81.5629 -131.226 77.348 -130.839 73.1331C-130.716 73.1329 -130.593 73.1326 -130.469 73.1319C-130.875 77.5491 -131.273 81.9662 -131.662 86.3833ZM-140.708 84.4499C-140.829 84.4532 -140.953 84.4565 -141.079 84.4598C-141.052 84.1914 -141.025 83.9229 -140.999 83.6545C-140.907 83.4961 -140.814 83.3367 -140.72 83.1759C-140.664 83.0802 -140.608 82.9841 -140.552 82.8873C-140.604 83.4081 -140.656 83.929 -140.708 84.4499ZM-133.681 17.0945C-133.71 17.3427 -133.74 17.5908 -133.77 17.839C-133.635 17.7984 -133.507 17.7607 -133.386 17.7257C-133.354 17.4631 -133.323 17.2005 -133.291 16.9379C-133.417 16.9883 -133.547 17.0406 -133.681 17.0945ZM-133.451 15.1837C-133.479 15.4153 -133.507 15.6468 -133.535 15.8784C-133.404 15.8375 -133.275 15.7974 -133.15 15.7583C-133.123 15.537 -133.096 15.3157 -133.07 15.0945C-133.197 15.1243 -133.324 15.154 -133.451 15.1837ZM-124.854 13.1263C-124.727 13.0925 -124.6 13.059 -124.473 13.0256C-124.478 13.0741 -124.483 13.1226 -124.488 13.171C-124.618 13.2086 -124.746 13.2453 -124.87 13.2814C-124.865 13.2297 -124.859 13.178 -124.854 13.1263ZM-116.262 11.0215C-116.137 10.9958 -116.011 10.9702 -115.885 10.9449C-115.925 11.3726 -115.966 11.8003 -116.007 12.228C-116.127 12.2645 -116.254 12.3028 -116.387 12.3429C-116.373 12.196 -116.359 12.0491 -116.345 11.9022L-116.29 11.8795L-116.344 11.8881C-116.317 11.5992 -116.289 11.3103 -116.262 11.0215ZM-107.632 8.30201C-107.659 8.62302 -107.685 8.94403 -107.712 9.26504C-107.585 9.24216 -107.46 9.21929 -107.337 9.19641C-107.31 8.87334 -107.284 8.55027 -107.257 8.2272C-107.288 8.2334 -107.319 8.23953 -107.349 8.24559C-107.448 8.26522 -107.542 8.28411 -107.632 8.30201ZM-99.147 6.84724C-98.9946 6.82418 -98.8708 6.80654 -98.7742 6.79335C-98.7751 6.80513 -98.7759 6.81692 -98.7767 6.82871C-98.9018 6.85903 -99.0268 6.88663 -99.1515 6.91228C-99.15 6.8906 -99.1485 6.86892 -99.147 6.84724ZM-98.9102 8.74735C-98.896 8.54254 -98.8818 8.33773 -98.8675 8.13292C-98.9897 8.1639 -99.1143 8.19249 -99.2424 8.21776C-99.2569 8.42706 -99.2714 8.63637 -99.286 8.84568C-99.1607 8.81313 -99.0355 8.78036 -98.9102 8.74735ZM-103.371 79.0182C-103.245 76.8177 -103.117 74.6173 -102.988 72.4168L-103.351 72.329C-103.486 74.6261 -103.62 76.9232 -103.752 79.2204L-103.371 79.0182ZM-94.3397 74.4587C-94.3867 75.4384 -94.4334 76.4181 -94.48 77.3978C-94.3224 77.2057 -94.1918 77.0228 -94.0853 76.8487C-94.053 76.1709 -94.0207 75.4931 -93.9882 74.8152C-94.0874 74.683 -94.2071 74.5645 -94.3397 74.4587ZM-107.488 11.0396C-107.614 11.0758 -107.74 11.1124 -107.867 11.1493C-107.861 11.0864 -107.856 11.0235 -107.851 10.9605C-107.85 10.951 -107.849 10.9416 -107.849 10.9321C-107.829 10.6915 -107.809 10.4509 -107.789 10.2104C-107.678 10.1818 -107.553 10.1492 -107.412 10.1122C-107.432 10.356 -107.452 10.5998 -107.472 10.8437C-107.473 10.8501 -107.473 10.8566 -107.474 10.8631C-107.479 10.9219 -107.483 10.9807 -107.488 11.0396ZM-107.398 9.93465C-107.54 9.9708 -107.664 10.0034 -107.775 10.0337C-107.764 9.89542 -107.752 9.75718 -107.741 9.61894C-107.617 9.60541 -107.492 9.59049 -107.368 9.5743C-107.378 9.69441 -107.388 9.81453 -107.398 9.93465ZM-98.8271 7.55187C-98.9512 7.58052 -99.0764 7.60937 -99.2021 7.63829C-99.1912 7.48243 -99.1804 7.32658 -99.1695 7.17072C-99.1682 7.15251 -99.167 7.13429 -99.1657 7.11608C-99.1648 7.10333 -99.1639 7.09058 -99.163 7.07783L-98.7887 7.00028C-98.7896 7.01343 -98.7905 7.02657 -98.7914 7.03971C-98.7929 7.06095 -98.7944 7.08219 -98.7959 7.10343C-98.8063 7.25291 -98.8167 7.40239 -98.8271 7.55187ZM-99.2181 7.8688C-99.2188 7.87843 -99.2195 7.88807 -99.2201 7.89771C-99.2228 7.93671 -99.2256 7.97571 -99.2283 8.01471C-99.2288 8.02309 -99.2295 8.03147 -99.23 8.03984C-99.1019 8.00001 -98.9757 7.95828 -98.8523 7.91387C-98.8521 7.91086 -98.8519 7.90785 -98.8517 7.90484C-98.8506 7.88884 -98.8495 7.87284 -98.8483 7.85684H-98.8885L-98.8923 7.85727C-99.0015 7.85807 -99.0963 7.86035 -99.1908 7.86681C-99.1999 7.86743 -99.209 7.86809 -99.2181 7.8688ZM-116.083 13.0375C-116.207 13.0626 -116.333 13.0844 -116.459 13.1025C-116.445 12.9553 -116.431 12.8081 -116.417 12.6609C-116.293 12.6167 -116.165 12.571 -116.035 12.5246C-116.051 12.6956 -116.067 12.8665 -116.083 13.0375ZM-124.679 14.9433C-124.885 14.9704 -124.982 14.981 -125.053 14.9852C-125.049 14.9447 -125.045 14.9042 -125.04 14.8636C-124.966 14.8083 -124.863 14.7501 -124.646 14.6413C-124.657 14.742 -124.668 14.8427 -124.679 14.9433ZM-124.618 14.3732C-124.748 14.3983 -124.871 14.4266 -124.997 14.4623C-124.969 14.1972 -124.94 13.9322 -124.912 13.6671C-124.797 13.6301 -124.669 13.5901 -124.529 13.5463C-124.559 13.822 -124.588 14.0976 -124.618 14.3732ZM-200.471 488.049C-200.589 488.195 -200.707 488.341 -200.827 488.487C-201.834 454.973 -202.109 421.459 -201.65 387.946C-201.52 388.254 -201.4 388.538 -201.293 388.794C-201.734 421.879 -201.46 454.964 -200.471 488.049ZM-211.083 498.653C-211.202 498.739 -211.322 498.824 -211.442 498.908C-213.109 454.405 -213.377 409.905 -212.243 365.405C-212.128 365.606 -212.01 365.813 -211.891 366.027C-213.004 410.234 -212.734 454.442 -211.083 498.653ZM-221.098 516.403C-221.217 516.459 -221.337 516.514 -221.459 516.568C-224.062 463.764 -224.543 410.961 -222.903 358.158C-222.785 358.274 -222.666 358.387 -222.545 358.496C-224.171 411.132 -223.689 463.767 -221.098 516.403ZM-231.648 522.593C-231.76 522.804 -231.871 523.013 -231.981 523.219C-235.272 465.086 -235.799 406.953 -233.562 348.82C-233.439 348.814 -233.316 348.808 -233.193 348.803C-235.423 406.733 -234.908 464.663 -231.648 522.593ZM-241.313 538.06C-241.429 538.168 -241.545 538.272 -241.661 538.372C-246.659 466.47 -247.126 394.568 -243.062 322.666C-242.939 322.662 -242.816 322.657 -242.693 322.654C-246.752 394.456 -246.292 466.258 -241.313 538.06ZM-252.102 539.942C-252.189 539.807 -252.277 539.667 -252.364 539.523C-258.384 459.195 -258.361 378.867 -252.295 298.538C-252.176 298.755 -252.07 298.973 -251.975 299.193C-258.004 379.449 -258 459.705 -251.962 539.961C-252.008 539.955 -252.055 539.948 -252.102 539.942ZM-263.151 534.374C-263.275 534.37 -263.399 534.363 -263.522 534.354C-269.429 457.22 -269.394 380.092 -263.418 302.969C-263.292 302.964 -263.169 302.959 -263.048 302.952C-269.027 380.088 -269.062 457.228 -263.151 534.374ZM-273.942 534.241C-274.062 534.245 -274.185 534.248 -274.311 534.252C-280.578 457.311 -280.553 380.37 -274.234 303.429C-274.115 303.477 -273.996 303.529 -273.878 303.583C-280.185 380.469 -280.206 457.355 -273.942 534.241ZM-284.451 537.354C-284.572 537.355 -284.695 537.357 -284.82 537.359C-291.853 458.146 -291.802 378.936 -284.667 299.724C-284.584 300.047 -284.489 300.369 -284.383 300.679C-291.435 379.572 -291.457 458.461 -284.451 537.354ZM-295.696 531.954C-295.828 531.838 -295.961 531.727 -296.095 531.623C-303.145 452.94 -302.781 374.254 -295.002 295.571C-294.878 295.567 -294.755 295.564 -294.631 295.562C-302.424 374.358 -302.779 453.157 -295.696 531.954ZM-306.572 530.755C-306.692 530.78 -306.813 530.806 -306.935 530.832C-314.441 451.23 -313.905 371.619 -305.328 292.005C-305.209 292.018 -305.087 292.033 -304.963 292.048C-313.535 371.623 -314.072 451.193 -306.572 530.755ZM-317.379 527.09C-317.503 527.069 -317.628 527.05 -317.754 527.034C-325.145 450.138 -324.609 373.245 -316.146 296.348C-316.109 296.362 -316.072 296.376 -316.035 296.389C-315.94 296.306 -315.846 296.223 -315.753 296.142C-324.243 373.126 -324.785 450.107 -317.379 527.09ZM-326.584 541.5C-326.696 541.564 -326.812 541.626 -326.933 541.688C-336.507 458.772 -336.336 375.856 -326.421 292.941C-326.301 292.948 -326.179 292.956 -326.054 292.964C-335.961 375.809 -336.138 458.654 -326.584 541.5ZM-273.8 796.232C-275.195 792.522 -276.57 788.813 -277.925 785.103C-278.076 785.027 -278.235 784.948 -278.402 784.865C-277.017 788.663 -275.61 792.46 -274.182 796.258C-274.053 796.25 -273.926 796.241 -273.8 796.232ZM-281.133 795.747C-281.282 795.697 -281.434 795.646 -281.588 795.595C-291.977 769.373 -301.279 743.152 -309.496 716.933C-309.108 717.683 -308.758 718.391 -308.442 719.058C-307.461 722.167 -306.464 725.276 -305.452 728.385L-305.443 728.457C-305.433 728.474 -305.423 728.49 -305.412 728.507C-298.113 750.919 -290.02 773.333 -281.133 795.747ZM-288.514 794.602C-288.645 794.601 -288.779 794.598 -288.914 794.594C-308.633 747.332 -324.626 700.071 -336.893 652.809L-336.245 653.841C-324.008 700.761 -308.097 747.682 -288.514 794.602ZM-296.578 791.689C-296.792 791.502 -297.006 791.315 -297.222 791.129C-362.884 640.535 -388.639 489.895 -374.485 339.264C-374.36 339.245 -374.235 339.226 -374.11 339.207C-388.299 490.042 -362.455 640.886 -296.578 791.689ZM-306.89 783.319C-307.092 783.165 -307.295 783.012 -307.498 782.858C-373.673 635.509 -399.612 488.204 -385.316 340.919C-385.188 340.84 -385.057 340.763 -384.924 340.689C-399.29 488.204 -373.279 635.737 -306.89 783.319ZM-316.908 776.043C-317.107 775.904 -317.306 775.765 -317.506 775.627C-383.836 632.724 -410.26 489.859 -396.775 346.986C-396.657 347.01 -396.536 347.034 -396.412 347.059C-409.9 490.045 -383.399 633.023 -316.908 776.043ZM-326.702 769.342C-326.902 769.207 -327.102 769.072 -327.302 768.937C-397.151 623.517 -423.415 478.053 -406.094 332.599C-405.964 332.542 -405.833 332.486 -405.703 332.429C-423.089 478.074 -396.755 623.728 -326.702 769.342ZM-336.564 762.686C-336.77 762.546 -336.976 762.406 -337.181 762.265C-407.278 621.067 -434.092 479.906 -417.623 338.735C-417.491 338.658 -417.358 338.58 -417.225 338.503C-433.775 479.89 -406.888 621.266 -336.564 762.686ZM-346.717 755.61C-346.935 755.454 -347.152 755.298 -347.369 755.141C-404.618 643.215 -433.245 531.309 -433.245 419.399C-433.245 394.587 -431.838 369.776 -429.023 344.964C-428.893 344.903 -428.762 344.842 -428.632 344.78C-431.462 369.654 -432.877 394.526 -432.877 419.399C-432.877 531.456 -404.159 643.518 -346.717 755.61ZM-357.455 747.47C-357.696 747.276 -357.936 747.082 -358.175 746.887C-415.598 637.775 -444.312 528.631 -444.312 419.467C-444.312 396.504 -443.041 373.541 -440.5 350.577C-440.351 350.337 -440.201 350.098 -440.05 349.859C-442.646 373.063 -443.943 396.265 -443.943 419.467C-443.943 528.816 -415.116 638.154 -357.455 747.47ZM-371.087 734.14L-372.206 732.814C-427.652 628.333 -455.377 523.868 -455.377 419.399C-455.377 405.994 -454.921 392.589 -454.008 379.184C-453.858 378.773 -453.706 378.361 -453.553 377.95C-454.524 391.766 -455.009 405.583 -455.009 419.399C-455.009 524.3 -427.037 629.206 -371.087 734.14ZM-388.81 713.144L-389.896 711.857C-439.744 616.397 -465.187 520.931 -466.221 425.461C-466.11 424.843 -465.994 424.201 -465.87 423.535C-465.157 520.066 -439.472 616.603 -388.81 713.144ZM-407.29 691.25L-408.331 690.017C-445.371 617.36 -467.496 544.711 -474.705 472.06C-474.61 471.776 -474.515 471.492 -474.419 471.209C-467.255 544.548 -444.88 617.892 -407.29 691.25ZM-378.163 751.838C-384.089 742.874 -389.775 733.91 -395.222 724.945C-395.741 724.316 -396.262 723.69 -396.785 723.068C-391.042 732.584 -385.029 742.101 -378.746 751.617C-378.54 751.712 -378.345 751.786 -378.163 751.838ZM-391.624 739.289C-392.289 738.521 -392.963 737.731 -393.644 736.926C-403.243 722.529 -412.189 708.132 -420.482 693.733C-420.35 693.706 -420.223 693.684 -420.099 693.667C-411.336 708.875 -401.845 724.082 -391.624 739.289ZM-489.883 514.942C-488.249 523.097 -486.405 531.252 -484.351 539.407C-484.011 540.318 -483.645 541.259 -483.249 542.243C-486.053 531.373 -488.484 520.503 -490.543 509.633C-490.523 510.101 -490.479 510.577 -490.434 511.052C-490.241 512.423 -490.058 513.716 -489.883 514.942ZM-497.458 463.032C-497.361 464.096 -497.26 465.159 -497.156 466.223L-496.812 465.957C-497.28 461.158 -497.676 456.358 -498 451.559V456.635C-497.966 457.066 -497.932 457.496 -497.897 457.927L-497.622 457.661C-497.622 457.689 -497.617 457.787 -497.61 457.952C-497.579 458.613 -497.499 460.348 -497.458 463.032ZM-481.347 337.607L-482.104 340C-482.158 340.344 -482.212 340.687 -482.266 341.03C-482.328 341.431 -482.39 341.833 -482.452 342.234C-482.463 342.306 -482.474 342.378 -482.485 342.451C-482.486 342.455 -482.487 342.46 -482.487 342.464C-482.474 342.449 -482.46 342.434 -482.447 342.418C-482.477 342.543 -482.507 342.668 -482.538 342.794C-482.586 343.111 -482.634 343.427 -482.682 343.744L-482.679 343.747L-482.685 343.767C-484.151 353.506 -485.334 363.246 -486.235 372.986C-486.122 372.577 -486.009 372.156 -485.894 371.722C-485.813 371.388 -485.732 371.061 -485.652 370.743C-484.725 361.18 -483.525 351.617 -482.052 342.054C-482.044 342.001 -482.036 341.948 -482.027 341.894C-481.897 341.047 -481.764 340.2 -481.629 339.353C-481.591 339.12 -481.554 338.886 -481.517 338.652C-481.506 338.587 -481.496 338.522 -481.485 338.457C-481.439 338.174 -481.393 337.89 -481.347 337.607ZM-455.684 269.202C-456.007 269.885 -456.326 270.571 -456.645 271.266C-456.771 271.717 -456.897 272.168 -457.021 272.619C-463.052 294.425 -467.739 316.232 -471.081 338.038C-470.954 338.01 -470.826 337.982 -470.696 337.953C-467.248 315.495 -462.373 293.036 -456.071 270.576C-455.942 270.118 -455.813 269.66 -455.684 269.202ZM-433.901 229.03C-433.605 228.539 -433.309 228.05 -433.012 227.56C-433.17 228.021 -433.327 228.482 -433.484 228.943C-445.609 264.578 -454.331 300.213 -459.65 335.847C-459.777 335.869 -459.905 335.892 -460.032 335.915C-454.794 300.775 -446.249 265.637 -434.398 230.499C-434.233 230.009 -434.067 229.519 -433.901 229.03ZM-413.52 198.108C-413.792 198.477 -414.058 198.84 -414.319 199.196C-414.329 199.224 -414.34 199.252 -414.35 199.28C-431.09 244.189 -442.708 289.097 -449.202 334.004C-449.075 333.982 -448.948 333.959 -448.821 333.936C-442.266 288.673 -430.503 243.408 -413.532 198.138C-413.528 198.128 -413.524 198.118 -413.52 198.108ZM-396.872 176.415C-413.85 219.91 -426.271 263.405 -434.135 306.898C-434.009 306.887 -433.882 306.874 -433.754 306.86C-425.836 263.106 -413.304 219.35 -396.156 175.591C-396.396 175.868 -396.635 176.142 -396.872 176.415ZM-439.659 343.357C-439.526 343.303 -439.394 343.246 -439.268 343.186C-439.345 343.816 -439.421 344.446 -439.496 345.075C-439.633 345.164 -439.759 345.232 -439.893 345.292C-439.816 344.647 -439.738 344.002 -439.659 343.357ZM-452.909 369.615C-451.937 358.098 -450.629 346.58 -448.983 335.063C-449.109 335.078 -449.235 335.094 -449.361 335.11C-450.862 345.627 -452.083 356.144 -453.022 366.661L-452.982 366.603C-452.901 367.072 -452.924 367.575 -452.947 368.082C-452.97 368.598 -452.994 369.119 -452.909 369.615ZM-465.641 402.846C-465.77 403.165 -465.902 403.483 -466.036 403.801C-465.412 381.397 -463.444 358.993 -460.132 336.589C-460.005 336.57 -459.879 336.551 -459.751 336.531C-463.024 358.637 -464.987 380.742 -465.641 402.846ZM-476.949 419.399C-476.949 392.412 -474.89 365.425 -470.77 338.436C-470.899 338.463 -471.027 338.489 -471.154 338.515C-475.263 365.476 -477.318 392.437 -477.318 419.399C-477.318 427.381 -477.137 435.363 -476.777 443.345L-476.488 441.526C-476.796 434.15 -476.949 426.774 -476.949 419.399ZM-458.454 591.894C-468.164 563.58 -475.482 535.267 -480.407 506.955C-480.408 506.979 -480.408 507.004 -480.409 507.029C-480.51 507.127 -480.611 507.236 -480.711 507.352C-475.864 535.109 -468.719 562.866 -459.277 590.621C-459.004 591.046 -458.729 591.47 -458.454 591.894ZM-482.632 493.067C-482.755 493.082 -482.878 493.089 -483.001 493.087C-486.589 468.555 -488.384 444.023 -488.384 419.49C-488.384 407.518 -487.957 395.546 -487.102 383.575C-486.946 383.059 -486.785 382.544 -486.62 382.029C-487.551 394.516 -488.016 407.003 -488.016 419.49C-488.016 444.015 -486.221 468.541 -482.632 493.067ZM-381.621 159.093C-401.075 208.146 -415.032 257.195 -423.489 306.244C-423.363 306.189 -423.229 306.14 -423.09 306.097C-414.581 256.835 -400.521 207.571 -380.912 158.302C-381.148 158.565 -381.385 158.829 -381.621 159.093ZM-367.188 143.33C-387.503 194.178 -402.204 245.021 -411.291 295.863L-410.99 295.475C-410.921 295.363 -410.854 295.256 -410.79 295.153C-401.646 244.307 -386.884 193.459 -366.504 142.607C-366.731 142.846 -366.959 143.087 -367.188 143.33ZM-356.611 137.223C-373.661 181.225 -386.721 225.229 -395.791 269.235C-395.757 269.212 -395.723 269.189 -395.689 269.165C-395.577 269.087 -395.465 269.01 -395.353 268.933C-386.275 224.998 -373.218 181.064 -356.183 137.133C-356.327 137.163 -356.47 137.193 -356.611 137.223ZM-347.738 135.679C-364.353 180.618 -377.021 225.554 -385.742 270.489L-385.314 270.213C-376.587 225.35 -363.924 180.486 -347.324 135.618C-347.463 135.638 -347.601 135.658 -347.738 135.679ZM-386.584 274.895C-386.416 274.653 -386.245 274.407 -386.07 274.155C-387.388 281.11 -388.61 288.065 -389.738 295.02C-389.924 295.492 -390.117 295.958 -390.335 296.408C-389.185 289.237 -387.935 282.066 -386.584 274.895ZM-395.254 335.671C-395.019 333.518 -394.774 331.365 -394.521 329.212C-394.647 329.229 -394.773 329.247 -394.898 329.265C-395.262 332.36 -395.606 335.456 -395.933 338.551C-395.713 337.589 -395.483 336.629 -395.254 335.671ZM-338.938 134.517C-355.645 181.937 -368.182 229.357 -376.546 276.779C-376.352 276.427 -376.165 276.072 -375.984 275.714C-367.614 228.631 -355.13 181.549 -338.532 134.469C-338.668 134.485 -338.803 134.501 -338.938 134.517ZM-330.346 133.567C-343.739 173.52 -354.324 213.475 -362.1 253.432C-361.976 253.361 -361.853 253.291 -361.729 253.22C-361.712 253.211 -361.695 253.201 -361.679 253.192C-353.901 213.301 -343.323 173.413 -329.945 133.526C-330.079 133.54 -330.213 133.553 -330.346 133.567ZM-321.486 132.711C-333.396 170.069 -342.978 207.427 -350.231 244.785C-350.117 244.673 -349.962 244.521 -349.77 244.335C-342.521 207.115 -332.961 169.895 -321.09 132.675C-321.222 132.687 -321.354 132.699 -321.486 132.711ZM-352.537 257.094C-352.397 257.019 -352.258 256.94 -352.121 256.858C-352.955 261.474 -353.754 266.089 -354.518 270.704C-354.669 270.857 -354.818 271.01 -354.966 271.163C-354.193 266.473 -353.384 261.784 -352.537 257.094ZM-320.316 158.761C-327.189 183.777 -333.072 208.793 -337.966 233.81C-337.818 233.691 -337.67 233.574 -337.522 233.457C-332.634 208.525 -326.762 183.593 -319.908 158.661C-320.038 158.693 -320.174 158.726 -320.316 158.761ZM-340.299 246.149C-340.143 245.993 -339.989 245.835 -339.839 245.674C-340.743 250.609 -341.608 255.544 -342.435 260.479C-342.577 260.585 -342.719 260.691 -342.861 260.797C-342.045 255.914 -341.191 251.032 -340.299 246.149ZM-311.521 160.176C-319.374 190.528 -325.847 220.879 -330.941 251.231C-330.814 251.127 -330.675 251.023 -330.515 250.914C-325.454 220.825 -319.037 190.736 -311.264 160.648C-311.358 160.473 -311.444 160.316 -311.521 160.176ZM-336.842 291.27C-336.726 291.298 -336.612 291.325 -336.501 291.352C-347.226 375.254 -347.41 459.155 -337.052 543.056C-337.175 543.061 -337.298 543.067 -337.421 543.072C-347.781 459.141 -347.594 375.209 -336.862 291.277C-336.855 291.275 -336.849 291.272 -336.842 291.27ZM-347.631 543.554C-357.234 470.154 -358.32 396.76 -350.889 323.371C-351.019 323.452 -351.151 323.53 -351.283 323.608C-358.686 396.925 -357.591 470.247 -347.999 543.576C-347.877 543.569 -347.754 543.562 -347.631 543.554ZM-339.236 596.453C-341.833 582.532 -344.124 568.611 -346.109 554.69C-346.285 554.255 -346.473 553.793 -346.678 553.29C-346.679 553.287 -346.679 553.283 -346.68 553.28C-344.618 567.901 -342.218 582.523 -339.48 597.145C-339.389 596.917 -339.308 596.686 -339.236 596.453ZM-309.995 714.101C-313.569 702.592 -316.933 691.082 -320.088 679.573L-320.763 678.499C-317.437 690.685 -313.877 702.871 -310.082 715.058C-310.055 714.809 -310.025 714.488 -309.995 714.101ZM-338.691 644.266C-339.069 642.755 -339.443 641.244 -339.813 639.733C-340.065 639.027 -340.251 638.579 -340.436 638.131C-340.526 637.971 -340.614 637.81 -340.699 637.65C-340.073 640.229 -339.437 642.808 -338.789 645.386C-338.736 645.009 -338.703 644.632 -338.691 644.266ZM-343.524 624.033C-343.542 624.551 -343.549 625.069 -343.546 625.586C-366.276 526.452 -372.613 427.317 -362.558 328.182C-362.43 328.134 -362.302 328.085 -362.173 328.037C-372.201 426.702 -365.984 525.367 -343.524 624.033ZM-366.382 279.378C-366.501 279.329 -366.619 279.287 -366.734 279.252C-366.471 277.651 -366.203 276.049 -365.931 274.448H-365.558C-365.837 276.091 -366.112 277.734 -366.382 279.378ZM-364.926 270.777C-364.608 268.956 -364.285 267.134 -363.956 265.312C-364.092 265.386 -364.23 265.459 -364.369 265.53C-364.693 267.329 -365.012 269.129 -365.326 270.928C-365.229 270.883 -365.129 270.837 -365.026 270.791C-364.992 270.786 -364.959 270.782 -364.926 270.777ZM-358.13 294.436C-358.255 294.445 -358.38 294.454 -358.505 294.463C-358.109 291.61 -357.699 288.758 -357.276 285.905C-357.154 285.928 -357.034 285.948 -356.913 285.967C-357.332 288.79 -357.738 291.613 -358.13 294.436ZM-303.423 165.14C-309.303 189.605 -314.334 214.07 -318.517 238.535C-318.377 238.426 -318.235 238.319 -318.089 238.214C-313.905 213.792 -308.875 189.37 -302.999 164.948C-303.139 165.022 -303.28 165.086 -303.423 165.14ZM-293.045 160.925C-299.176 187.458 -304.364 213.989 -308.608 240.52C-308.496 240.531 -308.375 240.544 -308.242 240.559C-304.146 214.953 -299.17 189.347 -293.315 163.739C-293.323 163.708 -293.33 163.676 -293.337 163.643L-293.258 163.489C-293.067 162.656 -292.875 161.823 -292.683 160.99C-292.806 160.966 -292.929 160.942 -293.045 160.925ZM-283.363 158.289C-289.681 186.901 -294.96 215.513 -299.201 244.124C-299.072 244.059 -298.938 243.992 -298.799 243.922C-294.186 212.848 -288.348 181.773 -281.285 150.698C-281.439 150.833 -281.593 150.947 -281.741 151.044C-282.228 153.191 -282.709 155.338 -283.185 157.486C-283.097 157.574 -283.013 157.676 -282.934 157.791L-283.363 158.289ZM-275.656 166.825C-281.743 197.008 -286.739 227.193 -290.644 257.377C-290.523 257.388 -290.4 257.398 -290.277 257.408C-286.369 227.205 -281.369 197.002 -275.276 166.8C-275.41 166.808 -275.536 166.816 -275.656 166.825ZM-268.425 179.656C-273.379 207.11 -277.482 234.562 -280.734 262.014H-280.475C-280.475 262.234 -280.464 262.464 -280.445 262.697C-277.184 235.062 -273.061 207.426 -268.076 179.79C-268.189 179.736 -268.305 179.692 -268.425 179.656ZM-282.55 281.698C-282.331 279.577 -282.106 277.456 -281.876 275.335C-282.016 275.548 -282.163 275.77 -282.318 276.002C-282.518 277.856 -282.714 279.711 -282.907 281.565C-282.797 281.606 -282.678 281.65 -282.55 281.698ZM-260.608 191.526C-265.681 222.958 -269.705 254.389 -272.679 285.821C-272.561 285.874 -272.443 285.928 -272.324 285.982C-269.349 254.506 -265.321 223.03 -260.239 191.554C-260.36 191.541 -260.482 191.532 -260.608 191.526ZM-257.657 243.711C-259.494 259.417 -261.085 275.124 -262.429 290.831C-262.311 290.893 -262.193 290.955 -262.075 291.017C-260.724 275.203 -259.122 259.389 -257.271 243.576C-257.4 243.62 -257.529 243.665 -257.657 243.711ZM-246.763 239.629C-248.759 257.403 -250.459 275.178 -251.863 292.952C-251.73 292.761 -251.592 292.573 -251.449 292.39C-250.053 274.793 -248.366 257.197 -246.389 239.6C-246.513 239.61 -246.637 239.619 -246.763 239.629ZM-236.305 239.158C-238.036 255.589 -239.529 272.02 -240.787 288.451C-240.661 288.419 -240.535 288.386 -240.41 288.353C-239.153 271.941 -237.66 255.528 -235.931 239.115C-236.023 239.129 -236.117 239.143 -236.213 239.158C-236.244 239.158 -236.275 239.158 -236.305 239.158ZM-228.539 266.421C-228.81 269.665 -229.072 272.909 -229.325 276.152C-229.184 275.928 -229.042 275.702 -228.903 275.476C-228.678 272.602 -228.445 269.728 -228.206 266.855C-228.31 266.711 -228.421 266.567 -228.539 266.421ZM-227.22 255.43C-227.351 255.592 -227.488 255.75 -227.632 255.906C-227.155 250.548 -226.653 245.189 -226.129 239.831C-226.007 239.857 -225.886 239.881 -225.766 239.903C-226.273 245.079 -226.757 250.255 -227.22 255.43ZM-218.309 175.337C-218.35 175.34 -218.392 175.342 -218.433 175.345L-218.233 174.764C-218.258 174.955 -218.284 175.146 -218.309 175.337ZM-214.62 149.036C-214.769 149.2 -214.919 149.37 -215.066 149.544C-214.35 144.675 -213.615 139.807 -212.859 134.939C-212.734 134.93 -212.608 134.92 -212.483 134.909C-213.213 139.618 -213.926 144.327 -214.62 149.036ZM-203.351 135.095C-203.219 135.047 -203.088 134.995 -202.957 134.943C-203.141 136.217 -203.323 137.49 -203.505 138.763C-203.635 138.791 -203.764 138.822 -203.89 138.858C-203.711 137.604 -203.532 136.349 -203.351 135.095ZM-205.659 151.575C-205.539 151.617 -205.42 151.663 -205.306 151.71C-206.387 159.672 -207.42 167.635 -208.406 175.598C-208.462 175.472 -208.597 175.391 -208.741 175.312C-207.761 167.4 -206.734 159.488 -205.659 151.575ZM-196.603 157.946C-196.555 157.976 -196.504 158.008 -196.452 158.039C-196.769 160.615 -197.082 163.191 -197.39 165.767C-197.525 165.779 -197.647 165.789 -197.765 165.798C-197.447 163.142 -197.124 160.486 -196.797 157.829C-196.736 157.863 -196.672 157.903 -196.603 157.946ZM-198.663 176.633C-198.595 176.047 -198.528 175.461 -198.461 174.876C-198.553 174.791 -198.668 174.712 -198.803 174.629C-198.901 175.485 -199 176.342 -199.098 177.199C-198.969 177.074 -198.855 176.944 -198.761 176.808C-198.726 176.747 -198.694 176.689 -198.663 176.633ZM-198.31 170.401C-198.363 170.853 -198.416 171.304 -198.469 171.756C-198.325 171.309 -198.236 170.861 -198.31 170.401ZM-204.772 145.123C-204.854 145.713 -204.935 146.302 -205.017 146.892C-204.602 146.124 -204.42 145.685 -204.556 145.376C-204.597 145.281 -204.669 145.199 -204.772 145.123ZM-225.487 158.163C-225.012 155.051 -224.529 151.938 -224.037 148.826C-224.162 148.847 -224.289 148.866 -224.418 148.884C-224.942 152.198 -225.456 155.512 -225.961 158.826C-225.91 158.756 -225.86 158.685 -225.81 158.614C-225.703 158.463 -225.595 158.313 -225.487 158.163ZM-239.521 186.343C-238.086 176.487 -236.56 166.63 -234.943 156.774C-235.061 156.918 -235.17 157.074 -235.267 157.243L-235.399 157.285C-236.988 166.991 -238.489 176.697 -239.901 186.403C-239.777 186.384 -239.65 186.364 -239.521 186.343ZM-230.753 86.8985C-230.566 86.0578 -230.38 85.2172 -230.192 84.3765C-230.247 84.3412 -230.3 84.3109 -230.349 84.2869C-230.299 84.1397 -230.261 84.032 -230.242 83.9214C-230.209 83.7405 -230.223 83.5517 -230.299 83.1695C-230.584 84.4446 -230.868 85.7196 -231.15 86.9946L-230.753 86.8985ZM-232.891 96.6979C-232.716 95.8836 -232.54 95.0693 -232.364 94.255C-232.503 94.3048 -232.641 94.3637 -232.777 94.4269C-234.345 101.671 -235.86 108.916 -237.322 116.16C-237.199 116.145 -237.071 116.133 -236.94 116.125C-235.682 109.895 -234.385 103.665 -233.049 97.4356L-233.187 96.9033C-233.088 96.8398 -232.989 96.7707 -232.891 96.6979ZM-249.403 185.845C-248.348 179.067 -247.248 172.288 -246.102 165.51C-246.283 165.813 -246.456 166.101 -246.621 166.376C-247.728 172.945 -248.792 179.515 -249.812 186.084C-249.674 186.008 -249.538 185.927 -249.403 185.845ZM-257.584 175.662C-257.434 174.793 -257.283 173.923 -257.132 173.054C-257.268 173.144 -257.407 173.23 -257.55 173.312C-257.688 174.106 -257.826 174.9 -257.963 175.693C-257.837 175.686 -257.712 175.676 -257.584 175.662ZM-267.244 175.223C-267.05 174.167 -266.855 173.11 -266.658 172.053H-267.032C-267.242 173.182 -267.451 174.31 -267.658 175.439L-267.244 175.223ZM-258.184 128.384C-258.556 130.08 -258.925 131.776 -259.29 133.473C-259.161 133.49 -259.038 133.5 -258.919 133.501C-258.551 131.789 -258.179 130.076 -257.804 128.363C-257.931 128.37 -258.058 128.377 -258.184 128.384ZM-272.102 151.53C-271.307 147.812 -270.495 144.093 -269.666 140.375C-269.743 140.327 -269.815 140.281 -269.882 140.238C-269.76 139.452 -269.664 138.835 -269.589 138.348C-270.615 142.921 -271.617 147.494 -272.593 152.067C-272.422 151.881 -272.259 151.702 -272.102 151.53ZM-266.396 126.068C-266.588 126.29 -266.764 126.505 -266.922 126.705C-263.485 112 -259.789 97.2947 -255.835 82.5899C-255.784 82.5423 -255.737 82.4985 -255.696 82.4584C-255.725 82.4445 -255.756 82.4316 -255.789 82.4197C-254.009 75.807 -252.178 69.1944 -250.293 62.5819C-250.145 62.5109 -249.997 62.4391 -249.85 62.3664C-255.906 83.5996 -261.421 104.833 -266.396 126.068ZM-278.416 138.358C-277.695 135.323 -276.961 132.289 -276.217 129.254C-276.345 129.261 -276.473 129.269 -276.601 129.277C-277.369 132.409 -278.125 135.541 -278.869 138.673C-278.744 138.572 -278.598 138.471 -278.416 138.358ZM-292.029 158.175C-291.949 157.834 -291.869 157.493 -291.789 157.152C-291.938 157.441 -292.077 157.716 -292.202 157.974L-292.029 158.175ZM-290.626 152.236C-288.839 144.759 -286.978 137.281 -285.041 129.804C-285.17 129.812 -285.299 129.821 -285.427 129.83C-287.41 137.49 -289.315 145.15 -291.14 152.81C-290.993 152.642 -290.841 152.474 -290.689 152.306C-290.668 152.283 -290.647 152.259 -290.626 152.236ZM-298.911 148.489C-298.932 148.42 -298.964 148.352 -299.012 148.283C-299.069 148.228 -299.127 148.189 -299.206 148.162C-298.975 147.258 -298.742 146.354 -298.508 145.45L-298.066 144.809C-298.158 144.809 -298.251 144.811 -298.343 144.814C-298.121 143.96 -297.899 143.107 -297.675 142.253C-297.547 142.287 -297.426 142.306 -297.311 142.312C-297.85 144.371 -298.384 146.43 -298.911 148.489ZM-290.317 116.793C-290.473 116.898 -290.631 117.005 -290.791 117.113C-287.662 106.162 -284.363 95.2104 -280.894 84.2592C-280.735 84.1596 -280.575 84.0607 -280.415 83.9623C-283.886 94.9058 -287.186 105.849 -290.317 116.793ZM-279.378 80.709C-279.518 80.7316 -279.653 80.7561 -279.788 80.7854C-279.245 79.0889 -278.698 77.3924 -278.147 75.6958C-277.984 75.5883 -277.821 75.4814 -277.657 75.3753C-278.235 77.1532 -278.809 78.9311 -279.378 80.709ZM-268.38 70.1283C-269.116 72.4859 -269.845 74.8434 -270.566 77.2009C-270.417 77.1326 -270.268 77.0645 -270.12 76.9969C-269.396 74.6321 -268.664 72.2672 -267.925 69.9023C-268.076 69.9767 -268.228 70.052 -268.38 70.1283ZM-277.259 74.1542C-277.423 74.261 -277.586 74.3684 -277.75 74.4764C-277.625 74.0942 -277.501 73.7119 -277.376 73.3296C-277.368 73.3251 -277.361 73.3206 -277.354 73.3161C-277.199 73.2201 -277.045 73.1242 -276.891 73.0277C-277.014 73.4032 -277.136 73.7787 -277.259 74.1542ZM-267.635 67.75C-267.72 68.0187 -267.804 68.2874 -267.888 68.5561C-267.719 68.4496 -267.557 68.343 -267.403 68.2364C-267.342 68.0402 -267.28 67.844 -267.219 67.6478H-267.234C-267.395 67.6866 -267.521 67.7172 -267.635 67.75ZM-267.095 66.0343C-267.13 66.146 -267.165 66.2577 -267.201 66.3694C-267.044 66.2799 -266.887 66.1903 -266.731 66.1004C-266.694 65.9829 -266.656 65.8653 -266.619 65.7478C-266.763 65.8326 -266.905 65.9174 -267.045 66.0022C-267.062 66.0132 -267.079 66.0239 -267.095 66.0343ZM-276.429 71.6206L-276.503 71.6705L-276.692 71.8533C-276.783 71.9322 -276.875 72.0099 -276.968 72.0865C-276.912 71.916 -276.856 71.7455 -276.8 71.5749C-276.764 71.5508 -276.728 71.5225 -276.692 71.4876L-276.327 71.3114C-276.361 71.4145 -276.395 71.5176 -276.429 71.6206ZM-286.426 77.7699C-286.423 77.7623 -286.42 77.7546 -286.418 77.747L-286.92 78.0834C-286.921 78.0857 -286.921 78.0879 -286.922 78.0902C-286.757 77.9833 -286.591 77.8765 -286.426 77.7699ZM-296.644 84.5726C-296.816 84.6913 -296.987 84.8101 -297.159 84.9291C-297.16 84.9343 -297.162 84.9394 -297.164 84.9445L-296.655 84.6034C-296.651 84.5931 -296.647 84.5829 -296.644 84.5726ZM-286.965 78.2143C-286.799 78.1072 -286.633 78.0003 -286.468 77.8936C-286.574 78.2061 -286.681 78.5186 -286.787 78.8312C-287.01 79.0686 -287.224 79.3166 -287.428 79.5766C-287.273 79.1225 -287.119 78.6684 -286.965 78.2143ZM-287.665 80.2785C-287.502 80.1773 -287.339 80.0766 -287.176 79.9761C-287.252 80.2005 -287.328 80.4249 -287.403 80.6492C-287.585 80.7563 -287.743 80.8108 -287.846 80.8127C-287.786 80.6347 -287.726 80.4566 -287.665 80.2785ZM-299.094 91.5863C-298.291 89.2624 -297.479 86.9385 -296.659 84.6145C-296.83 84.7311 -297.001 84.8476 -297.171 84.9641C-297.991 87.2904 -298.803 89.6168 -299.606 91.9431C-299.435 91.8236 -299.265 91.7047 -299.094 91.5863ZM-300.384 95.3403C-300.146 94.6424 -299.907 93.9444 -299.667 93.2464H-299.957C-299.997 93.2656 -300.036 93.284 -300.074 93.3019C-300.322 94.0242 -300.569 94.7465 -300.816 95.4689C-300.67 95.4182 -300.526 95.3753 -300.384 95.3403ZM-291.216 90.9368C-291.025 90.7811 -290.849 90.6361 -290.689 90.5037L-290.687 90.5031C-294.231 101.294 -297.599 112.084 -300.794 122.875C-300.941 122.931 -301.084 122.983 -301.223 123.031C-298.059 112.333 -294.723 101.635 -291.216 90.9368ZM-308.567 120.245C-306.214 112.786 -303.773 105.326 -301.244 97.8671C-301.401 97.9459 -301.556 98.0214 -301.709 98.0932C-304.215 105.495 -306.636 112.897 -308.969 120.298C-308.837 120.28 -308.703 120.262 -308.567 120.245ZM-311.117 127.622C-311.025 127.622 -310.942 127.622 -310.866 127.621C-311.288 128.994 -311.707 130.366 -312.124 131.739C-312.255 131.75 -312.386 131.76 -312.517 131.771C-312.085 130.347 -311.65 128.923 -311.212 127.5L-311.117 127.622ZM-313.171 135.213C-312.841 134.112 -312.509 133.011 -312.176 131.911C-312.307 131.921 -312.438 131.932 -312.569 131.943C-312.924 133.114 -313.277 134.286 -313.628 135.458C-313.475 135.373 -313.323 135.291 -313.171 135.213ZM-318.468 153.476C-317.384 149.612 -316.277 145.748 -315.146 141.884H-315.279C-315.389 141.969 -315.497 142.053 -315.602 142.134C-316.795 146.217 -317.962 150.299 -319.103 154.382C-318.886 154.086 -318.675 153.784 -318.468 153.476ZM-321.035 132.505C-321.168 132.517 -321.3 132.529 -321.432 132.541C-317.119 119.021 -312.502 105.501 -307.58 91.9819C-307.406 91.8587 -307.23 91.7343 -307.053 91.6088C-312.024 105.241 -316.685 118.873 -321.035 132.505ZM-329.888 133.357C-326.081 122.011 -322.047 110.666 -317.786 99.3204C-317.968 99.4552 -318.149 99.5894 -318.329 99.7233C-322.537 110.948 -326.524 122.173 -330.289 133.398C-330.156 133.384 -330.022 133.37 -329.888 133.357ZM-338.473 134.301C-335.384 125.544 -332.153 116.787 -328.779 108.03C-328.971 108.193 -329.166 108.358 -329.362 108.525C-332.672 117.133 -335.844 125.741 -338.879 134.35C-338.744 134.334 -338.609 134.318 -338.473 134.301ZM-347.264 135.454C-345.19 129.852 -343.055 124.25 -340.858 118.647C-341.059 118.828 -341.261 119.01 -341.466 119.194C-343.594 124.634 -345.665 130.074 -347.677 135.515C-347.54 135.494 -347.402 135.474 -347.264 135.454ZM-356.122 136.977C-355.218 134.645 -354.301 132.313 -353.374 129.981C-353.579 130.167 -353.784 130.354 -353.991 130.543C-354.854 132.718 -355.707 134.893 -356.551 137.068C-356.41 137.038 -356.267 137.008 -356.122 136.977ZM-297.098 84.7569C-296.928 84.6416 -296.757 84.5265 -296.587 84.4116C-296.584 84.4021 -296.58 84.3925 -296.577 84.383C-296.748 84.5003 -296.919 84.6177 -297.09 84.7351C-297.093 84.7424 -297.095 84.7496 -297.098 84.7569ZM-286.85 77.8778C-286.865 77.9222 -286.88 77.9665 -286.895 78.0109C-286.729 77.9019 -286.563 77.793 -286.396 77.6839C-286.381 77.6408 -286.367 77.5977 -286.352 77.5546C-286.518 77.6622 -286.684 77.77 -286.85 77.8778ZM-259.4 66.0555L-258.952 65.8389C-260.905 72.3702 -262.804 78.9015 -264.649 85.4328C-264.796 85.5303 -264.953 85.6349 -265.12 85.7473C-263.268 79.1833 -261.361 72.6194 -259.4 66.0555ZM-276.066 128.64C-274.378 121.776 -272.63 114.912 -270.822 108.048C-271.001 108.249 -271.181 108.451 -271.361 108.654C-273.114 115.325 -274.811 121.996 -276.451 128.667C-276.323 128.658 -276.194 128.649 -276.066 128.64ZM-284.893 129.23C-284.027 125.896 -283.147 122.563 -282.253 119.229C-282.416 119.352 -282.577 119.479 -282.735 119.608C-283.597 122.824 -284.445 126.04 -285.279 129.256C-285.15 129.248 -285.021 129.239 -284.893 129.23ZM-270.976 78.5436C-273.859 88.0057 -276.622 97.4677 -279.265 106.93C-279.07 106.703 -278.879 106.473 -278.69 106.238C-276.08 96.9154 -273.353 87.5929 -270.509 78.2702C-270.664 78.3617 -270.82 78.4528 -270.976 78.5436ZM-248.205 55.3261L-247.755 55.0942C-247.756 55.0979 -247.757 55.1016 -247.758 55.1052C-247.792 55.2214 -247.826 55.3376 -247.86 55.4537C-248.007 55.5267 -248.156 55.6007 -248.307 55.6762C-248.274 55.564 -248.241 55.4519 -248.209 55.3398C-248.207 55.3352 -248.206 55.3307 -248.205 55.3261ZM-241.047 58.522C-247.305 81.5633 -252.963 104.604 -258.022 127.644C-257.895 127.637 -257.768 127.63 -257.641 127.623C-252.562 104.499 -246.879 81.3738 -240.592 58.248C-240.754 58.3458 -240.905 58.4369 -241.047 58.522ZM-238.747 50.1497C-238.767 50.2209 -238.786 50.2921 -238.806 50.3634L-238.366 50.1528C-238.346 50.0786 -238.325 50.0044 -238.305 49.9302C-238.452 50.0029 -238.599 50.0761 -238.747 50.1497ZM-229.559 45.7987C-229.414 45.7315 -229.27 45.6647 -229.126 45.5984C-229.139 45.6476 -229.152 45.6969 -229.165 45.7461L-229.6 45.9545C-229.586 45.9026 -229.573 45.8507 -229.559 45.7987ZM-229.305 46.2746C-229.302 46.2662 -229.3 46.2578 -229.298 46.2495C-229.365 46.2816 -229.431 46.3139 -229.498 46.3461C-229.577 46.384 -229.655 46.4219 -229.734 46.4596C-229.735 46.4649 -229.736 46.4703 -229.738 46.4756L-229.305 46.2746ZM-220.506 41.9542C-220.513 41.9842 -220.521 42.0142 -220.529 42.0442C-220.46 42.0154 -220.392 41.9866 -220.324 41.9578C-220.251 41.9268 -220.178 41.8959 -220.105 41.8649C-220.095 41.8251 -220.085 41.7854 -220.075 41.7457L-220.506 41.9542ZM-211.038 37.9427C-211.18 38.0013 -211.32 38.0595 -211.457 38.1168C-211.461 38.131 -211.464 38.1452 -211.468 38.1594C-211.328 38.104 -211.189 38.0486 -211.05 37.9932C-211.046 37.9764 -211.042 37.9595 -211.038 37.9427ZM-214.488 52.7052C-214.337 52.0465 -214.185 51.3878 -214.034 50.7292C-214.192 50.8534 -214.343 50.9651 -214.488 51.066C-214.628 51.6709 -214.766 52.2759 -214.905 52.8808C-214.762 52.8233 -214.623 52.7648 -214.488 52.7052ZM-214.871 54.3814C-214.863 54.3458 -214.854 54.3103 -214.846 54.2748C-214.964 54.2923 -215.095 54.2977 -215.229 54.2993C-215.257 54.4216 -215.285 54.5439 -215.312 54.6663C-215.172 54.5754 -215.024 54.4805 -214.871 54.3814ZM-215.616 57.6633C-215.473 57.0337 -215.331 56.4042 -215.188 55.7746C-215.329 55.8439 -215.47 55.9128 -215.611 55.9812C-215.771 56.6848 -215.93 57.3883 -216.089 58.0919C-215.945 57.9512 -215.786 57.8079 -215.616 57.6633ZM-216.243 60.4524C-216.13 59.9458 -216.016 59.4391 -215.902 58.9325C-216.026 58.9481 -216.147 58.9466 -216.279 58.9346C-216.406 59.4982 -216.533 60.0619 -216.659 60.6256C-216.521 60.5646 -216.383 60.5074 -216.243 60.4524ZM-217.141 64.477C-216.904 63.4107 -216.667 62.3444 -216.428 61.2781C-216.57 61.3489 -216.712 61.4184 -216.851 61.4862C-217.045 62.3542 -217.239 63.2221 -217.431 64.09C-217.353 64.219 -217.253 64.348 -217.141 64.477ZM-214.17 49.6862C-214.181 49.7308 -214.191 49.7753 -214.201 49.8199C-214.162 49.7898 -214.122 49.7595 -214.082 49.7288L-214.17 49.6862ZM-223.219 54.461C-223.065 53.8282 -222.911 53.1954 -222.756 52.5627C-222.897 52.6519 -223.046 52.7476 -223.205 52.8508C-225.461 62.0942 -227.632 71.3376 -229.717 80.5811C-229.537 80.3246 -229.35 80.054 -229.158 79.7732C-227.257 71.37 -225.286 62.9669 -223.244 54.5638C-223.236 54.5296 -223.227 54.4953 -223.219 54.461ZM-222.852 51.409C-222.96 51.8489 -223.068 52.2888 -223.175 52.7287C-223.044 52.6425 -222.898 52.5512 -222.731 52.458C-222.616 51.99 -222.502 51.5221 -222.387 51.0542C-222.485 51.1256 -222.587 51.2043 -222.689 51.283C-222.743 51.3254 -222.798 51.3677 -222.852 51.409ZM-231.484 54.3C-231.453 54.2846 -231.423 54.2692 -231.392 54.2539C-237.677 78.5428 -243.335 102.832 -248.366 127.121C-248.492 127.126 -248.618 127.132 -248.745 127.137C-243.74 102.969 -238.115 78.8001 -231.869 54.6316C-231.73 54.5221 -231.599 54.411 -231.484 54.3ZM-249.109 130.732C-248.913 129.774 -248.716 128.816 -248.518 127.859C-248.645 127.864 -248.771 127.87 -248.897 127.875C-249.096 128.836 -249.293 129.798 -249.49 130.759L-249.109 130.732ZM-259.047 184.282C-258.973 183.84 -258.899 183.398 -258.825 182.956C-259.036 183.306 -259.2 183.688 -259.29 184.121C-259.209 184.184 -259.128 184.237 -259.047 184.282ZM-251.121 194.666C-250.955 194.562 -250.818 194.466 -250.705 194.377C-251.067 196.792 -251.423 199.208 -251.774 201.623C-251.883 201.922 -251.992 202.194 -252.102 202.406C-252.031 202.412 -251.96 202.417 -251.889 202.421C-252.435 206.201 -252.967 209.981 -253.485 213.761C-253.679 214.213 -253.863 214.653 -254.037 215.085C-253.111 208.279 -252.139 201.473 -251.121 194.666ZM-241.804 199.863C-242.143 202.342 -242.478 204.821 -242.806 207.3C-242.686 207.287 -242.56 207.27 -242.428 207.249C-242.095 204.732 -241.755 202.216 -241.41 199.7C-241.443 199.688 -241.476 199.676 -241.509 199.663C-241.535 199.663 -241.614 199.722 -241.75 199.823C-241.767 199.836 -241.785 199.849 -241.804 199.863ZM-230.236 188.615C-230.319 189.229 -230.402 189.843 -230.484 190.456C-230.352 190.477 -230.231 190.491 -230.118 190.497C-230.047 189.969 -229.977 189.442 -229.906 188.914C-230.008 188.826 -230.117 188.727 -230.236 188.615ZM-228.502 178.719C-228.553 178.69 -228.602 178.662 -228.647 178.636C-228.676 178.622 -228.749 178.617 -228.859 178.618C-228.343 174.951 -227.816 171.283 -227.276 167.615C-227.145 167.559 -227.014 167.503 -226.88 167.45C-227.108 169.002 -227.335 170.554 -227.559 172.107C-227.853 172.443 -228.042 172.896 -228.08 173.516H-227.762C-228.012 175.251 -228.258 176.985 -228.502 178.719ZM-229.697 184.652C-229.663 184.658 -229.628 184.664 -229.593 184.67C-229.651 184.816 -229.705 184.952 -229.756 185.081C-229.737 184.938 -229.717 184.795 -229.697 184.652ZM-215.592 153.141C-215.657 153.587 -215.722 154.034 -215.786 154.48C-215.353 153.907 -215.169 153.431 -215.592 153.141ZM-398.763 286.455C-398.567 285.384 -398.369 284.313 -398.169 283.242C-398.319 283.426 -398.481 283.637 -398.662 283.88C-398.825 284.757 -398.987 285.634 -399.147 286.511C-399.028 286.502 -398.897 286.48 -398.763 286.455ZM-482.388 342.176C-482.324 341.914 -482.26 341.654 -482.196 341.394C-482.27 341.664 -482.344 341.933 -482.417 342.202C-482.408 342.194 -482.398 342.185 -482.388 342.176ZM-190.431 419.651C-190.431 415.9 -190.423 412.149 -190.406 408.398C-190.533 408.297 -190.655 408.192 -190.773 408.082C-190.791 411.961 -190.799 415.84 -190.799 419.719C-190.678 419.697 -190.555 419.674 -190.431 419.651ZM-190.062 462.344C-190.08 461.253 -190.098 460.161 -190.116 459.069C-190.243 458.946 -190.368 458.825 -190.49 458.708C-190.463 460.421 -190.434 462.134 -190.404 463.848C-190.279 463.347 -190.163 462.845 -190.062 462.344Z" stroke="url(#paint0_linear_194_8881)" stroke-width="0.72" stroke-miterlimit="10"/>
<defs>
<linearGradient id="paint0_linear_194_8881" x1="-42.5" y1="0.360107" x2="-42.5" y2="887.36" gradientUnits="userSpaceOnUse">
<stop stop-color="#993A04"/>
<stop offset="1" stop-color="#FF6107"/>
</linearGradient>
</defs>
</svg>
