<svg width="285" height="226" viewBox="0 0 285 226" fill="none" xmlns="http://www.w3.org/2000/svg">
<g clip-path="url(#clip0_226_146)">
<mask id="mask0_226_146" style="mask-type:luminance" maskUnits="userSpaceOnUse" x="0" y="43" width="284" height="183">
<path d="M14.6908 43.2305H268.708C276.822 43.2305 283.399 49.8077 283.399 57.9212V211.068C283.399 219.181 276.822 225.759 268.708 225.759H14.6908C6.5773 225.759 6.10352e-05 219.181 6.10352e-05 211.068V57.9212C6.10352e-05 49.8077 6.5773 43.2305 14.6908 43.2305Z" fill="white"/>
</mask>
<g mask="url(#mask0_226_146)">
<path d="M283.806 206.41C271.35 201.474 261.107 171.375 246.245 166.315C238.324 163.618 231.978 168.866 224.898 177.022C217.818 185.176 219.204 188.698 203.28 194.985C190.139 200.173 186.702 144.237 173.826 146.386C160.949 148.535 154.994 81.2825 141.399 86.8961C127.805 92.5104 125.089 77.9957 112.309 105.504C99.53 133.012 87.7242 68.8922 71.6823 63.2782C55.6405 57.6642 51.4625 117.25 43.8494 115.005C36.2364 112.759 29.3819 155.218 22.8565 161.393C16.331 167.569 14.4806 145.135 0.614014 145.135" stroke="#FF6107" stroke-width="1.68943" stroke-linecap="round" stroke-linejoin="round"/>
<path d="M246.245 167.367C261.107 172.45 271.35 202.698 283.806 207.658V252.791H0.614014V146.084C14.4806 146.084 16.331 168.626 22.8565 162.421C29.3819 156.215 36.2364 113.549 43.8495 115.806C51.4625 118.062 55.6405 58.185 71.6823 63.8264C87.7242 69.4678 99.53 133.902 112.309 106.259C125.089 78.6158 127.804 93.2018 141.399 87.5602C154.994 81.9187 160.949 149.5 173.826 147.34C186.702 145.181 190.139 201.391 203.28 196.176C219.204 189.859 217.818 186.321 224.898 178.125C231.978 169.931 238.324 164.657 246.245 167.367Z" fill="url(#paint0_linear_226_146)"/>
</g>
<mask id="mask1_226_146" style="mask-type:luminance" maskUnits="userSpaceOnUse" x="0" y="44" width="285" height="182">
<path d="M284.352 44.353H0.0688477V225.509H284.352V44.353Z" fill="white"/>
</mask>
<g mask="url(#mask1_226_146)">
<path d="M1.16187 182.252H284.354" stroke="#DFE1E6" stroke-width="0.300272"/>
<path d="M1.16187 225.359H284.354" stroke="#DFE1E6" stroke-width="0.300272"/>
<path d="M0.0690918 90.0381H283.261" stroke="#DFE1E6" stroke-width="0.300272"/>
<path d="M0.0690918 134.235H283.261" stroke="#DFE1E6" stroke-width="0.300272"/>
</g>
<g filter="url(#filter0_d_226_146)">
<path d="M247.821 29.6211H114.04C106.231 29.6211 99.9014 35.9511 99.9014 43.7596V129.523C99.9014 137.332 106.231 143.662 114.04 143.662H247.821C255.629 143.662 261.959 137.332 261.959 129.523V43.7596C261.959 35.9511 255.629 29.6211 247.821 29.6211Z" fill="white"/>
<mask id="mask2_226_146" style="mask-type:luminance" maskUnits="userSpaceOnUse" x="115" y="44" width="116" height="31">
<path d="M230.159 44.8013H115.572V74.6724H230.159V44.8013Z" fill="white"/>
</mask>
<g mask="url(#mask2_226_146)">
<path d="M118.514 51.2052L117.458 49.3405H117.005V51.2052H116.045V46.42H117.842C118.212 46.42 118.527 46.4863 118.788 46.6188C119.048 46.7468 119.243 46.9227 119.371 47.1466C119.503 47.3661 119.569 47.6129 119.569 47.8871C119.569 48.2024 119.478 48.4881 119.296 48.7441C119.112 48.9954 118.84 49.1691 118.479 49.2651L119.625 51.2052H118.514ZM117.005 48.6206H117.807C118.068 48.6206 118.262 48.5589 118.39 48.4355C118.518 48.3075 118.582 48.1316 118.582 47.9077C118.582 47.6883 118.518 47.5191 118.39 47.4003C118.262 47.2769 118.068 47.2152 117.807 47.2152H117.005V48.6206ZM123.372 50.2934H121.466L121.151 51.2052H120.143L121.864 46.4131H122.981L124.702 51.2052H123.688L123.372 50.2934ZM123.111 49.5256L122.419 47.5237L121.726 49.5256H123.111ZM130.562 46.42V51.2052H129.602V48.0927L128.32 51.2052H127.594L126.305 48.0927V51.2052H125.345V46.42H126.435L127.957 49.9781L129.479 46.42H130.562ZM134.091 46.42V49.3816C134.091 49.7061 134.176 49.9552 134.345 50.1289C134.514 50.298 134.751 50.3825 135.057 50.3825C135.369 50.3825 135.608 50.298 135.778 50.1289C135.947 49.9552 136.031 49.7061 136.031 49.3816V46.42H136.998V49.3748C136.998 49.7815 136.909 50.1266 136.73 50.41C136.557 50.6887 136.321 50.899 136.024 51.0407C135.731 51.1824 135.405 51.2532 135.044 51.2532C134.687 51.2532 134.363 51.1824 134.07 51.0407C133.783 50.899 133.554 50.6887 133.385 50.41C133.216 50.1266 133.131 49.7815 133.131 49.3748V46.42H134.091ZM139.379 51.2669C139.067 51.2669 138.789 51.2121 138.542 51.1024C138.295 50.9881 138.098 50.835 137.952 50.6431C137.81 50.4511 137.733 50.2386 137.719 50.0054H138.686C138.705 50.1517 138.775 50.2728 138.898 50.3688C139.026 50.4648 139.184 50.5128 139.371 50.5128C139.554 50.5128 139.696 50.4763 139.796 50.4031C139.901 50.33 139.954 50.2363 139.954 50.122C139.954 49.9986 139.89 49.9072 139.762 49.8478C139.639 49.7839 139.44 49.7152 139.166 49.6422C138.882 49.5735 138.649 49.5028 138.467 49.4296C138.288 49.3565 138.133 49.2445 138 49.0937C137.873 48.9429 137.809 48.7394 137.809 48.4835C137.809 48.2733 137.868 48.0813 137.986 47.9077C138.11 47.734 138.283 47.5969 138.508 47.4963C138.737 47.3958 139.004 47.3455 139.31 47.3455C139.762 47.3455 140.123 47.4597 140.393 47.6883C140.663 47.9122 140.811 48.2162 140.839 48.6001H139.92C139.906 48.4492 139.842 48.3304 139.728 48.2436C139.618 48.1521 139.47 48.1064 139.283 48.1064C139.109 48.1064 138.973 48.1385 138.878 48.2024C138.786 48.2665 138.741 48.3556 138.741 48.4698C138.741 48.5978 138.805 48.696 138.933 48.7646C139.061 48.8286 139.259 48.8948 139.529 48.9634C139.804 49.032 140.029 49.1028 140.208 49.176C140.386 49.2491 140.539 49.3633 140.667 49.5187C140.8 49.6695 140.868 49.8706 140.873 50.122C140.873 50.3414 140.811 50.5379 140.687 50.7116C140.569 50.8853 140.395 51.0224 140.166 51.1229C139.943 51.2189 139.68 51.2669 139.379 51.2669ZM141.414 49.2925C141.414 48.9086 141.49 48.5681 141.64 48.271C141.795 47.9739 142.004 47.7454 142.264 47.5854C142.529 47.4255 142.824 47.3455 143.148 47.3455C143.432 47.3455 143.678 47.4026 143.889 47.5169C144.103 47.6311 144.275 47.7751 144.403 47.9488V47.4072H145.37V51.2052H144.403V50.6499C144.28 50.8282 144.108 50.9767 143.889 51.0956C143.674 51.2098 143.425 51.2669 143.141 51.2669C142.822 51.2669 142.529 51.1847 142.264 51.0202C142.004 50.8556 141.795 50.6248 141.64 50.3277C141.49 50.026 141.414 49.681 141.414 49.2925ZM144.403 49.3062C144.403 49.0731 144.357 48.8743 144.266 48.7097C144.175 48.5407 144.051 48.4127 143.895 48.3259C143.74 48.2344 143.574 48.1887 143.395 48.1887C143.217 48.1887 143.052 48.2321 142.902 48.319C142.751 48.4058 142.627 48.5338 142.531 48.7029C142.44 48.8674 142.394 49.064 142.394 49.2925C142.394 49.521 142.44 49.7221 142.531 49.8958C142.627 50.0649 142.751 50.1952 142.902 50.2866C143.057 50.3779 143.221 50.4237 143.395 50.4237C143.574 50.4237 143.74 50.3803 143.895 50.2934C144.051 50.202 144.175 50.0741 144.266 49.9095C144.357 49.7404 144.403 49.5393 144.403 49.3062ZM147.795 47.3455C148.078 47.3455 148.327 47.4026 148.542 47.5169C148.757 47.6266 148.926 47.7705 149.049 47.9488V47.4072H150.016V51.2326C150.016 51.5846 149.945 51.8977 149.803 52.1718C149.662 52.4507 149.449 52.67 149.165 52.83C148.883 52.9946 148.539 53.0768 148.138 53.0768C147.598 53.0768 147.155 52.9511 146.808 52.6997C146.464 52.4484 146.271 52.1056 146.225 51.6714H147.178C147.228 51.8451 147.335 51.9822 147.5 52.0827C147.669 52.1879 147.873 52.2405 148.11 52.2405C148.389 52.2405 148.615 52.1559 148.789 51.9868C148.962 51.8222 149.049 51.5709 149.049 51.2326V50.6431C148.926 50.8213 148.755 50.9699 148.535 51.0887C148.32 51.2075 148.073 51.2669 147.795 51.2669C147.475 51.2669 147.182 51.1847 146.917 51.0202C146.652 50.8556 146.442 50.6248 146.287 50.3277C146.135 50.026 146.06 49.681 146.06 49.2925C146.06 48.9086 146.135 48.5681 146.287 48.271C146.442 47.9739 146.65 47.7454 146.91 47.5854C147.175 47.4255 147.47 47.3455 147.795 47.3455ZM149.049 49.3062C149.049 49.0731 149.004 48.8743 148.912 48.7097C148.82 48.5407 148.697 48.4127 148.542 48.3259C148.387 48.2344 148.22 48.1887 148.041 48.1887C147.863 48.1887 147.699 48.2321 147.548 48.319C147.397 48.4058 147.274 48.5338 147.178 48.7029C147.086 48.8674 147.041 49.064 147.041 49.2925C147.041 49.521 147.086 49.7221 147.178 49.8958C147.274 50.0649 147.397 50.1952 147.548 50.2866C147.704 50.3779 147.868 50.4237 148.041 50.4237C148.22 50.4237 148.387 50.3803 148.542 50.2934C148.697 50.202 148.82 50.0741 148.912 49.9095C149.004 49.7404 149.049 49.5393 149.049 49.3062ZM154.484 49.2239C154.484 49.3611 154.475 49.4844 154.456 49.5941H151.68C151.703 49.8684 151.798 50.0832 151.968 50.2386C152.137 50.394 152.345 50.4717 152.592 50.4717C152.948 50.4717 153.202 50.3185 153.353 50.0123H154.388C154.279 50.3779 154.068 50.6796 153.757 50.9173C153.447 51.1504 153.065 51.2669 152.613 51.2669C152.247 51.2669 151.918 51.1869 151.626 51.027C151.337 50.8624 151.111 50.6316 150.947 50.3346C150.787 50.0375 150.707 49.6947 150.707 49.3062C150.707 48.9132 150.787 48.5681 150.947 48.271C151.107 47.9739 151.33 47.7454 151.618 47.5854C151.907 47.4255 152.238 47.3455 152.613 47.3455C152.974 47.3455 153.296 47.4232 153.579 47.5785C153.867 47.734 154.089 47.9556 154.244 48.2436C154.404 48.527 154.484 48.8538 154.484 49.2239ZM153.49 48.9497C153.485 48.7029 153.396 48.5064 153.223 48.3601C153.049 48.2093 152.836 48.1339 152.585 48.1339C152.348 48.1339 152.146 48.207 151.982 48.3532C151.822 48.4949 151.723 48.6938 151.687 48.9497H153.49Z" fill="#091E42"/>
<path fill-rule="evenodd" clip-rule="evenodd" d="M160.113 46.3477C158.536 46.3477 157.256 47.6274 157.256 49.2041C157.256 50.7809 158.536 52.0607 160.113 52.0607C161.69 52.0607 162.97 50.7809 162.97 49.2041C162.97 47.6274 161.69 46.3477 160.113 46.3477ZM160.398 48.3471V47.7759H159.828V48.3471H160.398ZM160.398 50.3468C160.398 50.5039 160.27 50.6324 160.113 50.6324C159.956 50.6324 159.828 50.5039 159.828 50.3468V49.2041C159.828 49.0471 159.956 48.9185 160.113 48.9185C160.27 48.9185 160.398 49.0471 160.398 49.2041V50.3468ZM157.828 49.2041C157.828 50.4639 158.853 51.4894 160.113 51.4894C161.373 51.4894 162.398 50.4639 162.398 49.2041C162.398 47.9445 161.373 46.9189 160.113 46.9189C158.853 46.9189 157.828 47.9445 157.828 49.2041Z" fill="#FDD6C0"/>
<path d="M115.896 58.7406C115.916 58.3489 116.053 58.0473 116.307 57.8357C116.566 57.6202 116.905 57.5125 117.324 57.5125C117.61 57.5125 117.855 57.5634 118.058 57.6653C118.262 57.7632 118.415 57.8984 118.517 58.0707C118.623 58.2392 118.675 58.4311 118.675 58.6466C118.675 58.8935 118.611 59.103 118.482 59.2754C118.356 59.4438 118.205 59.5574 118.029 59.6162V59.6397C118.257 59.7103 118.433 59.8356 118.558 60.0159C118.687 60.1961 118.752 60.4272 118.752 60.7092C118.752 60.9443 118.697 61.1538 118.587 61.338C118.482 61.5221 118.323 61.6671 118.111 61.7728C117.904 61.8747 117.653 61.9256 117.359 61.9256C116.917 61.9256 116.556 61.814 116.278 61.5906C116 61.3674 115.853 61.0382 115.837 60.6035H116.636C116.644 60.7954 116.709 60.9501 116.83 61.0677C116.956 61.1813 117.126 61.2381 117.342 61.2381C117.541 61.2381 117.694 61.1832 117.8 61.0736C117.909 60.96 117.964 60.815 117.964 60.6387C117.964 60.4036 117.89 60.2352 117.741 60.1334C117.592 60.0315 117.361 59.9805 117.048 59.9805H116.877V59.3048H117.048C117.604 59.3048 117.882 59.1187 117.882 58.7466C117.882 58.5781 117.832 58.4468 117.729 58.3528C117.631 58.2588 117.488 58.2118 117.301 58.2118C117.117 58.2118 116.973 58.2627 116.872 58.3646C116.773 58.4625 116.716 58.5879 116.701 58.7406H115.896ZM122.281 58.3235H120.377V59.3283C120.46 59.2264 120.578 59.1442 120.73 59.0815C120.883 59.0149 121.045 58.9816 121.218 58.9816C121.531 58.9816 121.788 59.0501 121.987 59.1873C122.187 59.3244 122.332 59.5007 122.422 59.7161C122.512 59.9277 122.557 60.1549 122.557 60.3978C122.557 60.8483 122.428 61.2107 122.17 61.4849C121.915 61.7591 121.551 61.8962 121.077 61.8962C120.63 61.8962 120.273 61.7846 120.008 61.5613C119.741 61.338 119.59 61.0461 119.554 60.6857H120.354C120.389 60.8424 120.468 60.9678 120.589 61.0618C120.714 61.1558 120.873 61.2028 121.065 61.2028C121.296 61.2028 121.47 61.1303 121.588 60.9854C121.706 60.8404 121.764 60.6485 121.764 60.4095C121.764 60.1667 121.704 59.9825 121.582 59.8572C121.465 59.7279 121.29 59.6632 121.059 59.6632C120.895 59.6632 120.758 59.7044 120.648 59.7866C120.538 59.8689 120.46 59.9786 120.413 60.1157H119.626V57.6006H122.281V58.3235ZM126.063 58.3235H124.159V59.3283C124.242 59.2264 124.359 59.1442 124.511 59.0815C124.664 59.0149 124.827 58.9816 125 58.9816C125.313 58.9816 125.57 59.0501 125.769 59.1873C125.969 59.3244 126.114 59.5007 126.204 59.7161C126.294 59.9277 126.339 60.1549 126.339 60.3978C126.339 60.8483 126.21 61.2107 125.952 61.4849C125.697 61.7591 125.333 61.8962 124.858 61.8962C124.412 61.8962 124.055 61.7846 123.789 61.5613C123.523 61.338 123.371 61.0461 123.336 60.6857H124.136C124.171 60.8424 124.249 60.9678 124.371 61.0618C124.496 61.1558 124.655 61.2028 124.847 61.2028C125.077 61.2028 125.252 61.1303 125.37 60.9854C125.487 60.8404 125.546 60.6485 125.546 60.4095C125.546 60.1667 125.485 59.9825 125.364 59.8572C125.246 59.7279 125.072 59.6632 124.841 59.6632C124.676 59.6632 124.539 59.7044 124.43 59.7866C124.32 59.8689 124.242 59.9786 124.194 60.1157H123.407V57.6006H126.063V58.3235ZM132.932 57.7946V61.8962H132.109V59.2284L131.01 61.8962H130.387L129.282 59.2284V61.8962H128.46V57.7946H129.394L130.698 60.8443L132.003 57.7946H132.932ZM136.072 59.7925C136.303 59.8356 136.493 59.9512 136.642 60.1392C136.791 60.3273 136.865 60.5427 136.865 60.7856C136.865 61.005 136.811 61.1989 136.701 61.3674C136.595 61.5319 136.44 61.6612 136.237 61.7552C136.032 61.8492 135.791 61.8962 135.514 61.8962H133.745V57.7946H135.438C135.715 57.7946 135.955 57.8396 136.154 57.9297C136.358 58.0198 136.51 58.1452 136.613 58.3058C136.718 58.4664 136.771 58.6486 136.771 58.8523C136.771 59.0913 136.706 59.2911 136.578 59.4517C136.452 59.6123 136.284 59.7259 136.072 59.7925ZM134.567 59.4869H135.32C135.515 59.4869 135.667 59.4438 135.772 59.3577C135.878 59.2676 135.931 59.1403 135.931 58.9757C135.931 58.8112 135.878 58.6839 135.772 58.5937C135.667 58.5037 135.515 58.4586 135.32 58.4586H134.567V59.4869ZM135.396 61.2263C135.596 61.2263 135.751 61.1793 135.86 61.0853C135.974 60.9913 136.031 60.858 136.031 60.6857C136.031 60.5094 135.972 60.3723 135.855 60.2744C135.737 60.1725 135.578 60.1216 135.378 60.1216H134.567V61.2263H135.396ZM141.99 58.676V61.8962H141.455V61.4203C141.354 61.5848 141.21 61.7141 141.026 61.8081C140.846 61.8982 140.647 61.9432 140.427 61.9432C140.177 61.9432 139.951 61.8923 139.752 61.7905C139.552 61.6847 139.393 61.528 139.275 61.3204C139.162 61.1127 139.105 60.86 139.105 60.5623V58.676H139.634V60.4918C139.634 60.8091 139.714 61.0539 139.875 61.2263C140.035 61.3948 140.255 61.479 140.533 61.479C140.819 61.479 141.044 61.3909 141.209 61.2146C141.374 61.0382 141.455 60.7817 141.455 60.4448V58.676H141.99ZM144.033 61.9491C143.787 61.9491 143.565 61.908 143.37 61.8257C143.173 61.7395 143.019 61.622 142.905 61.4731C142.792 61.3204 142.729 61.146 142.717 60.9501H143.269C143.285 61.1108 143.359 61.242 143.493 61.3438C143.63 61.4457 143.808 61.4967 144.028 61.4967C144.231 61.4967 144.392 61.4516 144.51 61.3615C144.626 61.2714 144.686 61.1578 144.686 61.0206C144.686 60.8797 144.622 60.7758 144.498 60.7092C144.372 60.6387 144.178 60.5702 143.916 60.5036C143.677 60.4409 143.481 60.3782 143.328 60.3155C143.179 60.2489 143.05 60.1529 142.94 60.0275C142.835 59.8983 142.782 59.7298 142.782 59.5222C142.782 59.3577 142.831 59.2069 142.928 59.0697C143.026 58.9326 143.165 58.8249 143.345 58.7466C143.526 58.6643 143.731 58.6231 143.963 58.6231C144.319 58.6231 144.607 58.7133 144.827 58.8935C145.046 59.0737 145.164 59.3205 145.179 59.6338H144.644C144.633 59.4654 144.564 59.3302 144.439 59.2284C144.317 59.1265 144.152 59.0756 143.945 59.0756C143.753 59.0756 143.6 59.1167 143.486 59.199C143.373 59.2813 143.317 59.389 143.317 59.5222C143.317 59.628 143.35 59.7161 143.416 59.7866C143.486 59.8533 143.573 59.9081 143.675 59.9512C143.78 59.9903 143.925 60.0354 144.109 60.0863C144.341 60.149 144.529 60.2117 144.674 60.2744C144.819 60.3331 144.942 60.4233 145.044 60.5447C145.15 60.6661 145.204 60.8248 145.208 61.0206C145.208 61.1969 145.16 61.3556 145.062 61.4967C144.963 61.6376 144.825 61.7493 144.644 61.8316C144.468 61.9099 144.265 61.9491 144.033 61.9491ZM148.901 60.1627C148.901 60.2646 148.896 60.3723 148.884 60.4859H146.31C146.33 60.8032 146.437 61.052 146.633 61.2322C146.833 61.4085 147.074 61.4967 147.356 61.4967C147.587 61.4967 147.779 61.4437 147.932 61.338C148.089 61.2283 148.199 61.0833 148.261 60.9031H148.837C148.751 61.2126 148.578 61.4653 148.319 61.6612C148.061 61.8531 147.74 61.9491 147.356 61.9491C147.05 61.9491 146.776 61.8805 146.533 61.7435C146.294 61.6063 146.107 61.4124 145.969 61.1617C145.832 60.907 145.763 60.6132 145.763 60.2803C145.763 59.9472 145.83 59.6554 145.963 59.4047C146.096 59.154 146.283 58.962 146.521 58.8288C146.765 58.6917 147.042 58.6231 147.356 58.6231C147.661 58.6231 147.932 58.6897 148.167 58.8229C148.402 58.9561 148.582 59.1403 148.708 59.3753C148.837 59.6064 148.901 59.8689 148.901 60.1627ZM148.349 60.0511C148.349 59.8473 148.304 59.6731 148.214 59.5281C148.124 59.3792 148.001 59.2676 147.844 59.1931C147.691 59.1148 147.52 59.0756 147.332 59.0756C147.063 59.0756 146.831 59.1618 146.639 59.3342C146.451 59.5065 146.344 59.7455 146.316 60.0511H148.349ZM149.407 60.2744C149.407 59.9453 149.474 59.6574 149.607 59.4105C149.74 59.1598 149.923 58.9659 150.153 58.8288C150.389 58.6917 150.651 58.6231 150.941 58.6231C151.192 58.6231 151.425 58.6819 151.64 58.7994C151.856 58.913 152.02 59.0638 152.134 59.2519V57.5478H152.674V61.8962H152.134V61.291C152.028 61.483 151.871 61.6416 151.664 61.7669C151.456 61.8884 151.213 61.9491 150.936 61.9491C150.649 61.9491 150.389 61.8786 150.153 61.7375C149.923 61.5966 149.74 61.3987 149.607 61.1441C149.474 60.8894 149.407 60.5995 149.407 60.2744ZM152.134 60.2803C152.134 60.0374 152.085 59.8258 151.988 59.6456C151.889 59.4654 151.756 59.3283 151.587 59.2343C151.423 59.1364 151.241 59.0874 151.041 59.0874C150.841 59.0874 150.659 59.1343 150.495 59.2284C150.33 59.3224 150.199 59.4595 150.101 59.6397C150.003 59.82 149.954 60.0315 149.954 60.2744C149.954 60.5212 150.003 60.7367 150.101 60.9207C150.199 61.1009 150.33 61.2401 150.495 61.338C150.659 61.432 150.841 61.479 151.041 61.479C151.241 61.479 151.423 61.432 151.587 61.338C151.756 61.2401 151.889 61.1009 151.988 60.9207C152.085 60.7367 152.134 60.5232 152.134 60.2803ZM156.549 61.9491C156.248 61.9491 155.974 61.8805 155.727 61.7435C155.484 61.6063 155.292 61.4124 155.151 61.1617C155.014 60.907 154.945 60.6132 154.945 60.2803C154.945 59.9512 155.016 59.6613 155.157 59.4105C155.302 59.1559 155.497 58.962 155.745 58.8288C155.991 58.6917 156.267 58.6231 156.573 58.6231C156.878 58.6231 157.154 58.6917 157.402 58.8288C157.648 58.962 157.842 59.154 157.983 59.4047C158.128 59.6554 158.201 59.9472 158.201 60.2803C158.201 60.6132 158.126 60.907 157.977 61.1617C157.832 61.4124 157.635 61.6063 157.384 61.7435C157.133 61.8805 156.855 61.9491 156.549 61.9491ZM156.549 61.479C156.741 61.479 156.921 61.434 157.09 61.3438C157.258 61.2538 157.394 61.1186 157.495 60.9384C157.601 60.7582 157.654 60.5388 157.654 60.2803C157.654 60.0217 157.604 59.8023 157.501 59.6221C157.399 59.4419 157.266 59.3087 157.102 59.2225C156.937 59.1324 156.759 59.0874 156.567 59.0874C156.371 59.0874 156.191 59.1324 156.026 59.2225C155.865 59.3087 155.737 59.4419 155.639 59.6221C155.54 59.8023 155.492 60.0217 155.492 60.2803C155.492 60.5427 155.539 60.7641 155.633 60.9443C155.731 61.1245 155.86 61.2596 156.021 61.3497C156.181 61.4359 156.358 61.479 156.549 61.479ZM161.76 58.676V61.8962H161.225V61.4203C161.123 61.5848 160.98 61.7141 160.796 61.8081C160.616 61.8982 160.416 61.9432 160.197 61.9432C159.946 61.9432 159.72 61.8923 159.521 61.7905C159.321 61.6847 159.162 61.528 159.045 61.3204C158.931 61.1127 158.875 60.86 158.875 60.5623V58.676H159.403V60.4918C159.403 60.8091 159.483 61.0539 159.644 61.2263C159.805 61.3948 160.024 61.479 160.302 61.479C160.588 61.479 160.814 61.3909 160.978 61.2146C161.143 61.0382 161.225 60.7817 161.225 60.4448V58.676H161.76ZM163.315 59.1167V61.0148C163.315 61.1715 163.348 61.2831 163.415 61.3497C163.481 61.4124 163.597 61.4437 163.761 61.4437H164.155V61.8962H163.673C163.376 61.8962 163.152 61.8277 163.003 61.6905C162.854 61.5534 162.78 61.3282 162.78 61.0148V59.1167H162.363V58.676H162.78V57.8651H163.315V58.676H164.155V59.1167H163.315ZM167.774 61.9491C167.472 61.9491 167.198 61.8805 166.952 61.7435C166.708 61.6063 166.516 61.4124 166.375 61.1617C166.238 60.907 166.17 60.6132 166.17 60.2803C166.17 59.9512 166.24 59.6613 166.382 59.4105C166.527 59.1559 166.722 58.962 166.969 58.8288C167.216 58.6917 167.492 58.6231 167.798 58.6231C168.103 58.6231 168.379 58.6917 168.626 58.8288C168.873 58.962 169.067 59.154 169.208 59.4047C169.353 59.6554 169.425 59.9472 169.425 60.2803C169.425 60.6132 169.351 60.907 169.202 61.1617C169.057 61.4124 168.859 61.6063 168.609 61.7435C168.357 61.8805 168.08 61.9491 167.774 61.9491ZM167.774 61.479C167.966 61.479 168.146 61.434 168.315 61.3438C168.483 61.2538 168.618 61.1186 168.72 60.9384C168.826 60.7582 168.879 60.5388 168.879 60.2803C168.879 60.0217 168.828 59.8023 168.726 59.6221C168.624 59.4419 168.491 59.3087 168.326 59.2225C168.162 59.1324 167.984 59.0874 167.791 59.0874C167.596 59.0874 167.416 59.1324 167.251 59.2225C167.09 59.3087 166.961 59.4419 166.864 59.6221C166.765 59.8023 166.716 60.0217 166.716 60.2803C166.716 60.5427 166.764 60.7641 166.857 60.9443C166.956 61.1245 167.085 61.2596 167.245 61.3497C167.406 61.4359 167.583 61.479 167.774 61.479ZM171.439 59.1167H170.763V61.8962H170.228V59.1167H169.811V58.676H170.228V58.4468C170.228 58.0864 170.32 57.824 170.505 57.6594C170.693 57.491 170.992 57.4067 171.404 57.4067V57.8534C171.168 57.8534 171.002 57.9004 170.904 57.9944C170.81 58.0845 170.763 58.2353 170.763 58.4468V58.676H171.439V59.1167ZM174.228 60.7562C174.267 60.9795 174.358 61.1519 174.499 61.2734C174.643 61.3948 174.837 61.4555 175.081 61.4555C175.406 61.4555 175.644 61.3282 175.797 61.0736C175.954 60.8189 176.028 60.39 176.02 59.7866C175.938 59.9629 175.801 60.102 175.609 60.2038C175.418 60.3018 175.204 60.3507 174.968 60.3507C174.706 60.3507 174.471 60.2979 174.263 60.1921C174.06 60.0824 173.899 59.9238 173.782 59.7161C173.664 59.5085 173.605 59.2578 173.605 58.964C173.605 58.5448 173.727 58.2079 173.969 57.9532C174.213 57.6947 174.557 57.5654 175.004 57.5654C175.552 57.5654 175.936 57.7436 176.156 58.1001C176.379 58.4567 176.49 58.9874 176.49 59.6926C176.49 60.1862 176.446 60.5936 176.356 60.9149C176.269 61.2361 176.12 61.481 175.909 61.6494C175.701 61.8178 175.415 61.9021 175.051 61.9021C174.651 61.9021 174.34 61.7944 174.117 61.5789C173.893 61.3634 173.766 61.0892 173.735 60.7562H174.228ZM175.057 59.8983C175.319 59.8983 175.534 59.818 175.703 59.6574C175.872 59.4928 175.956 59.2715 175.956 58.9934C175.956 58.6996 175.874 58.4625 175.709 58.2823C175.545 58.1021 175.314 58.012 175.016 58.012C174.741 58.012 174.522 58.0982 174.358 58.2705C174.197 58.4429 174.117 58.6701 174.117 58.9522C174.117 59.2382 174.197 59.4674 174.358 59.6397C174.519 59.8121 174.752 59.8983 175.057 59.8983ZM179.951 58.1119H177.888V59.4517C177.979 59.3263 178.111 59.2245 178.288 59.1461C178.465 59.0638 178.654 59.0228 178.858 59.0228C179.183 59.0228 179.448 59.0913 179.652 59.2284C179.855 59.3615 180 59.5359 180.086 59.7513C180.176 59.9629 180.222 60.1882 180.222 60.4272C180.222 60.7092 180.168 60.9619 180.062 61.1852C179.957 61.4085 179.794 61.5848 179.575 61.7141C179.36 61.8434 179.091 61.908 178.77 61.908C178.359 61.908 178.026 61.8022 177.771 61.5906C177.517 61.3791 177.361 61.0971 177.307 60.7444H177.83C177.881 60.9678 177.988 61.1421 178.153 61.2674C178.317 61.3928 178.525 61.4555 178.776 61.4555C179.085 61.4555 179.319 61.3634 179.475 61.1793C179.632 60.9913 179.71 60.7444 179.71 60.4389C179.71 60.1334 179.632 59.8983 179.475 59.7337C179.319 59.5653 179.087 59.4811 178.782 59.4811C178.574 59.4811 178.392 59.532 178.236 59.6338C178.083 59.7318 177.971 59.8669 177.9 60.0393H177.395V57.6418H179.951V58.1119ZM183.641 58.1119H181.579V59.4517C181.668 59.3263 181.802 59.2245 181.978 59.1461C182.154 59.0638 182.344 59.0228 182.548 59.0228C182.873 59.0228 183.137 59.0913 183.342 59.2284C183.545 59.3615 183.69 59.5359 183.776 59.7513C183.866 59.9629 183.912 60.1882 183.912 60.4272C183.912 60.7092 183.859 60.9619 183.752 61.1852C183.647 61.4085 183.484 61.5848 183.265 61.7141C183.049 61.8434 182.781 61.908 182.46 61.908C182.049 61.908 181.716 61.8022 181.461 61.5906C181.206 61.3791 181.051 61.0971 180.997 60.7444H181.519C181.571 60.9678 181.678 61.1421 181.843 61.2674C182.007 61.3928 182.215 61.4555 182.466 61.4555C182.776 61.4555 183.009 61.3634 183.165 61.1793C183.322 60.9913 183.4 60.7444 183.4 60.4389C183.4 60.1334 183.322 59.8983 183.165 59.7337C183.009 59.5653 182.777 59.4811 182.471 59.4811C182.264 59.4811 182.081 59.532 181.925 59.6338C181.772 59.7318 181.66 59.8669 181.59 60.0393H181.085V57.6418H183.641V58.1119ZM190.431 57.8298V61.8962H189.897V58.8641L188.545 61.8962H188.169L186.811 58.8582V61.8962H186.276V57.8298H186.853L188.357 61.1911L189.861 57.8298H190.431ZM193.389 59.7866C193.538 59.8101 193.673 59.8709 193.795 59.9688C193.919 60.0668 194.018 60.1882 194.088 60.3331C194.163 60.4781 194.2 60.6328 194.2 60.7974C194.2 61.005 194.147 61.193 194.041 61.3615C193.935 61.526 193.781 61.6572 193.577 61.7552C193.377 61.8492 193.14 61.8962 192.866 61.8962H191.338V57.8005H192.807C193.085 57.8005 193.322 57.8474 193.518 57.9415C193.714 58.0316 193.861 58.155 193.959 58.3117C194.057 58.4684 194.106 58.6446 194.106 58.8405C194.106 59.0834 194.039 59.2852 193.906 59.4458C193.777 59.6025 193.605 59.7161 193.389 59.7866ZM191.873 59.5692H192.772C193.023 59.5692 193.216 59.5105 193.353 59.3929C193.491 59.2754 193.559 59.1128 193.559 58.9052C193.559 58.6976 193.491 58.535 193.353 58.4174C193.216 58.2999 193.019 58.2412 192.76 58.2412H191.873V59.5692ZM192.819 61.4555C193.085 61.4555 193.293 61.3928 193.441 61.2674C193.59 61.1421 193.665 60.9678 193.665 60.7444C193.665 60.5172 193.587 60.339 193.43 60.2097C193.273 60.0765 193.064 60.0099 192.801 60.0099H191.873V61.4555H192.819Z" fill="#091E42"/>
<path opacity="0.7" d="M227.005 68.2153H118.871C117.05 68.2153 115.573 69.692 115.573 71.5135V71.5135C115.573 73.3351 117.05 74.8117 118.871 74.8117H227.005C228.826 74.8117 230.303 73.3351 230.303 71.5135C230.303 69.692 228.826 68.2153 227.005 68.2153Z" fill="#EAEAEA"/>
<path d="M149.606 68.2891H118.755C116.997 68.2891 115.572 69.7141 115.572 71.4721C115.572 73.23 116.997 74.655 118.755 74.655H149.606C151.364 74.655 152.789 73.23 152.789 71.4721C152.789 69.7141 151.364 68.2891 149.606 68.2891Z" fill="url(#paint1_linear_226_146)"/>
</g>
<mask id="mask3_226_146" style="mask-type:luminance" maskUnits="userSpaceOnUse" x="115" y="87" width="116" height="31">
<path d="M230.159 87.4048H115.572V117.276H230.159V87.4048Z" fill="white"/>
</mask>
<g mask="url(#mask3_226_146)">
<path d="M115.812 91.4097C115.812 90.939 115.918 90.5187 116.128 90.1488C116.342 89.7742 116.633 89.4836 116.999 89.2778C117.369 89.0681 117.783 88.9624 118.24 88.9624C118.775 88.9624 119.243 89.1001 119.645 89.3739C120.047 89.6485 120.328 90.0271 120.489 90.5123H119.385C119.275 90.2833 119.12 90.112 118.919 89.9975C118.722 89.8838 118.494 89.8262 118.233 89.8262C117.954 89.8262 117.705 89.8927 117.486 90.0256C117.27 90.1528 117.101 90.3362 116.978 90.5739C116.86 90.8117 116.8 91.0903 116.8 91.4097C116.8 91.7251 116.86 92.0045 116.978 92.2463C117.101 92.4841 117.27 92.669 117.486 92.8019C117.705 92.93 117.954 92.994 118.233 92.994C118.494 92.994 118.722 92.9364 118.919 92.8227C119.12 92.7034 119.275 92.5297 119.385 92.3015H120.489C120.328 92.7907 120.047 93.1718 119.645 93.4463C119.248 93.7161 118.779 93.8506 118.24 93.8506C117.783 93.8506 117.369 93.7482 116.999 93.5424C116.633 93.3319 116.342 93.0421 116.128 92.6714C115.918 92.3015 115.812 91.8804 115.812 91.4097ZM124.797 90.5051C124.797 90.7613 124.736 91.0014 124.612 91.2248C124.494 91.4489 124.304 91.6291 124.043 91.7668C123.788 91.9037 123.463 91.9725 123.07 91.9725H122.267V93.8098H121.308V89.024H123.07C123.44 89.024 123.756 89.0881 124.016 89.2162C124.277 89.3443 124.471 89.5204 124.599 89.7445C124.732 89.9679 124.797 90.2217 124.797 90.5051ZM123.029 91.1976C123.294 91.1976 123.491 91.1383 123.619 91.019C123.746 90.8958 123.81 90.7244 123.81 90.5051C123.81 90.0392 123.55 89.8062 123.029 89.8062H122.267V91.1976H123.029ZM126.425 89.024V91.9861C126.425 92.3104 126.51 92.5593 126.679 92.733C126.848 92.902 127.085 92.9868 127.392 92.9868C127.702 92.9868 127.943 92.902 128.112 92.733C128.28 92.5593 128.365 92.3104 128.365 91.9861V89.024H129.332V91.9789C129.332 92.3856 129.243 92.7306 129.064 93.014C128.89 93.2934 128.655 93.5032 128.358 93.6449C128.066 93.7866 127.739 93.8578 127.378 93.8578C127.021 93.8578 126.697 93.7866 126.405 93.6449C126.117 93.5032 125.888 93.2934 125.719 93.014C125.55 92.7306 125.466 92.3856 125.466 91.9789V89.024H126.425ZM132.839 89.024V91.9861C132.839 92.3104 132.924 92.5593 133.093 92.733C133.262 92.902 133.499 92.9868 133.806 92.9868C134.117 92.9868 134.356 92.902 134.526 92.733C134.695 92.5593 134.779 92.3104 134.779 91.9861V89.024H135.746V91.9789C135.746 92.3856 135.657 92.7306 135.478 93.014C135.305 93.2934 135.069 93.5032 134.772 93.6449C134.48 93.7866 134.153 93.8578 133.792 93.8578C133.435 93.8578 133.111 93.7866 132.818 93.6449C132.531 93.5032 132.302 93.2934 132.133 93.014C131.964 92.7306 131.879 92.3856 131.879 91.9789V89.024H132.839ZM138.127 93.8714C137.816 93.8714 137.537 93.8162 137.29 93.7065C137.043 93.5929 136.846 93.4391 136.701 93.247C136.559 93.0557 136.481 92.8427 136.467 92.6098H137.434C137.452 92.7563 137.523 92.8772 137.646 92.9732C137.774 93.0693 137.932 93.1173 138.119 93.1173C138.303 93.1173 138.444 93.0805 138.544 93.0076C138.65 92.934 138.702 92.8403 138.702 92.7266C138.702 92.6034 138.638 92.5113 138.51 92.4521C138.387 92.388 138.188 92.32 137.914 92.2463C137.63 92.1783 137.397 92.107 137.215 92.0342C137.036 91.9605 136.881 91.8492 136.749 91.6979C136.621 91.5474 136.557 91.3441 136.557 91.0879C136.557 90.8773 136.616 90.686 136.734 90.5123C136.858 90.3386 137.032 90.2009 137.256 90.1008C137.485 89.9999 137.752 89.9495 138.058 89.9495C138.51 89.9495 138.871 90.064 139.141 90.2929C139.411 90.5163 139.56 90.8205 139.587 91.2048H138.668C138.654 91.0535 138.59 90.935 138.476 90.8477C138.367 90.7565 138.218 90.7108 138.03 90.7108C137.857 90.7108 137.722 90.7429 137.626 90.8069C137.534 90.8709 137.489 90.9598 137.489 91.0743C137.489 91.2024 137.553 91.3 137.681 91.3689C137.809 91.4329 138.007 91.4994 138.277 91.5674C138.552 91.6363 138.777 91.7075 138.956 91.7804C139.134 91.8532 139.287 91.9677 139.415 92.123C139.548 92.2735 139.616 92.4753 139.621 92.7266C139.621 92.946 139.56 93.1421 139.435 93.3159C139.317 93.4896 139.143 93.6265 138.915 93.7273C138.691 93.8234 138.428 93.8714 138.127 93.8714ZM140.162 91.8965C140.162 91.513 140.238 91.1728 140.388 90.8757C140.543 90.5779 140.752 90.3498 141.012 90.1897C141.278 90.0295 141.572 89.9495 141.896 89.9495C142.18 89.9495 142.426 90.0071 142.637 90.1216C142.851 90.2353 143.023 90.3794 143.151 90.5531V90.0111H144.118V93.8098H143.151V93.2542C143.028 93.4327 142.856 93.5808 142.637 93.7001C142.422 93.8138 142.173 93.8714 141.89 93.8714C141.57 93.8714 141.278 93.789 141.012 93.6241C140.752 93.46 140.543 93.2294 140.388 92.9324C140.238 92.6306 140.162 92.2855 140.162 91.8965ZM143.151 91.9109C143.151 91.6771 143.105 91.4786 143.014 91.3144C142.923 91.1447 142.799 91.0166 142.644 90.9302C142.488 90.8389 142.322 90.7933 142.143 90.7933C141.965 90.7933 141.8 90.8365 141.65 90.923C141.499 91.0102 141.375 91.1383 141.279 91.3072C141.188 91.4722 141.142 91.6683 141.142 91.8965C141.142 92.1254 141.188 92.3264 141.279 92.5001C141.375 92.669 141.499 92.7995 141.65 92.8908C141.805 92.982 141.969 93.0277 142.143 93.0277C142.322 93.0277 142.488 92.9844 142.644 92.898C142.799 92.8067 142.923 92.6786 143.014 92.5137C143.105 92.3448 143.151 92.1438 143.151 91.9109ZM146.543 89.9495C146.826 89.9495 147.075 90.0071 147.29 90.1216C147.505 90.2313 147.674 90.3746 147.797 90.5531V90.0111H148.764V93.837C148.764 94.1893 148.693 94.5023 148.551 94.7761C148.41 95.0547 148.198 95.274 147.914 95.4341C147.631 95.5991 147.288 95.6815 146.886 95.6815C146.346 95.6815 145.903 95.5558 145.556 95.3045C145.213 95.0531 145.019 94.7096 144.973 94.2757H145.926C145.976 94.4495 146.083 94.5863 146.248 94.6872C146.417 94.7921 146.621 94.8449 146.858 94.8449C147.137 94.8449 147.363 94.7601 147.537 94.5912C147.711 94.4262 147.797 94.1749 147.797 93.837V93.247C147.674 93.4255 147.503 93.5744 147.283 93.6929C147.068 93.8122 146.821 93.8714 146.543 93.8714C146.223 93.8714 145.93 93.789 145.665 93.6241C145.4 93.46 145.19 93.2294 145.035 92.9324C144.884 92.6306 144.808 92.2855 144.808 91.8965C144.808 91.513 144.884 91.1728 145.035 90.8757C145.19 90.5779 145.398 90.3498 145.658 90.1897C145.923 90.0295 146.219 89.9495 146.543 89.9495ZM147.797 91.9109C147.797 91.6771 147.752 91.4786 147.66 91.3144C147.569 91.1447 147.445 91.0166 147.29 90.9302C147.134 90.8389 146.968 90.7933 146.789 90.7933C146.612 90.7933 146.447 90.8365 146.296 90.923C146.145 91.0102 146.022 91.1383 145.926 91.3072C145.834 91.4722 145.789 91.6683 145.789 91.8965C145.789 92.1254 145.834 92.3264 145.926 92.5001C146.022 92.669 146.145 92.7995 146.296 92.8908C146.452 92.982 146.616 93.0277 146.789 93.0277C146.968 93.0277 147.134 92.9844 147.29 92.898C147.445 92.8067 147.569 92.6786 147.66 92.5137C147.752 92.3448 147.797 92.1438 147.797 91.9109ZM153.232 91.8284C153.232 91.9653 153.223 92.0886 153.204 92.1983H150.428C150.451 92.4729 150.547 92.6874 150.716 92.8427C150.885 92.998 151.093 93.0757 151.34 93.0757C151.696 93.0757 151.95 92.9228 152.101 92.617H153.136C153.027 92.982 152.816 93.2838 152.505 93.5216C152.195 93.7546 151.813 93.8714 151.361 93.8714C150.995 93.8714 150.666 93.7914 150.374 93.6313C150.085 93.4672 149.859 93.2358 149.695 92.9388C149.535 92.6418 149.455 92.2991 149.455 91.9109C149.455 91.5178 149.535 91.1728 149.695 90.8757C149.855 90.5779 150.078 90.3498 150.366 90.1897C150.655 90.0295 150.986 89.9495 151.361 89.9495C151.722 89.9495 152.044 90.0272 152.327 90.1833C152.615 90.3386 152.837 90.5603 152.992 90.8477C153.152 91.1311 153.232 91.4578 153.232 91.8284ZM152.238 91.5538C152.233 91.3072 152.144 91.1111 151.971 90.9646C151.797 90.8133 151.585 90.7381 151.333 90.7381C151.096 90.7381 150.895 90.8117 150.73 90.9574C150.57 91.0991 150.471 91.2984 150.435 91.5538H152.238Z" fill="#091E42"/>
<path fill-rule="evenodd" clip-rule="evenodd" d="M159.312 88.9517C157.736 88.9517 156.456 90.231 156.456 91.8081C156.456 93.3844 157.736 94.6645 159.312 94.6645C160.889 94.6645 162.169 93.3844 162.169 91.8081C162.169 90.231 160.889 88.9517 159.312 88.9517ZM159.598 90.9507V90.3799H159.027V90.9507H159.598ZM159.598 92.9505C159.598 93.1074 159.47 93.2363 159.312 93.2363C159.155 93.2363 159.027 93.1074 159.027 92.9505V91.8081C159.027 91.6504 159.155 91.5223 159.312 91.5223C159.47 91.5223 159.598 91.6504 159.598 91.8081V92.9505ZM157.027 91.8081C157.027 93.0673 158.053 94.0929 159.312 94.0929C160.572 94.0929 161.598 93.0673 161.598 91.8081C161.598 90.548 160.572 89.5225 159.312 89.5225C158.053 89.5225 157.027 90.548 157.027 91.8081Z" fill="#FDD6C0"/>
<path d="M115.825 102.449C115.825 102.05 115.916 101.691 116.096 101.374C116.276 101.053 116.521 100.802 116.83 100.622C117.144 100.441 117.49 100.352 117.871 100.352C118.317 100.352 118.706 100.459 119.039 100.674C119.372 100.891 119.616 101.196 119.768 101.592H119.128C119.014 101.344 118.85 101.155 118.634 101.022C118.422 100.888 118.168 100.822 117.871 100.822C117.584 100.822 117.328 100.888 117.1 101.022C116.873 101.155 116.695 101.344 116.566 101.592C116.437 101.834 116.372 102.12 116.372 102.449C116.372 102.774 116.437 103.061 116.566 103.307C116.695 103.55 116.873 103.738 117.1 103.872C117.328 104.005 117.584 104.071 117.871 104.071C118.168 104.071 118.422 104.006 118.634 103.877C118.85 103.745 119.014 103.554 119.128 103.307H119.768C119.616 103.699 119.372 104.002 119.039 104.218C118.706 104.43 118.317 104.535 117.871 104.535C117.49 104.535 117.144 104.447 116.83 104.271C116.521 104.091 116.276 103.842 116.096 103.524C115.916 103.207 115.825 102.849 115.825 102.449ZM123.302 101.603C123.302 101.944 123.185 102.228 122.95 102.456C122.719 102.678 122.364 102.79 121.886 102.79H121.099V104.5H120.565V100.405H121.886C122.349 100.405 122.7 100.516 122.938 100.739C123.182 100.963 123.302 101.251 123.302 101.603ZM121.886 102.349C122.184 102.349 122.403 102.285 122.544 102.155C122.686 102.027 122.756 101.842 122.756 101.603C122.756 101.098 122.466 100.845 121.886 100.845H121.099V102.349H121.886ZM124.49 100.405V102.996C124.49 103.36 124.579 103.631 124.755 103.807C124.935 103.983 125.184 104.071 125.501 104.071C125.815 104.071 126.06 103.983 126.236 103.807C126.416 103.631 126.505 103.36 126.505 102.996V100.405H127.04V102.99C127.04 103.331 126.972 103.619 126.835 103.854C126.698 104.085 126.512 104.258 126.277 104.371C126.045 104.484 125.785 104.541 125.495 104.541C125.205 104.541 124.943 104.484 124.707 104.371C124.477 104.258 124.293 104.085 124.155 103.854C124.022 103.619 123.956 103.331 123.956 102.99V100.405H124.49ZM130.022 100.405V102.996C130.022 103.36 130.11 103.631 130.287 103.807C130.467 103.983 130.716 104.071 131.033 104.071C131.346 104.071 131.591 103.983 131.768 103.807C131.948 103.631 132.038 103.36 132.038 102.996V100.405H132.572V102.99C132.572 103.331 132.504 103.619 132.367 103.854C132.23 104.085 132.044 104.258 131.808 104.371C131.578 104.484 131.317 104.541 131.027 104.541C130.737 104.541 130.475 104.484 130.239 104.371C130.009 104.258 129.825 104.085 129.687 103.854C129.554 103.619 129.488 103.331 129.488 102.99V100.405H130.022ZM134.605 104.553C134.357 104.553 134.136 104.512 133.94 104.43C133.745 104.343 133.59 104.226 133.476 104.077C133.363 103.925 133.3 103.75 133.289 103.554H133.841C133.856 103.715 133.931 103.846 134.064 103.948C134.201 104.05 134.379 104.101 134.598 104.101C134.803 104.101 134.963 104.056 135.08 103.965C135.198 103.875 135.257 103.762 135.257 103.624C135.257 103.484 135.194 103.379 135.069 103.313C134.943 103.243 134.75 103.175 134.487 103.107C134.248 103.045 134.052 102.982 133.899 102.919C133.751 102.853 133.621 102.757 133.511 102.632C133.406 102.502 133.353 102.334 133.353 102.127C133.353 101.962 133.402 101.811 133.5 101.673C133.598 101.537 133.737 101.429 133.917 101.351C134.097 101.268 134.303 101.227 134.534 101.227C134.891 101.227 135.179 101.317 135.398 101.497C135.617 101.677 135.735 101.925 135.75 102.238H135.216C135.204 102.07 135.136 101.934 135.01 101.833C134.889 101.73 134.724 101.68 134.517 101.68C134.325 101.68 134.172 101.721 134.058 101.803C133.944 101.886 133.887 101.993 133.887 102.127C133.887 102.232 133.921 102.32 133.988 102.391C134.058 102.457 134.144 102.512 134.246 102.555C134.352 102.594 134.497 102.64 134.681 102.69C134.912 102.753 135.1 102.816 135.245 102.878C135.39 102.937 135.513 103.027 135.615 103.149C135.721 103.27 135.776 103.429 135.78 103.624C135.78 103.801 135.731 103.96 135.633 104.101C135.535 104.242 135.396 104.353 135.216 104.435C135.039 104.514 134.835 104.553 134.605 104.553ZM136.335 102.878C136.335 102.549 136.401 102.261 136.535 102.015C136.668 101.764 136.85 101.57 137.081 101.433C137.316 101.296 137.576 101.227 137.863 101.227C138.145 101.227 138.39 101.288 138.597 101.409C138.805 101.531 138.96 101.684 139.062 101.868V101.28H139.602V104.5H139.062V103.901C138.956 104.089 138.797 104.246 138.585 104.371C138.378 104.492 138.135 104.553 137.857 104.553C137.571 104.553 137.312 104.483 137.081 104.342C136.85 104.201 136.668 104.002 136.535 103.748C136.401 103.493 136.335 103.203 136.335 102.878ZM139.062 102.884C139.062 102.641 139.013 102.43 138.914 102.25C138.817 102.07 138.684 101.932 138.515 101.838C138.351 101.741 138.168 101.691 137.969 101.691C137.769 101.691 137.587 101.738 137.422 101.833C137.258 101.926 137.127 102.063 137.028 102.243C136.93 102.424 136.882 102.636 136.882 102.878C136.882 103.125 136.93 103.34 137.028 103.524C137.127 103.705 137.258 103.844 137.422 103.942C137.587 104.036 137.769 104.083 137.969 104.083C138.168 104.083 138.351 104.036 138.515 103.942C138.684 103.844 138.817 103.705 138.914 103.524C139.013 103.34 139.062 103.127 139.062 102.884ZM141.834 101.227C142.112 101.227 142.355 101.288 142.562 101.409C142.774 101.531 142.931 101.684 143.032 101.868V101.28H143.573V104.571C143.573 104.865 143.51 105.125 143.385 105.352C143.26 105.583 143.08 105.764 142.844 105.893C142.614 106.022 142.343 106.087 142.034 106.087C141.61 106.087 141.258 105.987 140.976 105.787C140.694 105.587 140.527 105.315 140.476 104.97H141.005C141.064 105.166 141.185 105.323 141.37 105.44C141.554 105.562 141.775 105.623 142.034 105.623C142.328 105.623 142.566 105.531 142.75 105.346C142.939 105.162 143.032 104.904 143.032 104.571V103.895C142.927 104.083 142.771 104.24 142.562 104.365C142.355 104.491 142.112 104.553 141.834 104.553C141.548 104.553 141.287 104.483 141.053 104.342C140.821 104.201 140.639 104.002 140.506 103.748C140.373 103.493 140.306 103.203 140.306 102.878C140.306 102.549 140.373 102.261 140.506 102.015C140.639 101.764 140.821 101.57 141.053 101.433C141.287 101.296 141.548 101.227 141.834 101.227ZM143.032 102.884C143.032 102.641 142.983 102.43 142.886 102.25C142.788 102.07 142.654 101.932 142.486 101.838C142.321 101.741 142.14 101.691 141.94 101.691C141.74 101.691 141.558 101.738 141.393 101.833C141.229 101.926 141.097 102.063 141 102.243C140.901 102.424 140.852 102.636 140.852 102.878C140.852 103.125 140.901 103.34 141 103.524C141.097 103.705 141.229 103.844 141.393 103.942C141.558 104.036 141.74 104.083 141.94 104.083C142.14 104.083 142.321 104.036 142.486 103.942C142.654 103.844 142.788 103.705 142.886 103.524C142.983 103.34 143.032 103.127 143.032 102.884ZM147.415 102.767C147.415 102.869 147.409 102.976 147.398 103.09H144.824C144.843 103.407 144.951 103.656 145.147 103.837C145.347 104.013 145.588 104.101 145.869 104.101C146.101 104.101 146.293 104.048 146.445 103.942C146.602 103.833 146.712 103.688 146.774 103.507H147.351C147.264 103.817 147.092 104.07 146.833 104.265C146.575 104.457 146.254 104.553 145.869 104.553C145.564 104.553 145.29 104.484 145.047 104.347C144.808 104.21 144.62 104.017 144.483 103.765C144.346 103.511 144.277 103.217 144.277 102.884C144.277 102.551 144.344 102.259 144.477 102.009C144.61 101.758 144.796 101.566 145.035 101.433C145.278 101.296 145.556 101.227 145.869 101.227C146.175 101.227 146.445 101.294 146.68 101.427C146.916 101.56 147.096 101.744 147.221 101.979C147.351 102.211 147.415 102.473 147.415 102.767ZM146.863 102.655C146.863 102.452 146.817 102.277 146.728 102.132C146.637 101.983 146.514 101.871 146.357 101.797C146.204 101.719 146.034 101.68 145.846 101.68C145.576 101.68 145.344 101.766 145.153 101.938C144.965 102.111 144.857 102.349 144.83 102.655H146.863ZM149.964 100.757C149.862 100.757 149.775 100.722 149.705 100.651C149.635 100.581 149.599 100.494 149.599 100.393C149.599 100.291 149.635 100.204 149.705 100.134C149.775 100.064 149.862 100.028 149.964 100.028C150.061 100.028 150.144 100.064 150.21 100.134C150.281 100.204 150.317 100.291 150.317 100.393C150.317 100.494 150.281 100.581 150.21 100.651C150.144 100.722 150.061 100.757 149.964 100.757ZM150.222 101.28V104.5H149.687V101.28H150.222ZM152.274 104.553C152.027 104.553 151.806 104.512 151.61 104.43C151.413 104.343 151.259 104.226 151.145 104.077C151.032 103.925 150.969 103.75 150.957 103.554H151.509C151.525 103.715 151.6 103.846 151.733 103.948C151.87 104.05 152.048 104.101 152.268 104.101C152.472 104.101 152.632 104.056 152.75 103.965C152.867 103.875 152.926 103.762 152.926 103.624C152.926 103.484 152.863 103.379 152.737 103.313C152.613 103.243 152.419 103.175 152.156 103.107C151.917 103.045 151.722 102.982 151.569 102.919C151.42 102.853 151.29 102.757 151.18 102.632C151.075 102.502 151.022 102.334 151.022 102.127C151.022 101.962 151.071 101.811 151.169 101.673C151.267 101.537 151.406 101.429 151.586 101.351C151.766 101.268 151.972 101.227 152.203 101.227C152.56 101.227 152.847 101.317 153.067 101.497C153.286 101.677 153.404 101.925 153.42 102.238H152.885C152.873 102.07 152.805 101.934 152.679 101.833C152.557 101.73 152.393 101.68 152.185 101.68C151.994 101.68 151.841 101.721 151.727 101.803C151.614 101.886 151.557 101.993 151.557 102.127C151.557 102.232 151.59 102.32 151.657 102.391C151.727 102.457 151.814 102.512 151.915 102.555C152.021 102.594 152.166 102.64 152.35 102.69C152.581 102.753 152.77 102.816 152.914 102.878C153.059 102.937 153.183 103.027 153.284 103.149C153.39 103.27 153.445 103.429 153.449 103.624C153.449 103.801 153.4 103.96 153.302 104.101C153.204 104.242 153.065 104.353 152.885 104.435C152.709 104.514 152.505 104.553 152.274 104.553ZM155.641 101.344C155.66 100.953 155.798 100.651 156.053 100.44C156.311 100.224 156.65 100.116 157.069 100.116C157.355 100.116 157.6 100.168 157.803 100.269C158.008 100.367 158.16 100.502 158.262 100.674C158.368 100.843 158.421 101.035 158.421 101.251C158.421 101.497 158.356 101.707 158.227 101.879C158.101 102.048 157.951 102.162 157.774 102.22V102.243C158.001 102.314 158.177 102.44 158.303 102.62C158.432 102.8 158.497 103.031 158.497 103.313C158.497 103.548 158.442 103.758 158.333 103.942C158.227 104.126 158.068 104.271 157.856 104.377C157.649 104.479 157.398 104.53 157.105 104.53C156.662 104.53 156.301 104.418 156.023 104.194C155.745 103.971 155.598 103.642 155.583 103.207H156.382C156.39 103.399 156.454 103.554 156.575 103.672C156.701 103.785 156.871 103.842 157.087 103.842C157.286 103.842 157.439 103.787 157.545 103.677C157.655 103.564 157.71 103.419 157.71 103.243C157.71 103.008 157.635 102.839 157.486 102.737C157.338 102.636 157.106 102.585 156.793 102.585H156.623V101.909H156.793C157.349 101.909 157.627 101.722 157.627 101.351C157.627 101.182 157.576 101.051 157.474 100.957C157.377 100.863 157.233 100.816 157.045 100.816C156.861 100.816 156.719 100.867 156.616 100.968C156.519 101.067 156.462 101.192 156.447 101.344H155.641ZM159.053 101.268C159.053 100.971 159.14 100.738 159.312 100.569C159.488 100.401 159.713 100.317 159.987 100.317C160.261 100.317 160.485 100.401 160.657 100.569C160.834 100.738 160.922 100.971 160.922 101.268C160.922 101.57 160.834 101.805 160.657 101.974C160.485 102.142 160.261 102.226 159.987 102.226C159.713 102.226 159.488 102.142 159.312 101.974C159.14 101.805 159.053 101.57 159.053 101.268ZM162.825 100.387L160.517 104.5H159.717L162.021 100.387H162.825ZM159.982 100.81C159.766 100.81 159.658 100.963 159.658 101.268C159.658 101.577 159.766 101.733 159.982 101.733C160.087 101.733 160.17 101.695 160.228 101.621C160.287 101.542 160.316 101.425 160.316 101.268C160.316 100.963 160.205 100.81 159.982 100.81ZM161.633 103.613C161.633 103.311 161.719 103.078 161.891 102.914C162.067 102.745 162.293 102.661 162.567 102.661C162.841 102.661 163.062 102.745 163.231 102.914C163.403 103.078 163.49 103.311 163.49 103.613C163.49 103.914 163.403 104.15 163.231 104.318C163.062 104.487 162.841 104.571 162.567 104.571C162.289 104.571 162.063 104.487 161.891 104.318C161.719 104.15 161.633 103.914 161.633 103.613ZM162.561 103.155C162.338 103.155 162.227 103.307 162.227 103.613C162.227 103.922 162.338 104.077 162.561 104.077C162.781 104.077 162.89 103.922 162.89 103.613C162.89 103.307 162.781 103.155 162.561 103.155Z" fill="#091E42"/>
<path opacity="0.7" d="M227.005 110.819H118.871C117.05 110.819 115.573 112.295 115.573 114.117V114.117C115.573 115.939 117.05 117.415 118.871 117.415H227.005C228.826 117.415 230.303 115.939 230.303 114.117C230.303 112.295 228.826 110.819 227.005 110.819Z" fill="#EAEAEA"/>
<path d="M129.039 110.894H118.755C116.997 110.894 115.572 112.319 115.572 114.077C115.572 115.834 116.997 117.26 118.755 117.26H129.039C130.797 117.26 132.222 115.834 132.222 114.077C132.222 112.319 130.797 110.894 129.039 110.894Z" fill="url(#paint2_linear_226_146)"/>
</g>
</g>
<g filter="url(#filter1_d_226_146)">
<path d="M252.577 53.638C266.062 53.638 276.994 42.7061 276.994 29.2208C276.994 15.7356 266.062 4.80371 252.577 4.80371C239.092 4.80371 228.16 15.7356 228.16 29.2208C228.16 42.7061 239.092 53.638 252.577 53.638Z" fill="white"/>
</g>
<path d="M252.845 10.7061C251.992 10.7061 251.173 11.0453 250.569 11.6492C249.965 12.253 249.626 13.072 249.626 13.9259C249.626 14.4907 249.775 15.0454 250.058 15.5344C250.34 16.0234 250.746 16.4294 251.235 16.7119V20.3656H246.406C242.868 20.3656 239.966 23.2677 239.966 26.8053V33.245H236.746V36.4648H239.966V39.6847C239.966 41.4444 241.426 42.9045 243.186 42.9045H262.505C264.265 42.9045 265.725 41.4444 265.725 39.6847V36.4648H268.945V33.245H265.725V26.8053C265.725 23.2677 262.823 20.3656 259.285 20.3656H254.455V16.7087C254.944 16.4266 255.35 16.021 255.633 15.5326C255.916 15.0442 256.064 14.4902 256.065 13.9259C256.065 13.072 255.726 12.253 255.122 11.6492C254.519 11.0453 253.7 10.7061 252.845 10.7061ZM246.406 23.5855H251.235H254.455H259.285C261.083 23.5855 262.505 25.0075 262.505 26.8053V39.6847H257.675V37.5381H248.016V39.6847H243.186V26.8053C243.186 25.0075 244.608 23.5855 246.406 23.5855ZM248.821 28.4152C248.181 28.4152 247.566 28.6696 247.113 29.1225C246.66 29.5754 246.406 30.1896 246.406 30.8301C246.406 31.4705 246.66 32.0848 247.113 32.5377C247.566 32.9906 248.181 33.245 248.821 33.245C249.461 33.245 250.075 32.9906 250.529 32.5377C250.981 32.0848 251.235 31.4705 251.235 30.8301C251.235 30.1896 250.981 29.5754 250.529 29.1225C250.075 28.6696 249.461 28.4152 248.821 28.4152ZM256.871 28.4152C256.23 28.4152 255.615 28.6696 255.163 29.1225C254.71 29.5754 254.455 30.1896 254.455 30.8301C254.455 31.4705 254.71 32.0848 255.163 32.5377C255.615 32.9906 256.23 33.245 256.871 33.245C257.511 33.245 258.125 32.9906 258.578 32.5377C259.031 32.0848 259.285 31.4705 259.285 30.8301C259.285 30.1896 259.031 29.5754 258.578 29.1225C258.125 28.6696 257.511 28.4152 256.871 28.4152Z" fill="url(#paint3_linear_226_146)"/>
<path d="M273.238 10.7063C273.238 7.74247 270.835 5.33984 267.871 5.33984C264.908 5.33984 262.505 7.74247 262.505 10.7063C262.505 13.67 264.908 16.0727 267.871 16.0727C270.835 16.0727 273.238 13.67 273.238 10.7063Z" fill="#EA4545"/>
<path d="M265.635 12.468V11.8219L268.159 8.20068H269.196V11.7243H269.895V12.468H269.196V13.61H268.355V12.468H265.635ZM268.392 9.07218L266.62 11.7243H268.392V9.07218Z" fill="white"/>
</g>
<defs>
<filter id="filter0_d_226_146" x="61.8361" y="8.95708" width="216.437" height="168.42" filterUnits="userSpaceOnUse" color-interpolation-filters="sRGB">
<feFlood flood-opacity="0" result="BackgroundImageFix"/>
<feColorMatrix in="SourceAlpha" type="matrix" values="0 0 0 0 0 0 0 0 0 0 0 0 0 0 0 0 0 0 127 0" result="hardAlpha"/>
<feOffset dx="-10.8758" dy="6.52547"/>
<feGaussianBlur stdDeviation="13.5947"/>
<feComposite in2="hardAlpha" operator="out"/>
<feColorMatrix type="matrix" values="0 0 0 0 0.1158 0 0 0 0 0.03 0 0 0 0 0.225 0 0 0 0.15 0"/>
<feBlend mode="normal" in2="BackgroundImageFix" result="effect1_dropShadow_226_146"/>
<feBlend mode="normal" in="SourceGraphic" in2="effect1_dropShadow_226_146" result="shape"/>
</filter>
<filter id="filter1_d_226_146" x="201.965" y="0.335455" width="81.6595" height="81.6597" filterUnits="userSpaceOnUse" color-interpolation-filters="sRGB">
<feFlood flood-opacity="0" result="BackgroundImageFix"/>
<feColorMatrix in="SourceAlpha" type="matrix" values="0 0 0 0 0 0 0 0 0 0 0 0 0 0 0 0 0 0 127 0" result="hardAlpha"/>
<feOffset dx="-9.78295" dy="11.9444"/>
<feGaussianBlur stdDeviation="8.20632"/>
<feComposite in2="hardAlpha" operator="out"/>
<feColorMatrix type="matrix" values="0 0 0 0 0.1158 0 0 0 0 0.03 0 0 0 0 0.225 0 0 0 0.05 0"/>
<feBlend mode="normal" in2="BackgroundImageFix" result="effect1_dropShadow_226_146"/>
<feBlend mode="normal" in="SourceGraphic" in2="effect1_dropShadow_226_146" result="shape"/>
</filter>
<linearGradient id="paint0_linear_226_146" x1="142.21" y1="72.2576" x2="142.21" y2="243.985" gradientUnits="userSpaceOnUse">
<stop stop-color="#FFEDE3"/>
<stop offset="1" stop-color="white" stop-opacity="0"/>
</linearGradient>
<linearGradient id="paint1_linear_226_146" x1="110.773" y1="69.0481" x2="151.813" y2="95.5502" gradientUnits="userSpaceOnUse">
<stop stop-color="white"/>
<stop offset="0.0001" stop-color="#C583E0"/>
<stop offset="0.729167" stop-color="#FFBC7D"/>
<stop offset="1" stop-color="white"/>
</linearGradient>
<linearGradient id="paint2_linear_226_146" x1="121.83" y1="103.596" x2="135.899" y2="119.955" gradientUnits="userSpaceOnUse">
<stop offset="0.0144231" stop-color="#FF6107"/>
<stop offset="1" stop-color="#FDC9AC"/>
</linearGradient>
<linearGradient id="paint3_linear_226_146" x1="248.848" y1="-26.2043" x2="302.281" y2="-2.44917" gradientUnits="userSpaceOnUse">
<stop offset="0.0144231" stop-color="#FF6107"/>
<stop offset="1" stop-color="#FDC9AC"/>
</linearGradient>
<clipPath id="clip0_226_146">
<rect width="285" height="225.758" fill="white"/>
</clipPath>
</defs>
</svg>
