<svg width="35" height="35" viewBox="0 0 35 35" fill="none" xmlns="http://www.w3.org/2000/svg">
<path d="M29.2205 19.8295C29.3223 11.6442 21.4089 5.40528 13.618 7.11476C10.6951 7.72554 8.07076 9.32185 6.18423 11.6365C4.29771 13.9511 3.26355 16.8435 3.25488 19.8295C3.9659 37.0486 28.5081 37.052 29.2205 19.8295ZM16.2376 29.1264C13.7725 29.1247 11.4087 28.1447 9.66558 26.4016C7.92243 24.6584 6.94241 22.2947 6.94077 19.8295C7.45097 7.49618 25.0228 7.49955 25.5346 19.8296C25.532 22.2945 24.5516 24.6576 22.8087 26.4006C21.0657 28.1435 18.7025 29.1238 16.2376 29.1264Z" fill="#FF6107"/>
<path d="M16.2373 11.627C14.0625 11.6296 11.9776 12.4947 10.4397 14.0325C8.90193 15.5703 8.03683 17.6553 8.03418 19.8301C8.48559 30.7125 23.9907 30.7093 24.4404 19.83C24.4378 17.6552 23.5727 15.5703 22.0348 14.0325C20.497 12.4947 18.4121 11.6296 16.2373 11.627ZM20.9568 17.7793L14.9303 22.7285C14.8313 22.809 14.7079 22.8534 14.5803 22.8543C14.5075 22.8537 14.4355 22.8384 14.3688 22.8093C14.3021 22.7801 14.2419 22.7378 14.192 22.6848L11.4686 19.8902C11.3707 19.7853 11.318 19.646 11.3218 19.5026C11.3256 19.3591 11.3856 19.2229 11.4888 19.1232C11.5921 19.0235 11.7304 18.9684 11.8739 18.9697C12.0174 18.971 12.1546 19.0286 12.2561 19.1301L14.6241 21.5636L20.2623 16.9371C20.3744 16.8482 20.5168 16.8069 20.659 16.8219C20.8012 16.8369 20.9318 16.9071 21.0228 17.0175C21.1138 17.1278 21.1578 17.2694 21.1455 17.4119C21.1332 17.5543 21.0654 17.6862 20.9568 17.7793Z" fill="#FF6107"/>
<path d="M13.4189 4.77969H13.6158V6.00469C15.0545 5.7322 16.527 5.68607 17.9799 5.86797C18.2752 5.90078 18.5869 5.95 18.9369 6.02109V4.77969C19.0895 4.79347 19.2432 4.77551 19.3884 4.72694C19.5336 4.67837 19.6672 4.60024 19.7808 4.49749C19.8943 4.39473 19.9854 4.26957 20.0481 4.12989C20.1109 3.99021 20.1441 3.83904 20.1455 3.6859V3.28125C20.1447 2.99143 20.0292 2.71372 19.8242 2.50879C19.6193 2.30385 19.3416 2.18835 19.0518 2.1875H13.4189C13.1291 2.18835 12.8514 2.30385 12.6465 2.50879C12.4415 2.71372 12.326 2.99143 12.3252 3.28125V3.68594C12.326 3.97576 12.4416 4.25346 12.6465 4.45839C12.8514 4.66333 13.1291 4.77883 13.4189 4.77969Z" fill="#FF6107"/>
<path d="M4.22791 10.8603L4.3209 10.7674L4.97168 11.4182C5.79173 10.3075 6.77436 9.32674 7.88653 8.50878L7.23575 7.858C8.30413 6.82773 6.72876 5.17823 5.65528 6.20097L2.61465 9.24706C2.51212 9.34754 2.43074 9.46754 2.37533 9.59997C2.31991 9.7324 2.29158 9.87459 2.292 10.0182C2.29482 10.2411 2.36198 10.4585 2.4854 10.6442C2.60882 10.8299 2.78325 10.9761 2.98772 11.065C3.19219 11.154 3.41801 11.182 3.63801 11.1457C3.85802 11.1094 4.06286 11.0103 4.22791 10.8603Z" fill="#FF6107"/>
<path d="M28.8271 26.25C28.8271 26.3218 28.8412 26.393 28.8687 26.4593C28.8962 26.5257 28.9364 26.586 28.9872 26.6368C29.038 26.6876 29.0983 26.7279 29.1647 26.7553C29.2311 26.7828 29.3022 26.7969 29.374 26.7969H32.1629C32.3079 26.7969 32.447 26.7393 32.5496 26.6367C32.6521 26.5341 32.7097 26.395 32.7097 26.25C32.7097 26.105 32.6521 25.9659 32.5496 25.8633C32.447 25.7607 32.3079 25.7031 32.1629 25.7031H29.374C29.3022 25.7031 29.2311 25.7172 29.1647 25.7447C29.0983 25.7721 29.038 25.8124 28.9872 25.8632C28.9364 25.914 28.8962 25.9743 28.8687 26.0407C28.8412 26.107 28.8271 26.1782 28.8271 26.25Z" fill="#FF6107"/>
<path d="M32.1634 28.7109H27.4054C27.2622 28.7137 27.1259 28.7726 27.0256 28.8748C26.9253 28.9771 26.8691 29.1146 26.8691 29.2578C26.8691 29.4011 26.9253 29.5386 27.0256 29.6408C27.1259 29.7431 27.2623 29.8019 27.4055 29.8047H32.1634C32.3066 29.8019 32.4429 29.7431 32.5432 29.6408C32.6435 29.5385 32.6997 29.401 32.6997 29.2578C32.6997 29.1146 32.6435 28.9771 32.5432 28.8748C32.4429 28.7726 32.3066 28.7137 32.1634 28.7109Z" fill="#FF6107"/>
<path d="M32.1607 31.7188H23.9191C23.7759 31.7215 23.6395 31.7804 23.5393 31.8827C23.439 31.9849 23.3828 32.1224 23.3828 32.2656C23.3828 32.4089 23.439 32.5464 23.5393 32.6486C23.6396 32.7509 23.776 32.8097 23.9191 32.8125H32.1607C32.3039 32.8097 32.4403 32.7509 32.5406 32.6486C32.6408 32.5464 32.697 32.4088 32.697 32.2656C32.697 32.1224 32.6408 31.9849 32.5406 31.8826C32.4403 31.7804 32.3039 31.7215 32.1607 31.7188Z" fill="#FF6107"/>
</svg>
