<svg width="35" height="35" viewBox="0 0 35 35" fill="none" xmlns="http://www.w3.org/2000/svg">
<path d="M34.437 18.7746C34.4911 20.0667 34.0304 21.3276 33.156 22.2806C32.2816 23.2335 31.0649 23.8007 29.7728 23.8578C29.6973 23.8613 29.6219 23.863 29.5466 23.863C29.2033 23.8628 28.861 23.8256 28.5256 23.7522C27.5306 25.2886 26.2258 26.6003 24.6948 27.6036C23.1638 28.6068 21.4402 29.2795 19.6343 29.5785C19.4207 30.206 18.9946 30.7391 18.4296 31.0858C17.8646 31.4324 17.1963 31.5708 16.5401 31.4769C15.8839 31.383 15.2812 31.0629 14.836 30.5717C14.3909 30.0806 14.1313 29.4494 14.1022 28.7871C14.0731 28.1249 14.2763 27.4734 14.6766 26.945C15.0769 26.4167 15.6493 26.0449 16.2947 25.8938C16.9401 25.7428 17.618 25.8219 18.2112 26.1176C18.8045 26.4134 19.2757 26.9071 19.5436 27.5134C22.086 27.0432 24.3827 25.6958 26.0336 23.7059C27.6845 21.7161 28.5848 19.21 28.5776 16.6245C28.5776 10.5163 23.6082 5.54688 17.4999 5.54688C11.3917 5.54688 6.42231 10.5163 6.42231 16.6245C6.42198 18.5133 6.90469 20.3708 7.82457 22.0204C7.85574 22.0748 7.87915 22.1334 7.89409 22.1943C7.98294 22.4413 7.97344 22.7129 7.86756 22.9531C7.76168 23.1932 7.56752 23.3835 7.32527 23.4844C6.73208 23.7341 6.09498 23.8626 5.4514 23.8625C5.37566 23.8625 5.29976 23.8608 5.2237 23.8573C3.93217 23.7995 2.71625 23.232 1.84254 22.2791C0.968827 21.3262 0.508642 20.0657 0.562887 18.7741C0.584694 18.259 0.572526 17.7994 0.560631 17.355C0.549557 16.9366 0.538004 16.5039 0.557008 16.0523C0.613724 14.7911 1.15624 13.6008 2.07093 12.7307C2.98562 11.8605 4.20153 11.378 5.46398 11.3843C7.49125 6.74597 12.1228 3.49609 17.4999 3.49609C22.8771 3.49609 27.5087 6.74597 29.536 11.3844C30.7986 11.3772 32.0149 11.8592 32.9297 12.7294C33.8446 13.5996 34.3869 14.7902 34.4428 16.0516C34.4619 16.5038 34.4504 16.9364 34.4392 17.3549C34.4274 17.7993 34.4152 18.2591 34.437 18.7746ZM26.0999 16.6245C26.0994 17.942 25.7963 19.2418 25.214 20.4237C24.6317 21.6055 23.7857 22.6379 22.7413 23.441C21.6969 24.2442 20.482 24.7968 19.1903 25.0562C17.8985 25.3156 16.5645 25.2748 15.291 24.937L11.8101 26.9473C11.6344 27.0487 11.4326 27.0957 11.2303 27.0825C11.0279 27.0692 10.834 26.9963 10.6731 26.8728C10.5121 26.7493 10.3915 26.5809 10.3263 26.3889C10.2611 26.1968 10.2543 25.9897 10.3068 25.7938L11.1965 22.4751C9.72319 20.8827 8.90344 18.7939 8.90034 16.6245C8.90034 11.8812 12.7579 8.02258 17.4999 8.02258C22.242 8.02258 26.0999 11.8812 26.0999 16.6245ZM15.1091 16.6245C15.1091 16.3526 15.001 16.0917 14.8087 15.8995C14.6165 15.7072 14.3556 15.5991 14.0837 15.5991H14.082C13.8793 15.5995 13.6812 15.66 13.5128 15.7729C13.3445 15.8858 13.2133 16.046 13.136 16.2334C13.0587 16.4208 13.0387 16.6269 13.0784 16.8257C13.1182 17.0245 13.216 17.207 13.3595 17.3502C13.503 17.4935 13.6857 17.5909 13.8846 17.6303C14.0834 17.6697 14.2895 17.6493 14.4767 17.5717C14.664 17.494 14.824 17.3626 14.9366 17.194C15.0492 17.0254 15.1093 16.8272 15.1093 16.6245H15.1091ZM18.5255 16.6245C18.5255 16.5909 18.5236 16.5574 18.5201 16.524C18.5168 16.4905 18.5118 16.4572 18.5051 16.4242C18.499 16.3914 18.4907 16.3589 18.4804 16.3271C18.4709 16.295 18.4593 16.2636 18.447 16.2321C18.4347 16.2007 18.4197 16.1713 18.4039 16.1419C18.3883 16.1123 18.3712 16.0836 18.3527 16.0558C18.334 16.0276 18.3139 16.0005 18.2924 15.9744C18.2714 15.9483 18.2488 15.9234 18.2248 15.8999C18.2016 15.876 18.1763 15.8534 18.1503 15.8315C18.1243 15.811 18.0969 15.7905 18.0689 15.7721C18.0411 15.7535 18.0124 15.7364 17.9828 15.7208C17.9534 15.7051 17.9227 15.6907 17.8919 15.6777C17.8611 15.6648 17.8296 15.6537 17.7976 15.6442C17.7336 15.6237 17.6676 15.6104 17.6007 15.6046C17.5003 15.5949 17.399 15.5998 17.2999 15.6189C17.267 15.6257 17.2343 15.6341 17.2022 15.6442C17.1702 15.6536 17.1387 15.6648 17.1079 15.6777C17.0771 15.6907 17.0464 15.7051 17.017 15.7208C16.9876 15.7365 16.9589 15.7536 16.9308 15.7721C16.9027 15.7905 16.8754 15.811 16.8502 15.8315C16.8235 15.8534 16.7989 15.876 16.775 15.8999C16.751 15.9234 16.7284 15.9483 16.7073 15.9744C16.6861 16.0005 16.6663 16.0277 16.6478 16.0558C16.6291 16.0836 16.6117 16.1123 16.5959 16.1419C16.5801 16.1712 16.566 16.2013 16.5534 16.2321C16.5405 16.2632 16.5291 16.2949 16.5193 16.3271C16.5098 16.3586 16.5016 16.3914 16.4947 16.4242C16.488 16.4572 16.4829 16.4905 16.4796 16.524C16.4763 16.5575 16.4748 16.591 16.4748 16.6245C16.4748 16.658 16.4763 16.6922 16.4796 16.7257C16.483 16.759 16.488 16.792 16.4947 16.8248C16.5016 16.8576 16.5098 16.8904 16.5193 16.9226C16.5291 16.9546 16.5405 16.986 16.5534 17.0169C16.5659 17.0479 16.5801 17.0783 16.5959 17.1078C16.6115 17.1372 16.6294 17.1659 16.6478 17.1939C16.6663 17.2218 16.6861 17.2488 16.7073 17.2746C16.7286 17.3008 16.7512 17.3259 16.775 17.3498C16.7989 17.373 16.8235 17.3963 16.8502 17.4175C16.8759 17.4388 16.9028 17.4587 16.9308 17.477C16.9589 17.4954 16.9875 17.5132 17.017 17.5289C17.0764 17.5599 17.1383 17.5855 17.2022 17.6055C17.2343 17.615 17.2671 17.6232 17.2999 17.6301C17.3658 17.6436 17.433 17.6502 17.5002 17.6499C17.7718 17.6492 18.0322 17.5413 18.2248 17.3498C18.2721 17.3018 18.3149 17.2497 18.3527 17.1939C18.3711 17.1659 18.3882 17.1372 18.4039 17.1078C18.4197 17.0784 18.434 17.0477 18.447 17.0169C18.46 16.9861 18.4709 16.954 18.4804 16.9226C18.4907 16.8905 18.4989 16.8579 18.5051 16.8248C18.5118 16.792 18.5168 16.759 18.5201 16.7257C18.5236 16.692 18.5253 16.6582 18.5253 16.6244L18.5255 16.6245ZM21.9435 16.6245C21.9435 16.3526 21.8355 16.0917 21.6432 15.8995C21.4509 15.7072 21.1901 15.5991 20.9181 15.5991H20.9161C20.7134 15.5995 20.5154 15.66 20.347 15.7729C20.1786 15.8858 20.0475 16.0461 19.9702 16.2335C19.8929 16.4209 19.8729 16.627 19.9127 16.8258C19.9525 17.0245 20.0503 17.2071 20.1938 17.3503C20.3372 17.4935 20.52 17.5909 20.7188 17.6303C20.9177 17.6697 21.1237 17.6493 21.311 17.5717C21.4982 17.494 21.6583 17.3626 21.7708 17.194C21.8834 17.0254 21.9435 16.8272 21.9435 16.6245Z" fill="#FF6107"/>
</svg>
