<svg width="35" height="35" viewBox="0 0 35 35" fill="none" xmlns="http://www.w3.org/2000/svg">
<path fill-rule="evenodd" clip-rule="evenodd" d="M19.2061 1.18207C20.0605 1.2708 20.717 1.93443 20.7965 2.78975L21.0169 5.161C21.1371 6.45436 22.6553 7.07609 23.6481 6.23855L25.4676 4.70381C26.1242 4.15003 27.0574 4.13738 27.7286 4.67325C28.6542 5.41208 29.4981 6.24914 30.2445 7.16837C30.7859 7.83528 30.7809 8.7688 30.2323 9.42984L28.7118 11.2618C27.8824 12.2613 28.5162 13.7744 29.8105 13.8843L32.1842 14.0857C33.0404 14.1584 33.7095 14.8101 33.8047 15.6642C33.9355 16.8379 33.9402 18.0305 33.8181 19.206C33.7293 20.0604 33.0657 20.7169 32.2104 20.7964L31.7385 20.8403C30.4042 19.7512 28.7004 19.0978 26.8439 19.0978C26.0672 19.0978 25.3173 19.2126 24.6099 19.4253C25.8675 14.7708 22.3732 10.1352 17.5 10.1352C13.4326 10.1352 10.1353 13.4326 10.1353 17.4999C10.1353 22.373 14.7707 25.8674 19.4254 24.6099C18.6599 27.1544 19.2564 29.8787 20.9418 31.8598L20.9142 32.1841C20.8416 33.0403 20.1898 33.7094 19.3357 33.8046C18.1621 33.9354 16.9695 33.9402 15.7939 33.818C14.9395 33.7293 14.283 33.0656 14.2035 32.2103L13.9831 29.8391C13.863 28.5457 12.3447 27.924 11.3519 28.7615L9.53239 30.2963C8.87587 30.85 7.94263 30.8627 7.27141 30.3268C6.34582 29.588 5.50192 28.751 4.75565 27.8317C4.21417 27.1648 4.21916 26.2313 4.76781 25.5702L6.28826 23.7383C7.11773 22.7387 6.48391 21.2257 5.18966 21.1157L2.81595 20.9143C1.95968 20.8417 1.29058 20.1899 1.19542 19.3359C1.06465 18.162 1.05986 16.9698 1.18202 15.794C1.27082 14.9397 1.93439 14.2831 2.7897 14.2036L5.16095 13.9833C6.45431 13.8631 7.07604 12.3448 6.2385 11.352L4.70376 9.53251C4.14998 8.87599 4.13733 7.94275 4.6732 7.27152C5.41203 6.34594 6.24902 5.50204 7.16832 4.75569C7.83523 4.21422 8.76875 4.21921 9.42979 4.76786L11.2617 6.28831C12.2613 7.11778 13.7744 6.48396 13.8843 5.18971L14.0857 2.816C14.1583 1.95973 14.8101 1.29063 15.6642 1.19547C16.8392 1.06456 18.0301 1.05991 19.206 1.18207H19.2061ZM26.8439 19.7814C22.9434 19.7814 19.7814 22.9434 19.7814 26.8439C19.7814 30.7444 22.9434 33.9063 26.8439 33.9063C30.7443 33.9063 33.9063 30.7444 33.9063 26.8439C33.9063 22.9435 30.7443 19.7814 26.8439 19.7814ZM31.0492 25.3612L25.8447 30.4088C25.3879 30.8515 24.6445 30.7977 24.2578 30.288L21.8857 27.1646C21.5314 26.6976 21.6228 26.0319 22.0897 25.6776C22.5567 25.3234 23.2225 25.4148 23.5767 25.8817L25.223 28.0493L29.5665 23.8367C29.9874 23.4273 30.6606 23.4366 31.0701 23.8576C31.4795 24.2785 31.4702 24.9517 31.0493 25.3611L31.0492 25.3612ZM12.7011 22.1479C14.5001 24.0051 17.2342 24.6777 19.7174 23.8042C20.1619 22.7636 20.8275 21.8401 21.6554 21.0927C20.686 19.8494 19.1838 19.0392 17.5002 19.0139C15.3773 19.0459 13.5427 20.3254 12.7011 22.1479ZM17.5001 12.5863C16.1347 12.5863 15.0279 13.6932 15.0279 15.0585C15.0279 16.4239 16.1347 17.5308 17.5001 17.5308C18.8654 17.5308 19.9723 16.4239 19.9723 15.0585C19.9723 13.6932 18.8654 12.5863 17.5001 12.5863Z" fill="#FF6107"/>
</svg>
