<svg width="35" height="35" viewBox="0 0 35 35" fill="none" xmlns="http://www.w3.org/2000/svg">
<path d="M28.5935 10.2005C28.4824 9.76606 28.1681 9.43831 27.8082 9.33721C27.1687 9.15891 24.0641 8.74967 17.5016 8.74967C10.939 8.74967 7.83504 9.15907 7.19298 9.33772C6.83643 9.43689 6.52222 9.76457 6.40964 10.2005C6.25097 10.8194 5.83488 13.4104 5.83488 17.4997C5.83488 21.5888 6.25097 24.18 6.41008 24.8007C6.5207 25.2334 6.83498 25.5611 7.19336 25.6617C7.83504 25.8403 10.939 26.2497 17.5016 26.2497C24.0641 26.2497 27.1687 25.8405 27.8101 25.6617C28.1667 25.5625 28.4809 25.2348 28.5935 24.7989C28.7522 24.18 29.1682 21.583 29.1682 17.4997C29.1682 13.4163 28.7522 10.8194 28.5935 10.2005ZM31.4187 9.47619C32.0849 12.0747 32.0849 17.4997 32.0849 17.4997C32.0849 17.4997 32.0849 22.9247 31.4187 25.5231C31.0476 26.9603 29.9645 28.0898 28.5916 28.4716C26.1001 29.1663 17.5016 29.1663 17.5016 29.1663C17.5016 29.1663 8.90816 29.1663 6.41149 28.4716C5.0335 28.0845 3.95044 26.9549 3.58432 25.5231C2.91821 22.9247 2.91821 17.4997 2.91821 17.4997C2.91821 17.4997 2.91821 12.0747 3.58432 9.47619C3.95551 8.03907 5.03859 6.90952 6.41149 6.5277C8.90816 5.83301 17.5016 5.83301 17.5016 5.83301C17.5016 5.83301 26.1001 5.83301 28.5916 6.5277C29.9696 6.91483 31.0527 8.04437 31.4187 9.47619ZM14.5849 22.6038V12.3955L23.3349 17.4997L14.5849 22.6038Z" fill="black"/>
</svg>
