<svg width="42" height="42" viewBox="0 0 42 42" fill="none" xmlns="http://www.w3.org/2000/svg">
<path d="M19 1.1547C20.2376 0.440169 21.7624 0.440169 23 1.1547L37.1865 9.3453C38.4241 10.0598 39.1865 11.3803 39.1865 12.8094V29.1906C39.1865 30.6197 38.4241 31.9402 37.1865 32.6547L23 40.8453C21.7624 41.5598 20.2376 41.5598 19 40.8453L4.81347 32.6547C3.57586 31.9402 2.81347 30.6197 2.81347 29.1906V12.8094C2.81347 11.3803 3.57586 10.0598 4.81347 9.3453L19 1.1547Z" fill="#1F57C3"/>
<path d="M20.56 13L18.21 18.76L12 19.22L16.76 23.24L15.27 29.28L20.56 26M20.56 13L22.91 18.76L29.12 19.22L24.36 23.24L25.85 29.28L20.56 26" stroke="white" stroke-width="2" stroke-linecap="round" stroke-linejoin="round"/>
</svg>
