<svg width="42" height="42" viewBox="0 0 42 42" fill="none" xmlns="http://www.w3.org/2000/svg">
<g clip-path="url(#clip0_2887_2856)">
<path fill-rule="evenodd" clip-rule="evenodd" d="M29.5073 20.8836L28.9144 21.2616C27.8451 21.9422 26.5517 22.1767 25.3115 21.9149C24.0713 21.6531 22.9831 20.9158 22.2801 19.8611L20.9991 17.9388L19.7181 19.8611C19.015 20.9158 17.9268 21.6531 16.6866 21.9149C15.4464 22.1767 14.153 21.9422 13.0837 21.2616L12.4908 20.8836L13.7977 25.8461H28.2005L29.5073 20.8836ZM10.7478 15.9438C9.50722 15.1555 7.94353 16.2975 8.3183 17.7191L10.9901 27.8734C11.081 28.218 11.2834 28.523 11.5656 28.7406C11.8479 28.9583 12.1942 29.0765 12.5506 29.0769H29.4443C29.801 29.0769 30.1477 28.9588 30.4303 28.7411C30.7128 28.5234 30.9154 28.2183 31.0064 27.8734L33.6782 17.7191C34.053 16.2975 32.4893 15.1555 31.2487 15.9438L27.1779 18.5349C26.8215 18.7617 26.3903 18.8399 25.9769 18.7526C25.5635 18.6653 25.2008 18.4196 24.9665 18.068L22.3415 14.1313C22.1939 13.9101 21.9941 13.7287 21.7596 13.6032C21.5252 13.4778 21.2634 13.4121 20.9975 13.4121C20.7315 13.4121 20.4697 13.4778 20.2353 13.6032C20.0008 13.7287 19.801 13.9101 19.6535 14.1313L17.0285 18.068C16.7944 18.4198 16.4317 18.6659 16.0183 18.7535C15.6049 18.8411 15.1736 18.7632 14.817 18.5365L10.7478 15.9438Z" fill="#086ADD"/>
<path fill-rule="evenodd" clip-rule="evenodd" d="M12.1152 31.0959C12.1152 30.6674 12.2854 30.2565 12.5884 29.9536C12.8913 29.6507 13.3022 29.4805 13.7306 29.4805H28.6745C29.103 29.4805 29.5138 29.6507 29.8168 29.9536C30.1197 30.2565 30.2899 30.6674 30.2899 31.0959C30.2899 31.5243 30.1197 31.9352 29.8168 32.2381C29.5138 32.541 29.103 32.7112 28.6745 32.7112H13.7306C13.3022 32.7112 12.8913 32.541 12.5884 32.2381C12.2854 31.9352 12.1152 31.5243 12.1152 31.0959Z" fill="#086ADD"/>
<path fill-rule="evenodd" clip-rule="evenodd" d="M21 38.7692C30.8135 38.7692 38.7692 30.8135 38.7692 21C38.7692 11.1865 30.8135 3.23077 21 3.23077C11.1865 3.23077 3.23077 11.1865 3.23077 21C3.23077 30.8135 11.1865 38.7692 21 38.7692ZM21 42C32.5985 42 42 32.5985 42 21C42 9.40154 32.5985 0 21 0C9.40154 0 0 9.40154 0 21C0 32.5985 9.40154 42 21 42Z" fill="#086ADD"/>
</g>
<defs>
<clipPath id="clip0_2887_2856">
<rect width="42" height="42" fill="white"/>
</clipPath>
</defs>
</svg>
