<svg width="115" height="34" viewBox="0 0 115 34" fill="none" xmlns="http://www.w3.org/2000/svg">
<g clip-path="url(#clip0_2887_2837)">
<path d="M31.4686 21.4719C29.5997 21.4719 27.8484 20.689 26.2572 19.4146L26.6447 17.6155L26.6615 17.5488C27.0065 15.6333 28.1011 12.4179 31.4686 12.4179C33.9941 12.4179 36.0484 14.4504 36.0484 16.949C36.0399 19.4395 33.9858 21.4719 31.4686 21.4719ZM31.4686 7.8286C27.1665 7.8286 23.8328 10.5939 22.4775 15.1417C20.4064 12.0682 18.8404 8.37837 17.9229 5.27148H13.2926V17.1906C13.2926 19.5395 11.3562 21.455 8.98209 21.455C6.60797 21.455 4.67184 19.5395 4.67184 17.1906V5.27148H0.0410684V17.1906C0.0242227 22.0717 4.04001 26.0779 8.97333 26.0779C13.9067 26.0779 17.9231 22.0717 17.9231 17.1906V15.1917C18.8238 17.049 19.9266 18.923 21.2653 20.589L18.428 33.7824H23.168L25.222 24.2122C27.0236 25.3533 29.0947 26.0697 31.4689 26.0697C36.5453 26.0697 40.679 21.955 40.679 16.9324C40.679 11.9182 36.5453 7.8286 31.4689 7.8286" fill="#6FDA44"/>
<path d="M54.8145 8.34587L57.8032 20.265L61.0951 8.34587H65.0181L59.9585 25.5708H56.0353L52.9289 13.5765L49.8307 25.5623H45.9077L40.8477 8.33765H44.7709L48.0626 20.2568L51.0512 8.33765H54.8143L54.8145 8.34587ZM74.405 7.82943C69.3117 7.82943 65.1866 11.919 65.1866 16.9499C65.1866 21.9892 69.32 26.0705 74.405 26.0705C79.4984 26.0705 83.6319 21.9892 83.6319 16.9499C83.6319 11.9108 79.4984 7.82943 74.405 7.82943ZM74.405 22.3223C71.408 22.3223 68.9833 19.9234 68.9833 16.9583C68.9833 13.9932 71.4163 11.5943 74.405 11.5943C77.4022 11.5943 79.8266 13.993 79.8266 16.9583C79.8266 19.9152 77.4022 22.3223 74.405 22.3223ZM94.8372 12.2023C92.2023 12.2023 90.0724 14.3179 90.0724 16.9165V25.5623H86.1237V8.34587H90.0724V10.9945C90.0724 10.9945 91.756 8.33743 95.2161 8.33743H96.4284V12.2023H94.8372ZM108.089 16.2836C110.892 14.7176 112.795 11.7441 112.795 8.33743H108.846C108.846 11.211 106.489 13.5432 103.584 13.5432H103.054V0.0332031H99.1057V25.5621H103.054V17.4496H103.526C103.913 17.4496 104.418 17.6996 104.645 18.0076L110.252 25.5623H114.983L108.089 16.2836Z" fill="black"/>
</g>
<defs>
<clipPath id="clip0_2887_2837">
<rect width="115" height="34" fill="white"/>
</clipPath>
</defs>
</svg>
